<svg width="569" height="521" viewBox="0 0 569 521" fill="none" xmlns="http://www.w3.org/2000/svg">
<path d="M428.578 267.692C476.366 278.036 523.67 247.738 534.023 200.153C544.376 152.568 513.919 105.437 466.13 95.0932C418.341 84.7491 371.038 115.048 360.685 162.633C350.332 210.218 380.787 257.347 428.578 267.692ZM465.88 96.2414C513.035 106.448 543.085 152.95 532.87 199.903C522.654 246.857 475.982 276.751 428.828 266.544C381.673 256.337 351.622 209.836 361.838 162.882C372.054 115.929 418.726 86.0345 465.88 96.2414Z" fill="#006C93"/>
<path d="M426.356 277.899C429.713 278.626 433.138 279.185 436.535 279.564C436.86 279.6 437.15 279.368 437.185 279.046C437.223 278.725 436.992 278.429 436.665 278.398C431.519 277.825 426.312 276.827 421.328 275.461C421.026 275.369 420.691 275.559 420.604 275.872C420.517 276.185 420.702 276.509 421.017 276.594C422.769 277.072 424.564 277.511 426.356 277.899ZM380.216 253.943C380.414 253.986 380.626 253.927 380.773 253.769C380.994 253.53 380.981 253.161 380.741 252.937C378.839 251.176 376.987 249.321 375.233 247.418C375.016 247.181 374.641 247.161 374.399 247.382C374.161 247.601 374.141 247.974 374.364 248.213C376.136 250.139 378.011 252.017 379.939 253.797C380.021 253.874 380.116 253.921 380.216 253.943ZM357.401 222.358C357.522 222.384 357.651 222.374 357.77 222.32C358.068 222.186 358.198 221.836 358.063 221.542C349.335 202.356 347.096 181.305 351.587 160.664C352.019 158.677 352.516 156.691 353.062 154.763C353.151 154.451 352.969 154.127 352.655 154.038C352.334 153.968 352.016 154.132 351.929 154.443C351.375 156.396 350.874 158.405 350.436 160.415C345.892 181.304 348.159 202.608 356.992 222.025C357.069 222.203 357.227 222.32 357.401 222.358ZM521.158 246.986C521.36 247.03 521.576 246.965 521.725 246.801C532.886 234.236 540.682 218.873 544.272 202.372C545.17 198.245 545.809 194.032 546.173 189.851C546.203 189.528 545.975 189.24 545.636 189.215C545.312 189.188 545.026 189.426 544.999 189.749C544.64 193.881 544.006 198.046 543.119 202.122C539.572 218.424 531.867 233.606 520.84 246.023C520.623 246.266 520.645 246.637 520.891 246.854C520.967 246.921 521.06 246.965 521.158 246.986ZM365.551 126.897C365.78 126.946 366.025 126.858 366.164 126.652C377.845 109.474 395.133 96.2081 414.847 89.2965C415.153 89.1887 415.314 88.8541 415.206 88.5469C415.098 88.2398 414.762 88.0812 414.453 88.1885C394.504 95.1804 377.006 108.607 365.186 125.993C365.004 126.262 365.075 126.628 365.344 126.809C365.41 126.853 365.479 126.881 365.551 126.897ZM543.139 159.265C543.224 159.283 543.313 159.283 543.401 159.262C543.718 159.186 543.913 158.87 543.837 158.556C543.227 156.017 542.505 153.464 541.693 150.97C541.594 150.659 541.261 150.493 540.947 150.591C540.638 150.69 540.469 151.023 540.571 151.332C541.374 153.795 542.089 156.319 542.691 158.827C542.747 159.054 542.926 159.218 543.139 159.265ZM516.45 112.103C516.64 112.144 516.848 112.09 516.996 111.943C517.224 111.711 517.221 111.341 516.991 111.112C513.248 107.429 509.182 104.018 504.905 100.974C504.639 100.786 504.271 100.848 504.082 101.11C503.893 101.374 503.956 101.741 504.221 101.93C508.448 104.936 512.466 108.306 516.165 111.945C516.244 112.026 516.342 112.08 516.45 112.103Z" fill="#006C93"/>
<path d="M138.781 154.224C170.578 161.107 202.051 140.946 208.939 109.287C215.828 77.6246 195.564 46.2677 163.766 39.3849C131.969 32.5021 100.497 52.6605 93.6082 84.3225C86.72 115.982 106.983 147.341 138.781 154.224ZM163.517 40.5305C194.68 47.276 214.537 78.0066 207.786 109.034C201.036 140.062 170.192 159.818 139.031 153.073C107.868 146.328 88.0111 115.597 94.7618 84.5695C101.512 53.5417 132.356 33.7856 163.517 40.5305Z" fill="#006C93"/>
<path d="M131.939 162.531C132.239 162.596 132.543 162.421 132.63 162.121C132.722 161.809 132.543 161.483 132.23 161.391C129.742 160.665 127.273 159.788 124.891 158.785C124.583 158.657 124.245 158.801 124.119 159.098C123.992 159.397 124.132 159.74 124.433 159.867C126.856 160.89 129.37 161.782 131.901 162.52C131.913 162.525 131.926 162.528 131.939 162.531ZM178.094 159.787C178.212 159.813 178.335 159.805 178.453 159.753C183.305 157.673 187.923 155.034 192.175 151.906C192.437 151.714 192.493 151.346 192.297 151.084C192.104 150.822 191.734 150.766 191.472 150.959C187.295 154.03 182.756 156.625 177.984 158.671C177.685 158.799 177.548 159.144 177.677 159.443C177.755 159.626 177.914 159.748 178.094 159.787ZM99.3795 141.555C99.5542 141.593 99.7409 141.55 99.8887 141.427C100.136 141.215 100.163 140.844 99.9535 140.597C86.063 124.431 80.6836 103.255 85.1999 82.4973C85.2689 82.1802 85.0683 81.8664 84.7473 81.7969C84.4289 81.7279 84.1133 81.9301 84.0443 82.2471C79.449 103.368 84.9204 124.912 99.0533 141.361C99.1414 141.463 99.2563 141.528 99.3795 141.555ZM85.4376 79.143C85.7406 79.2086 86.0461 79.0284 86.1308 78.7254C87.5231 73.7228 89.4903 68.8954 91.9792 64.3765C92.1353 64.0917 92.0303 63.7342 91.7442 63.5786C91.4612 63.421 91.0998 63.5248 90.9431 63.8122C88.4127 68.4105 86.4106 73.324 84.9942 78.4125C84.9073 78.7257 85.0897 79.049 85.4042 79.1358C85.4171 79.1386 85.4273 79.1408 85.4376 79.143ZM212.574 67.9121C212.697 67.9387 212.831 67.9276 212.955 67.866C213.249 67.7236 213.371 67.3751 213.23 67.0822C203.946 47.9369 186.671 34.3714 165.837 29.8617L164.875 29.6615C164.556 29.5977 164.245 29.8035 164.181 30.1191C164.118 30.4347 164.32 30.7435 164.636 30.8118C164.638 30.8124 164.641 30.8129 164.643 30.8135L165.587 31.0098C186.067 35.4428 203.042 48.7775 212.167 67.5938C212.249 67.7614 212.401 67.8748 212.574 67.9121ZM126.017 34.2144C126.127 34.2383 126.247 34.2296 126.359 34.1868C128.766 33.2351 131.254 32.4136 133.752 31.7442C134.067 31.6596 134.252 31.3383 134.17 31.0259C134.084 30.7129 133.757 30.5268 133.448 30.61C130.907 31.289 128.375 32.1251 125.924 33.094C125.622 33.2132 125.475 33.5536 125.595 33.8554C125.669 34.048 125.832 34.1744 126.017 34.2144Z" fill="#006C93"/>
<path d="M133.743 388.364C158.358 393.692 182.722 378.086 188.055 353.576C193.387 329.066 177.7 304.792 153.085 299.464C128.471 294.136 104.107 309.741 98.7741 334.251C93.4415 358.761 109.129 383.036 133.743 388.364ZM152.835 300.612C176.813 305.802 192.096 329.451 186.902 353.327C181.707 377.202 157.971 392.406 133.993 387.215C110.015 382.025 94.7325 358.376 99.9271 334.5C105.122 310.625 128.858 295.422 152.835 300.612Z" fill="#006C93"/>
<path d="M142.735 397.463C142.774 397.471 142.813 397.474 142.853 397.478C145.497 397.509 148.166 397.342 150.788 396.984C151.11 396.938 151.335 396.644 151.292 396.322C151.25 395.999 150.951 395.776 150.627 395.819C148.067 396.17 145.455 396.332 142.87 396.3C142.543 396.296 142.277 396.555 142.273 396.881C142.267 397.166 142.468 397.405 142.735 397.463ZM113.177 388.146C113.403 388.195 113.648 388.109 113.789 387.904C113.973 387.638 113.906 387.27 113.636 387.086C95.9556 374.977 87.4653 353.663 92.0079 332.784C92.0769 332.467 91.8763 332.153 91.5553 332.084C91.2343 332.014 90.9213 332.217 90.8523 332.534C86.2079 353.881 94.8874 375.673 112.966 388.052C113.034 388.102 113.105 388.131 113.177 388.146ZM188.746 372.044C188.985 372.096 189.24 371.996 189.374 371.776C192.126 367.271 194.191 362.379 195.509 357.234C195.591 356.92 195.397 356.599 195.084 356.521C194.75 356.387 194.447 356.629 194.365 356.943C193.077 361.974 191.057 366.758 188.367 371.164C188.197 371.44 188.287 371.803 188.565 371.973C188.622 372.006 188.682 372.03 188.746 372.044ZM95.0582 322.089C95.3227 322.146 95.6011 322.017 95.718 321.763C104.628 302.674 124.799 290.546 145.912 291.587C146.237 291.604 146.515 291.353 146.531 291.03C146.548 290.705 146.287 290.423 145.971 290.414C124.384 289.35 103.759 301.749 94.6508 321.267C94.5116 321.561 94.64 321.91 94.9357 322.047C94.9746 322.066 95.0171 322.08 95.0582 322.089Z" fill="#006C93"/>
<path d="M381.333 487.216C415.766 494.669 449.85 472.838 457.31 438.55C464.77 404.262 442.824 370.302 408.392 362.849C373.957 355.396 339.873 377.227 332.413 411.515C324.953 445.803 346.896 479.762 381.333 487.216ZM408.142 363.997C441.94 371.313 463.479 404.644 456.157 438.3C448.835 471.954 415.379 493.383 381.583 486.068C347.785 478.752 326.244 445.419 333.566 411.765C340.888 378.111 374.341 356.681 408.142 363.997Z" fill="#006C93"/>
<path d="M367.8 492.9C368.077 492.96 368.364 492.813 368.472 492.542C368.594 492.239 368.445 491.899 368.14 491.779C365.729 490.824 363.349 489.727 361.065 488.521C360.781 488.366 360.421 488.478 360.267 488.766C360.116 489.052 360.224 489.407 360.513 489.561C362.836 490.786 365.256 491.899 367.706 492.871C367.736 492.883 367.769 492.893 367.8 492.9ZM414.087 495.473C414.177 495.492 414.274 495.492 414.368 495.464C419.453 494.067 424.402 492.112 429.077 489.657C429.365 489.505 429.474 489.151 429.322 488.864C429.169 488.576 428.814 488.467 428.523 488.619C423.926 491.037 419.054 492.96 414.053 494.333C413.738 494.42 413.552 494.741 413.64 495.055C413.703 495.272 413.881 495.428 414.087 495.473ZM336.873 469.482C337.035 469.517 337.212 469.483 337.357 469.375C337.614 469.179 337.665 468.81 337.471 468.553C324.649 451.772 319.862 430.347 324.339 409.767C324.408 409.45 324.208 409.136 323.887 409.067C323.568 408.998 323.253 409.2 323.184 409.517C318.633 430.431 323.498 452.208 336.529 469.263C336.616 469.378 336.74 469.453 336.873 469.482ZM465.874 410.442C465.953 410.46 466.036 410.462 466.124 410.443C466.442 410.375 466.645 410.063 466.577 409.746C462.043 388.774 448.594 370.92 429.678 360.758C429.378 360.605 429.032 360.712 428.878 360.998C428.722 361.282 428.83 361.64 429.117 361.793C447.727 371.79 460.958 389.359 465.421 409.991C465.475 410.225 465.655 410.395 465.874 410.442ZM337.273 381.106C337.489 381.153 337.721 381.077 337.865 380.894C341.048 376.82 344.692 373.076 348.694 369.768C348.946 369.563 348.979 369.19 348.77 368.941C348.56 368.695 348.189 368.657 347.939 368.865C343.873 372.229 340.168 376.033 336.933 380.173C336.735 380.43 336.781 380.799 337.039 380.997C337.108 381.052 337.189 381.088 337.273 381.106ZM391.41 353.214C391.459 353.224 391.509 353.23 391.56 353.228C394.145 353.112 396.766 353.139 399.355 353.306C399.681 353.325 399.96 353.081 399.982 352.759C400.004 352.434 399.77 352.161 399.432 352.134C396.801 351.966 394.137 351.938 391.511 352.055C391.185 352.07 390.932 352.345 390.948 352.667C390.956 352.939 391.153 353.158 391.41 353.214Z" fill="#006C93"/>
<path d="M273.87 211.208C299.716 216.802 316.128 242.206 310.527 267.949C304.926 293.692 279.434 310.025 253.587 304.431C227.74 298.836 211.328 273.432 216.929 247.689C222.533 221.947 248.026 205.614 273.87 211.208Z" fill="white"/>
<path d="M253.441 305.01C279.566 310.658 305.427 294.087 311.094 268.072C316.761 242.054 300.12 216.295 273.995 210.646C247.87 204.997 222.008 221.569 216.341 247.584C210.672 273.599 227.315 299.361 253.441 305.01ZM273.745 211.791C299.233 217.302 315.471 242.436 309.942 267.82C304.413 293.203 279.179 309.37 253.691 303.859C228.203 298.348 211.966 273.214 217.495 247.831C223.021 222.446 248.257 206.28 273.745 211.791Z" fill="#006C93"/>
<path d="M258.701 255.464C255.242 252.69 253.464 248.142 254.461 243.557C255.873 237.062 262.324 232.93 268.846 234.343C275.346 235.75 279.5 242.179 278.088 248.674C277.091 253.259 273.587 256.664 269.307 257.761C277.627 261.986 282.382 271.415 280.31 280.943C278.913 287.369 237.642 278.43 239.039 272.004C241.108 262.476 249.375 255.867 258.701 255.464Z" fill="#0092BF"/>
<path d="M510.18 97.7847C519.968 99.9033 526.186 109.524 524.065 119.273C521.944 129.021 512.29 135.209 502.499 133.09C492.711 130.971 486.493 121.351 488.615 111.599C490.736 101.853 500.392 95.666 510.18 97.7847Z" fill="white"/>
<path d="M502.363 133.667C512.455 135.849 522.445 129.449 524.634 119.398C526.823 109.348 520.392 99.397 510.303 97.2157C500.214 95.0343 490.221 101.435 488.032 111.485C485.846 121.535 492.274 131.486 502.363 133.667ZM510.052 98.3639C519.51 100.409 525.532 109.733 523.481 119.149C521.43 128.565 512.068 134.563 502.613 132.519C493.159 130.475 487.137 121.15 489.187 111.735C491.238 102.319 500.598 96.3197 510.052 98.3639Z" fill="#006C93"/>
<path d="M504.434 114.546C503.124 113.497 502.45 111.774 502.828 110.038C503.363 107.578 505.805 106.013 508.276 106.548C510.738 107.081 512.312 109.516 511.777 111.976C511.399 113.712 510.073 115.002 508.453 115.417C511.603 117.017 513.405 120.589 512.62 124.197C512.091 126.631 496.46 123.246 496.99 120.811C497.772 117.203 500.902 114.7 504.434 114.546Z" fill="#FF553A"/>
<path d="M524.599 220.067C534.387 222.185 540.602 231.805 538.48 241.556C536.359 251.305 526.706 257.49 516.917 255.372C507.129 253.253 500.912 243.633 503.033 233.884C505.155 224.132 514.811 217.948 524.599 220.067Z" fill="white"/>
<path d="M516.783 255.947C526.872 258.128 536.864 251.728 539.053 241.678C541.243 231.628 534.812 221.677 524.723 219.495C514.631 217.313 504.641 223.714 502.452 233.764C500.263 243.814 506.691 253.765 516.783 255.947ZM524.472 220.643C533.93 222.688 539.952 232.01 537.901 241.429C535.85 250.845 526.49 256.843 517.033 254.798C507.578 252.754 501.556 243.43 503.607 234.014C505.656 224.597 515.018 218.599 524.472 220.643Z" fill="#006C93"/>
<path d="M518.854 236.826C517.545 235.777 516.871 234.054 517.248 232.318C517.783 229.858 520.226 228.293 522.696 228.828C525.156 229.361 526.732 231.796 526.197 234.256C525.82 235.992 524.493 237.282 522.871 237.696C526.021 239.297 527.823 242.868 527.038 246.476C526.509 248.91 510.878 245.525 511.408 243.091C512.192 239.483 515.32 236.979 518.854 236.826Z" fill="#00B59A"/>
<path d="M376.172 114.702C385.96 116.821 392.175 126.44 390.054 136.192C387.932 145.941 378.278 152.128 368.49 150.01C358.702 147.891 352.485 138.271 354.606 128.519C356.728 118.768 366.382 112.583 376.172 114.702Z" fill="white"/>
<path d="M368.357 150.585C378.449 152.767 388.439 146.366 390.628 136.316C392.817 126.266 386.388 116.315 376.297 114.133C366.205 111.951 356.215 118.352 354.026 128.402C351.837 138.45 358.265 148.403 368.357 150.585ZM376.047 115.282C385.501 117.326 391.523 126.65 389.472 136.066C387.421 145.482 378.059 151.481 368.607 149.437C359.15 147.392 353.128 138.067 355.179 128.651C357.23 119.233 366.589 113.237 376.047 115.282Z" fill="#006C93"/>
<path d="M370.425 131.464C369.115 130.414 368.441 128.691 368.819 126.955C369.354 124.495 371.797 122.93 374.267 123.465C376.73 123.999 378.303 126.433 377.768 128.893C377.39 130.629 376.064 131.919 374.444 132.334C377.594 133.935 379.396 137.506 378.611 141.114C378.082 143.548 362.451 140.163 362.981 137.729C363.763 134.117 366.894 131.615 370.425 131.464Z" fill="#003C5D"/>
<path d="M404.772 233.442C414.56 235.561 420.778 245.181 418.656 254.932C416.535 264.681 406.881 270.869 397.09 268.75C387.302 266.631 381.085 257.011 383.206 247.259C385.328 237.508 394.984 231.323 404.772 233.442Z" fill="white"/>
<path d="M396.958 269.322C407.049 271.504 417.039 265.104 419.228 255.053C421.417 245.003 414.986 235.052 404.897 232.871C394.806 230.689 384.816 237.089 382.627 247.139C380.437 257.189 386.866 267.14 396.958 269.322ZM404.647 234.019C414.105 236.064 420.126 245.388 418.075 254.804C416.024 264.22 406.665 270.219 397.208 268.174C387.75 266.129 381.729 256.804 383.779 247.389C385.83 237.973 395.19 231.974 404.647 234.019Z" fill="#006C93"/>
<path d="M399.026 250.201C397.716 249.151 397.042 247.428 397.419 245.692C397.954 243.232 400.397 241.667 402.868 242.202C405.328 242.735 406.903 245.17 406.369 247.63C405.991 249.366 404.665 250.656 403.044 251.071C406.195 252.672 407.997 256.243 407.212 259.851C406.683 262.285 391.052 258.9 391.581 256.466C392.363 252.857 395.494 250.354 399.026 250.201Z" fill="#FFBB00"/>
<path d="M155.969 15.344C165.758 17.4627 171.975 27.0831 169.853 36.8345C167.732 46.5834 158.078 52.771 148.287 50.6518C138.499 48.5331 132.282 38.9127 134.404 29.1613C136.525 19.4099 146.179 13.2248 155.969 15.344Z" fill="white"/>
<path d="M148.155 51.2243C158.246 53.4063 168.237 47.0057 170.426 36.9556C172.615 26.9054 166.186 16.9547 156.095 14.7727C146.003 12.5907 136.013 18.9913 133.824 29.0414C131.635 39.0916 138.063 49.0423 148.155 51.2243ZM155.844 15.9209C165.299 17.9653 171.321 27.2898 169.27 36.7057C167.219 46.1217 157.857 52.1199 148.405 50.0761C138.948 48.0312 132.925 38.7092 134.977 29.2907C137.028 19.8748 146.387 13.876 155.844 15.9209Z" fill="#006C93"/>
<path d="M150.223 32.1029C148.913 31.0535 148.239 29.3305 148.617 27.5942C149.152 25.1343 151.595 23.5696 154.065 24.1046C156.525 24.6374 158.101 27.0725 157.566 29.5324C157.188 31.2686 155.862 32.5584 154.242 32.9733C157.392 34.5739 159.194 38.1451 158.409 41.7531C157.88 44.1874 142.249 40.8022 142.779 38.3679C143.561 34.7593 146.691 32.2565 150.223 32.1029Z" fill="#FF553A"/>
<path d="M92.7331 80.7015C102.521 82.8201 108.739 92.4405 106.617 102.192C104.496 111.941 94.8417 118.128 85.0511 116.009C75.263 113.891 69.0481 104.271 71.1698 94.5193C73.2909 84.7704 82.945 78.5828 92.7331 80.7015Z" fill="white"/>
<path d="M84.9175 116.584C95.0091 118.766 104.999 112.366 107.188 102.316C109.377 92.2654 102.949 82.3147 92.8573 80.1327C82.7657 77.9507 72.7756 84.3513 70.5865 94.4014C68.3974 104.452 74.8285 114.403 84.9175 116.584ZM92.6072 81.2809C102.062 83.3253 108.086 92.6503 106.035 102.066C103.984 111.482 94.6223 117.48 85.1676 115.436C75.7103 113.391 69.6885 104.067 71.7394 94.6507C73.7909 85.2322 83.1524 79.2366 92.6072 81.2809Z" fill="#006C93"/>
<path d="M86.9902 97.4637C85.6804 96.4143 85.0064 94.6913 85.384 92.955C85.9189 90.4951 88.3618 88.9304 90.8321 89.4654C93.2946 89.9987 94.8679 92.4333 94.333 94.8932C93.9555 96.6294 92.6291 97.9192 91.0064 98.3335C94.1565 99.9341 95.9585 103.505 95.174 107.113C94.6447 109.548 79.014 106.162 79.5433 103.728C80.3278 100.12 83.4587 97.6173 86.9902 97.4637Z" fill="#003C5D"/>
<path d="M213.135 91.7307C222.923 93.8494 229.14 103.47 227.018 113.221C224.897 122.97 215.244 129.155 205.453 127.036C195.665 124.917 189.448 115.297 191.569 105.548C193.693 95.7971 203.346 89.612 213.135 91.7307Z" fill="white"/>
<path d="M205.32 127.611C215.412 129.793 225.402 123.393 227.591 113.342C229.78 103.292 223.349 93.341 213.26 91.1596C203.168 88.9777 193.178 95.3785 190.989 105.429C188.8 115.479 195.231 125.43 205.32 127.611ZM213.01 92.3079C222.467 94.3526 228.489 103.677 226.438 113.093C224.387 122.509 215.025 128.507 205.57 126.463C196.113 124.418 190.091 115.096 192.142 105.678C194.193 96.262 203.555 90.2637 213.01 92.3079Z" fill="#006C93"/>
<path d="M207.392 108.491C206.082 107.441 205.408 105.718 205.786 103.982C206.321 101.522 208.763 99.9574 211.234 100.492C213.694 101.025 215.27 103.46 214.735 105.92C214.357 107.656 213.031 108.946 211.411 109.361C214.561 110.962 216.363 114.533 215.578 118.141C215.049 120.575 199.418 117.19 199.948 114.756C200.73 111.147 203.858 108.644 207.392 108.491Z" fill="#FFBB00"/>
<path d="M99.7829 325.937C109.571 328.056 115.788 337.676 113.667 347.427C111.546 357.176 101.892 363.361 92.1014 361.242C82.3133 359.123 76.0959 349.503 78.2171 339.754C80.3387 330.003 89.9923 323.818 99.7829 325.937Z" fill="white"/>
<path d="M91.9673 361.817C102.059 363.999 112.049 357.598 114.238 347.548C116.427 337.498 109.999 327.547 99.9071 325.365C89.8155 323.183 79.8254 329.584 77.6363 339.634C75.4472 349.684 81.8757 359.635 91.9673 361.817ZM99.657 326.514C109.112 328.558 115.136 337.883 113.085 347.299C111.034 356.715 101.672 362.713 92.2174 360.669C82.7601 358.624 76.7383 349.299 78.7893 339.883C80.8402 330.467 90.1997 324.469 99.657 326.514Z" fill="#006C93"/>
<path d="M94.0345 342.699C92.7247 341.649 92.0508 339.926 92.4283 338.19C92.9632 335.73 95.4061 334.165 97.8764 334.7C100.339 335.234 101.912 337.668 101.377 340.128C101 341.864 99.6734 343.154 98.0533 343.569C101.203 345.169 103.005 348.741 102.221 352.349C101.692 354.783 86.0608 351.398 86.5902 348.963C87.3722 345.355 90.5036 342.849 94.0345 342.699Z" fill="#FF553A"/>
<path d="M176.757 362.099C186.545 364.217 192.762 373.838 190.64 383.589C188.519 393.34 178.865 399.526 169.075 397.406C159.286 395.288 153.069 385.667 155.191 375.916C157.312 366.164 166.968 359.98 176.757 362.099Z" fill="white"/>
<path d="M168.943 397.979C179.034 400.161 189.025 393.76 191.214 383.71C193.403 373.66 186.974 363.709 176.883 361.527C166.791 359.345 156.801 365.746 154.612 375.796C152.423 385.846 158.851 395.797 168.943 397.979ZM176.633 362.676C186.087 364.72 192.109 374.044 190.058 383.46C188.007 392.876 178.648 398.875 169.193 396.831C159.736 394.786 153.714 385.461 155.765 376.045C157.816 366.629 167.175 360.631 176.633 362.676Z" fill="#006C93"/>
<path d="M171.012 378.858C169.702 377.809 169.028 376.086 169.406 374.349C169.941 371.889 172.384 370.325 174.854 370.86C177.316 371.393 178.89 373.828 178.355 376.287C177.977 378.024 176.651 379.313 175.031 379.728C178.181 381.329 179.983 384.9 179.198 388.508C178.669 390.942 163.038 387.557 163.568 385.123C164.35 381.514 167.481 379.012 171.012 378.858Z" fill="#00B59A"/>
<path d="M459.719 427.732C469.508 429.85 475.725 439.471 473.603 449.222C471.482 458.971 461.828 465.159 452.037 463.039C442.249 460.921 436.032 451.3 438.154 441.549C440.275 431.797 449.931 425.613 459.719 427.732Z" fill="white"/>
<path d="M451.903 463.615C461.995 465.797 471.985 459.396 474.174 449.346C476.363 439.295 469.932 429.344 459.843 427.163C449.751 424.981 439.761 431.382 437.572 441.432C435.384 451.48 441.812 461.433 451.903 463.615ZM459.593 428.311C469.05 430.356 475.072 439.68 473.021 449.096C470.97 458.512 461.611 464.511 452.153 462.466C442.699 460.422 436.677 451.098 438.727 441.682C440.776 432.263 450.135 426.266 459.593 428.311Z" fill="#006C93"/>
<path d="M453.974 444.494C452.664 443.444 451.99 441.721 452.368 439.985C452.903 437.525 455.346 435.96 457.816 436.495C460.278 437.028 461.852 439.463 461.317 441.923C460.939 443.659 459.613 444.949 457.993 445.364C461.143 446.965 462.945 450.536 462.16 454.144C461.631 456.578 446 453.193 446.53 450.758C447.312 447.147 450.443 444.645 453.974 444.494Z" fill="#FF553A"/>
<path d="M358.14 456.511C367.928 458.63 374.146 468.25 372.024 478.002C369.903 487.751 360.249 493.938 350.458 491.819C340.67 489.7 334.455 480.08 336.577 470.329C338.698 460.58 348.352 454.393 358.14 456.511Z" fill="white"/>
<path d="M350.325 492.394C360.416 494.576 370.406 488.176 372.596 478.125C374.785 468.075 368.356 458.125 358.265 455.943C348.173 453.76 338.183 460.161 335.994 470.211C333.805 480.261 340.236 490.213 350.325 492.394ZM358.014 457.091C367.469 459.135 373.491 468.46 371.44 477.876C369.389 487.291 360.027 493.29 350.575 491.246C341.118 489.201 335.095 479.879 337.147 470.461C339.198 461.045 348.56 455.046 358.014 457.091Z" fill="#006C93"/>
<path d="M352.397 473.273C351.087 472.224 350.413 470.501 350.791 468.765C351.325 466.305 353.768 464.74 356.239 465.275C358.699 465.808 360.275 468.243 359.74 470.703C359.362 472.439 358.036 473.729 356.416 474.144C359.566 475.744 361.368 479.315 360.583 482.923C360.054 485.358 344.423 481.973 344.952 479.538C345.734 475.93 348.865 473.427 352.397 473.273Z" fill="#003C5D"/>
<path d="M391.378 341.212C401.166 343.33 407.383 352.951 405.262 362.702C403.14 372.451 393.486 378.639 383.696 376.519C373.908 374.401 367.693 364.781 369.814 355.029C371.933 345.277 381.59 339.093 391.378 341.212Z" fill="white"/>
<path d="M383.561 377.092C393.653 379.274 403.643 372.873 405.832 362.823C408.021 352.773 401.59 342.822 391.501 340.64C381.409 338.458 371.419 344.859 369.23 354.909C367.041 364.959 373.469 374.91 383.561 377.092ZM391.251 341.788C400.708 343.833 406.73 353.158 404.679 362.574C402.628 371.99 393.266 377.988 383.811 375.943C374.354 373.899 368.332 364.574 370.383 355.158C372.434 345.742 381.793 339.743 391.251 341.788Z" fill="#006C93"/>
<path d="M385.635 357.971C384.325 356.922 383.651 355.199 384.029 353.463C384.564 351.003 387.007 349.438 389.477 349.973C391.937 350.506 393.513 352.941 392.978 355.401C392.6 357.137 391.274 358.427 389.654 358.842C392.804 360.442 394.606 364.013 393.821 367.621C393.292 370.056 377.661 366.671 378.191 364.236C378.97 360.627 382.101 358.124 385.635 357.971Z" fill="#00B59A"/>
<path d="M194.338 156.48L230.928 212.316L229.939 212.957L193.35 157.121L194.338 156.48Z" fill="#006C93"/>
<path d="M218.52 285.146L219.14 286.15L184.643 307.224L184.024 306.221L218.52 285.146Z" fill="#006C93"/>
<path d="M299.808 302.303L342.228 364.794L341.25 365.451L298.83 302.96L299.808 302.303Z" fill="#006C93"/>
<path d="M350.327 217.75L350.848 218.804L312.798 237.402L312.277 236.348L350.327 217.75Z" fill="#006C93"/>
<path d="M284.548 167.566C294.263 169.669 303.88 163.509 305.985 153.835C306.587 151.068 306.534 148.283 305.828 145.559C305.743 145.244 305.426 145.057 305.107 145.138C304.791 145.22 304.604 145.538 304.683 145.852C305.345 148.398 305.392 150.997 304.829 153.585C302.862 162.627 293.876 168.383 284.795 166.417C275.714 164.452 269.929 155.496 271.896 146.456C271.965 146.139 271.764 145.825 271.443 145.756C271.125 145.687 270.809 145.889 270.74 146.206C268.638 155.88 274.83 165.463 284.548 167.566ZM274.202 140.269C274.423 140.317 274.658 140.237 274.802 140.043C276.301 138.025 278.276 136.337 280.52 135.16C280.808 135.011 280.917 134.654 280.767 134.367C280.615 134.08 280.254 133.97 279.971 134.123C277.571 135.378 275.456 137.186 273.854 139.345C273.661 139.606 273.715 139.974 273.979 140.168C274.046 140.22 274.122 140.252 274.202 140.269Z" fill="#006C93"/>
<path d="M136.812 272.444C137.13 272.513 137.469 272.316 137.538 271.999C137.607 271.682 137.432 271.374 137.114 271.305C115.819 266.695 102.283 245.748 106.885 224.596C106.954 224.279 106.753 223.965 106.432 223.896C106.114 223.827 105.798 224.029 105.729 224.346C100.989 246.132 114.932 267.708 136.812 272.444ZM167.006 266.982C167.155 267.014 167.314 266.99 167.451 266.902C169.681 265.467 171.779 263.806 173.688 261.967C173.922 261.742 173.928 261.369 173.702 261.138C173.475 260.907 173.101 260.895 172.868 261.123C171.017 262.908 168.978 264.52 166.814 265.912C166.542 266.089 166.463 266.452 166.64 266.723C166.723 266.862 166.86 266.95 167.006 266.982ZM182.456 218.8C182.566 218.824 182.686 218.815 182.798 218.772C183.101 218.651 183.248 218.31 183.126 218.008C181.137 213.044 178.236 208.585 174.501 204.753C174.276 204.523 173.902 204.514 173.667 204.742C173.435 204.967 173.427 205.338 173.656 205.572C177.283 209.294 180.102 213.624 182.033 218.443C182.107 218.634 182.271 218.76 182.456 218.8Z" fill="#006C93"/>
<path d="M252.469 382.958C253.111 383.097 253.752 383.206 254.393 383.286C254.717 383.327 255.012 383.099 255.052 382.778C255.09 382.457 254.892 382.165 254.539 382.121C252.037 381.807 249.538 381.02 247.295 379.819C247.011 379.669 246.652 379.774 246.498 380.059C246.342 380.344 246.45 380.699 246.739 380.856C248.533 381.817 250.461 382.523 252.469 382.958ZM277.78 366.746C278.098 366.815 278.414 366.613 278.483 366.296C281.037 354.556 273.523 342.932 261.735 340.381C251.456 338.155 241.033 343.533 236.952 353.17C236.825 353.469 236.965 353.812 237.266 353.939C237.562 354.062 237.912 353.923 238.038 353.627C241.898 344.513 251.758 339.423 261.483 341.528C272.636 343.942 279.743 354.94 277.327 366.046C277.258 366.363 277.461 366.677 277.78 366.746Z" fill="#006C93"/>
<path d="M357.079 317.07C367.81 319.393 378.659 313.009 381.776 302.54C381.868 302.228 381.688 301.903 381.378 301.809C381.04 301.72 380.736 301.895 380.644 302.204C377.7 312.09 367.459 318.114 357.328 315.922C346.591 313.598 339.747 303.007 342.074 292.313C342.143 291.996 341.942 291.683 341.621 291.613C341.303 291.544 340.987 291.746 340.918 292.063C338.454 303.391 345.705 314.608 357.079 317.07ZM360.275 276.696C360.323 276.707 360.379 276.711 360.433 276.709C362.213 276.613 364.004 276.757 365.766 277.138C366.54 277.34 367.239 277.5 367.956 277.74C368.277 277.845 368.598 277.679 368.703 277.372C368.807 277.065 368.641 276.729 368.332 276.628C367.583 276.375 366.812 276.162 366.037 275.994C366.029 275.993 366.021 275.991 366.016 275.99C364.152 275.586 362.254 275.435 360.368 275.536C360.044 275.554 359.793 275.832 359.814 276.155C359.825 276.425 360.023 276.642 360.275 276.696Z" fill="#006C93"/>
</svg>
