<svg width="41" height="44" viewBox="0 0 41 44" fill="none" xmlns="http://www.w3.org/2000/svg">
<g clip-path="url(#clip0_309_786)">
<path d="M7.34043 27.0919L7.3125 26.4774L15.0572 26.1046L19.3381 21.472L29.9739 14.3952L35.8819 1.89185L36.4476 2.1542L30.4697 14.8095L30.3929 14.8578L19.7221 21.969L15.3435 26.7122L7.34043 27.0919Z" fill="#D8E9ED"/>
<path d="M37.3833 3.08614L37.1109 0L34.541 1.77436L37.3833 3.08614Z" fill="#D8E9ED"/>
<path d="M13.4292 31.6624H7.76562V44.0069H13.4292V31.6624Z" fill="#ABABAB"/>
<path d="M22.6548 28.1619H16.9912V44.0068H22.6548V28.1619Z" fill="#ABABAB"/>
<path d="M31.8726 20.7607H26.209V44H31.8726V20.7607Z" fill="#ABABAB"/>
<path d="M41.0005 7.10425H35.3369V44.0068H41.0005V7.10425Z" fill="#ABABAB"/>
<path d="M30.6162 9.45187C30.6162 9.45187 31.2028 8.77526 31.3425 8.51291C31.4822 8.25055 33.661 6.71093 34.1219 7.00781C34.5828 7.30468 34.2337 7.29778 33.682 7.71893C33.1303 8.14008 32.5506 8.54052 32.7601 8.68551C32.9696 8.8305 33.2699 8.3334 33.5842 8.3334C33.8146 8.32649 33.5144 8.64408 33.1093 9.05833C32.9417 9.22403 32.6135 9.514 32.5227 9.59685C31.8174 10.1906 31.566 10.1492 31.3355 10.4392C31.0981 10.7291 30.6162 9.45187 30.6162 9.45187Z" fill="#FDB171"/>
<path d="M28.06 20.7609C28.6396 21.2165 30.155 20.7609 30.7277 20.7609C31.3073 20.7609 31.8241 20.5952 31.3562 20.2292C30.8813 19.8702 30.0433 19.7114 28.7932 19.6079C27.5432 19.5112 28.06 20.7609 28.06 20.7609Z" fill="#FDB171"/>
<path d="M20.7208 26.0839C20.4554 26.2703 19.7361 26.4498 19.3939 26.2772C19.0517 26.1046 18.6397 25.5661 18.493 25.8215C18.3464 26.0701 18.0461 26.795 18.102 27.2299C18.102 27.2299 17.9902 27.3059 18.0182 27.5268C18.0461 27.7547 18.521 27.9204 19.1495 28.0515C19.778 28.1896 21.6496 28.7765 22.2013 28.7281C22.753 28.6798 23.0044 28.7834 23.2837 28.4796C23.4583 28.2863 23.6049 27.8582 23.0742 27.6373C22.6203 27.4509 21.2236 27.0919 21.0699 26.3462C21.0141 26.0424 20.8325 26.0148 20.7208 26.0839Z" fill="#1E2020"/>
<path d="M2.60528 31.4138C2.34689 31.1722 1.99073 30.4472 2.09548 30.0468C2.20722 29.6464 2.69606 29.0871 2.38879 28.9836C2.0885 28.88 1.22953 28.7281 0.76862 28.8938C0.76862 28.8938 0.663868 28.7903 0.42643 28.8662C0.188992 28.949 0.119157 29.4945 0.112173 30.1849C0.10519 30.8822 -0.104314 33.0018 0.0702725 33.5748C0.244859 34.1479 0.188992 34.4378 0.58705 34.6657C0.838455 34.8106 1.33428 34.8659 1.453 34.2583C1.55775 33.7336 1.62759 32.1733 2.39577 31.8419C2.71701 31.7107 2.71003 31.5105 2.60528 31.4138Z" fill="#1E2020"/>
<path d="M14.2188 22.6248L20.5039 20.7607L18.1225 26.2357L21.3978 26.7535C21.3978 26.7535 24.8895 18.3166 24.701 17.6055C24.6311 17.3431 24.7848 16.8737 21.1254 17.1705C16.8166 17.5226 14.2188 18.2062 14.2188 18.2062L14.2327 20.8988L14.2188 22.6248Z" fill="#001533"/>
<path d="M25.9792 9.29981L24.2264 6.87646C23.8143 7.91208 24.0378 9.18935 24.0518 9.41028C24.0588 9.64502 23.8353 10.1283 23.542 10.653C24.1286 10.874 24.7082 11.1225 25.2669 11.4056C25.2669 10.9154 25.4415 10.3078 26.2516 10.6392C27.1455 11.0051 27.2083 10.6323 27.2013 10.3354C27.0756 10.2595 26.9848 10.3354 27.0198 10.1421L27.0337 10.0593L26.5449 9.38957C26.3773 9.50694 26.1329 9.51384 25.9792 9.29981Z" fill="#FDB171"/>
<path d="M26.0701 7.35295C26.0701 7.35295 24.0938 7.81553 24.0519 7.81553C23.2208 7.74649 23.8004 9.99723 23.7446 10.7429C24.1985 10.9155 24.6454 11.1088 25.0784 11.3228C25.1832 11.1916 25.3578 11.0398 25.6371 10.8533C25.9025 10.6807 26.1678 10.736 26.3634 10.7774C26.5938 10.8257 27.0338 10.9776 27.2293 10.8741C27.4179 10.7705 27.369 10.3977 27.39 10.3079C27.4109 10.2182 27.5226 10.2458 27.6414 10.1629C27.7601 10.0801 27.6204 9.91438 27.6204 9.91438C27.6693 9.87986 27.8229 9.76249 27.7601 9.67964C27.6693 9.57608 27.5506 9.45181 27.8998 9.32753C28.214 9.21707 28.0185 9.05137 27.8648 8.79591C27.7601 8.63021 27.5855 8.32643 27.7321 8.1055C27.8229 7.97432 27.8439 8.01575 27.788 7.58079C27.6972 6.78681 26.9849 6.40709 26.8732 6.24829L26.0701 7.35295Z" fill="#FDB171"/>
<path d="M22.8225 6.66944C23.2974 5.74428 23.9049 4.83294 25.0572 4.97793C26.2095 5.12291 27.3618 5.72357 27.5713 5.24028C27.5713 5.24028 27.9484 6.37946 27.5014 6.84204C27.4176 6.62801 25.7276 8.24358 25.4623 8.47832C25.1969 8.71996 25.4972 7.92599 25.0712 7.90528C24.6382 7.87766 24.2541 8.69235 24.3519 9.09279C24.4217 9.40347 23.7234 9.82462 23.7234 9.82462L23.7024 10.087L23.3253 9.41728C23.3253 9.41038 22.3476 7.59459 22.8225 6.66944Z" fill="#713C1F"/>
<path d="M26.3281 10.7635C26.3421 10.7635 26.3561 10.7704 26.3631 10.7704C26.5935 10.8188 27.0335 10.9706 27.229 10.8671C27.3128 10.8188 27.3477 10.7221 27.3617 10.6185C27.3617 10.6185 26.0418 10.4736 25.7555 10.0386C25.3854 9.48626 25.5879 8.86489 25.525 7.82927C25.4622 6.79365 25.3505 8.45755 25.3505 8.45755C25.3505 8.45755 25.0641 10.3976 26.0069 10.6462C26.1256 10.6807 26.2234 10.7152 26.3281 10.7635Z" fill="#713C1F"/>
<path d="M21.1045 11.7646C21.1045 11.7646 25.951 11.4263 26.824 11.2399C27.6969 11.0535 31.2585 8.36084 31.2585 8.36084L32.3968 9.99712C28.4651 13.1247 28.514 13.0902 28.2975 13.2144C28.1229 13.318 24.289 14.2846 22.8853 14.6022C21.4816 14.9267 21.1045 11.7646 21.1045 11.7646Z" fill="#3357BD"/>
<path d="M26.007 10.653C25.6229 11.164 25.7556 11.9786 24.2123 12.9797C22.6689 13.9877 24.31 10.2112 24.31 10.2112L26.007 10.653Z" fill="#FDB171"/>
<path d="M11.9492 17.3569C9.67954 18.8966 11.3067 21.7134 10.8947 22.5972L9.57479 28.1343L1.9209 28.7556L2.13739 32.1456C2.13739 32.1456 9.94491 31.6968 10.2173 31.6623C11.7327 31.4414 11.5092 32.1939 13.1503 29.232C15.4409 25.1034 16.3069 20.6433 16.3069 20.6433L11.9492 17.3569Z" fill="#003B5E"/>
<path d="M16.1953 21.1404C16.1953 21.1404 22.6411 16.6665 24.778 12.814C24.778 12.814 23.2277 10.2042 23.4162 9.48621C23.4162 9.48621 21.7193 8.58177 18.451 10.8946C17.0822 11.8681 15.916 13.7253 14.7078 15.0026C13.2902 16.5008 11.9424 17.3569 11.9424 17.3569L16.1953 21.1404Z" fill="#4985E2"/>
<path d="M23.4157 9.49316C23.4157 9.49316 24.0652 9.97645 24.582 10.9016C25.1057 11.8475 24.7705 12.7588 24.5331 14.1534C24.2957 15.555 22.3193 13.2145 22.3193 13.2145L23.4157 9.49316Z" fill="#4985E2"/>
<path d="M22.3192 15.9694L20.1055 12.0479L21.1251 17.1707L22.3192 15.9694Z" fill="#3357BD"/>
<path d="M21.1046 11.171C22.0684 10.6118 23.3812 10.2458 23.3812 10.2458C23.3812 10.2458 25.0014 14.913 25.3715 15.707C25.7417 16.501 29.5127 19.4698 29.5127 19.4698L28.0951 21.1682C28.0951 21.1682 23.5698 18.1304 23.4301 17.9854C23.2905 17.8404 20.9789 13.7531 20.3644 12.4759C20.113 11.9581 20.4203 11.5714 21.1046 11.171Z" fill="#4985E2"/>
</g>
<defs>
<clipPath id="clip0_309_786">
<rect width="41" height="44" fill="white"/>
</clipPath>
</defs>
</svg>
