<svg width="45" height="47" viewBox="0 0 45 47" fill="none" xmlns="http://www.w3.org/2000/svg">
<g clip-path="url(#clip0_309_1556)">
<path d="M2.29723 16.7298C2.29723 16.7298 1.75744 16.6582 1.56654 16.6843C1.37564 16.7168 -0.0594147 15.9617 -0.000169492 15.493C0.0590757 15.0243 0.144652 15.2651 0.526454 15.4474C0.908256 15.6232 1.29006 15.8315 1.32297 15.6102C1.35589 15.3953 0.993833 15.4279 0.914839 15.2066C0.855594 15.0568 1.11891 15.1024 1.46121 15.187C1.59945 15.2196 1.8496 15.3042 1.92201 15.3302C2.44863 15.5255 2.48154 15.7208 2.70536 15.7404C2.93576 15.7534 2.29723 16.7298 2.29723 16.7298Z" fill="#FDB171"/>
<path d="M5.85177 16.6453C5.67403 16.821 3.11991 15.6167 2.42213 15.4019L1.89551 16.8861C2.28389 17.1791 6.66145 19.2622 6.93793 18.9367C8.25449 17.4004 8.27424 16.9773 9.29457 15.3108C10.3149 13.6443 10.8349 12.6613 9.90677 12.0038C8.99835 11.3594 8.8996 11.3529 8.45856 11.8867C7.84636 12.6093 6.24015 16.2612 5.85177 16.6453Z" fill="#363636"/>
<path d="M15.6072 43.3674C15.9034 44.2007 16.8974 46.4856 15.6862 46.7915C14.2906 47.1431 14.4025 43.5367 14.4025 43.5367L15.6072 43.3674Z" fill="#525252"/>
<path d="M14.2709 31.1162C14.2775 32.0926 14.2248 32.6655 14.7383 33.7982C15.2518 34.9309 15.3242 36.057 15.2649 37.9318C15.2057 39.8066 15.39 42.1892 15.4427 42.6253C15.5019 43.0615 16.1668 45.099 15.3637 45.1836C14.5606 45.2683 14.4223 43.8882 14.3433 42.8792C14.2643 41.8637 13.5007 39.5332 13.0399 37.8602C12.6318 36.3695 12.3817 34.6379 12.4277 34.1237C12.487 33.4271 11.3613 30.8818 11.3613 30.8818L14.2709 31.1162Z" fill="#FDB171"/>
<path d="M12.7109 9.0094C12.8557 9.37394 14.0603 9.62131 13.83 10.8386C13.5996 12.0624 11.6181 10.9753 11.6181 10.9753L11.2363 9.12658L11.8814 8.65137L12.7109 9.0094Z" fill="#713C1F"/>
<path d="M10.9075 43.426C10.9075 43.426 11.7171 47.2993 9.92004 46.9738C8.67589 46.7525 9.70939 43.426 9.70939 43.426H10.9075Z" fill="#525252"/>
<path d="M9.63047 8.78149C9.93328 9.34133 9.97936 9.93371 9.84771 10.2983C9.72263 10.6563 9.02486 11.0729 9.39349 11.6327C9.75555 12.1926 11.8884 11.6327 11.8884 11.6327L9.63047 8.78149Z" fill="#713C1F"/>
<path d="M11.0783 31.3245C10.9729 31.7086 10.861 32.301 10.8939 32.6265C10.9334 32.952 11.4074 34.1432 11.335 35.2238C11.2626 36.3045 10.9927 39.4421 10.8873 40.705C10.782 41.9679 10.7689 42.5798 10.8873 43.3024C11.0058 44.025 10.782 45.6133 10.2027 45.6133C9.61687 45.6133 9.51154 44.3504 9.72878 43.3024C9.94601 42.2543 9.73536 41.2128 9.62345 40.5227C9.51154 39.8392 8.82035 35.4777 8.78085 34.8984C8.70844 33.9219 9.09683 33.1277 9.031 32.6265C8.96517 32.1187 8.49121 30.5369 8.49121 30.5369L11.0783 31.3245Z" fill="#FDB171"/>
<path d="M9.94009 9.34136C10.1442 10.1551 10.4206 11.2357 9.70969 11.2878C8.99875 11.3398 8.30755 12.3684 8.23514 13.6117C8.16932 14.8551 9.00533 16.3653 8.90659 17.9342C8.80785 19.503 8.90659 19.8871 8.90659 19.8871L14.2518 22.1069C14.2518 22.1069 13.6528 19.3988 13.87 18.1555C14.0872 16.9121 14.6336 15.3954 14.6336 15.3954C14.6336 15.3954 14.5941 16.7103 14.6336 17.5436C14.6665 18.3768 15.9041 19.7504 15.9041 19.7504L16.3846 17.1139C16.3846 17.1139 16.3781 16.5411 16.3846 15.3108C16.3978 13.4229 16.1279 11.5937 14.9628 11.0925C13.7976 10.5847 12.1387 10.767 12.0927 10.5522C12.0466 10.3373 11.7899 8.37793 11.7899 8.37793L9.94009 9.34136Z" fill="#FDB171"/>
<path d="M14.2584 20.3818C14.7719 22.2371 15.1997 25.3227 15.4038 29.7363C15.575 33.3231 16.0094 37.6586 16.0094 37.6586C16.0094 37.6586 11.0262 38.7262 8.51162 37.1769C8.51162 37.1769 8.47212 32.0472 8.12982 29.196C7.80068 26.4424 7.72827 22.6147 8.82759 20.3818H14.2584Z" fill="#004A6E"/>
<path d="M15.3968 29.7363C15.1927 25.3227 14.7648 22.2371 14.2514 20.3818C14.7188 22.2241 14.4094 24.9972 14.5805 28.6622C14.7517 32.249 15.1861 36.5845 15.1861 36.5845C15.1861 36.5845 11.3286 37.5739 8.47168 36.4738C8.49143 36.91 8.50459 37.1834 8.50459 37.1834C11.0192 38.7327 16.0024 37.6651 16.0024 37.6651C16.0024 37.6651 15.5679 33.3231 15.3968 29.7363Z" fill="#003B5E"/>
<path d="M8.34639 7.47307C8.34639 7.47307 7.72103 6.77654 7.97117 6.00188C8.16207 5.40299 8.55704 4.1987 9.61687 4.08152C10.9005 3.9318 8.34639 7.47307 8.34639 7.47307Z" fill="#713C1F"/>
<path d="M8.38589 7.70095C8.30031 7.85718 8.35956 8.05247 8.51754 8.1371L8.8401 8.31286C8.99809 8.39749 9.19557 8.3389 9.28115 8.18267C9.36672 8.02643 9.30748 7.83114 9.14949 7.74652L8.82693 7.57075C8.66236 7.48613 8.47146 7.54472 8.38589 7.70095Z" fill="#C90E00"/>
<path d="M8.22754 6.09954C8.39869 5.0645 8.91873 3.98389 10.3867 3.98389C11.9337 3.98389 12.7697 5.25979 12.8026 6.09954C12.8421 6.93929 12.6907 7.47308 12.638 7.64234C12.5788 7.81159 11.8678 8.26727 11.7296 8.79455C11.5913 9.32184 8.22754 6.09954 8.22754 6.09954Z" fill="#713C1F"/>
<path d="M11.8416 7.9939C11.7889 8.28683 11.8679 8.71647 11.8876 9.15913C11.7757 9.23074 11.5914 9.37395 11.4466 9.45207C10.525 9.98586 9.70215 10.0379 9.70215 10.0379C9.70215 10.0379 9.80089 9.88171 9.95888 9.66038L11.8284 7.9939C11.8284 7.9939 11.835 7.9939 11.8416 7.9939Z" fill="#F09F5B"/>
<path d="M11.8942 8.03296C11.7889 8.3324 11.7362 8.736 11.2425 9.12659C10.7488 9.51717 9.95889 10.0314 9.70874 10.0314C9.45859 10.0314 9.26111 10.103 8.87931 9.4716C8.4975 8.84016 8.21444 8.54722 8.18811 7.90276C8.16178 7.2583 7.89847 5.93684 8.71474 5.44861C9.31377 5.08406 10.2946 5.25983 10.8081 5.7806C11.3281 6.30789 11.3413 6.50318 11.5256 7.32991C11.5256 7.32991 11.9601 6.75706 12.1312 6.73102C12.3024 6.70498 12.4538 6.81564 12.3484 7.16717C12.2497 7.51869 12.1641 7.4601 12.151 7.64238C12.1378 7.82465 12.118 8.00041 12.0259 8.07202C11.914 8.15013 11.8942 8.03296 11.8942 8.03296Z" fill="#FDB171"/>
<path d="M8.99805 5.31195C8.99805 5.31195 10.0513 7.17373 11.5127 7.47317L12.0788 5.78065L10.7293 4.78467L8.99805 5.31195Z" fill="#713C1F"/>
<path d="M9.28727 5.38354C9.28727 5.38354 8.66849 6.41858 8.05629 6.73105C8.05629 6.73105 7.92464 5.2859 8.76723 4.60889L9.28727 5.38354Z" fill="#713C1F"/>
<path d="M14.5812 15.5255C14.5812 15.5255 13.574 14.7899 13.5082 13.82C13.4094 12.4855 13.8505 10.7669 13.8505 10.7669L12.9816 10.6953C12.9816 10.6953 12.218 12.3488 10.3682 12.5115C9.2952 12.6027 9.31494 11.3398 9.31494 11.3398C9.31494 11.3398 9.01872 11.4049 8.94631 11.4309C8.84757 11.4569 8.65667 11.5676 8.65667 11.5676C8.65667 11.5676 7.8009 13.4424 7.66925 13.8916C7.49809 14.4905 7.1887 15.4344 8.13004 16.3783C8.13004 16.3783 9.07138 18.0382 8.82782 20.3817C8.82782 20.3817 11.3622 21.3126 14.2586 20.4273C14.2586 20.4273 13.5872 18.0578 14.5812 15.5255Z" fill="#525252"/>
<path d="M16.3774 15.3108C16.3906 13.423 16.1207 11.5937 14.9555 11.0925C14.6066 10.9428 14.2182 10.8581 13.843 10.7996C13.7904 11.0274 13.1913 12.5962 13.2769 13.8331C13.3493 14.803 14.5869 15.5321 14.5869 15.5321C14.3894 16.0399 14.633 15.4084 14.633 15.4084C14.633 15.4084 14.5935 16.7234 14.633 17.5566C14.6659 18.3899 15.9034 19.7634 15.9034 19.7634L16.384 17.127C16.3774 17.114 16.3708 16.5346 16.3774 15.3108Z" fill="#525252"/>
<path d="M14.4166 15.9942C14.4166 15.9942 12.9223 14.9852 13.6003 12.0884C13.6003 12.0884 13.0605 14.4644 14.5877 15.5255L14.4166 15.9942Z" fill="#363636"/>
<path d="M11.0459 4.0686C11.3224 4.16625 12.7443 4.60891 13.0537 6.47068C13.1524 7.05655 13.0207 7.98744 12.7048 9.00946L11.8819 9.15919C11.8819 9.15919 11.8029 8.52124 11.8161 8.25434C11.8161 8.25434 12.7048 7.87027 12.6258 6.77664C12.5468 5.68952 11.5594 5.09063 11.5594 5.09063L11.0459 4.0686Z" fill="#713C1F"/>
<path d="M14.4175 14.4682L13.2764 19.8916L16.7758 20.6116L17.9169 15.1882L14.4175 14.4682Z" fill="#ABABAB"/>
<path d="M17.6678 17.166C17.885 17.2441 17.6941 18.9171 17.1806 18.9496C16.6738 18.9822 16.6014 18.2661 16.8186 17.7583C17.0358 17.2571 17.2333 17.0032 17.6678 17.166Z" fill="#FDB171"/>
<path d="M11.9341 13.9502H11.7695V14.4645H11.9341V13.9502Z" fill="#ABABAB"/>
<path d="M12.8172 14.2952H10.8818V15.8966H12.8172V14.2952Z" fill="white"/>
<path d="M12.8958 15.9747H10.7959V14.217H12.8958V15.9747ZM10.9605 15.8184H12.7378V14.3798H10.9605V15.8184Z" fill="#ABABAB"/>
<path d="M11.8422 14.1064C11.704 14.1064 11.5986 13.9957 11.5986 13.859C11.5986 13.7223 11.7105 13.6182 11.8422 13.6182C11.9804 13.6182 12.0858 13.7288 12.0858 13.859C12.0858 13.9957 11.9739 14.1064 11.8422 14.1064Z" fill="#ABABAB"/>
<path d="M42.9068 43.1855C43.2425 43.9862 44.3352 46.1735 43.0977 46.5055C41.6758 46.8896 41.6758 43.3874 41.6758 43.3874L42.9068 43.1855Z" fill="#1E2020"/>
<path d="M41.1421 31.3378C41.1816 32.2817 41.1158 33.0043 41.6753 34.0914C42.2349 35.1785 42.3468 36.2656 42.3468 38.0883C42.3468 39.9111 42.6364 42.0593 42.7088 42.4824C42.7812 42.9055 43.5317 44.8649 42.7088 44.9691C41.886 45.0733 41.6951 43.7388 41.5832 42.7623C41.4713 41.7793 40.6155 39.54 40.0823 37.9256C39.6149 36.4935 39.3055 34.8205 39.3319 34.3127C39.3714 33.6357 38.1338 31.1946 38.1338 31.1946L41.1421 31.3378Z" fill="#FDB171"/>
<path d="M37.3302 43.3091C37.3302 43.3091 38.1597 47.0717 36.3165 46.7592C35.0394 46.5444 36.0992 43.3091 36.0992 43.3091H37.3302Z" fill="#1E2020"/>
<path d="M37.5149 31.5462C37.4096 31.9173 37.2911 32.4901 37.324 32.8091C37.3635 33.1281 37.8506 34.2803 37.7716 35.3349C37.6992 36.3894 37.4228 39.436 37.3174 40.6598C37.2121 41.8836 37.1989 42.4825 37.3174 43.1856C37.4359 43.8821 37.2121 45.4249 36.6131 45.4249C36.014 45.4249 35.9021 44.2011 36.1259 43.1856C36.3498 42.17 36.1325 41.1545 36.0206 40.484C35.9021 39.82 35.3887 35.5562 35.3426 34.9964C35.2702 34.0459 35.4808 33.3038 35.4084 32.8091C35.3426 32.3209 34.8555 30.7781 34.8555 30.7781L37.5149 31.5462Z" fill="#FDB171"/>
<path d="M40.7473 21.4952C41.2081 22.6734 41.8467 25.1797 42.031 27.9788C42.1824 30.2572 42.3667 33.4144 42.3667 33.4144C42.3667 33.4144 36.6002 33.6943 34.3489 32.7114C34.3489 32.7114 34.125 29.5932 34.125 27.7705C34.125 26.716 33.921 22.6995 34.9018 21.2869L40.7473 21.4952Z" fill="#525252"/>
<path d="M42.0305 27.9854C41.8461 25.1862 41.2076 22.6735 40.7468 21.5017L40.2663 21.4822C40.681 22.6474 41.1484 24.9844 41.2998 27.3084C41.4512 29.5867 41.6355 32.7374 41.6355 32.7374C41.6355 32.7374 36.8761 32.9653 34.3154 32.2687C34.3352 32.5487 34.3483 32.7179 34.3483 32.7179C36.5931 33.7009 42.3662 33.421 42.3662 33.421C42.3662 33.421 42.1819 30.2572 42.0305 27.9854Z" fill="#363636"/>
<path d="M39.2785 7.24543C39.2785 7.24543 39.6801 7.33006 39.6933 6.97202C39.713 6.61399 39.9368 6.32105 39.7657 6.19737C39.5945 6.08019 39.2654 6.40568 39.2654 6.47078C39.2654 6.47078 37.6855 5.23393 37.7053 4.19238V9.16579C38.2911 9.16579 39.2785 8.0982 39.2785 7.24543Z" fill="#FDB171"/>
<path d="M36.1254 7.24543C36.1254 7.24543 35.7238 7.33006 35.7107 6.97202C35.6909 6.61399 35.4671 6.32105 35.6383 6.19737C35.8094 6.08019 36.1386 6.40568 36.1386 6.47078C36.1386 6.47078 36.7179 4.3356 37.6987 4.19238V9.16579C37.521 9.16579 37.3103 9.06814 37.0997 8.91842C36.6059 8.54737 36.1254 7.84432 36.1254 7.24543Z" fill="#FDB171"/>
<path d="M37.6989 9.16577C37.5211 9.16577 37.3368 9.01604 37.1262 8.85981C36.6325 8.49527 36.119 7.8443 36.119 7.2389C36.119 7.2389 35.7175 7.32352 35.7043 6.96549C35.6845 6.60746 35.4607 6.31452 35.6319 6.19084C35.803 6.07366 36.1322 6.39915 36.1322 6.46424C36.1322 6.46424 37.0669 5.8328 36.9484 4.40067L37.5738 3.24194C37.5738 3.24194 36.8629 3.24194 36.3428 3.69111C35.8228 4.13377 35.3027 4.9605 35.3027 7.05012C35.3027 9.13973 35.3027 10.1162 35.3027 10.1162L36.5995 10.5133L37.6989 9.16577Z" fill="#713C1F"/>
<path d="M37.6986 9.16577C37.8697 9.16577 38.0936 8.97048 38.2976 8.82075C38.7979 8.45621 39.2785 7.85081 39.2785 7.24541C39.2785 7.24541 39.68 7.33003 39.6932 6.972C39.7129 6.61397 39.9367 6.32103 39.7656 6.19735C39.5944 6.08017 39.2653 6.40566 39.2653 6.47075C39.2653 6.47075 36.3162 5.78723 36.3689 3.87989L37.5801 3.24194C37.5801 3.24194 38.5346 3.24194 39.0546 3.69111C39.5747 4.13377 40.0947 4.9605 40.0947 7.05012C40.0947 9.13973 40.0947 10.1162 40.0947 10.1162L38.7913 10.5133L37.6986 9.16577Z" fill="#713C1F"/>
<path d="M37.6992 8.97704V10.4352L38.7656 9.61499C38.7656 9.61499 38.4497 8.91194 38.6735 8.12427L37.6992 8.97704Z" fill="#FDB171"/>
<path d="M37.6992 8.97704V10.4352L36.6328 9.61499C36.6328 9.61499 36.9488 8.91194 36.725 8.12427L37.6992 8.97704Z" fill="#FDB171"/>
<path d="M38.594 8.57983C38.594 8.57983 38.1003 9.10712 37.6987 9.10061C37.2972 9.10061 36.8035 8.57983 36.8035 8.57983L36.7969 8.94438C37.0668 9.37402 37.442 9.38704 37.7053 9.38704C37.962 9.38704 38.357 9.15269 38.594 8.71654V8.57983Z" fill="#F09C56"/>
<path d="M39.885 9.95355L39.1082 9.71269L38.97 9.38721L37.7061 10.1293V22.4717C37.7061 22.4717 40.9843 22.0681 40.9316 21.9639C40.8724 21.8598 39.885 9.95355 39.885 9.95355Z" fill="white"/>
<path d="M35.5199 9.95355L36.2967 9.71269L36.435 9.38721L37.6989 10.1293V22.4717C37.6989 22.4717 34.4206 22.0681 34.4733 21.9639C34.5259 21.8598 35.5199 9.95355 35.5199 9.95355Z" fill="white"/>
<path d="M36.0276 9.74512C36.0276 9.74512 33.9738 10.5002 33.6644 10.7411C33.355 10.982 32.7362 13.5142 32.565 14.7185C32.3939 15.9163 32.045 17.2899 32.0121 17.7716C31.9792 18.2533 34.2173 18.0645 34.2173 18.0645L34.428 15.1677L36.0407 13.039V9.74512H36.0276Z" fill="#878787"/>
<path d="M34.3026 18.2728C34.3026 18.2728 33.6114 19.3143 32.8544 19.0865C32.0974 18.8521 31.8407 17.9538 32.0513 17.4525C32.262 16.9513 32.7754 16.769 33.019 16.6323L34.3026 18.2728Z" fill="#707070"/>
<path d="M33.914 16.4437C33.914 16.4437 34.3353 18.0646 34.1641 20.4471C34.0522 22.0681 33.914 23.3374 33.914 23.3374L36.5142 23.4676C36.5142 23.4676 37.1988 18.2664 36.6854 16.6325C36.1719 14.9985 36.0337 9.75171 36.0337 9.75171L33.1504 11.9845L33.914 16.4437Z" fill="#878787"/>
<path d="M39.3718 9.74512C39.3718 9.74512 41.4257 10.5002 41.7416 10.7411C42.051 10.982 42.6698 13.5142 42.841 14.7185C43.0121 15.9163 43.361 17.2899 43.3939 17.7716C43.4268 18.2533 41.1887 18.0645 41.1887 18.0645L40.978 15.1677L39.3652 13.039V9.74512H39.3718Z" fill="#878787"/>
<path d="M41.4906 16.4437C41.4906 16.4437 41.0693 18.0646 41.2405 20.4471C41.3524 22.0681 41.4906 23.3374 41.4906 23.3374L38.8904 23.4676C38.8904 23.4676 38.2058 18.2664 38.7193 16.6325C39.2327 14.9985 39.371 9.75171 39.371 9.75171L42.2542 11.9845L41.4906 16.4437Z" fill="#878787"/>
<path d="M43.3733 15.3826C43.3733 15.3826 44.466 15.0506 44.6438 14.8423C44.8281 14.634 45.1375 13.6315 44.9334 13.3256C44.7227 13.0196 44.4134 12.6811 44.308 12.8634C44.2027 13.0457 44.3212 13.1303 44.3212 13.1303C44.3212 13.1303 43.9855 12.7202 43.8407 12.8113C43.6958 12.9024 43.8275 13.4753 43.9196 13.6576C44.0118 13.8398 43.7024 13.9245 43.5049 13.9245C43.3206 13.9245 42.7018 13.6901 41.9316 14.6536C41.9316 14.6536 42.0172 15.3696 42.3727 15.4868C42.7216 15.5975 43.2679 15.5714 43.3733 15.3826Z" fill="#FDB171"/>
<path d="M32.821 16.8277C32.5775 17.0685 32.584 17.4656 32.8276 17.7L33.4793 18.0971C33.7229 18.3379 34.0586 18.5137 34.3021 18.2728L34.4996 18.071C34.7432 17.8302 34.7959 17.342 34.5523 17.1076C34.5523 17.1076 34.2429 16.8147 34.1705 16.7431C34.0915 16.6649 33.8019 16.5413 33.8019 16.5413C33.5583 16.3004 33.2621 16.385 33.0185 16.6259L32.821 16.8277Z" fill="#FDB171"/>
<path d="M43.3739 15.3824C43.3739 15.3824 44.1506 19.5226 41.9322 19.4184C39.7138 19.3143 41.9322 14.6533 41.9322 14.6533C41.9322 14.6533 42.3338 15.8446 43.3739 15.3824Z" fill="#707070"/>
<path d="M39.9116 13.1953H39.7471V13.7096H39.9116V13.1953Z" fill="#ABABAB"/>
<path d="M40.8006 13.5403H38.8652V15.1417H40.8006V13.5403Z" fill="white"/>
<path d="M40.8792 15.2198H38.7793V13.4622H40.8792V15.2198ZM38.9439 15.0635H40.7212V13.6249H38.9439V15.0635Z" fill="#ABABAB"/>
<path d="M39.8188 13.345C39.6805 13.345 39.5752 13.2343 39.5752 13.1041C39.5752 12.9674 39.6871 12.8633 39.8188 12.8633C39.957 12.8633 40.0689 12.9739 40.0689 13.1041C40.0689 13.2343 39.957 13.345 39.8188 13.345Z" fill="#ABABAB"/>
<path d="M23.6055 5.85864C23.6055 5.85864 23.5791 6.95878 23.25 7.29078C23.25 7.29078 23.5528 8.50158 24.5205 8.50158V5.99535L23.6055 5.85864Z" fill="#FDB171"/>
<path d="M25.4424 5.85864C25.4424 5.85864 25.4687 6.95878 25.7978 7.29078C25.7978 7.29078 25.495 8.50158 24.5273 8.50158V5.99535L25.4424 5.85864Z" fill="#FDB171"/>
<path d="M24.336 7.18011C24.8429 7.18011 25.251 6.77651 25.488 6.42499C25.4485 6.11903 25.4419 5.85864 25.4419 5.85864L24.5269 5.98884L23.6053 5.85864C23.6053 5.85864 23.5921 6.38593 23.4736 6.81557C23.7172 7.04992 24.0068 7.18011 24.336 7.18011Z" fill="#F09C56"/>
<path d="M21.0449 43.6931C21.0449 43.6931 20.1496 44.8063 19.7283 45.3206C19.307 45.8348 19.9192 46.9936 21.0449 46.3881C22.1705 45.7827 22.7367 45.2099 22.9736 45.1253C23.2106 45.0406 23.4015 44.5264 23.3028 43.1333L21.0449 43.6931Z" fill="#1E2020"/>
<path d="M20.6963 25.0362L20.7555 43.693H23.8429L24.251 27.627C24.251 27.627 24.2707 26.7417 24.5275 26.5725V24.7107L20.6963 25.0362Z" fill="#003B5E"/>
<path d="M28.0033 43.6931C28.0033 43.6931 28.8985 44.8063 29.3198 45.3206C29.7411 45.8348 29.1289 46.9936 28.0033 46.3881C26.871 45.7827 26.3115 45.2099 26.0745 45.1253C25.8375 45.0406 25.6466 44.5264 25.7454 43.1333L28.0033 43.6931Z" fill="#1E2020"/>
<path d="M28.3519 25.0362L28.2927 43.693H25.212L24.8038 27.627C24.8038 27.627 24.738 26.6701 24.5273 26.5725V24.7107L28.3519 25.0362Z" fill="#003B5E"/>
<path d="M22.3158 7.59033C21.7958 7.87025 19.8604 8.20875 19.7617 9.18521C19.6695 10.1617 20.3344 14.5232 20.4265 16.8927C20.5187 19.2687 20.3344 25.0363 20.3344 25.0363H24.521V8.50169L22.3158 7.59033Z" fill="#004A6E"/>
<path d="M26.7323 7.59033C27.2524 7.87025 29.214 8.43008 29.3128 9.40654C29.4049 10.383 28.7137 14.5232 28.615 16.8992C28.5228 19.2752 28.7072 25.0428 28.7072 25.0428H24.5205V8.50169L26.7323 7.59033Z" fill="#004A6E"/>
<path d="M21.6377 7.84411L24.4815 12.4595V8.50159L22.5922 7.44702L21.6377 7.84411Z" fill="#B4D1D7"/>
<path d="M27.2989 7.8376L24.4814 12.4595V8.50159L26.4695 7.44702L27.2989 7.8376Z" fill="#B4D1D7"/>
<path d="M24.5205 6.7636C25.3039 6.7636 26.0872 5.80017 26.2979 4.64795C26.2979 4.64795 26.4558 4.69352 26.5875 4.53729C26.7521 4.342 26.8837 3.91236 26.7718 3.68452C26.5612 3.27441 26.2452 3.56083 26.2452 3.56083C26.2452 3.56083 26.2979 1.7251 24.5271 1.7251V6.7636H24.5205Z" fill="#FDB171"/>
<path d="M24.5205 6.7636C23.7371 6.7636 22.9537 5.80017 22.7431 4.64795C22.7431 4.64795 22.5851 4.69352 22.4535 4.53729C22.2889 4.342 22.1572 3.91236 22.2691 3.68452C22.4798 3.27441 22.7958 3.56083 22.7958 3.56083C22.7958 3.56083 22.7431 1.7251 24.5139 1.7251V6.7636H24.5205Z" fill="#FDB171"/>
<path d="M26.8182 1.72507C26.7392 0.826731 26.2455 0.0260388 24.5208 0C22.7961 0.0260388 22.3024 0.826731 22.2234 1.72507C22.1444 2.62341 22.3946 3.52175 22.3946 3.52175C22.7435 3.45014 22.9015 3.86025 22.9015 3.86025C22.7961 3.05305 23.3688 1.83573 23.5795 1.99848C23.7901 2.16122 24.2838 2.31094 24.5208 2.31094C24.7578 2.31094 25.2515 2.16122 25.4622 1.99848C25.6728 1.84224 26.2455 3.05956 26.1402 3.86676C26.1402 3.86676 26.2982 3.45665 26.6471 3.52825C26.6471 3.52175 26.8972 2.62341 26.8182 1.72507Z" fill="#1E2020"/>
<path d="M24.5207 8.50164L23.2502 7.10205L22.3154 7.59028L23.474 9.40648L24.5207 8.50164Z" fill="#D8E9ED"/>
<path d="M24.5205 8.50164L25.791 7.10205L26.7323 7.59028L25.5738 9.40648L24.5205 8.50164Z" fill="#D8E9ED"/>
<path d="M30.1165 11.9908C30.1231 11.8867 30.1296 11.7825 30.1296 11.6784C30.1757 9.6799 28.8789 8.69043 28.8789 8.69043L28.9118 11.9843H30.1165V11.9908Z" fill="#004A6E"/>
<path d="M26.8798 11.4341L25.792 19.4077L30.8738 20.0857L31.9617 12.1121L26.8798 11.4341Z" fill="#ABABAB"/>
<path d="M22.1675 7.63912L22.0098 7.68555L24.4419 15.7649L24.5996 15.7185L22.1675 7.63912Z" fill="white"/>
<path d="M26.887 7.64083L24.4473 15.7185L24.605 15.7651L27.0447 7.6874L26.887 7.64083Z" fill="white"/>
<path d="M25.5945 15.5779H23.4551V17.1988H25.5945V15.5779Z" fill="white"/>
<path d="M25.6731 17.2768H23.3691V15.4932H25.6731V17.2768ZM23.5337 17.1141H25.5151V15.6494H23.5337V17.1141Z" fill="#ABABAB"/>
<path d="M31.4652 15.76C31.1559 16.2937 30.5897 15.9227 30.4054 16.0594C30.2672 16.1636 30.1948 17.1335 30.5437 17.5176C30.6753 17.6608 30.9781 17.6998 31.1954 17.6868C31.9853 17.6413 32.2025 15.441 31.5442 15.2522L31.4652 15.76Z" fill="#FDB171"/>
<path d="M19.7614 9.18506C19.7614 9.18506 19.3072 13.3317 19.2282 14.7639C19.1492 16.196 19.2216 17.7128 20.1103 18.0317L20.8673 15.2326L19.7614 9.18506Z" fill="#004A6E"/>
<path d="M22.9481 10.6303C23.4681 10.2983 23.5142 9.82307 23.6919 9.44551C23.8697 9.06795 24.2646 8.64482 24.0671 8.61227C23.8367 8.57321 23.7512 8.67737 23.5274 8.91172C23.297 9.14607 23.218 9.49759 23.218 9.49759L22.6387 10.5261L22.9481 10.6303Z" fill="#FDB171"/>
<path d="M21.9337 10.2788C22.1048 10.9037 21.6374 11.5482 21.4202 11.9258C20.6632 13.2537 18.9056 17.1596 19.735 17.7975C21.1569 18.8976 21.6835 17.3418 22.1443 15.7209C22.6051 14.1 22.7763 11.4961 23.1186 10.5001L21.9337 10.2788Z" fill="#FDB171"/>
<path d="M21.7826 10.9949C21.6641 11.2488 21.4205 11.5873 21.3218 11.763C20.5648 13.091 18.9059 17.1596 19.7354 17.804C21.1572 18.9042 21.8155 17.3874 22.2763 15.7665C22.6055 14.5947 22.8095 12.6614 23.0136 11.4375C22.6515 11.3138 22.1381 11.1251 21.7826 10.9949Z" fill="#003B5E"/>
<path d="M22.0922 10.0314C22.0066 10.1746 22.0461 10.3568 22.1778 10.4285C22.3094 10.5001 22.4872 10.4415 22.5662 10.2983C22.6517 10.155 22.6122 9.97277 22.4806 9.90117C22.3489 9.82956 22.1778 9.88815 22.0922 10.0314Z" fill="#F09F5B"/>
<path d="M23.9614 8.06556L22.7962 10.5913L22.6382 10.5262C22.6448 10.4807 22.6251 10.4351 22.5856 10.4221C22.5461 10.4025 22.5 10.4286 22.4737 10.4611L22.3223 10.396L23.2768 7.78564L23.9614 8.06556Z" fill="#1E2020"/>
<path d="M23.1716 6.96541C22.9807 7.42109 23.1584 7.91582 23.56 8.07857C23.9615 8.24131 24.4421 8.00696 24.6264 7.55128C24.8173 7.10211 24.6396 6.60087 24.238 6.43812C23.8299 6.27538 23.3559 6.50973 23.1716 6.96541Z" fill="#707070"/>
<path d="M23.0268 6.87432C23.0005 6.93942 23.0268 7.01102 23.0861 7.03706L24.6067 7.64897C24.6659 7.6685 24.7318 7.63595 24.7581 7.57086C24.7844 7.50576 24.7581 7.43415 24.6988 7.40812L23.1782 6.78969C23.1255 6.77667 23.0531 6.80922 23.0268 6.87432Z" fill="#1E2020"/>
<path d="M22.3023 10.4221C22.243 10.5654 22.3023 10.7281 22.4339 10.7802C22.5722 10.8323 22.7236 10.7606 22.7828 10.6174C22.8421 10.4742 22.7828 10.318 22.6446 10.2594C22.5195 10.2073 22.3615 10.2789 22.3023 10.4221ZM22.4537 10.4872C22.4734 10.4352 22.5393 10.4026 22.5854 10.4287C22.638 10.4482 22.6578 10.5068 22.638 10.5654C22.6117 10.6239 22.5524 10.65 22.5064 10.6305C22.4537 10.6044 22.4274 10.5393 22.4537 10.4872Z" fill="#1E2020"/>
<path d="M22.8689 9.28937C22.8294 9.38702 22.8689 9.49117 22.9545 9.52372C23.04 9.55627 23.1454 9.5107 23.1849 9.41956L23.4679 8.73605C23.5074 8.6384 23.4679 8.53425 23.3758 8.5017C23.2902 8.46915 23.1849 8.51472 23.1454 8.60585L22.8689 9.28937Z" fill="#878787"/>
<path d="M22.9478 8.07846C23.5271 8.29328 23.2901 8.72292 23.1453 9.00284C22.9939 9.28926 22.9544 10.1746 22.5265 10.0769C22.0986 9.97278 22.283 10.3699 22.283 10.3699L22.2237 10.5587C22.2237 10.5587 21.6247 10.2006 21.8222 9.59522C22.0131 8.98331 22.2764 7.83109 22.9478 8.07846Z" fill="#FDB171"/>
</g>
<defs>
<clipPath id="clip0_309_1556">
<rect width="45" height="47" fill="white"/>
</clipPath>
</defs>
</svg>
