<svg width="44" height="36" viewBox="0 0 44 36" fill="none" xmlns="http://www.w3.org/2000/svg">
<g clip-path="url(#clip0_309_1759)">
<path d="M17.3931 20.4084H16.7354V34.1696H17.3931V20.4084Z" fill="#707070"/>
<path d="M25.2864 20.4084H24.6338V34.1696H25.2864V20.4084Z" fill="#707070"/>
<path d="M26.036 18.1322C26.036 17.7537 25.7277 17.4478 25.3423 17.4478H16.6944C16.3091 17.4478 16.0008 17.7537 16.0008 18.1322L15.7695 20.0299C15.7695 20.4084 16.0778 20.7144 16.4632 20.7144H25.5736C25.9538 20.7144 26.2673 20.4084 26.2673 20.0299L26.036 18.1322Z" fill="#1E2020"/>
<path d="M24.9007 15.2961C24.9007 16.4835 24.6644 17.4531 24.3663 17.4531H17.6762C17.3781 17.4531 17.1418 16.4887 17.1418 15.2961L16.9619 9.31251C16.9619 8.12513 17.2034 7.15552 17.4963 7.15552H24.541C24.8339 7.15552 25.0754 8.11994 25.0754 9.31251L24.9007 15.2961Z" fill="#707070"/>
<path d="M23.8011 20.7455C23.8011 20.7455 21.3655 21.6477 20.3944 21.3677C19.4232 21.0825 20.8311 18.8425 20.8311 18.8425L23.2359 18.9566L23.8011 20.7455Z" fill="#F09F5B"/>
<path d="M24.0835 14.1501C24.0835 14.1501 24.8029 16.1723 25.1934 16.8775C25.5582 17.5412 25.5993 18.9826 25.2653 19.6308C24.9313 20.2789 20.7487 18.6145 20.7487 18.6145L20.5791 14.4975L24.0835 14.1501Z" fill="#004A6E"/>
<path d="M22.6706 7.93848L21.0212 8.61772L19.6133 7.93848V14.4976H22.6706V7.93848Z" fill="#B4D1D7"/>
<path d="M14.0327 4.7445C14.0327 4.7445 14.1457 4.14303 14.12 3.88378C14.0943 3.62452 13.9659 2.95046 14.0789 2.64454C14.192 2.33862 14.4026 2.23492 14.5003 2.11048C14.5979 1.98604 14.7675 1.57642 14.9216 1.57642C15.0758 1.57642 15.4406 1.77345 15.5793 2.2764C15.7181 2.77935 15.677 3.06972 15.5793 3.25638C15.4817 3.43786 15.1117 4.16377 15.1169 4.85857C15.1169 4.85857 14.1611 5.26819 14.0327 5.02449C13.9042 4.79116 14.0327 4.7445 14.0327 4.7445Z" fill="#FDB171"/>
<path d="M20.1322 6.36745C20.1322 6.36745 18.8374 6.33116 18.4057 6.65782C17.9741 6.97929 16.4788 7.16596 15.4768 7.0467L15.2251 4.76526C15.2251 4.76526 14.4749 5.10229 13.9096 4.66675C13.9096 4.66675 13.6579 7.3941 13.7966 8.1252C13.9353 8.85629 17.3626 9.15703 17.8611 9.20369H19.7468L20.1322 6.36745Z" fill="#004A6E"/>
<path d="M15.0706 2.38002C15.0552 2.38002 15.0346 2.37484 15.0192 2.36447C14.9627 2.33336 14.9473 2.26595 14.973 2.20892L16.1394 0.0571093C16.1702 7.33885e-05 16.237 -0.0154818 16.2884 0.0104435C16.3449 0.041554 16.3603 0.10896 16.3347 0.165996L15.1682 2.3178C15.1477 2.35928 15.1117 2.38002 15.0706 2.38002Z" fill="#707070"/>
<path d="M20.1886 5.15918C20.1886 5.15918 20.1526 6.03546 19.9111 6.50212L21.021 8.78355V5.73472L20.1886 5.15918Z" fill="#FDB171"/>
<path d="M21.848 5.15918C21.848 5.15918 21.884 6.03546 22.1255 6.50212L21.0156 8.78355V5.73472L21.848 5.15918Z" fill="#FDB171"/>
<path d="M21.8893 5.5843C21.8739 5.44949 21.8636 5.33541 21.8585 5.26282L21.8482 5.16431L21.0209 5.73467L20.2296 5.19023L20.1834 5.21097C20.1782 5.31467 20.1577 5.56356 20.1063 5.83837L20.0703 6.01984C20.0703 6.01984 20.1988 6.28947 20.8668 6.28947C21.4782 6.28947 21.8893 5.5843 21.8893 5.5843Z" fill="#F09F5B"/>
<path d="M17.8613 9.20362C18.2827 9.39029 17.8665 14.5028 17.8665 14.5028H20.4665L20.076 7.15552L17.8613 9.20362Z" fill="#004A6E"/>
<path d="M22.2705 5.15925C22.2705 5.15925 22.4606 4.98814 22.476 4.90518L22.3373 4.84814L22.2705 5.15925Z" fill="#4F290F"/>
<path d="M19.768 5.15925C19.768 5.15925 19.5779 4.98814 19.5625 4.90518L19.7012 4.84814L19.768 5.15925Z" fill="#4F290F"/>
<path d="M21.2789 0.959369C21.4125 1.49343 21.0323 1.73195 20.5185 1.86157C20.0046 1.9912 19.5576 1.96527 19.424 1.43121C19.2904 0.907518 19.6604 0.601598 20.1691 0.471971C20.6829 0.342344 21.1402 0.414935 21.2789 0.959369Z" fill="#4F290F"/>
<path d="M22.6304 3.98233C22.6304 3.98233 22.8668 2.95568 22.5893 2.38532C22.2913 1.7683 21.8391 1.4209 21.0221 1.4209C20.1999 1.4209 19.7529 1.77348 19.4549 2.38532C19.1774 2.95568 19.4138 3.98233 19.4138 3.98233C19.0387 3.90455 19.1106 4.31936 19.2288 4.50602C19.3264 4.66157 19.3264 4.67713 19.3829 4.84824C19.4652 5.09193 19.6604 4.92083 19.6604 4.92083C19.7735 5.23712 19.8505 5.30971 20.2976 5.72451C20.6881 6.08747 20.8217 6.08228 21.0221 6.08228C21.2173 6.08228 21.3509 6.08747 21.7415 5.72451C22.1885 5.30971 22.2656 5.23712 22.3786 4.92083C22.3786 4.92083 22.5739 5.09193 22.6561 4.84824C22.7126 4.67713 22.7178 4.66157 22.8102 4.50602C22.9284 4.31936 23.0004 3.90455 22.6304 3.98233Z" fill="#FDB171"/>
<path d="M22.0904 1.41573C21.1758 0.93352 20.405 1.41573 20.405 1.41573C18.509 1.62832 19.1718 4.03938 19.1718 4.03938C19.2129 3.98235 19.2848 3.95642 19.4082 3.98235C19.3825 3.80605 19.5983 3.59347 19.9323 3.34458C20.2663 3.0957 20.3999 2.72756 20.3999 2.72756C20.3999 2.72756 20.7339 3.37051 21.5766 3.53643C22.4193 3.70754 22.594 3.82679 22.6197 3.98235C22.743 3.95642 22.8149 3.98753 22.856 4.03938C22.8663 4.03938 23.375 2.09498 22.0904 1.41573Z" fill="#582D11"/>
<path d="M22.5937 4.95181C22.5937 4.99847 22.5525 5.03996 22.5063 5.03996C22.4601 5.03996 22.4189 4.99847 22.4189 4.95181C22.4189 4.90514 22.4549 4.86885 22.5063 4.86885C22.5577 4.86366 22.5937 4.90514 22.5937 4.95181Z" fill="#D40000"/>
<path d="M19.4443 4.95181C19.4443 4.99847 19.4854 5.03996 19.5317 5.03996C19.5779 5.03996 19.619 4.99847 19.619 4.95181C19.619 4.90514 19.5831 4.86885 19.5317 4.86885C19.4854 4.86366 19.4443 4.90514 19.4443 4.95181Z" fill="#D40000"/>
<path d="M21.0209 8.7837L19.911 6.50745L20.06 6.08228L19.613 6.2119L18.7549 7.34743L19.613 7.52373L19.4434 8.06816L21.0209 8.7837Z" fill="#D8E9ED"/>
<path d="M22.5938 6.43481C22.5938 6.43481 23.714 6.78221 24.1816 6.97406C24.6492 7.16591 25.3018 8.05256 25.5073 9.0118C25.7128 9.97104 25.8413 10.7073 26.0109 11.1221C26.1804 11.5369 26.3654 12.8747 26.2524 13.3465C26.1393 13.8184 25.5535 14.3628 25.1887 14.4821C25.0911 14.5132 24.7931 14.4924 24.7931 14.4924H21.5713L22.0183 7.78812L22.5938 6.43481Z" fill="#004A6E"/>
<path d="M21.0215 8.7837L22.1314 6.50745L21.9772 6.08228L22.4243 6.2119L23.2875 7.34743L22.4243 7.52373L22.5938 8.06816L21.0215 8.7837Z" fill="#D8E9ED"/>
<path d="M23.5903 13.056C23.5903 13.056 24.5768 12.5531 24.618 12.4805C24.6591 12.4079 24.0168 9.67017 24.0168 9.67017C24.0168 9.67017 24.2069 12.0035 24.2223 12.2005C24.2377 12.3975 23.2871 13.0457 23.2871 13.0457L23.5903 13.056Z" fill="#003B5E"/>
<path d="M24.3356 14.4923C24.3356 14.4923 24.6542 14.539 24.7466 14.3886C24.8391 14.2382 24.9984 14.1449 25.1937 14.1345C25.1937 14.1345 25.1577 13.6368 24.6593 13.4553C24.166 13.2738 23.5443 12.9731 23.462 13.0612C23.3798 13.1442 24.3356 14.4923 24.3356 14.4923Z" fill="#EDAB72"/>
<path d="M22.7378 14.0828C22.6402 14.1087 22.0647 14.2124 22.1726 14.4509C22.224 14.565 23.19 14.4509 23.19 14.4509L22.892 14.0828H22.7378Z" fill="#F4C297"/>
<path d="M23.1899 13.0873C22.9895 13.2584 22.4294 13.8651 22.5887 14.088C22.748 14.3162 22.861 14.2384 22.9073 14.3421C22.9535 14.4458 23.0152 14.4925 23.1488 14.5858C23.2824 14.6791 23.493 14.6688 23.6061 14.7465C23.7191 14.8191 23.9247 14.9747 24.1302 14.7465C24.3357 14.5184 24.5978 14.1243 24.6183 13.9999C24.6389 13.8754 24.5515 13.7199 24.4231 13.6732C24.2895 13.6266 24.2176 13.4658 24.1251 13.4191C24.0326 13.3725 23.9144 13.3414 23.8373 13.2688C23.7654 13.191 23.6318 13.1858 23.5958 13.1443C23.5547 13.108 23.3543 12.9473 23.1899 13.0873Z" fill="#FDB171"/>
<path d="M23.8006 20.7455C23.8006 20.7455 25.9177 20.2581 25.4706 17.9767C25.2754 16.9863 24.0678 17.8056 24.0678 17.8056L21.7812 18.1167L23.8006 20.7455Z" fill="#004A6E"/>
<path d="M22.1058 28.5439C22.0801 28.8654 22.0493 29.6276 22.2086 30.3327C22.3833 31.1157 22.7481 32.0438 23.5497 31.9142C24.7264 31.7275 23.709 28.6787 23.5445 28.3002C23.3287 27.8024 23.0256 27.7298 22.7532 27.7972C22.2599 27.9321 22.1726 27.7246 22.1058 28.5439Z" fill="#1E2020"/>
<path d="M20.0963 30.7943C20.0963 30.7943 19.8599 32.6713 20.0654 33.3661C20.2812 34.092 20.4405 34.4239 20.8824 34.4239C21.5247 34.4239 21.7405 33.672 21.7303 32.915C21.7251 32.2202 21.7046 31.1988 21.5196 30.7373C21.3398 30.2706 20.0963 30.7943 20.0963 30.7943Z" fill="#1E2020"/>
<path d="M17.8612 20.4085C17.111 20.1286 16.3402 19.9263 16.2272 19.2782C16.1141 18.6301 16.4533 17.8627 16.8284 17.2716C17.2086 16.6805 17.9177 14.4976 17.9177 14.4976H21.0829L21.0007 20.2945L17.8612 20.4085Z" fill="#004A6E"/>
<path d="M18.6475 20.87C18.519 21.5026 18.8119 22.9855 19.2795 24.9092C19.6135 26.2988 20.2096 28.995 20.1582 29.5343C20.1017 30.0683 20.0965 31.2142 20.1068 31.6809C20.1222 32.1476 20.1222 32.7698 20.8776 32.7542C21.6329 32.7387 21.6483 31.5979 21.5507 30.9187C21.4531 30.2394 21.2835 29.1972 21.2835 28.575C21.2835 27.9528 21.4222 25.5781 21.3811 24.4633C21.34 23.3485 20.8056 19.5945 20.8056 19.5945C20.8056 19.5945 18.7143 20.5382 18.6475 20.87Z" fill="#F09F5B"/>
<path d="M23.3283 27.7921C23.0508 27.2788 22.7939 23.53 22.7939 23.53C22.7939 23.53 22.501 19.0605 22.239 18.7079C21.9769 18.3553 19.9524 18.3553 18.8785 19.1071C17.8046 19.8641 17.9125 20.0145 17.8662 20.4086C17.8662 20.4086 19.4334 20.7145 20.2864 20.5226C20.1374 21.9745 20.9287 24.3803 21.1702 25.044C21.535 26.0344 22.0745 26.9003 22.1054 27.6055C22.1413 28.4817 22.2236 30.7632 23.2307 30.5661C24.1967 30.3743 23.7188 28.5232 23.3283 27.7921Z" fill="#FDB171"/>
<path d="M4.57303 10.2195C4.14141 10.7432 4.13627 11.438 4.95327 12.2365C5.77028 13.035 7.98492 14.6891 8.70943 14.3832C9.73711 13.9424 11.0474 11.5677 11.3814 10.9818C11.9312 10.0225 12.4245 9.84104 12.6146 9.58178C13.1901 8.79884 13.5652 7.6996 12.4605 8.0833C12.2601 8.1507 11.7359 9.05291 11.7668 8.83513C11.9466 7.68923 11.4379 8.73143 11.3763 9.03217C11.2016 9.89807 10.3229 10.7121 10.1071 10.9195C9.67031 11.3447 8.52445 12.4751 8.48335 12.6202C8.48335 12.6202 5.59043 8.99068 4.57303 10.2195Z" fill="#FDB171"/>
<path d="M12.7153 6.64344L11.6221 10.0413L14.6374 11.0292L15.7307 7.63135L12.7153 6.64344Z" fill="#B4D1D7"/>
<path d="M12.62 6.02184L11.3525 9.95679L14.3676 10.9457L15.635 7.01071L12.62 6.02184Z" fill="#D8E9ED"/>
<path d="M12.5915 7.36051L12.3037 8.25293L13.1881 8.5433L13.4759 7.65088L12.5915 7.36051Z" fill="#B4D1D7"/>
<path d="M14.8187 8.31138L13.6729 7.93287L13.7345 7.73584L14.8804 8.10917L14.8187 8.31138Z" fill="#B4D1D7"/>
<path d="M14.7054 8.65885L13.5596 8.28034L13.6264 8.07812L14.7671 8.45664L14.7054 8.65885Z" fill="#B4D1D7"/>
<path d="M13.5164 8.42456L13.4512 8.62671L14.5945 9.00223L14.6597 8.80008L13.5164 8.42456Z" fill="#B4D1D7"/>
<path d="M14.4799 9.34853L12.1934 8.59669L12.255 8.39966L14.5467 9.14631L14.4799 9.34853Z" fill="#B4D1D7"/>
<path d="M14.3718 9.69594L12.0801 8.9441L12.1469 8.74707L14.4335 9.49372L14.3718 9.69594Z" fill="#B4D1D7"/>
<path d="M14.2585 10.0432L11.9668 9.29133L12.0336 9.08911L14.3253 9.84095L14.2585 10.0432Z" fill="#B4D1D7"/>
<path d="M14.146 10.3906L11.8594 9.63874L11.921 9.43652L14.2128 10.1884L14.146 10.3906Z" fill="#B4D1D7"/>
<path d="M15.1218 7.55959L12.8301 6.80776L12.9277 6.51221L15.2194 7.26404L15.1218 7.55959Z" fill="#B4D1D7"/>
<path d="M14.988 7.96913L12.6963 7.2173L12.7631 7.02026L15.0548 7.76691L14.988 7.96913Z" fill="#B4D1D7"/>
<path d="M3.41211 22.6691C4.29077 24.852 4.46034 25.4897 4.46034 25.9875C4.46034 26.1949 3.90026 28.2067 4.3216 29.2852C4.78406 30.4674 4.85086 32.3807 4.55797 33.1585C4.55797 33.1585 5.46746 35.7925 7.19396 34.9058C7.19396 34.9058 6.51569 34.3199 6.15601 33.3503C5.99158 32.8992 6.39751 26.983 6.41293 26.0705C6.42834 25.2616 6.09949 24.2557 5.82715 23.0994C5.54968 21.9431 3.44294 22.5291 3.44294 22.5291L3.41211 22.6691Z" fill="#F09F5B"/>
<path d="M4.56337 33.1584C4.56337 33.1584 4.1523 33.6718 4.29617 34.3718C4.44005 35.0717 4.42463 35.6162 4.40408 35.8806L4.69697 35.8962L4.7689 34.3199C4.7689 34.3199 5.36496 35.0406 5.50883 35.4347C5.65271 35.8236 5.48828 35.9999 7.0041 36.0051C7.97526 36.0102 8.08316 35.7717 7.94956 35.471C7.86221 35.2688 7.47683 35.0458 7.2045 34.911C7.19936 34.9058 6.02781 35.331 4.56337 33.1584Z" fill="#003B5E"/>
<path d="M1.92188 22.6691C2.80054 24.852 2.97011 25.4897 2.97011 25.9875C2.97011 26.1949 2.41002 28.2067 2.83137 29.2852C3.29382 30.4674 3.36062 32.3807 3.06774 33.1585C3.06774 33.1585 3.97723 35.7925 5.70373 34.9058C5.70373 34.9058 5.02546 34.3199 4.66063 33.3503C4.49621 32.8992 4.90214 26.983 4.91755 26.0705C4.93297 25.2616 4.60411 24.2557 4.33178 23.0994C4.05431 21.9431 1.94243 22.5291 1.94243 22.5291L1.92188 22.6691Z" fill="#FDB171"/>
<path d="M3.07313 33.1584C3.07313 33.1584 2.66206 33.6718 2.80594 34.3718C2.94981 35.0717 2.9344 35.6162 2.91384 35.8806L3.20673 35.8962L3.27867 34.3199C3.27867 34.3199 3.87472 35.0406 4.0186 35.4347C4.16247 35.8236 3.99804 35.9999 5.51387 36.0051C6.48502 36.0102 6.59293 35.7717 6.45933 35.471C6.37198 35.2688 5.9866 35.0458 5.71426 34.911C5.70913 34.9058 4.53757 35.331 3.07313 33.1584Z" fill="#004A6E"/>
<path d="M5.98607 16.5713L6.03746 16.5817C5.96038 16.4832 5.91927 16.4261 5.91927 16.4261L4.12598 15.9802V25.4482C6.1505 25.4171 7.56356 24.9919 8.54499 24.463L5.98607 16.5713Z" fill="#4985E2"/>
<path d="M4.49092 2.22941C4.49092 2.22941 5.68303 1.99608 6.55655 3.11606C7.43522 4.24122 7.15261 5.97304 6.24825 7.71523C5.67275 8.83002 5.35417 9.25519 5.719 9.44704C6.08896 9.63889 4.79409 9.25001 4.53203 8.29077C4.26483 7.32634 3.63281 6.196 3.63281 6.196C3.63281 6.196 4.60397 3.45309 4.62966 3.38569C4.65535 3.31309 4.49092 2.22941 4.49092 2.22941Z" fill="#37120B"/>
<path d="M5.467 2.82056C5.56977 2.97092 6.21721 3.31832 6.30456 4.05979C6.35594 4.46941 6.33025 4.42793 6.24804 4.55237C6.1093 4.75978 6.27373 5.04496 6.36622 5.19532C6.51009 5.43384 6.6848 5.58939 6.40219 5.69309C6.08361 5.80716 6.19665 5.92642 6.27887 6.01975C6.33539 6.09234 6.19665 6.20123 6.15041 6.23752C6.15041 6.23752 6.27373 6.39308 6.16582 6.46567C6.05792 6.54344 5.95515 6.51752 5.93973 6.60566C5.91918 6.69381 5.96543 7.04121 5.79072 7.13454C5.61602 7.23306 5.21522 7.08788 5.00455 7.0464C4.8247 7.0101 4.57806 6.96343 4.34169 7.11899C3.59149 7.62712 3.60177 8.22859 3.60177 8.22859C3.60177 8.22859 3.29346 8.53451 2.682 7.32639C2.59464 7.16047 2.7231 6.8701 2.77449 6.56418C2.84129 6.1753 2.85156 5.78124 2.86698 5.76568C2.89781 5.74494 4.73221 3.86276 4.73221 3.86276L5.467 2.82056Z" fill="#FDB171"/>
<path d="M4.75276 7.61663C4.74762 7.54404 4.71679 7.07738 5.00968 7.04108C5.18439 7.01516 5.16897 6.87516 5.11759 6.75072L5.5749 6.45517L4.30058 6.40332L3.40137 8.47217L5.30257 9.28622C5.30257 9.28622 5.10731 9.10475 4.8915 8.35291C4.81442 8.08329 4.77332 7.82922 4.75276 7.61663Z" fill="#FDB171"/>
<path d="M5.28269 9.28112C5.22617 9.21371 5.06688 8.98557 4.89217 8.37373C4.8151 8.09892 4.77399 7.85004 4.7483 7.63745C4.7483 7.61671 4.74316 7.57523 4.74316 7.51819C4.74316 7.35746 4.77399 7.07228 5.00522 7.04635C5.01036 7.04635 5.01036 7.04117 5.02063 7.04117C4.83565 6.96339 4.47597 6.7871 4.24988 6.54858L3.44829 8.38929C3.44315 8.42558 3.43287 8.46188 3.42773 8.49299L5.28269 9.28112Z" fill="#FDB171"/>
<path d="M3.70492 8.35815C3.70492 8.35815 4.75315 9.0374 5.1745 9.10999C5.1745 9.10999 6.47965 10.8937 6.51048 11.5988C6.54131 12.3092 6.51048 12.8951 6.06858 13.4862C5.63181 14.0721 5.95553 16.3328 5.98123 16.5713C5.98123 16.5713 3.90532 16.8098 2.32783 16.4261C2.32783 16.4261 2.32783 13.341 2.18396 12.5425C2.04008 11.7492 1.62901 8.41519 3.70492 8.35815Z" fill="#4985E2"/>
<path d="M3.80769 8.42037C3.75117 8.38408 3.70492 8.35815 3.70492 8.35815C1.62901 8.41519 2.04008 11.7492 2.18396 12.5477C2.32783 13.3462 2.32783 16.4313 2.32783 16.4313C2.6721 16.5143 3.04207 16.5661 3.40689 16.6024L3.80769 8.42037Z" fill="#3357BD"/>
<path d="M5.85773 2.54572C5.85773 2.54572 5.79093 4.58864 4.60396 5.25233C4.03874 5.56862 4.28538 6.27898 4.31621 6.49675C4.42925 7.22266 3.90514 9.70113 1.55176 8.97522C1.55176 8.97522 3.17035 8.2182 2.1735 6.08713C1.55176 4.74938 2.24544 1.91314 4.7427 2.19314L5.85773 2.54572Z" fill="#37120B"/>
<path d="M2.33283 16.4261L0 24.6134C0.966017 25.0697 2.29172 25.4274 4.12612 25.4534V15.9802L2.33283 16.4261Z" fill="#4985E2"/>
<path d="M2.06563 25.2564C2.79528 22.0001 3.41189 16.644 3.41189 16.644L2.9186 16.281L2.33283 16.4262L0 24.6134C0.554946 24.8779 1.23835 25.106 2.06563 25.2564Z" fill="#3357BD"/>
<path d="M1.55176 8.97526C2.43042 9.25007 3.05217 9.06859 3.48379 8.71082C4.04388 7.70491 4.04901 6.54345 3.42727 5.19533C2.55374 3.30797 4.12609 2.23465 4.19803 2.18799C2.15295 2.35391 1.598 4.85312 2.1735 6.08717C3.17035 8.21823 1.55176 8.97526 1.55176 8.97526Z" fill="#260D08"/>
<path d="M3.48903 9.31229C4.39339 9.12562 4.97403 10.1004 4.91237 11.3552C4.85071 12.6048 4.29576 14.7825 3.94635 15.7366C3.94635 15.7366 4.65545 17.0536 4.65545 18.5054C4.65545 19.5321 4.95347 20.4602 5.19498 20.9217C5.43648 21.3831 5.53925 22.2128 4.99972 22.3528C4.46533 22.4928 3.82303 21.4194 3.84872 21.0565C3.87955 20.6935 4.00287 20.2839 3.86414 19.8691C3.43765 18.6195 2.49219 16.5144 2.53843 15.7884C2.5744 15.104 2.11708 9.59747 3.48903 9.31229Z" fill="#FDB171"/>
<path d="M14.3154 16.2139H13.4727V34.4861H14.3154V16.2139Z" fill="#363636"/>
<path d="M28.3027 16.2139H27.46V34.4861H28.3027V16.2139Z" fill="#363636"/>
<path d="M12.4038 17.7122H11.4121V35.9844H12.4038V17.7122Z" fill="#525252"/>
<path d="M30.3628 17.7122H29.3711V35.9844H30.3628V17.7122Z" fill="#525252"/>
<path d="M34.1344 17.0071H7.63574V17.7745H34.1344V17.0071Z" fill="#878787"/>
<path d="M34.1395 17.7693C34.1395 19.2263 28.2098 20.4085 20.8876 20.4085C13.5654 20.4085 7.63574 19.2263 7.63574 17.7693C7.63574 16.3123 13.5654 15.1301 20.8876 15.1301C28.2098 15.1301 34.1395 16.3123 34.1395 17.7693Z" fill="#878787"/>
<path d="M34.1395 17.0071C34.1395 18.4641 28.2098 19.6463 20.8876 19.6463C13.5654 19.6463 7.63574 18.4589 7.63574 17.0071C7.63574 15.5501 13.5654 14.373 20.8876 14.373C28.2098 14.373 34.1395 15.5501 34.1395 17.0071Z" fill="#ABABAB"/>
<path d="M29.3509 12.9107C28.7497 12.6825 27.8299 11.4848 28.0817 11.0855C28.3335 10.6863 29.0118 10.1211 29.2995 10.287C29.5821 10.453 29.7825 11.1892 29.762 11.3448C29.7414 11.5003 30.0292 12.0189 30.0292 12.0189L29.3509 12.9107Z" fill="#F09C56"/>
<path d="M32.5112 12.1279C32.4187 12.2834 32.2903 13.0664 32.1156 13.979C32.1156 13.979 30.8412 12.1901 29.9831 11.122L28.6729 12.0968C28.9606 12.6931 31.6428 16.4937 32.1156 16.6026C32.9172 16.7841 33.9243 14.7619 35.0239 12.9108C36.1235 11.0598 36.0927 10.4013 34.9982 9.89312C32.4753 8.72648 32.6037 11.9723 32.5112 12.1279Z" fill="#254371"/>
<path d="M29.1813 12.8744C28.6829 12.4648 28.1844 11.0337 28.5493 10.7382C28.9141 10.4375 29.7362 10.1212 29.952 10.3701C30.173 10.6189 30.1216 11.3811 30.06 11.5211C29.9932 11.6611 30.1011 12.2471 30.1011 12.2471L29.1813 12.8744Z" fill="#FDB171"/>
<path d="M32.2334 10.1057C32.2334 10.1057 32.3927 10.2975 32.3464 10.8472C32.3002 11.402 33.482 9.80495 33.482 9.80495L32.6085 9.08423L32.2334 10.1057Z" fill="#FDB171"/>
<path d="M41.8577 34.0503C42.0581 34.1955 43.6304 33.8532 43.7281 34.0347C43.8308 34.2162 44.0261 34.7243 43.9439 35.0147C43.9439 35.0147 44.0312 35.0769 43.9901 35.2221C43.9541 35.3725 43.5585 35.4451 43.0395 35.4865C42.5205 35.528 40.9687 35.7717 40.5268 35.6991C40.0849 35.6265 39.679 35.5125 39.6071 35.3414C39.53 35.1651 39.3707 34.8073 39.7612 34.8229C40.1517 34.8436 40.6091 34.7969 40.7992 34.6777C40.9893 34.5584 41.3952 34.3614 41.5545 34.2006C41.7138 34.0399 41.7755 33.9932 41.8577 34.0503Z" fill="#003B5E"/>
<path d="M38.132 34.0659C38.3479 34.2007 39.9305 33.7444 40.0487 33.9207C40.1669 34.097 40.4032 34.6104 40.3416 34.9111C40.3416 34.9111 40.434 34.9681 40.4032 35.1237C40.3775 35.2792 39.9767 35.3829 39.4475 35.4607C38.9182 35.5385 37.3459 35.8963 36.8834 35.8496C36.4261 35.8029 35.9996 35.7148 35.9123 35.5437C35.8249 35.3726 35.6348 35.0096 36.0356 34.9992C36.4364 34.9889 36.904 34.9111 37.089 34.7815C37.2739 34.6466 37.6799 34.4133 37.8289 34.2422C37.983 34.0659 38.0447 34.0141 38.132 34.0659Z" fill="#004A6E"/>
<path d="M38.8311 21.6736C38.8311 21.6736 39.4271 26.6409 39.607 27.0401C39.6635 27.1646 40.0643 27.9942 40.3006 28.9586C40.8453 31.1623 41.5595 34.1955 41.5595 34.1955L43.877 34.3874C43.877 34.3874 43.5738 30.0475 43.0394 28.5645C42.505 27.0816 42.1145 26.169 42.171 25.3498C42.2327 24.5305 42.1556 19.1484 42.1556 19.1484L38.8311 21.6736Z" fill="#707070"/>
<path d="M37.6187 19.4075C37.6187 19.4075 36.0772 22.5704 35.6764 23.6334C35.2807 24.7015 34.4021 25.9926 34.8799 27.0607C35.3578 28.1237 37.6649 34.3872 37.6649 34.3872L40.0491 33.9258L37.7112 26.34C37.7112 26.34 42.3717 20.5949 42.3717 19.5683C42.3717 18.5416 42.1918 18.0853 40.6452 16.4832L37.6187 19.4075Z" fill="#878787"/>
<path d="M30.697 9.85663L30.661 9.78922L30.8717 9.07368C31.0464 9.12035 31.2519 9.05813 31.3187 8.83517L32.0792 6.26855C32.7215 7.03076 32.9014 8.18185 32.963 8.3737C33.0298 8.59147 33.4203 8.99591 33.8725 9.40034C33.4666 9.83589 33.0452 10.2559 32.5879 10.6396C32.4954 10.2092 32.1717 9.43664 31.4832 10.0537C30.846 10.6188 30.6867 10.3233 30.6045 10.0744C30.6816 9.9707 30.7792 10.007 30.697 9.85663Z" fill="#FDB171"/>
<path d="M29.6846 6.48633C29.6384 6.65225 29.1554 7.18113 29.3095 7.88111C29.3866 8.26999 29.3969 8.22333 29.5099 8.31148C29.7001 8.45666 29.6384 8.76776 29.6024 8.93887C29.5459 9.19812 29.4329 9.39516 29.7257 9.40034C30.0546 9.40553 29.9878 9.54552 29.9416 9.6596C29.9107 9.74256 30.0752 9.79959 30.1265 9.81515C30.1265 9.81515 30.0649 9.99663 30.1831 10.0329C30.3012 10.0692 30.3886 10.0122 30.4348 10.0848C30.4811 10.1522 30.5428 10.4892 30.7329 10.5203C30.923 10.5514 31.2416 10.2922 31.4266 10.1885C31.5756 10.1003 31.7862 9.97589 32.0483 10.0433C32.8961 10.2714 32.9115 10.5618 32.9115 10.5618C32.9115 10.5618 33.3432 10.3959 33.6309 9.70626C33.7029 9.54034 33.4614 9.92922 33.2764 9.70108C32.9732 9.32257 33.2147 6.68855 32.4902 7.01002C32.4542 7.02558 30.6763 7.20187 30.6763 7.20187L29.6846 6.48633Z" fill="#FDB171"/>
<path d="M33.1792 5.68794C32.5163 5.0398 31.7507 4.44352 30.8309 4.8998C29.9111 5.35609 29.1301 6.20126 28.8115 5.84867C28.8115 5.84867 28.8321 6.92717 29.3305 7.19161C29.3356 6.98421 31.2111 7.87085 31.4989 7.9953C31.7918 8.11974 31.3088 7.53382 31.6633 7.39383C32.0127 7.24864 32.5677 7.82419 32.6037 8.19751C32.6345 8.48269 33.2511 8.78861 33.2511 8.78861L33.3487 9.0012L33.5491 8.1664C33.5543 8.16122 33.8471 6.33607 33.1792 5.68794Z" fill="#1E2020"/>
<path d="M31.4522 10.173C31.4419 10.1782 31.4317 10.1834 31.4265 10.1885C31.2467 10.2923 30.923 10.5515 30.7328 10.5204C30.6506 10.5048 30.589 10.4271 30.5479 10.3441C30.5479 10.3441 31.6064 9.84115 31.7194 9.39005C31.8684 8.8145 31.5241 8.34266 31.2724 7.45083C31.0257 6.55381 31.6012 7.93823 31.6012 7.93823C31.6012 7.93823 32.3977 9.50412 31.6834 9.98633C31.5961 10.0434 31.5241 10.1056 31.4522 10.173Z" fill="#1E2020"/>
<path d="M40.9994 16.8773C40.9994 16.8773 37.8187 12.61 37.4847 12.0656C37.1507 11.5212 35.4345 9.08417 34.1551 9.34861L33.6053 9.08936L32.3463 10.8471C32.3463 10.8471 32.0843 12.4234 32.7215 13.787C33.189 14.7929 34.1808 16.0892 35.0851 16.9759C35.9895 17.8625 37.6697 19.4699 37.6697 19.4699L40.9994 16.8773Z" fill="#4985E2"/>
<path d="M32.6912 12.9263C32.5987 13.0767 32.4754 13.8648 32.2955 14.7774C32.2955 14.7774 31.0212 12.9937 30.1579 11.9204L28.8477 12.8952C29.1303 13.4915 31.8228 17.6084 32.2955 17.7173C33.0971 17.8988 34.1042 15.5603 35.1987 13.704C36.2983 11.853 36.4473 10.5256 35.3477 10.0226C32.8299 8.86118 32.7837 12.7707 32.6912 12.9263Z" fill="#3357BD"/>
<mask id="mask0_309_1759" style="mask-type:luminance" maskUnits="userSpaceOnUse" x="22" y="14" width="6" height="2">
<path d="M26.8338 14.3989H26.8081H26.5974H22.3018C22.3018 14.3989 22.4097 14.6686 22.4097 15.1404C22.4097 15.5915 22.3018 15.8196 22.3018 15.8196H26.5974H26.8081H26.8338C27.0085 15.8196 27.1524 15.6745 27.1524 15.4982V14.7204C27.1524 14.5441 27.0085 14.3989 26.8338 14.3989Z" fill="white"/>
</mask>
<g mask="url(#mask0_309_1759)">
<path d="M27.1524 14.5337H22.3018V14.767H27.1524V14.5337Z" fill="#EEFAF8"/>
<path d="M27.1524 14.7671H22.3018V15.0004H27.1524V14.7671Z" fill="#D8E9ED"/>
<path d="M27.1524 14.9951H22.3018V15.2233H27.1524V14.9951Z" fill="#EEFAF8"/>
<path d="M27.1524 15.2285H22.3018V15.4618H27.1524V15.2285Z" fill="#D8E9ED"/>
<path d="M27.1524 15.4565H22.3018V15.6899H27.1524V15.4565Z" fill="#EEFAF8"/>
</g>
<path d="M26.8334 15.9441H22.3013C22.2345 15.9441 22.1729 15.8871 22.1729 15.8145C22.1729 15.7419 22.2294 15.6849 22.3013 15.6849H26.8334C26.9413 15.6849 27.0235 15.5967 27.0235 15.493V14.7153C27.0235 14.6116 26.9361 14.5234 26.8334 14.5234H22.3013C22.2345 14.5234 22.1729 14.4664 22.1729 14.3938C22.1729 14.3264 22.2294 14.2642 22.3013 14.2642H26.8334C27.08 14.2642 27.2804 14.4664 27.2804 14.7153V15.493C27.2804 15.7419 27.08 15.9441 26.8334 15.9441Z" fill="#4985E2"/>
<path d="M24.2536 15.1093L23.9196 15.0004L23.6113 15.1093V14.7671H24.2536V15.1093Z" fill="#878787"/>
<path d="M25.9697 15.5656L25.6408 15.4567L25.3223 15.5656V15.2234H25.9697V15.5656Z" fill="#878787"/>
<mask id="mask1_309_1759" style="mask-type:luminance" maskUnits="userSpaceOnUse" x="21" y="16" width="7" height="2">
<path d="M27.152 16.0479H27.1212H26.8797H21.9365C21.9365 16.0479 22.0598 16.3538 22.0598 16.8982C22.0598 17.4167 21.9365 17.676 21.9365 17.676H26.8797H27.1212H27.152C27.3524 17.676 27.5168 17.51 27.5168 17.3078V16.416C27.5168 16.2138 27.3524 16.0479 27.152 16.0479Z" fill="white"/>
</mask>
<g mask="url(#mask1_309_1759)">
<path d="M27.522 16.2034H21.9365V16.4678H27.522V16.2034Z" fill="#EEFAF8"/>
<path d="M27.522 16.4678H21.9365V16.7322H27.522V16.4678Z" fill="#D8E9ED"/>
<path d="M27.522 16.7375H21.9365V17.002H27.522V16.7375Z" fill="#EEFAF8"/>
<path d="M27.522 17.002H21.9365V17.2664H27.522V17.002Z" fill="#D8E9ED"/>
<path d="M27.522 17.2664H21.9365V17.5308H27.522V17.2664Z" fill="#EEFAF8"/>
</g>
<path d="M27.1516 17.8315H21.9361C21.8539 17.8315 21.7871 17.7641 21.7871 17.6811C21.7871 17.5982 21.8539 17.5308 21.9361 17.5308H27.1567C27.28 17.5308 27.3777 17.4322 27.3777 17.3078V16.416C27.3777 16.2915 27.28 16.193 27.1567 16.193H21.9361C21.8539 16.193 21.7871 16.1256 21.7871 16.0426C21.7871 15.9597 21.8539 15.8975 21.9361 15.8975H27.1567C27.4393 15.8975 27.6706 16.1308 27.6706 16.416V17.3078C27.6654 17.5982 27.4342 17.8315 27.1516 17.8315Z" fill="#004A6E"/>
<path d="M24.1813 16.867L23.796 16.7426L23.4414 16.867V16.4678H24.1813V16.867Z" fill="#707070"/>
<path d="M26.155 17.3855L25.7799 17.2663L25.415 17.3855V16.9915H26.155V17.3855Z" fill="#707070"/>
<path d="M17.7734 15.773L17.9378 17.8885L14.4642 17.5774L14.2998 15.4619L17.7734 15.773Z" fill="#D8E9ED"/>
<path d="M16.489 16.2136L17.3111 18.1632L13.9198 18.9928L13.0977 17.0381L16.489 16.2136Z" fill="white"/>
</g>
<defs>
<clipPath id="clip0_309_1759">
<rect width="44" height="36" fill="white"/>
</clipPath>
</defs>
</svg>
