<svg width="45" height="49" viewBox="0 0 45 49" fill="none" xmlns="http://www.w3.org/2000/svg">
<g clip-path="url(#clip0_309_863)">
<path d="M43.3302 27.7535C43.7684 27.9157 43.994 28.4022 43.8393 28.8499L41.1259 36.3494C40.9648 36.797 40.475 37.0241 40.0367 36.8619L35.6669 35.2595C35.2286 35.0973 34.9966 34.6108 35.1577 34.1631L37.8711 26.6636C38.0322 26.2224 38.5156 25.9954 38.9603 26.1511L43.3302 27.7535Z" fill="#707070"/>
<path d="M17.0342 3.34107C17.0342 2.86749 17.4144 2.49121 17.8849 2.49121H25.8125C26.283 2.49121 26.6632 2.87397 26.6632 3.34107V8.02504C26.6632 8.49863 26.283 8.88139 25.8125 8.88139H17.8849C17.4144 8.88139 17.0342 8.49863 17.0342 8.02504V3.34107Z" fill="#707070"/>
<path d="M29.6214 45.2048C29.6601 45.6719 29.3185 46.0871 28.848 46.1325L20.9527 46.8267C20.4887 46.8656 20.0762 46.5218 20.0311 46.0482L19.625 41.3837C19.5799 40.9166 19.928 40.5014 20.3984 40.456L28.2937 39.7618C28.7642 39.7229 29.1767 40.0667 29.2154 40.5403L29.6214 45.2048Z" fill="#707070"/>
<path d="M41.5126 28.9473C41.7962 29.0511 41.9379 29.3625 41.8348 29.6479L40.1011 34.4487C39.998 34.7341 39.6886 34.8768 39.405 34.773L36.6078 33.748C36.3242 33.6442 36.1824 33.3328 36.2856 33.0474L38.0193 28.2466C38.1224 27.9612 38.4318 27.8184 38.7154 27.9222L41.5126 28.9473Z" fill="#1E2020"/>
<path d="M18.8062 4.61258C18.8062 4.30766 19.0512 4.06763 19.3476 4.06763H24.42C24.7164 4.06763 24.9614 4.31415 24.9614 4.61258V7.6098C24.9614 7.91471 24.7164 8.15474 24.42 8.15474H19.3412C19.0447 8.15474 18.7998 7.90822 18.7998 7.6098L18.8062 4.61258Z" fill="#004A6E"/>
<path d="M6.21284 39.7619C5.83258 39.9825 5.34919 39.8528 5.13006 39.47L1.4241 33.0149C1.20496 32.6322 1.33386 32.1456 1.71413 31.925L5.47809 29.7388C5.85836 29.5182 6.34174 29.6479 6.56088 30.0307L10.2668 36.4858C10.486 36.8685 10.3571 37.3551 9.9768 37.5756L6.21284 39.7619Z" fill="#707070"/>
<path d="M6.32868 37.6273C6.08376 37.77 5.7744 37.6857 5.6326 37.4392L3.26724 33.3066C3.12544 33.0601 3.20923 32.7487 3.45415 32.606L5.86463 31.2047C6.10955 31.062 6.41891 31.1463 6.55426 31.3928L8.92607 35.5254C9.06787 35.7719 8.98408 36.0833 8.73916 36.226L6.32868 37.6273Z" fill="#4985E2"/>
<path d="M27.7462 44.0889C27.772 44.3873 27.5529 44.6533 27.25 44.6792L22.197 45.1269C21.9005 45.1528 21.6362 44.9323 21.6104 44.6273L21.3526 41.6431C21.3269 41.3447 21.546 41.0787 21.8489 41.0527L26.9019 40.6051C27.1984 40.5792 27.4626 40.7997 27.4884 41.0981L27.7462 44.0889Z" fill="#3357BD"/>
<path d="M22.0802 7.23364C31.3935 7.23364 38.9407 14.8305 38.9472 24.2049C38.9472 33.5793 31.3999 41.1762 22.0802 41.1762C12.767 41.1827 5.21973 33.5858 5.21973 24.2114C5.21973 14.837 12.767 7.23364 22.0802 7.23364Z" fill="#878787"/>
<path d="M22.0805 8.9397C30.4592 8.9397 37.2459 15.7775 37.2459 24.2048C37.2459 32.6385 30.4527 39.4698 22.0805 39.4698C13.7018 39.4698 6.91504 32.632 6.91504 24.2048C6.91504 15.7775 13.7082 8.9397 22.0805 8.9397Z" fill="#ABABAB"/>
<path d="M34.8935 27.3252C35.0804 27.3966 35.177 27.6042 35.1126 27.7923L33.772 31.5097C33.7011 31.6978 33.4949 31.7951 33.308 31.7302L30.5301 30.7117C30.3432 30.6403 30.2465 30.4327 30.311 30.2446L31.6516 26.5273C31.7224 26.3391 31.9287 26.2418 32.1156 26.3067L34.8935 27.3252Z" fill="#B4D1D7"/>
<path d="M31.9916 26.6559L30.6484 30.3682L33.422 31.3849L34.7652 27.6727L31.9916 26.6559Z" fill="white"/>
<path d="M31.5232 29.139L31.1738 30.1018L31.531 30.2331L31.8804 29.2703L31.5232 29.139Z" fill="#D8E9ED"/>
<path d="M32.3647 28.6689L31.7686 30.3215L31.92 30.3769L32.5161 28.7243L32.3647 28.6689Z" fill="#D8E9ED"/>
<path d="M32.8379 29.0639L32.3352 30.4587L32.1289 30.3809L32.6316 28.9861L32.8379 29.0639Z" fill="#D8E9ED"/>
<path d="M33.7072 29.1548L33.1078 30.8091L32.8564 30.7183L33.4558 29.064L33.7072 29.1548Z" fill="#D8E9ED"/>
<path d="M32.2563 27.1259L31.9297 28.0281L32.8805 28.3768L33.2071 27.4747L32.2563 27.1259Z" fill="#D8E9ED"/>
<path d="M33.6696 27.6558L33.3457 28.552L33.8544 28.7383L34.1784 27.8422L33.6696 27.6558Z" fill="#D8E9ED"/>
<path d="M35.9895 27.1176C35.9895 27.1176 35.7188 27.0462 35.5254 27.1695C35.3321 27.2927 34.9389 27.3576 34.6553 27.3706C34.3782 27.39 33.6692 27.656 33.5016 27.7144C33.3341 27.7728 33.1923 27.7339 33.1278 27.6171C33.0569 27.5003 33.0763 27.1889 33.869 26.9684L32.8829 26.5986C32.8829 26.5986 32.87 26.5272 33.1407 26.404C33.4114 26.2742 34.1719 25.9044 34.2815 25.872C34.3975 25.8331 35.7703 25.8979 35.8541 25.885L35.9895 27.1176Z" fill="#FDB171"/>
<path d="M33.998 32.6124C33.998 32.6124 33.7466 32.4891 33.6758 32.2686C33.6049 32.048 33.347 31.7431 33.1408 31.5549C32.9346 31.3603 32.5672 30.6986 32.477 30.5494C32.3867 30.4002 32.2578 30.3353 32.1289 30.3807C32 30.4261 31.8131 30.6791 32.2836 31.3603L31.291 30.997C31.291 30.997 31.2395 31.0424 31.3619 31.3149C31.4844 31.5874 31.826 32.3724 31.8904 32.4697C31.9549 32.5735 33.0506 33.4104 33.1086 33.4752L33.998 32.6124Z" fill="#FDB171"/>
<path d="M38.0254 30.9778L41.7379 32.3402C41.7379 32.3402 40.6615 34.7276 40.4746 35.0909C40.2877 35.4542 40.0428 35.8499 39.3467 35.9148C38.6506 35.9861 35.8277 36.2456 35.8277 36.2456C35.8277 36.2456 35.2089 36.3105 34.906 35.9083C34.5773 35.4736 32.792 33.4755 32.792 33.4755L34.1906 32.2234L35.9952 34.1307C35.9952 34.1307 36.1821 34.4291 36.6977 34.3318C37.2134 34.241 37.8063 34.4421 37.8128 33.7998C37.8192 33.1511 37.5678 32.2234 38.0254 30.9778Z" fill="#B4D1D7"/>
<path d="M38.0253 30.9777L41.7377 32.34C41.7377 32.34 42.4338 29.8164 42.524 29.4207C42.6143 29.0184 42.6787 28.5578 42.1889 28.0583C41.6991 27.5588 39.7011 25.5282 39.7011 25.5282C39.7011 25.5282 39.2628 25.0741 38.7794 25.1908C38.2509 25.3141 35.6084 25.6839 35.6084 25.6839L35.8791 27.5458L38.4829 27.2474C38.4829 27.2474 38.8116 27.1371 39.1468 27.5458C39.4819 27.948 40.0684 28.1816 39.6624 28.6811C39.2564 29.1741 38.47 29.7256 38.0253 30.9777Z" fill="#B4D1D7"/>
<path d="M39.0761 30.9517C38.8505 30.9517 38.5991 31.0555 38.554 31.1722C38.5089 31.289 38.6378 31.5355 38.8118 31.6783C38.728 32.1454 38.6958 32.9758 39.2178 33.7023L40.5327 32.8914L40.9838 32.0999L41.1643 31.1333L40.6745 29.6606C39.8172 29.8812 39.3145 30.5365 39.0761 30.9517Z" fill="#FDB171"/>
<path d="M40.649 29.6542C40.649 29.6542 40.3976 30.2186 40.3203 30.7247C40.2236 31.3669 40.4943 31.8146 40.4943 31.8146C40.4943 31.8146 39.9465 32.1389 39.6242 32.6514C39.2633 33.2288 39.1924 33.6894 39.1924 33.6894C39.1924 33.6894 39.8885 34.682 41.2033 35.1621C42.4278 35.6097 43.9231 35.5449 44.7997 33.4559C45.4377 31.3539 44.4387 30.2965 43.2464 29.8618C41.6609 29.2844 40.649 29.6542 40.649 29.6542Z" fill="#1E2020"/>
<path d="M17.9424 12.5143C17.9424 12.4365 17.9939 12.3716 18.0584 12.3716H26.4886C26.5531 12.3716 26.6047 12.4365 26.6047 12.5143V17.4837C26.6047 17.5616 26.5531 17.6264 26.4886 17.6264H18.0584C17.9939 17.6264 17.9424 17.5616 17.9424 17.4837V12.5143Z" fill="white"/>
<path d="M25.8512 15.1352C25.8705 15.1352 25.8834 15.1157 25.8834 15.0898V14.8108C25.8834 14.7848 25.8705 14.7654 25.8512 14.7654H25.5547C25.5354 14.7654 25.5225 14.7848 25.5225 14.8108V15.0898C25.5225 15.1157 25.5354 15.1352 25.5547 15.1352H25.8512Z" fill="#6F6F6F"/>
<path d="M21.9068 14.8174C21.9068 14.7914 21.8939 14.772 21.8746 14.772H21.5523C21.533 14.772 21.5137 14.7914 21.5137 14.8174V15.0963C21.5137 15.1223 21.5266 15.1418 21.5523 15.1418H21.8746C21.8939 15.1418 21.9068 15.1223 21.9068 15.0963V14.8174Z" fill="#6F6F6F"/>
<path d="M21.5517 15.6477C21.5517 15.6218 21.5324 15.6023 21.5131 15.6023H21.2939C21.2746 15.6023 21.2617 15.6218 21.2617 15.6477V15.9396C21.2617 15.9656 21.2811 15.9851 21.2939 15.9851H21.5131C21.5324 15.9851 21.5453 15.9656 21.5517 15.9396V15.6477Z" fill="#6F6F6F"/>
<path d="M25.6055 15.2261C25.6055 15.2001 25.5926 15.1807 25.5668 15.1807H25.3477C25.3283 15.1807 25.3154 15.2001 25.3154 15.2261V15.518C25.3154 15.544 25.3283 15.5634 25.3477 15.5634H25.5668C25.5861 15.5634 25.6055 15.544 25.6055 15.518V15.2261Z" fill="#6F6F6F"/>
<path d="M25.1357 15.9396C25.1357 15.9656 25.1486 15.9851 25.168 15.9851H25.3935C25.4129 15.9851 25.4258 15.9656 25.4258 15.9396V15.6477C25.4258 15.6218 25.4129 15.6023 25.3935 15.6023H25.168C25.1486 15.6023 25.1357 15.6218 25.1357 15.6477V15.9396Z" fill="#6F6F6F"/>
<path d="M20.4889 16.9192C20.4889 16.8932 20.476 16.8738 20.4566 16.8738H20.2246C20.2053 16.8738 20.1924 16.8932 20.1924 16.9192V17.0879C20.1924 17.1138 20.2053 17.1333 20.2246 17.1333H20.4566C20.476 17.1333 20.4889 17.1138 20.4889 17.0879V16.9192Z" fill="#6F6F6F"/>
<path d="M21.6553 16.0759C21.6553 16.05 21.6424 16.0305 21.623 16.0305H21.3975C21.3781 16.0305 21.3652 16.05 21.3652 16.0759V16.3679C21.3652 16.3938 21.3781 16.4133 21.3975 16.4133H21.623C21.6424 16.4133 21.6553 16.3938 21.6553 16.3679V16.0759Z" fill="#6F6F6F"/>
<path d="M19.8242 16.7895C19.8242 16.8154 19.8371 16.8349 19.8564 16.8349H20.0885C20.1078 16.8349 20.1207 16.8154 20.1207 16.7895V16.4976C20.1207 16.4716 20.1078 16.4521 20.0885 16.4521H19.8564C19.8371 16.4521 19.8242 16.4716 19.8242 16.4976V16.7895Z" fill="#6F6F6F"/>
<path d="M20.1207 16.0759C20.1207 16.05 20.1078 16.0305 20.0885 16.0305H19.8564C19.8371 16.0305 19.8242 16.05 19.8242 16.0759V16.3679C19.8242 16.3938 19.8371 16.4133 19.8564 16.4133H20.0885C20.1078 16.4133 20.1207 16.3938 20.1207 16.3679V16.0759Z" fill="#6F6F6F"/>
<path d="M20.4889 14.8174C20.4889 14.7914 20.476 14.772 20.4566 14.772H20.2246C20.2053 14.772 20.1924 14.7914 20.1924 14.8174V15.0963C20.1924 15.1223 20.2053 15.1418 20.2246 15.1418H20.4566C20.476 15.1418 20.4889 15.1223 20.4889 15.0963V14.8174Z" fill="#6F6F6F"/>
<path d="M20.1207 14.8174C20.1207 14.7914 20.1078 14.772 20.0885 14.772H19.8564C19.8371 14.772 19.8242 14.7914 19.8242 14.8174V15.0963C19.8242 15.1223 19.8371 15.1418 19.8564 15.1418H20.0885C20.1078 15.1418 20.1207 15.1223 20.1207 15.0963V14.8174Z" fill="#6F6F6F"/>
<path d="M20.0885 17.1333C20.1078 17.1333 20.1207 17.1138 20.1207 17.0879V16.9192C20.1207 16.8932 20.1078 16.8738 20.0885 16.8738H19.8564C19.8371 16.8738 19.8242 16.8932 19.8242 16.9192V17.0879C19.8242 17.1138 19.8371 17.1333 19.8564 17.1333H20.0885Z" fill="#6F6F6F"/>
<path d="M24.9609 15.518C24.9609 15.544 24.9803 15.5634 24.9996 15.5634H25.2187C25.2381 15.5634 25.251 15.544 25.251 15.518V15.2261C25.251 15.2001 25.2381 15.1807 25.2187 15.1807H24.9996C24.9803 15.1807 24.9609 15.2001 24.9609 15.2261V15.518Z" fill="#6F6F6F"/>
<path d="M23.1953 15.518C23.1953 15.544 23.2146 15.5634 23.234 15.5634H23.4531C23.4725 15.5634 23.4853 15.544 23.4853 15.518V15.2261C23.4853 15.2001 23.466 15.1807 23.4531 15.1807H23.234C23.2146 15.1807 23.1953 15.2001 23.1953 15.2261V15.518Z" fill="#6F6F6F"/>
<path d="M23.376 15.9396C23.376 15.9656 23.3889 15.9851 23.4082 15.9851H23.6338C23.6531 15.9851 23.666 15.9656 23.666 15.9396V15.6477C23.666 15.6218 23.6531 15.6023 23.6338 15.6023H23.4082C23.3889 15.6023 23.376 15.6218 23.376 15.6477V15.9396Z" fill="#6F6F6F"/>
<path d="M23.7236 15.9396C23.7236 15.9656 23.743 15.9851 23.7559 15.9851H23.975C23.9943 15.9851 24.0072 15.9656 24.0072 15.9396V15.6477C24.0072 15.6218 23.9943 15.6023 23.975 15.6023H23.7559C23.7365 15.6023 23.7236 15.6218 23.7236 15.6477V15.9396Z" fill="#6F6F6F"/>
<path d="M23.5498 15.518C23.5498 15.544 23.5627 15.5634 23.582 15.5634H23.8012C23.8205 15.5634 23.8334 15.544 23.8334 15.518V15.2261C23.8334 15.2001 23.8205 15.1807 23.8012 15.1807H23.5885C23.5691 15.1807 23.5562 15.2001 23.5562 15.2261V15.518H23.5498Z" fill="#6F6F6F"/>
<path d="M23.0211 15.9396C23.0211 15.9656 23.034 15.9851 23.0533 15.9851H23.2725C23.2918 15.9851 23.3047 15.9656 23.3047 15.9396V15.6477C23.3047 15.6218 23.2853 15.6023 23.266 15.6023H23.0469C23.0275 15.6023 23.0146 15.6218 23.0146 15.6477V15.9396H23.0211Z" fill="#6F6F6F"/>
<path d="M22.667 15.9396C22.667 15.9656 22.6863 15.9851 22.6992 15.9851H22.9248C22.9441 15.9851 22.957 15.9656 22.957 15.9396V15.6477C22.957 15.6218 22.9441 15.6023 22.9248 15.6023H22.7057C22.6863 15.6023 22.667 15.6218 22.667 15.6477V15.9396Z" fill="#6F6F6F"/>
<path d="M20.4889 15.2261C20.4889 15.2001 20.476 15.1807 20.4566 15.1807H20.2246C20.2053 15.1807 20.1924 15.2001 20.1924 15.2261V15.518C20.1924 15.544 20.2053 15.5634 20.2246 15.5634H20.4566C20.476 15.5634 20.4889 15.544 20.4889 15.518V15.2261Z" fill="#6F6F6F"/>
<path d="M22.8477 15.518C22.8477 15.544 22.8605 15.5634 22.8799 15.5634H23.099C23.1184 15.5634 23.1312 15.544 23.1312 15.518V15.2261C23.1312 15.2001 23.1184 15.1807 23.099 15.1807H22.8799C22.8605 15.1807 22.8477 15.2001 22.8477 15.2261V15.518Z" fill="#6F6F6F"/>
<path d="M24.4332 15.9396C24.4332 15.9656 24.4525 15.9851 24.4654 15.9851H24.6846C24.7039 15.9851 24.7168 15.9656 24.7168 15.9396V15.6477C24.7168 15.6218 24.6975 15.6023 24.6781 15.6023H24.459C24.4396 15.6023 24.4268 15.6218 24.4268 15.6477V15.9396H24.4332Z" fill="#6F6F6F"/>
<path d="M23.9043 15.518C23.9043 15.544 23.9172 15.5634 23.9365 15.5634H24.1557C24.175 15.5634 24.1879 15.544 24.1879 15.518V15.2261C24.1879 15.2001 24.175 15.1807 24.1557 15.1807H23.9365C23.9172 15.1807 23.9043 15.2001 23.9043 15.2261V15.518Z" fill="#6F6F6F"/>
<path d="M24.7871 15.9396C24.7871 15.9656 24.8 15.9851 24.8193 15.9851H25.0449C25.0643 15.9851 25.0771 15.9656 25.0771 15.9396V15.6477C25.0771 15.6218 25.0643 15.6023 25.0449 15.6023H24.8193C24.8 15.6023 24.7871 15.6218 24.7871 15.6477V15.9396Z" fill="#6F6F6F"/>
<path d="M24.6064 15.518C24.6064 15.544 24.6193 15.5634 24.6387 15.5634H24.8578C24.8771 15.5634 24.89 15.544 24.89 15.518V15.2261C24.89 15.2001 24.8771 15.1807 24.8578 15.1807H24.6387C24.6193 15.1807 24.6064 15.2001 24.6064 15.2261V15.518Z" fill="#6F6F6F"/>
<path d="M24.252 15.518C24.252 15.544 24.2713 15.5634 24.2842 15.5634H24.5098C24.5291 15.5634 24.542 15.544 24.542 15.518V15.2261C24.542 15.2001 24.5226 15.1807 24.5098 15.1807H24.2842C24.2648 15.1807 24.252 15.2001 24.252 15.2261V15.518Z" fill="#6F6F6F"/>
<path d="M24.0781 15.9396C24.0781 15.9656 24.091 15.9851 24.1104 15.9851H24.3359C24.3553 15.9851 24.3682 15.9656 24.3682 15.9396V15.6477C24.3682 15.6218 24.3553 15.6023 24.3359 15.6023H24.1104C24.091 15.6023 24.0781 15.6218 24.0781 15.6477V15.9396Z" fill="#6F6F6F"/>
<path d="M19.3086 16.3613C19.3086 16.3872 19.3215 16.4067 19.3408 16.4067H19.6115C19.6309 16.4067 19.6437 16.3872 19.6437 16.3613V16.0693C19.6437 16.0434 19.6309 16.0239 19.6115 16.0239H19.3408C19.3215 16.0239 19.3086 16.0434 19.3086 16.0693V16.3613Z" fill="#6F6F6F"/>
<path d="M18.5869 16.3613C18.5869 16.3872 18.5998 16.4067 18.6191 16.4067H18.8512C18.8705 16.4067 18.8898 16.3872 18.8898 16.3613V16.0693C18.8898 16.0434 18.8769 16.0239 18.8512 16.0239H18.6191C18.5998 16.0239 18.5869 16.0434 18.5869 16.0693V16.3613Z" fill="#6F6F6F"/>
<path d="M18.884 15.2261C18.884 15.2001 18.8711 15.1807 18.8453 15.1807H18.6133C18.5939 15.1807 18.5811 15.2001 18.5811 15.2261V15.518C18.5811 15.544 18.5939 15.5634 18.6133 15.5634H18.8453C18.8646 15.5634 18.884 15.544 18.884 15.518V15.2261Z" fill="#6F6F6F"/>
<path d="M18.5869 15.9396C18.5869 15.9656 18.5998 15.9851 18.6191 15.9851H18.8512C18.8705 15.9851 18.8898 15.9656 18.8898 15.9396V15.6477C18.8898 15.6218 18.8769 15.6023 18.8512 15.6023H18.6191C18.5998 15.6023 18.5869 15.6218 18.5869 15.6477V15.9396Z" fill="#6F6F6F"/>
<path d="M18.5226 16.4976C18.5226 16.4716 18.5033 16.4521 18.484 16.4521H18.252C18.2326 16.4521 18.2197 16.4716 18.2197 16.4976V16.7895C18.2197 16.8154 18.2391 16.8349 18.252 16.8349H18.484C18.5033 16.8349 18.5226 16.8154 18.5226 16.7895V16.4976Z" fill="#6F6F6F"/>
<path d="M18.9482 15.9396C18.9482 15.9656 18.9676 15.9851 18.9869 15.9851H19.2189C19.2383 15.9851 19.2512 15.9656 19.2512 15.9396V15.6477C19.2512 15.6218 19.2383 15.6023 19.2189 15.6023H18.9869C18.9676 15.6023 18.9482 15.6218 18.9482 15.6477V15.9396Z" fill="#6F6F6F"/>
<path d="M18.5869 16.7895C18.5869 16.8154 18.5998 16.8349 18.6191 16.8349H18.8512C18.8705 16.8349 18.8898 16.8154 18.8898 16.7895V16.4976C18.8898 16.4716 18.8769 16.4521 18.8512 16.4521H18.6191C18.5998 16.4521 18.5869 16.4716 18.5869 16.4976V16.7895Z" fill="#6F6F6F"/>
<path d="M18.5869 17.0945C18.5869 17.1204 18.5998 17.1399 18.6191 17.1399H18.8512C18.8705 17.1399 18.8898 17.1204 18.8898 17.0945V16.9258C18.8898 16.8998 18.8769 16.8804 18.8512 16.8804H18.6191C18.5998 16.8804 18.5869 16.8998 18.5869 16.9258V17.0945Z" fill="#6F6F6F"/>
<path d="M20.585 16.8738C20.5656 16.8738 20.5527 16.8932 20.5527 16.9192V17.0879C20.5527 17.1138 20.5721 17.1333 20.585 17.1333H20.817C20.8363 17.1333 20.8492 17.1138 20.8492 17.0879V16.9192C20.8492 16.8932 20.8363 16.8738 20.817 16.8738H20.585Z" fill="#6F6F6F"/>
<path d="M25.9795 16.0305C25.9602 16.0305 25.9473 16.05 25.9473 16.0759V16.3679C25.9473 16.3938 25.9666 16.4133 25.9795 16.4133H26.3533C26.3726 16.4133 26.3855 16.3938 26.3855 16.3679V16.0759C26.3855 16.05 26.3662 16.0305 26.3533 16.0305H25.9795Z" fill="#6F6F6F"/>
<path d="M26.3404 14.7849C26.3211 14.7785 26.2889 14.772 26.276 14.772H25.9795C25.9602 14.772 25.9473 14.7914 25.9473 14.8174V15.0963C25.9473 15.1223 25.9666 15.1418 25.9795 15.1418H26.3598C26.3791 15.1418 26.392 15.1223 26.392 15.0963V14.8823C26.392 14.8563 26.3855 14.8239 26.3726 14.8044C26.3598 14.7849 26.3404 14.7849 26.3404 14.7849Z" fill="#6F6F6F"/>
<path d="M26.3531 16.8283C26.3725 16.8283 26.3853 16.8089 26.3853 16.7829V16.491C26.3853 16.465 26.366 16.4456 26.3531 16.4456H26.1275C26.1082 16.4456 26.0953 16.465 26.0889 16.491V16.7829C26.0889 16.8089 26.1082 16.8283 26.1211 16.8283H26.3531Z" fill="#6F6F6F"/>
<path d="M19.2512 15.2261C19.2512 15.2001 19.2383 15.1807 19.2189 15.1807H18.9869C18.9676 15.1807 18.9482 15.2001 18.9482 15.2261V15.518C18.9482 15.544 18.9676 15.5634 18.9869 15.5634H19.2189C19.2383 15.5634 19.2512 15.544 19.2512 15.518V15.2261Z" fill="#6F6F6F"/>
<path d="M18.5226 15.6477C18.5226 15.6218 18.5033 15.6023 18.484 15.6023H18.252C18.2326 15.6023 18.2197 15.6218 18.2197 15.6477V15.9396C18.2197 15.9656 18.2391 15.9851 18.252 15.9851H18.484C18.5033 15.9851 18.5226 15.9656 18.5162 15.9396L18.5226 15.6477Z" fill="#6F6F6F"/>
<path d="M18.2266 16.3613C18.2266 16.3872 18.2459 16.4067 18.2588 16.4067H18.4908C18.5101 16.4067 18.5295 16.3872 18.5295 16.3613V16.0693C18.5295 16.0434 18.5101 16.0239 18.4908 16.0239H18.2588C18.2395 16.0239 18.2266 16.0434 18.2266 16.0693V16.3613Z" fill="#6F6F6F"/>
<path d="M20.5469 16.7895C20.5469 16.8154 20.5662 16.8349 20.5791 16.8349H20.8111C20.8305 16.8349 20.8434 16.8154 20.8434 16.7895V16.4976C20.8434 16.4716 20.8305 16.4521 20.8111 16.4521H20.5791C20.5598 16.4521 20.5469 16.4716 20.5469 16.4976V16.7895Z" fill="#6F6F6F"/>
<path d="M18.9482 16.3613C18.9482 16.3872 18.9676 16.4067 18.9869 16.4067H19.2189C19.2383 16.4067 19.2512 16.3872 19.2512 16.3613V16.0693C19.2512 16.0434 19.2383 16.0239 19.2189 16.0239H18.9869C18.9676 16.0239 18.9482 16.0434 18.9482 16.0693V16.3613Z" fill="#6F6F6F"/>
<path d="M19.3086 17.0945C19.3086 17.1204 19.3215 17.1399 19.3408 17.1399H19.6115C19.6309 17.1399 19.6437 17.1204 19.6437 17.0945V16.9258C19.6437 16.8998 19.6309 16.8804 19.6115 16.8804H19.3408C19.3215 16.8804 19.3086 16.8998 19.3086 16.9258V17.0945Z" fill="#6F6F6F"/>
<path d="M20.1855 16.7895C20.1855 16.8154 20.1984 16.8349 20.2178 16.8349H20.4498C20.4691 16.8349 20.482 16.8154 20.482 16.7895V16.4976C20.482 16.4716 20.4691 16.4521 20.4498 16.4521H20.2178C20.1984 16.4521 20.1855 16.4716 20.1855 16.4976V16.7895Z" fill="#6F6F6F"/>
<path d="M20.4889 16.0759C20.4889 16.05 20.476 16.0305 20.4566 16.0305H20.2246C20.2053 16.0305 20.1924 16.05 20.1924 16.0759V16.3679C20.1924 16.3938 20.2053 16.4133 20.2246 16.4133H20.4566C20.476 16.4133 20.4889 16.3938 20.4889 16.3679V16.0759Z" fill="#6F6F6F"/>
<path d="M20.8492 16.0759C20.8492 16.05 20.8363 16.0305 20.817 16.0305H20.585C20.5656 16.0305 20.5527 16.05 20.5527 16.0759V16.3679C20.5527 16.3938 20.5721 16.4133 20.585 16.4133H20.817C20.8363 16.4133 20.8492 16.3938 20.8492 16.3679V16.0759Z" fill="#6F6F6F"/>
<path d="M18.9482 17.0945C18.9482 17.1204 18.9676 17.1399 18.9869 17.1399H19.2189C19.2383 17.1399 19.2512 17.1204 19.2512 17.0945V16.9258C19.2512 16.8998 19.2383 16.8804 19.2189 16.8804H18.9869C18.9676 16.8804 18.9482 16.8998 18.9482 16.9258V17.0945Z" fill="#6F6F6F"/>
<path d="M19.3086 16.7895C19.3086 16.8154 19.3215 16.8349 19.3408 16.8349H19.6115C19.6309 16.8349 19.6437 16.8154 19.6437 16.7895V16.4976C19.6437 16.4716 19.6309 16.4521 19.6115 16.4521H19.3408C19.3215 16.4521 19.3086 16.4716 19.3086 16.4976V16.7895Z" fill="#6F6F6F"/>
<path d="M19.3086 15.9396C19.3086 15.9656 19.3215 15.9851 19.3408 15.9851H19.6115C19.6309 15.9851 19.6437 15.9656 19.6437 15.9396V15.6477C19.6437 15.6218 19.6244 15.6023 19.6115 15.6023H19.3408C19.3215 15.6023 19.3086 15.6218 19.3086 15.6477V15.9396Z" fill="#6F6F6F"/>
<path d="M18.9482 16.7895C18.9482 16.8154 18.9676 16.8349 18.9869 16.8349H19.2189C19.2383 16.8349 19.2512 16.8154 19.2512 16.7895V16.4976C19.2512 16.4716 19.2383 16.4521 19.2189 16.4521H18.9869C18.9676 16.4521 18.9547 16.4716 18.9482 16.4976V16.7895Z" fill="#6F6F6F"/>
<path d="M22.4932 15.518C22.4932 15.544 22.5125 15.5634 22.5254 15.5634H22.751C22.7703 15.5634 22.7832 15.544 22.7832 15.518V15.2261C22.7832 15.2001 22.7639 15.1807 22.751 15.1807H22.5254C22.5061 15.1807 22.4932 15.2001 22.4932 15.2261V15.518Z" fill="#6F6F6F"/>
<path d="M19.6506 15.2261C19.6506 15.2001 19.6377 15.1807 19.6184 15.1807H19.3477C19.3283 15.1807 19.3154 15.2001 19.3154 15.2261V15.518C19.3154 15.544 19.3283 15.5634 19.3477 15.5634H19.6184C19.6377 15.5634 19.6506 15.544 19.6506 15.518V15.2261Z" fill="#6F6F6F"/>
<path d="M18.5226 16.9192C18.5226 16.8932 18.5033 16.8738 18.484 16.8738H18.252C18.2326 16.8738 18.2197 16.8932 18.2197 16.9192V17.0489C18.2197 17.0749 18.2262 17.1008 18.2391 17.1138C18.252 17.1268 18.31 17.1333 18.3293 17.1333H18.484C18.5033 17.1333 18.5226 17.1138 18.5226 17.0879V16.9192Z" fill="#6F6F6F"/>
<path d="M22.7697 16.9192C22.7697 16.8932 22.7568 16.8738 22.731 16.8738H22.5055C22.4861 16.8738 22.4668 16.8932 22.4668 16.9192V17.0879C22.4668 17.1138 22.4797 17.1333 22.5055 17.1333H22.731C22.7504 17.1333 22.7697 17.1138 22.7697 17.0879V16.9192Z" fill="#6F6F6F"/>
<path d="M22.4029 16.9192C22.4029 16.8932 22.39 16.8738 22.3707 16.8738H22.1387C22.1193 16.8738 22.1064 16.8932 22.1064 16.9192V17.0879C22.1064 17.1138 22.1193 17.1333 22.1387 17.1333H22.3707C22.39 17.1333 22.4029 17.1138 22.4029 17.0879V16.9192Z" fill="#6F6F6F"/>
<path d="M22.0416 16.9192C22.0416 16.8932 22.0287 16.8738 22.0094 16.8738H21.7773C21.758 16.8738 21.7451 16.8932 21.7451 16.9192V17.0879C21.7451 17.1138 21.758 17.1333 21.7773 17.1333H22.0094C22.0287 17.1333 22.0416 17.1138 22.0416 17.0879V16.9192Z" fill="#6F6F6F"/>
<path d="M21.6809 16.9192C21.6809 16.8932 21.668 16.8738 21.6486 16.8738H21.4166C21.3973 16.8738 21.3779 16.8932 21.3779 16.9192V17.0879C21.3779 17.1138 21.3973 17.1333 21.4166 17.1333H21.6486C21.668 17.1333 21.6809 17.1138 21.6809 17.0879V16.9192Z" fill="#6F6F6F"/>
<path d="M23.8531 16.9192C23.8531 16.8932 23.8402 16.8738 23.8144 16.8738H23.5889C23.5695 16.8738 23.5566 16.8932 23.5566 16.9192V17.0879C23.5566 17.1138 23.5695 17.1333 23.5889 17.1333H23.8209C23.8402 17.1333 23.8596 17.1138 23.8596 17.0879V16.9192H23.8531Z" fill="#6F6F6F"/>
<path d="M23.131 16.9192C23.131 16.8932 23.1117 16.8738 23.0988 16.8738H22.8668C22.8475 16.8738 22.8281 16.8932 22.8281 16.9192V17.0879C22.8281 17.1138 22.8475 17.1333 22.8668 17.1333H23.0988C23.1182 17.1333 23.131 17.1138 23.131 17.0879V16.9192Z" fill="#6F6F6F"/>
<path d="M23.4918 16.9192C23.4918 16.8932 23.4725 16.8738 23.4596 16.8738H23.2275C23.2082 16.8738 23.1953 16.8932 23.1953 16.9192V17.0879C23.1953 17.1138 23.2082 17.1333 23.2275 17.1333H23.4596C23.4789 17.1333 23.4918 17.1138 23.4918 17.0879V16.9192Z" fill="#6F6F6F"/>
<path d="M24.2135 16.9192C24.2135 16.8932 24.2006 16.8738 24.1812 16.8738H23.9492C23.9299 16.8738 23.917 16.8932 23.917 16.9192V17.0879C23.917 17.1138 23.9363 17.1333 23.9492 17.1333H24.1812C24.2006 17.1333 24.2135 17.1138 24.2135 17.0879V16.9192Z" fill="#6F6F6F"/>
<path d="M22.3316 15.1352C22.351 15.1352 22.3639 15.1157 22.3639 15.0898V14.8108C22.3639 14.7848 22.351 14.7654 22.3316 14.7654H22.0029C21.9836 14.7654 21.9707 14.7848 21.9707 14.8108V15.0898C21.9707 15.1157 21.9836 15.1352 22.0029 15.1352H22.3316Z" fill="#6F6F6F"/>
<path d="M24.9359 15.1352C24.9552 15.1352 24.9681 15.1157 24.9681 15.0898V14.8108C24.9681 14.7848 24.9552 14.7654 24.9359 14.7654H22.4609C22.4416 14.7654 22.4287 14.7848 22.4287 14.8108V15.0898C22.4287 15.1157 22.448 15.1352 22.4609 15.1352H24.9359Z" fill="#6F6F6F"/>
<path d="M25.4254 15.1352C25.4447 15.1352 25.4576 15.1157 25.4576 15.0898V14.8108C25.4576 14.7848 25.4447 14.7654 25.4254 14.7654H25.0709C25.0516 14.7654 25.0322 14.7848 25.0322 14.8108V15.0898C25.0322 15.1157 25.0451 15.1352 25.0645 15.1352H25.4254Z" fill="#6F6F6F"/>
<path d="M21.0107 15.518C21.0107 15.544 21.0301 15.5634 21.0494 15.5634H21.6939C21.7133 15.5634 21.7262 15.544 21.7262 15.518V15.2261C21.7262 15.2001 21.7133 15.1807 21.6939 15.1807H21.0494C21.0301 15.1807 21.0107 15.2001 21.0107 15.2261V15.518Z" fill="#6F6F6F"/>
<path d="M21.0107 16.7895C21.0107 16.8154 21.0301 16.8349 21.0494 16.8349H21.4232C21.4426 16.8349 21.4555 16.8154 21.4555 16.7895V16.4976C21.4555 16.4716 21.4361 16.4521 21.4232 16.4521H21.0494C21.0301 16.4521 21.0107 16.4716 21.0107 16.4976V16.7895Z" fill="#6F6F6F"/>
<path d="M21.0107 17.0945C21.0107 17.1204 21.0301 17.1399 21.0494 17.1399H21.2879C21.3072 17.1399 21.3201 17.1204 21.3201 17.0945V16.9258C21.3201 16.8998 21.3072 16.8804 21.2879 16.8804H21.0494C21.0301 16.8804 21.0107 16.8998 21.0107 16.9258V17.0945Z" fill="#6F6F6F"/>
<path d="M19.6185 15.1352C19.6379 15.1352 19.6508 15.1157 19.6508 15.0898V14.8108C19.6508 14.7848 19.6379 14.7654 19.6185 14.7654H18.9869C18.9676 14.7654 18.9482 14.7848 18.9482 14.8108V15.0898C18.9482 15.1157 18.9676 15.1352 18.9869 15.1352H19.6185Z" fill="#6F6F6F"/>
<path d="M22.3189 15.9396C22.3189 15.9656 22.3318 15.9851 22.3512 15.9851H22.5703C22.5896 15.9851 22.6025 15.9656 22.6025 15.9396V15.6477C22.6025 15.6218 22.5896 15.6023 22.5703 15.6023H22.3512C22.3318 15.6023 22.3189 15.6218 22.3125 15.6477L22.3189 15.9396Z" fill="#6F6F6F"/>
<path d="M21.4232 15.1352C21.4426 15.1352 21.4555 15.1157 21.4555 15.0898V14.8108C21.4555 14.7848 21.4361 14.7654 21.4232 14.7654H21.0494C21.0301 14.7654 21.0107 14.7848 21.0107 14.8108V15.0898C21.0107 15.1157 21.0301 15.1352 21.0494 15.1352H21.4232Z" fill="#6F6F6F"/>
<path d="M25.9541 15.2261C25.9541 15.2001 25.9412 15.1807 25.9219 15.1807H25.6963C25.677 15.1807 25.6641 15.2001 25.6641 15.2261V15.518C25.6641 15.544 25.6834 15.5634 25.6963 15.5634H25.9219C25.9412 15.5634 25.9541 15.544 25.9541 15.518V15.2261Z" fill="#6F6F6F"/>
<path d="M18.2459 14.7914C18.233 14.8044 18.2266 14.8304 18.2266 14.8563V15.518C18.2266 15.544 18.2395 15.5634 18.2588 15.5634H18.4908C18.5101 15.5634 18.5295 15.544 18.5295 15.518V15.2261C18.5295 15.2001 18.5295 15.1742 18.5295 15.1612C18.5295 15.1482 18.5295 15.1158 18.5295 15.0963V14.8174C18.5295 14.7914 18.5101 14.772 18.4908 14.772H18.3361C18.3168 14.772 18.2588 14.7785 18.2459 14.7914Z" fill="#6F6F6F"/>
<path d="M26.1211 16.8738C26.1018 16.8738 26.0889 16.8932 26.0889 16.9192V17.0879C26.0889 17.1138 26.1018 17.1333 26.1211 17.1333H26.2693C26.2887 17.1333 26.3209 17.1268 26.3338 17.1203C26.3338 17.1203 26.3596 17.1138 26.366 17.1008C26.3789 17.0814 26.3853 17.0489 26.3853 17.023V16.9192C26.3853 16.8932 26.366 16.8738 26.3531 16.8738H26.1211Z" fill="#6F6F6F"/>
<path d="M24.5748 16.9192C24.5748 16.8932 24.5555 16.8738 24.5426 16.8738H24.3105C24.2912 16.8738 24.2783 16.8932 24.2783 16.9192V17.0879C24.2783 17.1138 24.2912 17.1333 24.3105 17.1333H24.5426C24.5619 17.1333 24.5748 17.1138 24.5748 17.0879V16.9192Z" fill="#6F6F6F"/>
<path d="M18.8512 15.1352C18.8705 15.1352 18.8898 15.1157 18.8898 15.0898V14.8108C18.8898 14.7848 18.8769 14.7654 18.8512 14.7654H18.6191C18.5998 14.7654 18.5869 14.7848 18.5869 14.8108V15.0898C18.5869 15.1157 18.5998 15.1352 18.6191 15.1352H18.8512Z" fill="#6F6F6F"/>
<path d="M26.0508 15.1807C26.0314 15.1807 26.0186 15.2001 26.0186 15.2261V15.518C26.0186 15.544 26.0314 15.5634 26.0508 15.5634H26.3537C26.373 15.5634 26.3859 15.544 26.3859 15.518V15.2261C26.3859 15.2001 26.3666 15.1807 26.3537 15.1807H26.0508Z" fill="#6F6F6F"/>
<path d="M25.877 15.6086C25.8576 15.6086 25.8447 15.6281 25.8447 15.6541V15.946C25.8447 15.9719 25.8576 15.9914 25.877 15.9914H26.3603C26.3797 15.9914 26.3926 15.9719 26.3926 15.946V15.6541C26.3926 15.6281 26.3732 15.6086 26.3603 15.6086H25.877Z" fill="#6F6F6F"/>
<path d="M25.6637 16.9192C25.6637 16.8932 25.6508 16.8738 25.6314 16.8738H25.3994C25.3801 16.8738 25.3672 16.8932 25.3672 16.9192V17.0879C25.3672 17.1138 25.3865 17.1333 25.3994 17.1333H25.6314C25.6508 17.1333 25.6637 17.1138 25.6637 17.0879V16.9192Z" fill="#6F6F6F"/>
<path d="M24.9351 16.9192C24.9351 16.8932 24.9223 16.8738 24.9029 16.8738H24.6709C24.6516 16.8738 24.6387 16.8932 24.6387 16.9192V17.0879C24.6387 17.1138 24.6516 17.1333 24.6709 17.1333H24.9029C24.9223 17.1333 24.9351 17.1138 24.9351 17.0879V16.9192Z" fill="#6F6F6F"/>
<path d="M25.3029 16.9192C25.3029 16.8932 25.2836 16.8738 25.2643 16.8738H25.0322C25.0129 16.8738 25 16.8932 25 16.9192V17.0879C25 17.1138 25.0129 17.1333 25.0322 17.1333H25.2643C25.2836 17.1333 25.3029 17.1138 25.3029 17.0879V16.9192Z" fill="#6F6F6F"/>
<path d="M25.748 16.7895C25.748 16.8154 25.7609 16.8349 25.7803 16.8349H26.0059C26.0252 16.8349 26.0381 16.8154 26.0381 16.7895V16.4976C26.0381 16.4716 26.0252 16.4521 26.0059 16.4521H25.7803C25.7609 16.4521 25.748 16.4716 25.748 16.4976V16.7895Z" fill="#6F6F6F"/>
<path d="M26.025 16.9192C26.025 16.8932 26.0057 16.8738 25.9928 16.8738H25.7607C25.7414 16.8738 25.7285 16.8932 25.7285 16.9192V17.0879C25.7285 17.1138 25.7479 17.1333 25.7607 17.1333H25.9928C26.0121 17.1333 26.025 17.1138 26.025 17.0879V16.9192Z" fill="#6F6F6F"/>
<path d="M20.5469 15.0963C20.5469 15.1223 20.5662 15.1418 20.5791 15.1418H20.8111C20.8305 15.1418 20.8434 15.1223 20.8434 15.0963V14.8174C20.8434 14.7914 20.8305 14.772 20.8111 14.772H20.5791C20.5598 14.772 20.5469 14.7914 20.5469 14.8174V15.0963Z" fill="#6F6F6F"/>
<path d="M23.4213 16.0759C23.4213 16.05 23.4084 16.0305 23.3891 16.0305H23.1699C23.1506 16.0305 23.1377 16.05 23.1377 16.0759V16.3679C23.1377 16.3938 23.1506 16.4133 23.1699 16.4133H23.3891C23.4084 16.4133 23.4213 16.3938 23.4213 16.3679V16.0759Z" fill="#6F6F6F"/>
<path d="M22.7119 16.0759C22.7119 16.05 22.699 16.0305 22.6797 16.0305H22.4541C22.4348 16.0305 22.4219 16.05 22.4219 16.0759V16.3679C22.4219 16.3938 22.4348 16.4133 22.4541 16.4133H22.6797C22.699 16.4133 22.7119 16.3938 22.7119 16.3679V16.0759Z" fill="#6F6F6F"/>
<path d="M22.3643 16.0759C22.3643 16.05 22.3514 16.0305 22.332 16.0305H22.1064C22.0871 16.0305 22.0742 16.05 22.0742 16.0759V16.3679C22.0742 16.3938 22.0871 16.4133 22.1064 16.4133H22.3256C22.3449 16.4133 22.3578 16.3938 22.3578 16.3679V16.0759H22.3643Z" fill="#6F6F6F"/>
<path d="M22.5117 16.4976C22.5117 16.4716 22.4924 16.4521 22.4795 16.4521H22.2539C22.2346 16.4521 22.2217 16.4716 22.2217 16.4976V16.7895C22.2217 16.8154 22.2346 16.8349 22.2539 16.8349H22.4795C22.4988 16.8349 22.5117 16.8154 22.5117 16.7895V16.4976Z" fill="#6F6F6F"/>
<path d="M23.2211 16.4976C23.2211 16.4716 23.2018 16.4521 23.1889 16.4521H22.9697C22.9504 16.4521 22.9375 16.4716 22.9375 16.4976V16.7895C22.9375 16.8154 22.9504 16.8349 22.9697 16.8349H23.1889C23.2082 16.8349 23.2211 16.8154 23.2211 16.7895V16.4976Z" fill="#6F6F6F"/>
<path d="M22.8662 16.4976C22.8662 16.4716 22.8533 16.4521 22.834 16.4521H22.6084C22.5891 16.4521 22.5762 16.4716 22.5762 16.4976V16.7895C22.5762 16.8154 22.5891 16.8349 22.6084 16.8349H22.834C22.8533 16.8349 22.8662 16.8154 22.8662 16.7895V16.4976Z" fill="#6F6F6F"/>
<path d="M23.0664 16.0759C23.0664 16.05 23.0471 16.0305 23.0342 16.0305H22.8086C22.7893 16.0305 22.7764 16.05 22.7764 16.0759V16.3679C22.7764 16.3938 22.7957 16.4133 22.8086 16.4133H23.0342C23.0535 16.4133 23.0664 16.3938 23.0664 16.3679V16.0759Z" fill="#6F6F6F"/>
<path d="M22.1641 16.4976C22.1641 16.4716 22.1447 16.4521 22.1254 16.4521H21.9063C21.8869 16.4521 21.874 16.4716 21.874 16.4976V16.7895C21.874 16.8154 21.8869 16.8349 21.9063 16.8349H22.1254C22.1447 16.8349 22.1641 16.8154 22.1641 16.7895V16.4976Z" fill="#6F6F6F"/>
<path d="M21.7906 15.518C21.7906 15.544 21.81 15.5634 21.8229 15.5634H22.042C22.0613 15.5634 22.0742 15.544 22.0742 15.518V15.2261C22.0742 15.2001 22.0613 15.1807 22.042 15.1807H21.8164C21.7971 15.1807 21.7842 15.2001 21.7842 15.2261V15.518H21.7906Z" fill="#6F6F6F"/>
<path d="M21.9648 15.9396C21.9648 15.9656 21.9842 15.9851 21.9971 15.9851H22.2226C22.242 15.9851 22.2549 15.9656 22.2549 15.9396V15.6477C22.2549 15.6218 22.2355 15.6023 22.2226 15.6023H21.9971C21.9777 15.6023 21.9648 15.6218 21.9648 15.6477V15.9396Z" fill="#6F6F6F"/>
<path d="M22.1445 15.518C22.1445 15.544 22.1574 15.5634 22.1768 15.5634H22.3959C22.4152 15.5634 22.4281 15.544 22.4281 15.518V15.2261C22.4281 15.2001 22.4152 15.1807 22.3959 15.1807H22.1768C22.1574 15.1807 22.1445 15.2001 22.1445 15.2261V15.518Z" fill="#6F6F6F"/>
<path d="M21.8096 16.4976C21.8096 16.4716 21.7967 16.4521 21.7773 16.4521H21.5582C21.5389 16.4521 21.5195 16.4716 21.5195 16.4976V16.7895C21.5195 16.8154 21.5324 16.8349 21.5582 16.8349H21.7773C21.7967 16.8349 21.8096 16.8154 21.8096 16.7895V16.4976Z" fill="#6F6F6F"/>
<path d="M21.6104 15.9396C21.6104 15.9656 21.6232 15.9851 21.649 15.9851H21.8682C21.8875 15.9851 21.9004 15.9656 21.9004 15.9396V15.6477C21.9004 15.6218 21.8875 15.6023 21.8682 15.6023H21.649C21.6297 15.6023 21.6104 15.6218 21.6104 15.6477V15.9396Z" fill="#6F6F6F"/>
<path d="M25.4902 15.9396C25.4902 15.9656 25.5031 15.9851 25.5225 15.9851H25.7416C25.7609 15.9851 25.7738 15.9656 25.7738 15.9396V15.6477C25.7738 15.6218 25.7609 15.6023 25.7416 15.6023H25.5225C25.5031 15.6023 25.4902 15.6218 25.4902 15.6477V15.9396Z" fill="#6F6F6F"/>
<path d="M22.0092 16.0759C22.0092 16.05 21.9898 16.0305 21.9769 16.0305H21.7578C21.7385 16.0305 21.7256 16.05 21.7256 16.0759V16.3679C21.7256 16.3938 21.7385 16.4133 21.7578 16.4133H21.9769C21.9963 16.4133 22.0092 16.3938 22.0092 16.3679V16.0759Z" fill="#6F6F6F"/>
<path d="M24.8262 16.0759C24.8262 16.05 24.8133 16.0305 24.7939 16.0305H24.5684C24.549 16.0305 24.5361 16.05 24.5361 16.0759V16.3679C24.5361 16.3938 24.549 16.4133 24.5684 16.4133H24.7939C24.8133 16.4133 24.8262 16.3938 24.8262 16.3679V16.0759Z" fill="#6F6F6F"/>
<path d="M24.9805 16.4976C24.9805 16.4716 24.9611 16.4521 24.9418 16.4521H24.7227C24.7033 16.4521 24.6904 16.4716 24.6904 16.4976V16.7895C24.6904 16.8154 24.7098 16.8349 24.7227 16.8349H24.9418C24.9611 16.8349 24.9805 16.8154 24.9805 16.7895V16.4976Z" fill="#6F6F6F"/>
<path d="M25.335 16.4976C25.335 16.4716 25.3221 16.4521 25.2963 16.4521H25.0771C25.0578 16.4521 25.0449 16.4716 25.0449 16.4976V16.7895C25.0449 16.8154 25.0578 16.8349 25.0771 16.8349H25.2963C25.3156 16.8349 25.3285 16.8154 25.335 16.7895V16.4976Z" fill="#6F6F6F"/>
<path d="M25.1801 16.0759C25.1801 16.05 25.1672 16.0305 25.1478 16.0305H24.9287C24.9094 16.0305 24.8965 16.05 24.8965 16.0759V16.3679C24.8965 16.3938 24.9158 16.4133 24.9287 16.4133H25.1478C25.1672 16.4133 25.1801 16.3938 25.1801 16.3679V16.0759Z" fill="#6F6F6F"/>
<path d="M25.8828 16.0759C25.8828 16.05 25.8635 16.0305 25.8441 16.0305H25.625C25.6057 16.0305 25.5928 16.05 25.5928 16.0759V16.3679C25.5928 16.3938 25.6057 16.4133 25.625 16.4133H25.8441C25.8635 16.4133 25.8828 16.3938 25.8828 16.3679V16.0759Z" fill="#6F6F6F"/>
<path d="M25.6836 16.4976C25.6836 16.4716 25.6642 16.4521 25.6514 16.4521H25.4322C25.4129 16.4521 25.4 16.4716 25.3936 16.4976V16.7895C25.3936 16.8154 25.4064 16.8349 25.4258 16.8349H25.6449C25.6643 16.8349 25.6771 16.8154 25.6771 16.7895V16.4976H25.6836Z" fill="#6F6F6F"/>
<path d="M25.5351 16.0759C25.5351 16.05 25.5158 16.0305 25.5029 16.0305H25.2838C25.2645 16.0305 25.2451 16.05 25.2451 16.0759V16.3679C25.2451 16.3938 25.2645 16.4133 25.2838 16.4133H25.5029C25.5223 16.4133 25.5351 16.3938 25.5351 16.3679V16.0759Z" fill="#6F6F6F"/>
<path d="M23.9232 16.4976C23.9232 16.4716 23.9039 16.4521 23.891 16.4521H23.6719C23.6525 16.4521 23.6396 16.4716 23.6396 16.4976V16.7895C23.6396 16.8154 23.659 16.8349 23.6719 16.8349H23.891C23.9103 16.8349 23.9232 16.8154 23.9232 16.7895V16.4976Z" fill="#6F6F6F"/>
<path d="M24.6264 16.4976C24.6264 16.4716 24.6135 16.4521 24.5941 16.4521H24.375C24.3557 16.4521 24.3428 16.4716 24.3428 16.4976V16.7895C24.3428 16.8154 24.3621 16.8349 24.375 16.8349H24.5941C24.6135 16.8349 24.6264 16.8154 24.6264 16.7895V16.4976Z" fill="#6F6F6F"/>
<path d="M24.123 16.0759C24.123 16.05 24.1102 16.0305 24.0908 16.0305H23.8652C23.8459 16.0305 23.833 16.05 23.833 16.0759V16.3679C23.833 16.3938 23.8459 16.4133 23.8652 16.4133H24.0908C24.1102 16.4133 24.123 16.3938 24.123 16.3679V16.0759Z" fill="#6F6F6F"/>
<path d="M23.7685 16.0759C23.7685 16.05 23.7557 16.0305 23.7363 16.0305H23.5172C23.4979 16.0305 23.4785 16.05 23.4785 16.0759V16.3679C23.4785 16.3938 23.4979 16.4133 23.5172 16.4133H23.7363C23.7557 16.4133 23.7685 16.3938 23.7685 16.3679V16.0759Z" fill="#6F6F6F"/>
<path d="M23.5693 16.4976C23.5693 16.4716 23.5564 16.4521 23.5371 16.4521H23.318C23.2986 16.4521 23.2793 16.4716 23.2793 16.4976V16.7895C23.2793 16.8154 23.2922 16.8349 23.3115 16.8349H23.5371C23.5564 16.8349 23.5693 16.8154 23.5693 16.7895V16.4976Z" fill="#6F6F6F"/>
<path d="M24.4775 16.0759C24.4775 16.05 24.4646 16.0305 24.4453 16.0305H24.2262C24.2068 16.0305 24.1875 16.05 24.1875 16.0759V16.3679C24.1875 16.3938 24.2068 16.4133 24.2262 16.4133H24.4453C24.4646 16.4133 24.4775 16.3938 24.4775 16.3679V16.0759Z" fill="#6F6F6F"/>
<path d="M24.2783 16.4976C24.2783 16.4716 24.2654 16.4521 24.2461 16.4521H24.0205C24.0012 16.4521 23.9883 16.4716 23.9883 16.4976V16.7895C23.9883 16.8154 24.0012 16.8349 24.0205 16.8349H24.2461C24.2654 16.8349 24.2783 16.8154 24.2783 16.7895V16.4976Z" fill="#6F6F6F"/>
<path d="M21.0109 15.8229L21.0174 16.1537V16.3678C21.0174 16.3938 21.0303 16.4132 21.0496 16.4132H21.2687C21.2881 16.4132 21.301 16.3938 21.301 16.3678V16.0759C21.301 16.0499 21.2816 16.0305 21.2687 16.0305H21.2301C21.2301 16.0305 21.1914 16.0305 21.1914 15.9396V15.6477C21.1914 15.6218 21.1785 15.6023 21.1592 15.6023H21.0367C21.0174 15.6023 20.998 15.6218 20.998 15.6477V15.7969C21.0109 15.8099 21.0109 15.8164 21.0109 15.8229Z" fill="#6F6F6F"/>
<path d="M23.279 12.7153H21.2617V14.3761H23.279V12.7153Z" fill="#D5D6DA"/>
<path d="M17.582 18.1779C17.582 18.3011 17.7045 18.3984 17.8592 18.3984H26.6826C26.8373 18.3984 26.9597 18.3011 26.9597 18.1779V17.86C26.9597 17.7367 26.8373 17.6394 26.6826 17.6394H17.8592C17.7045 17.6394 17.582 17.7367 17.582 17.86V18.1779Z" fill="#D5D6DA"/>
<path d="M13.1312 27.9473L7.94434 30.304L9.59889 33.9935L14.7857 31.6368L13.1312 27.9473Z" fill="white"/>
<path d="M8.20467 30.4134C8.18533 30.3615 8.19823 30.2966 8.25623 30.2772C8.30135 30.2577 8.37224 30.2772 8.39158 30.3291C8.41736 30.381 8.38513 30.4459 8.34002 30.4653C8.28846 30.4848 8.23045 30.4588 8.20467 30.4134Z" fill="#113C4F"/>
<path d="M8.59731 30.2382C8.57797 30.1863 8.59731 30.1214 8.64243 30.102C8.70043 30.076 8.75844 30.102 8.78422 30.1539C8.80355 30.1993 8.78422 30.2642 8.73266 30.2901C8.6811 30.3096 8.61665 30.2836 8.59731 30.2382Z" fill="#113C4F"/>
<path d="M8.98489 30.0565C8.96556 30.0046 8.98489 29.9397 9.03646 29.9202C9.08802 29.9008 9.15247 29.9202 9.1718 29.9721C9.19758 30.0176 9.1718 30.0889 9.12024 30.1084C9.06868 30.1343 9.00423 30.1084 8.98489 30.0565Z" fill="#113C4F"/>
<path d="M9.37156 29.8815C9.34577 29.8297 9.36511 29.7713 9.42312 29.7453C9.47468 29.7194 9.53913 29.7518 9.55846 29.7972C9.5778 29.8491 9.55846 29.914 9.5069 29.9334C9.4489 29.9594 9.39089 29.9334 9.37156 29.8815Z" fill="#113C4F"/>
<path d="M9.75132 29.7063C9.72554 29.6544 9.75132 29.5895 9.80289 29.5635C9.85445 29.5376 9.9189 29.5635 9.93823 29.6219C9.95757 29.6673 9.93823 29.7322 9.88667 29.7581C9.84156 29.7841 9.77711 29.7582 9.75132 29.7063Z" fill="#113C4F"/>
<path d="M10.1442 29.5312C10.1184 29.4793 10.1377 29.4209 10.1893 29.3949C10.2409 29.369 10.3053 29.3949 10.3311 29.4468C10.3504 29.4923 10.3311 29.5571 10.2731 29.5831C10.228 29.609 10.1635 29.5766 10.1442 29.5312Z" fill="#113C4F"/>
<path d="M10.5316 29.356C10.5058 29.3041 10.5316 29.2392 10.5832 29.2132C10.6347 29.1873 10.6927 29.2197 10.7185 29.2716C10.7378 29.3235 10.725 29.3819 10.6734 29.4079C10.6154 29.4273 10.5509 29.4079 10.5316 29.356Z" fill="#113C4F"/>
<path d="M10.9176 29.1808C10.8918 29.1289 10.9112 29.0641 10.9627 29.0446C11.0143 29.0187 11.0787 29.0446 11.1045 29.0965C11.1239 29.1419 11.1045 29.2133 11.053 29.2327C11.0014 29.2587 10.9434 29.2263 10.9176 29.1808Z" fill="#113C4F"/>
<path d="M11.305 29.0056C11.2793 28.9537 11.305 28.8889 11.3566 28.8629C11.4082 28.8434 11.4726 28.8694 11.4919 28.9213C11.5177 28.9732 11.4919 29.0381 11.4404 29.0575C11.3888 29.077 11.3308 29.051 11.305 29.0056Z" fill="#113C4F"/>
<path d="M11.6909 28.824C11.6716 28.7721 11.6909 28.7072 11.7425 28.6812C11.7876 28.6618 11.8585 28.6812 11.8779 28.7331C11.9036 28.785 11.8779 28.8499 11.8263 28.8694C11.7747 28.9018 11.7167 28.8759 11.6909 28.824Z" fill="#113C4F"/>
<path d="M12.0785 28.6489C12.0527 28.597 12.0785 28.5322 12.13 28.5062C12.1816 28.4803 12.2396 28.5127 12.2654 28.5646C12.2847 28.6165 12.2718 28.6749 12.2138 28.7008C12.1623 28.7268 12.0978 28.7008 12.0785 28.6489Z" fill="#113C4F"/>
<path d="M12.4644 28.4801C12.4451 28.4282 12.4644 28.3633 12.5159 28.3373C12.5675 28.3114 12.632 28.3373 12.6577 28.3892C12.6771 28.4411 12.6577 28.506 12.6062 28.5255C12.5482 28.5514 12.4902 28.5255 12.4644 28.4801Z" fill="#113C4F"/>
<path d="M12.8519 28.2985C12.8261 28.2466 12.8519 28.1817 12.9035 28.1623C12.9615 28.1363 13.0195 28.1623 13.0388 28.2142C13.0582 28.2661 13.0453 28.3245 12.9873 28.3504C12.9421 28.3764 12.8777 28.3504 12.8519 28.2985Z" fill="#113C4F"/>
<path d="M8.12078 29.9657C8.095 29.9787 8.08211 30.0047 8.08856 30.0241L8.2239 30.3225C8.23035 30.342 8.26258 30.3485 8.28836 30.3355C8.31414 30.3225 8.32703 30.2966 8.32058 30.2836L8.18523 29.9787C8.17879 29.9592 8.15301 29.9528 8.12078 29.9657Z" fill="#004A6E"/>
<path d="M8.51434 29.7907C8.48856 29.8036 8.47567 29.8296 8.48211 29.8491L8.61746 30.1475C8.6239 30.1669 8.65613 30.1734 8.68191 30.1605C8.70769 30.1475 8.72058 30.128 8.71414 30.1086L8.57879 29.8101C8.5659 29.7842 8.54012 29.7777 8.51434 29.7907Z" fill="#004A6E"/>
<path d="M8.90106 29.6154C8.87528 29.6284 8.86238 29.6543 8.86883 29.6738L9.00418 29.9722C9.01062 29.9917 9.0364 29.9982 9.06863 29.9852C9.09441 29.9722 9.1073 29.9463 9.10085 29.9333L8.96551 29.6284C8.95262 29.6089 8.92684 29.6024 8.90106 29.6154Z" fill="#004A6E"/>
<path d="M9.28767 29.4403C9.26189 29.4533 9.249 29.4793 9.26189 29.4987L9.39724 29.7972C9.41013 29.8166 9.43591 29.8231 9.45525 29.8101C9.48103 29.7972 9.50036 29.7712 9.48747 29.7517L9.35213 29.4533C9.33923 29.4339 9.30701 29.4274 9.28767 29.4403Z" fill="#004A6E"/>
<path d="M9.66756 29.265C9.64178 29.278 9.62889 29.304 9.64178 29.3234L9.77712 29.6283C9.78357 29.6478 9.80935 29.6543 9.84158 29.6413C9.86736 29.6283 9.88025 29.6024 9.8738 29.5829L9.73845 29.2845C9.72556 29.2585 9.69334 29.2521 9.66756 29.265Z" fill="#004A6E"/>
<path d="M10.0612 29.0835C10.0354 29.0965 10.0225 29.1224 10.029 29.1419L10.1643 29.4403C10.1708 29.4598 10.203 29.4662 10.2288 29.4533C10.2546 29.4403 10.2675 29.4143 10.2546 29.4014L10.1192 29.1029C10.1128 29.0835 10.087 29.077 10.0612 29.0835Z" fill="#004A6E"/>
<path d="M10.4478 28.9082C10.422 28.9212 10.4092 28.9471 10.422 28.9666L10.5574 29.265C10.5638 29.2845 10.5961 29.291 10.6218 29.278C10.6476 29.265 10.6605 29.2391 10.6541 29.2196L10.5187 28.9212C10.4994 28.9082 10.4736 28.8952 10.4478 28.9082Z" fill="#004A6E"/>
<path d="M10.8346 28.7331C10.8089 28.746 10.796 28.772 10.8024 28.7979L10.9378 29.0964C10.9442 29.1158 10.9764 29.1223 11.0022 29.1093C11.028 29.0964 11.0409 29.0769 11.0344 29.051L10.8991 28.746C10.8862 28.7266 10.8604 28.7201 10.8346 28.7331Z" fill="#004A6E"/>
<path d="M11.2213 28.5581C11.1955 28.5711 11.1826 28.597 11.1955 28.6165L11.3308 28.9149C11.3373 28.9344 11.3695 28.9409 11.3953 28.9279C11.4211 28.9149 11.434 28.889 11.4275 28.8695L11.2922 28.5646C11.2728 28.5516 11.247 28.5451 11.2213 28.5581Z" fill="#004A6E"/>
<path d="M11.6145 28.3827C11.5887 28.3957 11.5693 28.4216 11.5822 28.4476L11.7176 28.746C11.724 28.7655 11.7562 28.772 11.782 28.759C11.8078 28.746 11.8207 28.7201 11.8143 28.7006L11.6789 28.4022C11.666 28.3762 11.6402 28.3697 11.6145 28.3827Z" fill="#004A6E"/>
<path d="M11.9947 28.2078C11.9689 28.2207 11.956 28.2467 11.9689 28.2661L12.1043 28.5646C12.1107 28.584 12.1365 28.5905 12.1623 28.5775C12.1881 28.5646 12.2009 28.5386 12.1945 28.5192L12.0592 28.2142C12.0527 28.2013 12.0205 28.1948 11.9947 28.2078Z" fill="#004A6E"/>
<path d="M12.3805 28.0324C12.3548 28.0454 12.3419 28.0713 12.3483 28.0908L12.4837 28.3892C12.4901 28.4087 12.5223 28.4151 12.5481 28.4022C12.5739 28.3892 12.5868 28.3632 12.5803 28.3438L12.445 28.0454C12.4386 28.0259 12.4063 28.0194 12.3805 28.0324Z" fill="#004A6E"/>
<path d="M12.7681 27.8573C12.7424 27.8703 12.7295 27.8963 12.7424 27.9157L12.8777 28.2142C12.8842 28.2336 12.9099 28.2401 12.9357 28.2271C12.9615 28.2141 12.9744 28.1882 12.9679 28.1687L12.8326 27.8703C12.8197 27.8508 12.7939 27.8444 12.7681 27.8573Z" fill="#004A6E"/>
<path d="M12.4298 29.3021L11.6543 29.6543L12.537 31.6234L13.3125 31.2712L12.4298 29.3021Z" fill="#004A6E"/>
<path d="M11.4594 29.7408L11.2832 29.8208L12.1657 31.7899L12.342 31.7099L11.4594 29.7408Z" fill="#3357BD"/>
<path d="M11.8584 31.4578L11.3299 30.2771L11.1494 30.355L11.6844 31.5357L11.8584 31.4578Z" fill="#3357BD"/>
<path d="M12.7285 34.2019C12.7285 34.2019 12.9025 34.1241 12.8703 33.7478C12.8316 33.365 13.0894 32.7228 13.0894 32.7228C13.0894 32.7228 13.3795 32.1713 13.4568 32.0156C13.5342 31.8534 13.6179 31.7432 13.7662 31.8145C13.9144 31.8924 13.8049 32.2297 13.6437 32.7098C13.6437 32.7098 13.6308 32.7812 13.8049 32.5671C13.9724 32.353 14.5783 31.6329 14.5783 31.6329C14.5783 31.6329 14.7587 31.3734 14.9328 31.5226C15.0939 31.6588 14.9263 31.7951 14.849 31.8859C14.7716 31.9767 14.3978 32.4308 14.3978 32.4308C14.3978 32.4308 14.3978 32.4892 14.4429 32.4697L15.0874 31.6783C15.0874 31.6783 15.197 31.5291 15.313 31.6264C15.4484 31.7367 15.3775 31.834 15.3324 31.8924C15.2808 31.9508 14.6878 32.6903 14.6878 32.6903C14.6878 32.6903 14.6749 32.7552 14.733 32.7293L15.3324 31.9897C15.3324 31.9897 15.4097 31.8924 15.5322 31.9897C15.6546 32.0935 15.5708 32.1843 15.5708 32.1843L14.9585 32.9368C14.9585 32.9368 14.9456 32.9823 14.9972 32.9693L15.4999 32.34C15.4999 32.34 15.5773 32.2622 15.6933 32.366C15.8093 32.4698 15.732 32.5606 15.732 32.5606L14.1593 34.4614C14.1593 34.4614 13.9853 34.6885 13.8177 34.6625C13.6566 34.6366 13.5342 34.8831 13.5342 34.8831L12.7285 34.2019Z" fill="#FDB171"/>
<path d="M6.90187 33.6377L3.70508 35.4996C3.70508 35.4996 5.07789 37.5172 5.30992 37.8221C5.5355 38.127 5.83198 38.4514 6.48294 38.3995C7.1339 38.3476 10.6787 38.0232 10.6787 38.0232C11.3039 38.0492 11.6197 37.6275 11.5746 37.6859C11.2072 38.1335 13.9206 35.026 13.9206 35.026L12.5929 33.9231L10.6981 36.0186C10.6981 36.0186 10.5305 36.2003 9.66684 36.2781C9.17701 36.3235 7.69462 36.583 7.55927 36.2067C7.34658 35.6294 7.52705 34.7081 6.90187 33.6377Z" fill="#004A6E"/>
<path d="M9.33203 28.2724C9.33203 28.2724 9.48671 28.1557 9.79608 28.3827C10.1054 28.6033 10.7886 28.7006 10.7886 28.7006C10.7886 28.7006 11.4074 28.7201 11.5814 28.7331C11.7554 28.746 11.8972 28.7331 11.9101 28.5644C11.9165 28.3957 11.5685 28.3179 11.0787 28.227C11.0787 28.227 11.0078 28.2011 11.2785 28.1622C11.5492 28.1232 12.4644 27.9546 12.4644 27.9546C12.4644 27.9546 12.7802 27.9286 12.7351 27.7015C12.6964 27.4939 12.4966 27.5653 12.3806 27.5913C12.2581 27.6107 11.6845 27.7145 11.6845 27.7145C11.6845 27.7145 11.6329 27.6886 11.6716 27.6561L12.6771 27.4939C12.6771 27.4939 12.8575 27.468 12.8382 27.3188C12.806 27.1436 12.6964 27.1566 12.619 27.1696C12.5417 27.1825 11.6072 27.3382 11.6072 27.3382C11.6072 27.3382 11.5427 27.3188 11.5943 27.2799L12.5353 27.1242C12.5353 27.1242 12.6577 27.1047 12.6319 26.949C12.6062 26.7933 12.4837 26.8192 12.4837 26.8192L11.5234 26.9749C11.5234 26.9749 11.4783 26.9685 11.5105 26.923L12.3032 26.7998C12.3032 26.7998 12.4064 26.7738 12.3806 26.6181C12.3484 26.4689 12.2323 26.4884 12.2323 26.4884L9.80897 26.9101C9.80897 26.9101 9.52538 26.949 9.46737 27.1047C9.40937 27.2604 9.13867 27.2474 9.13867 27.2474L9.33203 28.2724Z" fill="#FDB171"/>
<path d="M6.90249 33.6376L3.7057 35.4996C3.7057 35.4996 2.65514 33.2938 2.50691 32.937C2.35867 32.5867 2.22976 32.1715 2.59714 31.6265C2.96451 31.0816 5.02051 28.1557 5.02051 28.1557C5.31054 27.5978 5.82615 27.5329 5.75526 27.5459C5.18809 27.6432 9.2163 26.8323 9.2163 26.8323L9.50633 28.545L6.75426 29.1483C6.75426 29.1483 6.51579 29.2002 6.01306 29.9138C5.72948 30.3161 4.76271 31.4773 5.02051 31.7887C5.40722 32.2493 6.29021 32.5542 6.90249 33.6376Z" fill="#004A6E"/>
<path d="M5.92905 33.7867C6.1353 33.7478 6.38021 33.8062 6.44466 33.91C6.50267 34.0138 6.42533 34.2603 6.28998 34.416C6.43822 34.8377 6.60579 35.5902 6.23842 36.3428L4.89783 35.8108L5.51012 34.4484L4.03418 34.2992L4.24687 32.8655C5.07829 32.9239 5.64547 33.4429 5.92905 33.7867Z" fill="#FDB171"/>
<path d="M1.3466 35.986C1.91377 36.1417 2.25536 36.732 2.10068 37.3029C1.946 37.8738 1.36593 38.2177 0.792314 38.062C0.225142 37.9063 -0.116451 37.3159 0.0382324 36.745C0.186471 36.1741 0.772979 35.8368 1.3466 35.986Z" fill="#1E2020"/>
<path d="M1.91974 33.4689C0.89496 34.0658 0.147323 35.2011 1.06898 37.0306C2.21621 38.8017 3.59547 38.6265 4.65248 38.0102C5.78682 37.3549 6.26377 36.3234 6.26377 36.3234C6.26377 36.3234 5.72237 34.0009 4.27222 32.8461C4.27222 32.8461 3.28611 32.671 1.91974 33.4689Z" fill="#1E2020"/>
<path d="M25.4959 12.3911C25.4959 12.3911 25.5216 12.5922 25.1478 12.7674C24.774 12.9361 24.3228 13.5199 24.3228 13.5199C24.3228 13.5199 23.9748 14.0843 23.8652 14.24C23.7621 14.3957 23.6977 14.5385 23.8459 14.6358C23.9941 14.7331 24.252 14.4476 24.6064 14.0389C24.6064 14.0389 24.6709 13.987 24.5549 14.2595C24.4453 14.532 23.9813 15.8295 23.9813 15.8295C23.9813 15.8295 23.833 16.1344 24.065 16.2187C24.2777 16.2966 24.3164 16.0695 24.3615 15.9463C24.4066 15.823 24.7482 14.8823 24.7482 14.8823C24.7482 14.8823 24.7998 14.8499 24.8062 14.9018L24.6 15.4662C24.6 15.4662 24.5226 15.6478 24.6709 15.7062C24.8513 15.7711 24.8965 15.6608 24.9222 15.583C24.948 15.5051 25.1285 15.0121 25.1285 15.0121C25.1285 15.0121 25.1865 14.9602 25.1929 15.038L25.0125 15.5375C25.0125 15.5375 24.9609 15.6608 25.122 15.7192C25.2767 15.7776 25.3218 15.6543 25.3218 15.6543L25.5088 15.1353C25.5088 15.1353 25.5474 15.0964 25.5603 15.1548L25.4314 15.5051C25.4314 15.5051 25.3992 15.6154 25.5603 15.6738C25.715 15.7257 25.7601 15.6024 25.7601 15.6024L26.4884 13.5718C26.4884 13.5718 26.6044 13.2864 26.4884 13.1501C26.3724 13.0139 26.54 12.7674 26.54 12.7674L25.4959 12.3911Z" fill="#FDB171"/>
<path d="M19.6695 10.3022C19.6695 10.3022 19.7211 10.5034 20.1271 10.5163C20.5332 10.5358 21.1712 10.9056 21.1712 10.9056C21.1712 10.9056 21.7062 11.3013 21.8609 11.4051C22.0155 11.5089 22.1251 11.6192 22.022 11.7684C21.9253 11.9176 21.5773 11.749 21.1003 11.5024C21.1003 11.5024 21.023 11.4765 21.2292 11.6906C21.4355 11.9047 22.3442 12.9297 22.3442 12.9297C22.3442 12.9297 22.5956 13.1567 22.4087 13.3254C22.2411 13.4746 22.1187 13.28 22.0349 13.1827C21.9511 13.0854 21.2808 12.3393 21.2808 12.3393C21.2808 12.3393 21.2228 12.3263 21.2357 12.3782L21.6353 12.8259C21.6353 12.8259 21.7706 12.9686 21.6546 13.0789C21.5128 13.2086 21.429 13.1178 21.371 13.0594C21.313 12.9946 20.965 12.6053 20.965 12.6053C20.965 12.6053 20.8941 12.5794 20.9134 12.6507L21.2679 13.0529C21.2679 13.0529 21.3646 13.1503 21.2357 13.2605C21.1068 13.3708 21.0294 13.2735 21.0294 13.2735L20.6621 12.8648C20.6621 12.8648 20.6169 12.8453 20.6234 12.9037L20.8683 13.1827C20.8683 13.1827 20.9392 13.2735 20.8167 13.3838C20.6943 13.4941 20.6041 13.3903 20.6041 13.3903L19.1732 11.7879C19.1732 11.7879 18.9605 11.5673 19.0121 11.3986C19.0637 11.23 18.8252 11.0613 18.8252 11.0613L19.6695 10.3022Z" fill="#FDB171"/>
<path d="M21.8612 7.25295V3.27612C21.8612 3.27612 19.2702 3.47724 18.8642 3.52914C18.4646 3.58103 18.007 3.67835 17.7041 4.31412C17.4011 4.9499 16.1959 7.53192 16.1959 7.53192C16.1959 7.53192 15.8672 8.14174 16.1959 8.51801C16.5246 8.89429 18.6902 11.4568 18.6902 11.4568L20.1017 10.1658L18.3486 8.09633C18.3486 8.09633 18.007 7.81737 18.2712 7.36324C18.5355 6.90912 18.5484 6.27334 19.1542 6.48743C19.7536 6.708 20.5335 7.26593 21.8612 7.25295Z" fill="#D8E9ED"/>
<path d="M21.8613 7.25295V3.27612C21.8613 3.27612 24.4587 3.47724 24.8583 3.52913C25.2644 3.58103 25.7155 3.67835 26.0184 4.31412C26.3149 4.94989 27.9133 8.43368 27.9133 8.43368C28.2678 9.00457 28.0551 9.52357 28.0809 9.45221C28.2936 8.86834 26.8885 13.0657 26.8885 13.0657L25.1612 12.417L26.0765 9.53006C26.0765 9.53006 26.1602 9.27705 25.7671 8.42719C25.548 7.94711 24.9937 6.42255 24.5683 6.5004C23.9367 6.6042 23.1826 7.26593 21.8613 7.25295Z" fill="#D8E9ED"/>
<path d="M21.4742 6.2733C21.5515 6.48738 21.732 6.68849 21.8609 6.68849C21.9898 6.68849 22.1702 6.48738 22.2476 6.2733C22.7116 6.18896 23.4979 5.94243 23.9942 5.19637L22.789 4.22974L21.8609 5.52723L20.9328 4.22974L19.7275 5.18988C20.2238 5.94243 21.0101 6.18896 21.4742 6.2733Z" fill="#FDB171"/>
<path d="M19.7277 5.22892C19.7277 5.22892 20.4109 4.89805 20.8427 5.17702C21.2681 5.44949 21.8611 5.52085 21.8611 5.52085C21.8611 5.52085 22.4476 5.44949 22.8794 5.17053C23.3112 4.89157 23.9944 5.22892 23.9944 5.22892C23.9944 5.22892 24.684 4.22984 24.684 2.82206C24.6776 1.5051 24.104 0.116775 21.8611 0C19.6826 0.116775 19.0381 1.42076 19.0381 2.6988C19.0381 4.39852 19.7277 5.22892 19.7277 5.22892Z" fill="#713C1F"/>
<path d="M24.4361 27.6794L19.1641 29.2031L21.0728 35.8941L26.3448 34.3704L24.4361 27.6794Z" fill="#004A6E"/>
<path d="M25.8444 34.0917L21.3521 35.3892L19.8633 30.1603L20.2822 29.3169L24.1622 28.1946L25.8444 34.0917Z" fill="white"/>
<path d="M24.024 29.2307L22.376 29.7063L22.7685 31.0845L24.4166 30.609L24.024 29.2307Z" fill="#F2E9E1"/>
<path d="M22.1626 29.7686L20.459 30.261L20.5159 30.4605L22.2196 29.9681L22.1626 29.7686Z" fill="#F2E9E1"/>
<path d="M22.325 30.355L20.6234 30.8481L20.5654 30.6534L22.2734 30.1604L22.325 30.355Z" fill="#F2E9E1"/>
<path d="M22.3874 30.5548L20.6836 31.0466L20.7405 31.2462L22.4443 30.7543L22.3874 30.5548Z" fill="#F2E9E1"/>
<path d="M22.5505 31.1464L20.849 31.633L20.791 31.4384L22.4925 30.9453L22.5505 31.1464Z" fill="#F2E9E1"/>
<path d="M24.53 30.9974L20.9594 32.0289L20.9014 31.8342L24.472 30.8027L24.53 30.9974Z" fill="#F2E9E1"/>
<path d="M24.6388 31.393L21.0682 32.4245L21.0166 32.2234L24.5808 31.1919L24.6388 31.393Z" fill="#F2E9E1"/>
<path d="M24.0982 31.977L21.185 32.8139L21.127 32.6193L24.0402 31.7759L24.0982 31.977Z" fill="#F2E9E1"/>
<path d="M24.8644 32.178L21.2937 33.2095L21.2422 33.0149L24.8064 31.9834L24.8644 32.178Z" fill="#F2E9E1"/>
<path d="M24.9747 32.5737L21.4105 33.6052L21.3525 33.4041L24.9231 32.3726L24.9747 32.5737Z" fill="#F2E9E1"/>
<path d="M25.0905 32.9629L21.5199 33.9944L21.4619 33.7998L25.0325 32.7683L25.0905 32.9629Z" fill="#F2E9E1"/>
<path d="M24.1846 33.4387L21.5762 34.1909L21.6312 34.3842L24.2396 33.6321L24.1846 33.4387Z" fill="#F2E9E1"/>
<path d="M23.3052 34.3317L21.7455 34.7794L21.6875 34.5847L23.2537 34.1306L23.3052 34.3317Z" fill="#F2E9E1"/>
<path d="M25.2591 33.5529L24.4785 33.7783L24.5354 33.9779L25.316 33.7524L25.2591 33.5529Z" fill="#F2E9E1"/>
<path d="M20.2822 29.3169L19.8633 30.1603L20.4756 29.9851L20.2822 29.3169Z" fill="#F2E9E1"/>
<path d="M22.2097 28.519L22.1775 28.532C22.1775 28.5255 22.1775 28.519 22.1711 28.5125C22.1195 28.3244 21.9197 28.2141 21.7328 28.266C21.5459 28.3179 21.4363 28.519 21.4879 28.7071C21.4879 28.7136 21.4943 28.7201 21.4943 28.7266L21.4621 28.7396C21.2816 28.7915 21.1785 28.9796 21.2301 29.1548C21.2816 29.3364 21.4685 29.4402 21.6426 29.3883L22.3902 29.1742C22.5707 29.1223 22.6673 28.9342 22.6222 28.759C22.5707 28.5709 22.3838 28.4671 22.2097 28.519ZM21.6748 28.6552C21.649 28.5709 21.7006 28.4801 21.7844 28.4541C21.8681 28.4282 21.9584 28.4801 21.9842 28.5644C21.9842 28.5709 21.9842 28.5774 21.9842 28.5839L21.6812 28.6682C21.6812 28.6682 21.6812 28.6617 21.6748 28.6552Z" fill="#3357BD"/>
<path d="M27.6364 34.9157C27.6364 34.9157 27.6815 34.8573 27.1659 34.6043C26.6503 34.3513 26.1991 34.0334 26.1282 34.0269C26.0573 34.0204 25.3033 33.949 25.1873 33.962C25.0648 33.975 24.865 34.2085 25.1486 34.3707C25.4193 34.5264 27.0241 35.3179 27.6364 34.9157Z" fill="#FDB171"/>
<path d="M25.1421 34.5847C25.1421 34.5847 24.9552 34.6042 24.9423 34.7404C24.9294 34.8767 24.981 35.0453 25.1743 35.0648C25.1743 35.0648 25.097 35.3502 25.4386 35.4021C25.4386 35.4021 25.3806 35.6357 25.6641 35.6876C25.8768 35.7265 26.2055 35.7006 26.2055 35.7006C26.2055 35.7006 26.2764 34.7599 25.1421 34.5847Z" fill="#FDB171"/>
<path d="M23.7695 34.2863C23.7695 34.2863 23.7953 34.3188 23.8404 34.3253C23.892 34.3317 23.9371 34.3188 23.9371 34.3058C23.9371 34.2863 23.9049 34.2669 23.8533 34.2604C23.8018 34.2539 23.7695 34.2863 23.7695 34.2863Z" fill="#113C4F"/>
<path d="M26.6505 34.7795L24.8652 34.5589L24.8975 34.2734L26.6892 34.4875L26.6505 34.7795Z" fill="white"/>
<path d="M26.7277 34.7014C26.7213 34.7533 26.6891 34.7857 26.6504 34.7792L26.6826 34.4873C26.7148 34.4873 26.7406 34.5327 26.7342 34.5781L26.7277 34.7014Z" fill="#B5F6FF"/>
<path d="M24.1562 34.4746L24.8652 34.5589L24.8974 34.2734L24.1949 34.1826L24.1562 34.4746Z" fill="#3357BD"/>
<path d="M24.0982 34.176L23.8404 34.2539L23.834 34.3252L24.066 34.4615L24.1562 34.4744L24.1949 34.1825L24.0982 34.176Z" fill="#B5F6FF"/>
<path d="M24.8982 34.2694L24.8623 34.5591L24.9391 34.5687L24.9749 34.279L24.8982 34.2694Z" fill="#B5F6FF"/>
<path d="M26.8377 37.0306C26.8377 37.0306 26.2963 36.3754 26.2318 35.9991C26.1738 35.6228 26.0127 35.3114 25.8644 35.2011C25.7098 35.0973 24.9492 34.6562 25.1426 34.3578C25.2908 34.1307 25.9418 34.6497 25.9418 34.6497L26.264 34.7211L27.6369 34.9092C27.6369 34.9092 27.8882 36.33 27.9076 36.5181L26.8377 37.0306Z" fill="#FDB171"/>
<path d="M21.5842 38.925C21.5842 38.925 21.6164 38.7239 22.0224 38.672C22.4285 38.6201 23.0343 38.1919 23.0343 38.1919C23.0343 38.1919 23.5306 37.7507 23.6788 37.634C23.8271 37.5172 23.9237 37.4004 23.8077 37.2577C23.6917 37.115 23.3695 37.3161 22.9119 37.6015C22.9119 37.6015 22.8345 37.634 23.0214 37.4004C23.2083 37.1733 23.8786 36.2327 23.8786 36.2327C23.8786 36.2327 24.1042 35.9861 23.9109 35.8369C23.7304 35.7007 23.6273 35.9083 23.5499 36.0121C23.4726 36.1159 23.0214 36.7517 23.0214 36.7517C23.0214 36.7517 22.9634 36.7711 22.9763 36.7127L23.5435 35.9018C23.5435 35.9018 23.6724 35.7461 23.5435 35.6488C23.3952 35.532 23.3179 35.6293 23.2663 35.6942C23.2212 35.7591 22.6927 36.5116 22.6927 36.5116C22.6927 36.5116 22.6218 36.5441 22.6412 36.4727L23.1697 35.7201C23.1697 35.7201 23.2534 35.6163 23.1181 35.5125C22.9828 35.4087 22.9119 35.519 22.9119 35.519L22.3705 36.291C22.3705 36.291 22.3253 36.317 22.3253 36.2586L22.7572 35.6293C22.7572 35.6293 22.8216 35.532 22.6863 35.4347C22.5574 35.3374 22.4736 35.4412 22.4736 35.4412L20.9783 37.4912C20.9783 37.4912 20.785 37.7313 20.8559 37.8935C20.9268 38.0556 20.7012 38.2438 20.7012 38.2438L21.5842 38.925Z" fill="#FDB171"/>
<path d="M24.0336 41.7664L24.3817 45.7303C24.3817 45.7303 21.7778 45.7563 21.3718 45.7433C20.9657 45.7303 20.5081 45.6654 20.1472 45.0621C19.7927 44.4588 18.3619 41.987 18.3619 41.987C18.3619 41.987 17.9816 41.4096 18.2781 41.0009C18.5681 40.5987 20.5081 37.8545 20.5081 37.8545L22.0227 39.0158L20.4566 41.228C20.4566 41.228 20.1408 41.5329 20.4437 41.9676C20.7466 42.4022 20.8111 43.0315 21.3976 42.759C21.9841 42.493 22.7124 41.8702 24.0336 41.7664Z" fill="#4985E2"/>
<path d="M24.0332 41.7665L24.3812 45.7303C24.3812 45.7303 26.9464 45.3022 27.346 45.2178C27.7456 45.1335 28.1903 44.9908 28.4352 44.3355C28.6802 43.6803 29.634 40.7544 29.634 40.7544C29.9434 40.1576 29.6856 39.6581 29.7114 39.7294C29.9756 40.2938 28.2097 36.2327 28.2097 36.2327L26.5468 37.0306L27.7069 39.8267C27.7069 39.8267 27.8101 40.0733 27.4942 40.9491C27.3138 41.4486 27.2364 42.3244 26.8046 42.2855C26.1537 42.2271 25.348 41.6367 24.0332 41.7665Z" fill="#4985E2"/>
<path d="M23.731 42.7786C23.789 42.558 23.9501 42.3439 24.0791 42.331C24.208 42.318 24.4013 42.5061 24.498 42.7072C24.9685 42.7526 25.7741 42.9278 26.3349 43.6285L25.2198 44.6989L24.1822 43.4857L23.3701 44.8611L22.0811 44.0047C22.5193 43.2197 23.2734 42.9019 23.731 42.7786Z" fill="#FDB171"/>
<path d="M22.0809 43.9723C22.0809 43.9723 22.7899 44.2447 23.196 43.9333C23.602 43.6154 24.1821 43.4922 24.1821 43.4922C24.1821 43.4922 24.775 43.5181 25.2326 43.7517C25.6902 43.9917 26.3347 43.596 26.3347 43.596C26.3347 43.596 27.1082 44.5302 27.2306 45.9315C27.3402 47.242 26.889 48.6692 24.6654 48.9871C22.487 49.0649 21.7265 47.8193 21.6169 46.5478C21.4687 44.861 22.0809 43.9723 22.0809 43.9723Z" fill="#260D08"/>
<path d="M8.26801 32.3651L8.01562 32.6338L9.6877 34.2249L9.94009 33.9562L8.26801 32.3651Z" fill="#004A6E"/>
<path d="M8.26801 32.3651L8.01562 32.6338L9.6877 34.2249L9.94009 33.9562L8.26801 32.3651Z" fill="#F2E9E1"/>
<path d="M8.07422 32.5737L9.74351 34.1632L9.87886 34.0269L8.20312 32.4375L8.07422 32.5737Z" fill="#004A6E"/>
<path d="M10.0852 34.2798L10.0658 34.2928L9.87891 34.0268L9.93691 33.9619L10.0852 34.2798Z" fill="#F2E9E1"/>
<path d="M10.0142 34.3577L9.68555 34.228L9.74355 34.1631L10.0271 34.3382L10.0142 34.3577Z" fill="#F2E9E1"/>
<path d="M10.0277 34.3383L9.74414 34.1631L9.87949 34.0269L10.0664 34.2928L10.0277 34.3383Z" fill="white"/>
<path d="M10.0275 34.3382L10.0662 34.2928L10.0855 34.2798L10.1436 34.4095L10.0146 34.3576L10.0275 34.3382Z" fill="#003B5E"/>
<path d="M8.77628 32.1125L8.5293 32.3774L10.2071 33.9623L10.4541 33.6974L8.77628 32.1125Z" fill="#004A6E"/>
<path d="M8.77628 32.1125L8.5293 32.3774L10.2071 33.9623L10.4541 33.6974L8.77628 32.1125Z" fill="#4985E2"/>
<path d="M10.2666 33.8972L8.59082 32.3142L8.71972 32.178L10.3955 33.7609L10.2666 33.8972Z" fill="#3357BD"/>
<path d="M8.45527 31.9834L8.44238 32.0029L8.71952 32.178L8.77753 32.1131L8.45527 31.9834Z" fill="#F2E9E1"/>
<path d="M8.38379 32.0612L8.53203 32.3791L8.59003 32.3142L8.40312 32.0417L8.38379 32.0612Z" fill="#F2E9E1"/>
<path d="M8.40332 32.0416L8.59023 32.3141L8.71913 32.1778L8.44199 32.0027L8.40332 32.0416Z" fill="white"/>
<path d="M8.40351 32.0417L8.44218 32.0028L8.45507 31.9833L8.32617 31.9314L8.38418 32.0611L8.40351 32.0417Z" fill="#003B5E"/>
<path d="M10.5496 33.7867L10.4529 33.7024L10.208 33.9619L10.2982 34.0527L10.5496 33.7867Z" fill="#003B5E"/>
<path d="M8.17295 32.2853L7.92676 32.551L8.02102 32.6395L8.26721 32.3738L8.17295 32.2853Z" fill="#003B5E"/>
<path d="M7.92015 32.5477L8.04261 32.4179L8.16507 32.2882C8.16507 32.2882 8.06194 32.2038 7.94593 32.3271C7.82992 32.4504 7.92015 32.5477 7.92015 32.5477Z" fill="white"/>
<path d="M10.2988 34.0529L10.4213 33.9231L10.5437 33.7869C10.5437 33.7869 10.634 33.8907 10.518 34.0139C10.4084 34.1372 10.2988 34.0529 10.2988 34.0529Z" fill="white"/>
<path d="M13.3534 13.4031L13.7659 13.1695C14.1913 13.708 14.9518 13.8702 15.5705 13.5263C16.2537 13.1436 16.4986 12.2677 16.1184 11.5801C15.7381 10.8924 14.868 10.6394 14.1848 11.0286C13.5661 11.3725 13.3083 12.112 13.5403 12.7543L13.1278 12.9879C13.0183 13.0462 12.9796 13.189 13.0376 13.2993L13.044 13.3057C13.1085 13.429 13.2503 13.4679 13.3534 13.4031Z" fill="white"/>
<path d="M13.7847 12.2483C13.8041 11.6384 14.3068 11.1584 14.9126 11.1778C15.5185 11.1973 15.9954 11.7033 15.9761 12.3131C15.9568 12.923 15.454 13.403 14.8482 13.3836C14.2424 13.3641 13.7654 12.8581 13.7847 12.2483Z" fill="#260D08"/>
<path d="M15.0351 13.163C14.4293 13.1435 13.9523 12.6375 13.9717 12.0277C13.9781 11.8201 14.0426 11.6255 14.1521 11.4568C13.933 11.6514 13.7912 11.9304 13.7847 12.2483C13.7654 12.8581 14.2424 13.3641 14.8482 13.3836C15.2478 13.3965 15.5958 13.1954 15.8021 12.8775C15.5958 13.0592 15.3251 13.1695 15.0351 13.163Z" fill="#E6E7E8"/>
<path d="M28.6613 11.4114C28.5517 11.3335 28.4035 11.353 28.3261 11.4633C28.2488 11.5736 28.2681 11.7228 28.3777 11.8071C28.455 11.8655 28.5517 11.8655 28.629 11.8266L28.8031 11.9499L28.7644 12.0018L28.8675 12.0796L29.0544 11.8136L28.9513 11.7358L28.9255 11.7747L28.7515 11.6449C28.7708 11.5606 28.7386 11.4698 28.6613 11.4114ZM28.397 11.5152C28.4421 11.4503 28.5388 11.4309 28.6097 11.4828C28.6806 11.5347 28.6935 11.6255 28.6419 11.6968C28.5904 11.7617 28.5001 11.7812 28.4292 11.7293C28.3648 11.6839 28.3455 11.5866 28.397 11.5152Z" fill="#DEDEDE"/>
<path d="M30.8267 14.8499C30.9041 14.9083 31.0201 14.8823 31.0846 14.7915L32.2447 13.1826C32.3091 13.0918 32.2962 12.975 32.2189 12.9166L29.5764 10.9833C29.499 10.9249 29.383 10.9509 29.3186 11.0417L28.1585 12.6506C28.094 12.7414 28.1069 12.8582 28.1842 12.9166L30.8267 14.8499Z" fill="white"/>
<path d="M29.5915 11.2444L28.4297 12.8484L30.9346 14.6867L32.0964 13.0826L29.5915 11.2444Z" fill="#004A6E"/>
<path d="M30.8267 14.8499C30.9041 14.9083 31.0201 14.8823 31.0846 14.7915L32.2447 13.1826C32.3091 13.0918 32.2962 12.975 32.2189 12.9166L29.5764 10.9833C29.499 10.9249 29.383 10.9509 29.3186 11.0417L28.1585 12.6506C28.094 12.7414 28.1069 12.8582 28.1842 12.9166L30.8267 14.8499Z" fill="#B5F6FF"/>
<path d="M29.5915 11.2444L28.4297 12.8484L30.9346 14.6867L32.0964 13.0826L29.5915 11.2444Z" fill="#004A6E"/>
<path d="M30.8267 14.8499C30.9041 14.9083 31.0201 14.8823 31.0846 14.7915L32.2447 13.1826C32.3091 13.0918 32.2962 12.975 32.2189 12.9166L29.5764 10.9833C29.499 10.9249 29.383 10.9509 29.3186 11.0417L28.1585 12.6506C28.094 12.7414 28.1069 12.8582 28.1842 12.9166L30.8267 14.8499Z" fill="white"/>
<path d="M29.5915 11.2444L28.4297 12.8484L30.9346 14.6867L32.0964 13.0826L29.5915 11.2444Z" fill="#004A6E"/>
<path d="M30.9558 12.3879L30.4473 13.0906L31.3798 13.7743L31.8883 13.0717L30.9558 12.3879Z" fill="white"/>
<path d="M30.3687 13.0333L30.8715 12.3262L30.807 12.2808L30.2979 12.9814L30.3687 13.0333Z" fill="white"/>
<path d="M30.4463 12.657L30.7492 12.2354L30.6848 12.1899L30.3818 12.6051L30.4463 12.657Z" fill="white"/>
<path d="M29.2541 12.4171L28.8352 13.001L28.7578 12.9491L29.1832 12.3652L29.2541 12.4171Z" fill="white"/>
<path d="M29.7814 11.5413L29.4102 12.0557L29.504 12.1243L29.8752 11.6099L29.7814 11.5413Z" fill="white"/>
<path d="M30.0271 11.7165L29.7436 12.1057L29.6533 12.0344L29.9305 11.6516L30.0271 11.7165Z" fill="white"/>
<path d="M29.3008 12.4467L28.8799 13.0291L28.9529 13.0825L29.3737 12.5001L29.3008 12.4467Z" fill="white"/>
<path d="M29.4924 12.5922L29.067 13.1761L28.9961 13.1242L29.4215 12.5403L29.4924 12.5922Z" fill="white"/>
<path d="M31.1877 12.8387C31.278 12.9036 31.2973 13.0334 31.2329 13.1242C31.1684 13.215 31.0395 13.2345 30.9493 13.1696C30.859 13.1047 30.8397 12.975 30.9042 12.8842C30.9686 12.7933 31.0911 12.7739 31.1877 12.8387Z" fill="#3357BD"/>
<path d="M31.6837 13.014L31.6643 13.001C31.5419 12.9102 31.3614 12.9362 31.2712 13.0659L31.1745 13.1957C31.0843 13.3254 31.1101 13.5006 31.239 13.5914L31.2583 13.6044L31.6837 13.014Z" fill="#3357BD"/>
<path d="M30.5205 13.2878L30.0732 13.907L30.1619 13.9718L30.6091 13.3527L30.5205 13.2878Z" fill="white"/>
<path d="M30.8006 13.5004L30.3494 14.1167L30.2656 14.0583L30.7103 13.4355L30.8006 13.5004Z" fill="white"/>
<path d="M30.9047 13.5853L30.457 14.2041L30.5456 14.269L30.9933 13.6502L30.9047 13.5853Z" fill="white"/>
<path d="M31.0963 13.7273L30.6484 14.3459L30.737 14.4109L31.1849 13.7922L31.0963 13.7273Z" fill="white"/>
<path d="M28.5901 11.4374C28.4805 11.3595 28.3323 11.3855 28.2549 11.4893C28.1776 11.5995 28.2034 11.7488 28.3065 11.8266C28.3838 11.885 28.4805 11.885 28.5579 11.8461L28.7319 11.9693L28.6996 12.0212L28.8028 12.0991L28.9961 11.8331L28.893 11.7552L28.8672 11.7942L28.6868 11.6774C28.6996 11.5866 28.6674 11.4893 28.5901 11.4374ZM28.3258 11.5476C28.3774 11.4828 28.4676 11.4633 28.5385 11.5152C28.6094 11.5671 28.6223 11.6579 28.5707 11.7293C28.5256 11.7942 28.429 11.8136 28.3581 11.7617C28.2872 11.7098 28.2743 11.6125 28.3258 11.5476Z" fill="#D8E9ED"/>
<path d="M14.1083 23.5819H13.0642L12.8064 24.3409H12.1426L13.3672 20.8831H13.857L15.088 24.3409H14.3855L14.1083 23.5819ZM13.2318 23.0434H13.9601L13.7087 22.2779L13.6056 21.7394H13.5798L13.4767 22.2844L13.2318 23.0434Z" fill="white"/>
<path d="M16.216 22.5569L15.9453 22.0185H15.9195L15.9969 22.5569V24.3475H15.3652V20.8896H15.8551L17.1441 22.7191L17.4019 23.2446H17.4277L17.3503 22.7191V20.9156H17.982V24.3734H17.4921L16.216 22.5569Z" fill="white"/>
<path d="M20.2509 23.5819H19.2068L18.949 24.3409H18.2852L19.5097 20.8831H19.9996L21.2241 24.3409H20.5216L20.2509 23.5819ZM19.3744 23.0434H20.1027L19.8513 22.2779L19.7482 21.7394H19.7224L19.6193 22.2844L19.3744 23.0434Z" fill="white"/>
<path d="M23.6669 24.3411H21.5078V20.9092H22.1781V23.7442H23.6669V24.3411Z" fill="white"/>
<path d="M24.2084 23.0694L23.0869 20.9155H23.8797L24.5048 22.2065L24.5757 22.5698H24.6015L24.6789 22.1936L25.2847 20.9155H26.0001L24.8851 23.0694V24.3474H24.2213V23.0694H24.2084Z" fill="white"/>
<path d="M27.7459 23.4262C27.7459 23.3224 27.7072 23.2381 27.6298 23.1732C27.5525 23.1083 27.4558 23.0499 27.3398 22.998C27.2238 22.9461 27.1013 22.8878 26.966 22.8294C26.8306 22.771 26.7082 22.6996 26.5922 22.6218C26.4762 22.5374 26.3795 22.4336 26.3021 22.3104C26.2248 22.1871 26.1861 22.0314 26.1861 21.8368C26.1861 21.6681 26.2119 21.5254 26.2699 21.4021C26.3279 21.2789 26.4053 21.1751 26.5084 21.0972C26.6115 21.0129 26.734 20.9545 26.8693 20.9156C27.0111 20.8766 27.1658 20.8572 27.3398 20.8572C27.5396 20.8572 27.7265 20.8702 27.9005 20.9091C28.0746 20.9415 28.2228 20.9934 28.3324 21.0583L28.1197 21.6227C28.0488 21.5773 27.9392 21.5384 27.7974 21.4994C27.6556 21.4605 27.5009 21.4475 27.3334 21.4475C27.1787 21.4475 27.0562 21.48 26.9789 21.5384C26.8951 21.6032 26.8564 21.6811 26.8564 21.7914C26.8564 21.8887 26.8951 21.973 26.9724 22.0379C27.0498 22.1028 27.1465 22.1676 27.2625 22.2195C27.3785 22.2714 27.5009 22.3298 27.6363 22.3882C27.7716 22.4466 27.8941 22.518 28.0101 22.6023C28.1261 22.6866 28.2228 22.7904 28.2937 22.9137C28.371 23.037 28.4097 23.1862 28.4097 23.3743C28.4097 23.556 28.3775 23.7117 28.3195 23.8479C28.2615 23.9777 28.1777 24.0879 28.0681 24.1788C27.9585 24.2696 27.8296 24.3345 27.675 24.3734C27.5203 24.4123 27.3527 24.4383 27.1658 24.4383C26.9209 24.4383 26.7082 24.4123 26.5213 24.3669C26.3344 24.3215 26.199 24.2761 26.1152 24.2307L26.3279 23.6598C26.3666 23.6792 26.4117 23.6987 26.4697 23.7246C26.5277 23.7441 26.5922 23.7701 26.6631 23.7895C26.734 23.809 26.8113 23.8284 26.8887 23.8414C26.966 23.8544 27.0498 23.8609 27.1336 23.8609C27.3334 23.8609 27.4816 23.8284 27.5847 23.7571C27.6943 23.6598 27.7459 23.5625 27.7459 23.4262Z" fill="white"/>
<path d="M28.9189 20.9155H29.5892V24.3474H28.9189V20.9155Z" fill="white"/>
<path d="M31.7105 23.4262C31.7105 23.3224 31.6718 23.2381 31.5945 23.1732C31.5172 23.1083 31.4205 23.0499 31.3109 22.998C31.1949 22.9461 31.0724 22.8878 30.9371 22.8294C30.8017 22.771 30.6793 22.6996 30.5633 22.6218C30.4473 22.5374 30.3506 22.4336 30.2797 22.3104C30.2023 22.1871 30.1637 22.0314 30.1637 21.8368C30.1637 21.6681 30.1895 21.5254 30.2475 21.4021C30.3055 21.2789 30.3828 21.1751 30.4859 21.0972C30.589 21.0129 30.7115 20.9545 30.8469 20.9156C30.9886 20.8766 31.1433 20.8572 31.3174 20.8572C31.5172 20.8572 31.7041 20.8702 31.8781 20.9091C32.0521 20.9415 32.2003 20.9934 32.3099 21.0583L32.1037 21.6227C32.0328 21.5773 31.9232 21.5384 31.7814 21.4994C31.6396 21.4605 31.4849 21.4475 31.3174 21.4475C31.1627 21.4475 31.0402 21.48 30.9564 21.5384C30.8726 21.6032 30.834 21.6811 30.834 21.7914C30.834 21.8887 30.8726 21.973 30.95 22.0379C31.0273 22.1028 31.124 22.1676 31.24 22.2195C31.356 22.2714 31.4785 22.3298 31.6138 22.3882C31.7492 22.4466 31.8716 22.518 31.9876 22.6023C32.1037 22.6866 32.2003 22.7904 32.2777 22.9137C32.355 23.037 32.3937 23.1862 32.3937 23.3743C32.3937 23.556 32.3615 23.7117 32.3035 23.8479C32.2455 23.9777 32.1552 24.0879 32.0521 24.1788C31.9425 24.2696 31.8136 24.3345 31.6589 24.3734C31.5043 24.4123 31.3367 24.4383 31.1498 24.4383C30.9049 24.4383 30.6922 24.4123 30.5053 24.3669C30.3184 24.3215 30.183 24.2761 30.0928 24.2307L30.2926 23.6338C30.3312 23.6533 30.3764 23.6727 30.4279 23.6987C30.4859 23.7182 30.5504 23.7441 30.6213 23.7636C30.6922 23.783 30.7695 23.8025 30.8469 23.8155C30.9242 23.8284 31.008 23.8349 31.0918 23.8349C31.2916 23.8349 31.4398 23.8025 31.5494 23.7311C31.6589 23.6598 31.7105 23.5625 31.7105 23.4262Z" fill="white"/>
</g>
<defs>
<clipPath id="clip0_309_863">
<rect width="45" height="49" fill="white"/>
</clipPath>
</defs>
</svg>
