<svg width="251" height="236" viewBox="0 0 251 236" fill="none" xmlns="http://www.w3.org/2000/svg">
<path d="M171.02 181.693C209.739 159.967 222.246 112.846 198.897 76.6535C175.548 40.4611 125.049 28.6933 86.3291 50.4193C47.6065 72.1469 35.0995 119.268 58.4487 155.461C81.798 191.653 132.294 203.422 171.02 181.693ZM87.1109 51.6312C125.117 30.3054 174.681 41.8554 197.6 77.381C220.518 112.904 208.241 159.157 170.238 180.481C132.231 201.807 82.6628 190.256 59.7454 154.733C36.828 119.21 49.1017 72.9586 87.1109 51.6312Z" fill="white"/>
<path d="M163.413 197.786C163.725 197.611 163.864 197.246 163.724 196.92C163.57 196.554 163.13 196.378 162.74 196.524C159.646 197.665 156.455 198.657 153.257 199.474C152.856 199.57 152.618 199.965 152.729 200.344C152.841 200.718 153.256 200.941 153.662 200.838C156.913 200.007 160.155 198.996 163.301 197.838C163.339 197.824 163.378 197.805 163.413 197.786ZM208.881 162.05C208.982 161.993 209.072 161.913 209.136 161.811C212.646 156.412 215.535 150.637 217.728 144.646C217.863 144.276 217.652 143.876 217.255 143.749C216.859 143.623 216.431 143.819 216.293 144.19C214.141 150.085 211.295 155.769 207.841 161.078C207.625 161.413 207.736 161.847 208.095 162.05C208.345 162.189 208.65 162.18 208.881 162.05ZM113.853 202.634C114.035 202.532 114.17 202.357 114.209 202.143C114.276 201.76 113.997 201.395 113.589 201.329C86.7904 197.137 63.3829 182.277 49.3691 160.555C49.1531 160.221 48.6885 160.11 48.3275 160.313C47.9695 160.513 47.8537 160.95 48.0696 161.284C62.3115 183.36 86.1012 198.465 113.337 202.724C113.521 202.754 113.703 202.718 113.853 202.634ZM182.04 44.9765C182.129 44.9263 182.208 44.8598 182.274 44.7718C182.511 44.4511 182.424 44.0111 182.08 43.7887C159.31 29.1192 130.978 24.5005 104.343 31.1155C103.927 31.2274 103.699 31.6053 103.808 31.9816C103.914 32.3595 104.331 32.5851 104.734 32.484C130.938 25.9749 158.815 30.5219 181.218 44.9524C181.475 45.1132 181.794 45.1142 182.04 44.9765ZM36.1024 124.805C36.345 124.669 36.4941 124.412 36.4674 124.133C35.8358 117.948 35.9258 111.674 36.7371 105.487C36.7905 105.101 36.4913 104.747 36.0759 104.7C35.6623 104.657 35.283 104.928 35.2342 105.316C34.4133 111.603 34.3184 117.98 34.9601 124.266C35.0021 124.654 35.3711 124.94 35.7869 124.901C35.8996 124.893 36.0071 124.858 36.1024 124.805ZM61.9633 55.9097C62.0182 55.8789 62.0696 55.8427 62.1157 55.7984C64.4261 53.5757 66.8956 51.4474 69.4581 49.4692C69.7802 49.2186 69.8243 48.7748 69.5599 48.4747C69.2937 48.1718 68.8345 48.1244 68.4944 48.3777C65.891 50.39 63.3804 52.5523 61.0337 54.8101C60.7429 55.0909 60.7491 55.5396 61.0488 55.8089C61.2968 56.041 61.6745 56.0717 61.9633 55.9097Z" fill="white"/>
</svg>
