<svg width="73" height="79" viewBox="0 0 73 79" fill="none" xmlns="http://www.w3.org/2000/svg">
<g clip-path="url(#clip0_317_2397)">
<path d="M55.1487 77.8458L42.2171 41.871C41.8735 40.9254 42.2171 39.6043 42.9866 38.9647C42.9866 38.9647 46.1337 36.2669 46.1337 33.138C46.1337 28.8967 42.7393 25.4758 38.5616 25.4758C34.3839 25.4758 30.9895 28.9106 30.9895 33.138C30.9895 36.2669 34.1365 38.9647 34.1365 38.9647C34.9061 39.6182 35.2496 40.9254 34.9061 41.871L21.9744 77.8458C21.6308 78.8053 22.1118 79.2503 23.0326 78.861C23.0326 78.861 32.4187 74.9117 38.5753 74.9117C44.7319 74.9117 54.118 78.861 54.118 78.861C55.0113 79.2503 55.4785 78.7914 55.1487 77.8458ZM38.5478 47.5308C40.5542 47.5308 42.1896 49.1856 42.1896 51.2158C42.1896 53.2461 40.5542 54.887 38.5478 54.887C36.5414 54.887 34.9061 53.2322 34.9061 51.2158C34.9061 49.1856 36.5414 47.5308 38.5478 47.5308ZM38.5478 68.7791C35.4833 68.7791 32.9959 66.2621 32.9959 63.1611C32.9959 60.0601 35.4833 57.5431 38.5478 57.5431C41.6124 57.5431 44.0998 60.0601 44.0998 63.1611C44.0998 66.2621 41.6124 68.7791 38.5478 68.7791Z" fill="#A7E252"/>
<path d="M6.29405 17.021C2.07511 21.2762 0 26.922 0 32.6513C0 38.9229 2.48739 45.3336 7.35222 50.2563C7.84695 50.7569 8.63027 50.7569 9.125 50.2563C9.61973 49.7696 9.61973 48.9492 9.125 48.4624C4.71367 44.0125 2.50113 38.2415 2.50113 32.6513C2.50113 27.5339 4.34262 22.5695 8.05309 18.8148C8.54782 18.3142 8.54782 17.5077 8.05309 17.021C7.5721 16.5204 6.77504 16.5204 6.29405 17.021Z" fill="#626262"/>
<path d="M12.9733 19.2737C9.33151 22.9588 7.53125 27.8398 7.53125 32.8042C7.53125 38.2276 9.67508 43.7622 13.8803 48.0174C14.3613 48.518 15.1583 48.518 15.6531 48.0174C16.1478 47.5168 16.1478 46.7242 15.6531 46.2235C11.9151 42.4272 10.0461 37.5462 10.0461 32.7903C10.0461 28.4517 11.6128 24.2381 14.7598 21.0537C15.2545 20.5531 15.2545 19.7465 14.7598 19.2598C14.2651 18.7731 13.468 18.7731 12.9733 19.2737Z" fill="#626262"/>
<path d="M19.6653 21.5265C16.587 24.6414 15.0615 28.7576 15.0753 32.9433C15.0753 37.5184 16.8756 42.1769 20.4211 45.7646C20.9158 46.2513 21.6992 46.2513 22.1939 45.7646C22.6886 45.264 22.6886 44.4575 22.1939 43.9708C19.1156 40.8558 17.5764 36.837 17.5764 32.9433C17.5764 29.3834 18.8545 25.9347 21.4381 23.3203C21.9328 22.8197 21.9328 22.0132 21.4381 21.5265C20.9433 21.0258 20.16 21.0258 19.6653 21.5265Z" fill="#626262"/>
<path d="M26.3445 23.7793C23.8296 26.3102 22.5928 29.6754 22.6066 33.0824C22.6066 36.8092 24.077 40.5916 26.9629 43.5119C27.4577 43.9986 28.241 43.9986 28.7357 43.5119C29.2304 43.0113 29.2304 42.2047 28.7357 41.718C26.317 39.2845 25.1214 36.1278 25.1214 33.0824C25.1214 30.2873 26.1246 27.6173 28.131 25.5731C28.6258 25.0725 28.6258 24.2799 28.131 23.7793C27.6363 23.2787 26.8392 23.2787 26.3445 23.7793Z" fill="#626262"/>
<path d="M72.9997 22.7502C72.9997 16.7289 70.5261 11.236 66.527 7.1894C62.1432 2.75339 55.9041 0 49.0191 0C48.332 0 47.7686 0.570146 47.7686 1.27935C47.7686 1.97465 48.332 2.5448 49.0191 2.5448C55.2582 2.5448 60.8376 5.03397 64.7542 8.99718C68.3273 12.6127 70.4986 17.452 70.4986 22.7641C70.4986 23.4594 71.062 24.0296 71.7492 24.0296C72.4363 24.0157 72.9997 23.4455 72.9997 22.7502Z" fill="#626262"/>
<path d="M66.6921 25.9486C66.6921 20.7338 64.5482 15.9919 61.0851 12.4876C57.2922 8.64953 51.9189 6.27161 45.9547 6.27161C45.2675 6.27161 44.7041 6.84175 44.7041 7.53705C44.7041 8.24626 45.2675 8.8164 45.9547 8.8164C51.2455 8.8164 55.9867 10.9301 59.3123 14.2815C62.3494 17.3547 64.1772 21.4431 64.1772 25.9486C64.1772 26.6439 64.7406 27.214 65.4277 27.214C66.1149 27.214 66.6921 26.6439 66.6921 25.9486Z" fill="#626262"/>
<path d="M60.3989 29.1331C60.3989 24.7388 58.5849 20.7338 55.6715 17.7719C52.4695 14.5457 47.9345 12.5293 42.9322 12.5293C42.2451 12.5293 41.6816 13.0994 41.6816 13.8086C41.6816 14.5039 42.2451 15.0741 42.9322 15.0741C47.2886 15.0741 51.1777 16.8123 53.8987 19.5657C56.3861 22.0827 57.884 25.4341 57.884 29.1331C57.884 29.8284 58.4475 30.3985 59.1346 30.3985C59.8354 30.3985 60.3989 29.8284 60.3989 29.1331Z" fill="#626262"/>
<path d="M54.0902 32.3175C54.0902 28.7298 52.6197 25.4619 50.2423 23.0561C47.6449 20.4279 43.9482 18.8009 39.8804 18.8009C39.1933 18.8009 38.6299 19.371 38.6299 20.0663C38.6299 20.7756 39.1933 21.3318 39.8804 21.3318C43.2886 21.3318 46.3394 22.6946 48.4695 24.85C50.4209 26.8247 51.589 29.439 51.589 32.3175C51.589 33.0128 52.1525 33.583 52.8396 33.583C53.5267 33.583 54.0902 33.0267 54.0902 32.3175Z" fill="#626262"/>
</g>
<defs>
<clipPath id="clip0_317_2397">
<rect width="73" height="79" fill="white"/>
</clipPath>
</defs>
</svg>
