<svg width="117" height="72" viewBox="0 0 117 72" fill="none" xmlns="http://www.w3.org/2000/svg">
<g clip-path="url(#clip0_317_2389)">
<path d="M110.595 59.285H109.43V3.17876C109.43 2.31182 109.072 1.51158 108.489 0.933621C107.907 0.355665 107.101 0 106.205 0H10.7952C9.89931 0 9.09303 0.355665 8.51072 0.933621C7.9508 1.51158 7.57006 2.31182 7.57006 3.17876V59.2627H6.40544C2.86677 59.285 0 62.1303 0 65.6425C0 69.1547 2.86677 72 6.40544 72H110.595C114.133 72 117 69.1547 117 65.6425C117 62.1303 114.133 59.285 110.595 59.285ZM78.8137 67.0874C78.8137 67.5986 78.4106 67.9988 77.8955 67.9988H39.1045C38.6118 67.9988 38.1863 67.5986 38.1863 67.0874V62.2414C38.1863 61.7524 38.6118 61.33 39.1045 61.33H77.8731C78.3882 61.33 78.7914 61.7302 78.7914 62.2414V67.0874H78.8137ZM104.839 59.5295H12.1614V4.55696H104.839V59.5295Z" fill="#626262"/>
<path d="M44.9727 17.4054C40.1575 22.1846 37.7834 28.4977 37.8058 34.8996C37.8058 41.924 40.6278 49.0596 46.1822 54.5724C46.8317 55.217 47.8843 55.217 48.5114 54.5724C49.1609 53.9277 49.1609 52.9052 48.5114 52.2606C43.5842 47.3702 41.0981 41.0349 41.0981 34.8996C41.0981 29.2757 43.1586 23.8296 47.302 19.7172C47.9515 19.0725 47.9515 18.05 47.302 17.4054C46.6749 16.7607 45.6222 16.7607 44.9727 17.4054Z" fill="#A7E252"/>
<path d="M53.7961 20.3174C49.7423 24.3409 47.7266 29.6981 47.7266 35.0775C47.7266 40.9905 50.1006 47.0368 54.7815 51.6827C55.431 52.3273 56.4613 52.3273 57.1108 51.6827C57.7603 51.038 57.7603 50.0155 57.1108 49.3486C53.057 45.3251 51.0189 40.1235 51.0189 35.0775C51.0189 30.4539 52.6986 26.0081 56.1029 22.6292C56.7524 21.9846 56.7524 20.9398 56.1029 20.2952C55.4982 19.6728 54.4456 19.6728 53.7961 20.3174Z" fill="#A7E252"/>
<path d="M62.6206 23.2517C59.3059 26.5416 57.6709 30.8762 57.6709 35.2776C57.6709 40.1013 59.6194 44.9917 63.4044 48.7707C64.0539 49.4153 65.1066 49.4153 65.7337 48.7707C66.3832 48.126 66.3832 47.0812 65.7337 46.4588C62.5534 43.3023 60.9632 39.2344 60.9632 35.2776C60.9632 31.6765 62.2846 28.1865 64.9274 25.5635C65.5769 24.9189 65.5769 23.8741 64.9274 23.2517C64.3003 22.607 63.2701 22.607 62.6206 23.2517Z" fill="#A7E252"/>
<path d="M73.3709 30.2094C76.596 30.2094 79.2164 32.8102 79.2164 36.0111C79.2164 39.2121 76.596 41.8129 73.3709 41.8129C70.1458 41.8129 67.5254 39.2121 67.5254 36.0111C67.5254 32.8102 70.1458 30.2094 73.3709 30.2094Z" fill="#A7E252"/>
</g>
<defs>
<clipPath id="clip0_317_2389">
<rect width="117" height="72" fill="white"/>
</clipPath>
</defs>
</svg>
