<svg width="78" height="80" viewBox="0 0 78 80" fill="none" xmlns="http://www.w3.org/2000/svg">
<g clip-path="url(#clip0_317_2442)">
<path d="M21.3573 3.31012H3.76473C1.68912 3.31012 0 3.79523 0 4.39448V78.9299C0 79.5291 1.68912 80 3.76473 80H21.3573C23.4472 80 25.122 79.5149 25.122 78.9299V4.39448C25.1364 3.79523 23.4472 3.31012 21.3573 3.31012ZM22.7315 70.8828C22.7315 71.1254 22.6027 71.3251 22.4595 71.3251H3.6359C3.47844 71.3251 3.36392 71.1254 3.36392 70.8828V68.8139C3.36392 68.5714 3.47844 68.3716 3.6359 68.3716H22.4595C22.6027 68.3716 22.7315 68.5714 22.7315 68.8139V70.8828ZM22.7315 25.4111C22.7315 25.6536 22.6027 25.8534 22.4595 25.8534H3.6359C3.47844 25.8534 3.36392 25.6536 3.36392 25.4111V23.3422C3.36392 23.0997 3.47844 22.8999 3.6359 22.8999H22.4595C22.6027 22.8999 22.7315 23.0997 22.7315 23.3422V25.4111ZM22.7315 16.3082C22.7315 16.5507 22.6027 16.7505 22.4595 16.7505H3.6359C3.47844 16.7505 3.36392 16.5507 3.36392 16.3082V14.2393C3.36392 13.9968 3.47844 13.797 3.6359 13.797H22.4595C22.6027 13.797 22.7315 13.9968 22.7315 14.2393V16.3082Z" fill="#7F7F7F"/>
<path d="M77.9712 69.1421L49.2991 0.313864C49.0701 -0.242583 47.3237 -0.0285648 45.4056 0.756169L29.1586 7.49061C27.2404 8.28961 25.8662 9.37397 26.0953 9.91615L54.7673 78.7444C54.9963 79.2866 56.7427 79.0868 58.6609 78.2878L74.9079 71.5677C76.826 70.7829 78.2002 69.6843 77.9712 69.1421ZM33.7822 19.6326L32.9806 17.7349C32.8947 17.5067 32.9233 17.2784 33.0664 17.2213L50.4443 10.0303C50.5875 9.97322 50.7735 10.1159 50.8737 10.3442L51.661 12.2561C51.7469 12.4844 51.7183 12.7127 51.5895 12.7697L34.2116 19.9607C34.0541 20.0035 33.8681 19.8609 33.7822 19.6326ZM37.2749 28.0364L36.4876 26.1245C36.4017 25.8962 36.4304 25.6679 36.5592 25.6108L53.9514 18.4198C54.0802 18.3627 54.2663 18.4911 54.3665 18.7194L55.1681 20.6313C55.254 20.8596 55.2254 21.0879 55.0965 21.145L37.7187 28.336C37.5612 28.4073 37.3608 28.2646 37.2749 28.0364ZM72.5746 63.1496L55.1967 70.3549C55.0536 70.412 54.8675 70.2693 54.7816 70.041L53.98 68.1291C53.8941 67.9008 53.9227 67.6725 54.0659 67.6155L71.4581 60.4244C71.6012 60.3674 71.7873 60.5101 71.8732 60.7241L72.6605 62.636C72.7464 62.8643 72.7178 63.0925 72.5746 63.1496Z" fill="#A7E252"/>
</g>
<defs>
<clipPath id="clip0_317_2442">
<rect width="78" height="80" fill="white"/>
</clipPath>
</defs>
</svg>
