<svg width="86" height="74" viewBox="0 0 86 74" fill="none" xmlns="http://www.w3.org/2000/svg">
<g clip-path="url(#clip0_317_2422)">
<path d="M34.6741 30.5192C35.8289 31.5555 35.5858 34.3942 35.2211 35.2052C34.8564 36.0012 33.3066 36.4068 31.7872 36.0763C30.2677 35.7459 28.6571 37.1728 28.2013 39.2304C27.7455 41.3031 28.6268 43.2405 30.1462 43.571C31.6656 43.9014 32.8964 46.4547 32.9875 47.3408C33.0787 48.2269 31.9391 49.3233 30.4653 49.804C28.9914 50.2696 28.3077 52.2972 28.961 54.3097C29.6144 56.3223 31.3617 57.5689 32.8356 57.1033C34.3094 56.6377 35.8897 56.878 36.3455 57.644C36.7861 58.41 37.3027 61.2036 36.2695 62.3451C35.2211 63.4865 35.6617 65.5742 37.242 66.986C38.8222 68.3978 40.9798 68.6381 42.013 67.4967C43.0614 66.3552 45.9331 66.5955 46.7536 66.956C47.5741 67.3165 47.9692 68.8334 47.6349 70.3503C47.3006 71.8523 48.7441 73.4443 50.8257 73.8949C52.9225 74.3455 54.8826 73.4744 55.2169 71.9724C55.5511 70.4705 58.1342 69.2539 59.0306 69.1638C59.9119 69.0737 61.0363 70.2002 61.5073 71.657C61.9783 73.1139 64.0296 73.7898 66.0656 73.1439C68.1017 72.4981 69.378 70.7709 68.8918 69.314C68.4056 67.8571 70.0769 65.4991 70.7911 64.9885C71.5052 64.4778 73.0398 64.9134 74.1946 65.9347C75.3494 66.971 77.4614 66.5354 78.8897 64.9584C80.3179 63.3814 80.561 61.2637 79.4063 60.2424C78.2515 59.206 78.4946 56.3674 78.8593 55.5564C79.2239 54.7603 80.7738 54.3548 82.2932 54.6852C83.8126 55.0157 85.4232 53.5888 85.8791 51.5162C86.3197 49.4585 85.4536 47.506 83.9342 47.1756C82.4147 46.8452 81.184 44.2769 81.0928 43.4058C81.0017 42.5196 82.1412 41.4232 83.6151 40.9426C85.0889 40.477 85.7727 38.4494 85.1193 36.4368C84.466 34.4242 82.7186 33.1626 81.2448 33.6432C79.7709 34.1088 77.3854 32.4717 76.8688 31.7658C76.3522 31.0599 76.7776 29.543 77.8261 28.4015C78.8745 27.26 78.4338 25.1723 76.8384 23.7605C75.2582 22.3487 73.1158 22.1234 72.0674 23.2649C71.019 24.4064 68.1473 24.1661 67.342 23.8056C66.5367 23.4451 66.1264 21.9132 66.4607 20.4112C66.795 18.9093 65.3515 17.3173 63.2547 16.8667C61.1579 16.4161 59.1978 17.2872 58.8635 18.7891C58.5444 20.2911 55.9462 21.5076 55.0497 21.5978C54.1533 21.6879 53.0441 20.5614 52.5579 19.1046C52.0868 17.6327 50.0356 16.9718 47.9996 17.6176C45.9635 18.2635 44.6872 19.9907 45.1734 21.4476C45.6444 22.9195 43.9882 25.2625 43.2741 25.7731C42.5448 26.2838 41.0253 25.8632 39.8706 24.8269C38.7158 23.8056 36.6038 24.2261 35.1755 25.8032C33.7473 27.3652 33.5193 29.4979 34.6741 30.5192ZM51.8589 29.4528C60.7628 26.6142 70.3048 31.4504 73.1766 40.2517C76.0331 49.053 71.1405 58.4851 62.2367 61.3238C53.3328 64.1474 43.7907 59.3112 40.9342 50.5099C38.0625 41.7086 42.955 32.2765 51.8589 29.4528Z" fill="#626262"/>
<path d="M4.22383 8.86118C4.96835 9.52203 4.81641 11.3544 4.5733 11.865C4.34538 12.3757 3.35775 12.631 2.37012 12.4208C1.39768 12.2105 0.364461 13.1267 0.0757688 14.4634C-0.212924 15.7851 0.349267 17.0467 1.32171 17.257C2.29414 17.4672 3.08425 19.1194 3.14503 19.6751C3.2058 20.2458 2.47648 20.9517 1.51923 21.2521C0.561988 21.5525 0.136546 22.8592 0.546794 24.1508C0.972235 25.4425 2.09662 26.2535 3.03867 25.9531C3.99591 25.6527 4.99874 25.8029 5.28743 26.2986C5.57612 26.7942 5.8952 28.5965 5.24185 29.3174C4.5733 30.0534 4.86199 31.3901 5.86481 32.3063C6.88284 33.2225 8.26552 33.3727 8.93407 32.6367C9.60262 31.9008 11.4563 32.051 11.9881 32.2913C12.5047 32.5166 12.763 33.5078 12.5503 34.4691C12.3376 35.4303 13.2645 36.4666 14.6168 36.752C15.9539 37.0374 17.2302 36.4816 17.4429 35.5204C17.6556 34.5592 19.327 33.7632 19.9044 33.7181C20.4818 33.658 21.1959 34.3789 21.4998 35.3252C21.8037 36.2714 23.1256 36.6919 24.4323 36.2714C25.739 35.8508 26.5595 34.7544 26.2556 33.8082C25.9365 32.862 27.0153 31.3601 27.4712 31.0296C27.927 30.6992 28.9146 30.9696 29.6592 31.6304C30.4037 32.2913 31.756 32.0059 32.6828 31.0146C33.6097 30.0083 33.7616 28.6416 33.0171 27.9807C32.2726 27.3199 32.4245 25.4875 32.6676 24.9619C32.9108 24.4512 33.8984 24.1959 34.8708 24.4061C35.8585 24.6164 36.8917 23.7002 37.1804 22.3785C37.4691 21.0568 36.9069 19.7952 35.9344 19.5849C34.962 19.3747 34.1567 17.7226 34.0959 17.1668C34.0351 16.5961 34.7797 15.8902 35.7217 15.5748C36.679 15.2744 37.1044 13.9677 36.6941 12.6761C36.2839 11.3844 35.1443 10.5734 34.2023 10.8738C33.245 11.1741 31.7256 10.1228 31.3913 9.6572C31.057 9.20662 31.3457 8.23037 31.9991 7.49443C32.6676 6.75848 32.3789 5.42176 31.3609 4.50559C30.3429 3.60443 28.9602 3.45424 28.2917 4.17516C27.6231 4.91111 25.7694 4.76092 25.2528 4.52061C24.7362 4.2803 24.4779 3.30405 24.6906 2.34281C24.9033 1.38158 23.9765 0.345248 22.6394 0.0598812C21.3023 -0.225485 20.0259 0.330228 19.8132 1.29146C19.6005 2.2527 17.9291 3.04872 17.3669 3.09378C16.7896 3.15385 16.0754 2.43293 15.7563 1.48671C15.4524 0.555518 14.1305 0.119958 12.8238 0.525479C11.5171 0.946019 10.6966 2.05745 11.0005 2.98864C11.3044 3.93486 10.2408 5.43678 9.78496 5.76721C9.31393 6.12767 8.3263 5.85732 7.58178 5.19648C6.85245 4.53563 5.48496 4.80597 4.5581 5.81227C3.63125 6.83358 3.4945 8.20033 4.22383 8.86118ZM15.2853 8.15527C21.0136 6.33794 27.1521 9.44693 28.9906 15.1092C30.8291 20.7715 27.6839 26.8393 21.9556 28.6566C16.2274 30.4739 10.0888 27.3649 8.25033 21.7027C6.41181 16.0554 9.55704 9.98763 15.2853 8.15527Z" fill="#A7E252"/>
<path d="M3.40369 43.8262C3.98108 44.3369 3.85952 45.7487 3.67719 46.1392C3.49486 46.5447 2.73514 46.725 1.99062 46.5748C1.2461 46.4096 0.440797 47.1155 0.212881 48.1368C0.000160441 49.1581 0.425602 50.1193 1.18532 50.2845C1.92984 50.4498 2.53762 51.7114 2.5832 52.1469C2.62878 52.5825 2.06659 53.1232 1.33726 53.3635C0.607934 53.5888 0.273659 54.5951 0.59274 55.6014C0.911821 56.5926 1.7779 57.2084 2.50723 56.9831C3.23656 56.7428 4.02666 56.863 4.23938 57.2535C4.4521 57.629 4.71041 59.0107 4.1938 59.5815C3.67719 60.1522 3.88991 61.1735 4.68002 61.8794C5.47013 62.5853 6.51854 62.6905 7.05034 62.1348C7.56695 61.564 8.98002 61.6842 9.39027 61.8644C9.78532 62.0446 9.98285 62.7956 9.8309 63.5466C9.66376 64.2825 10.3779 65.0785 11.4111 65.2888C12.4443 65.5141 13.4168 65.0785 13.5839 64.3426C13.751 63.6066 15.0274 62.9909 15.468 62.9458C15.9086 62.9007 16.4556 63.4564 16.6987 64.1774C16.9267 64.8983 17.9447 65.2287 18.9475 64.9133C19.9503 64.5979 20.5885 63.7418 20.3454 63.0209C20.1175 62.3 20.938 61.1285 21.2874 60.8882C21.6369 60.6478 22.3966 60.8431 22.974 61.3537C23.5362 61.8644 24.5846 61.6391 25.2987 60.8731C25.9977 60.1071 26.1192 59.0558 25.5419 58.5451C24.9797 58.0345 25.086 56.6227 25.2684 56.2322C25.4507 55.8417 26.2104 55.6464 26.9701 55.7966C27.7147 55.9618 28.52 55.2559 28.7327 54.2346C28.9606 53.2133 28.5351 52.2521 27.7754 52.0869C27.0157 51.9216 26.4079 50.66 26.3624 50.2245C26.3168 49.7889 26.879 49.2332 27.6083 49.0079C28.3528 48.7676 28.6719 47.7613 28.3528 46.785C28.0185 45.7938 27.1677 45.163 26.4231 45.4033C25.6938 45.6286 24.5238 44.8175 24.2655 44.4721C24.0072 44.1266 24.22 43.3757 24.7366 42.8049C25.2532 42.2342 25.0404 41.2129 24.2503 40.507C23.4754 39.8011 22.3966 39.6959 21.8952 40.2517C21.3786 40.8074 19.9503 40.7022 19.5553 40.522C19.1602 40.3418 18.9627 39.5908 19.1146 38.8549C19.2818 38.1189 18.5677 37.3229 17.5344 37.0976C16.5012 36.8723 15.5288 37.3079 15.3616 38.0438C15.1945 38.7798 13.9182 39.3956 13.4775 39.4406C13.0369 39.4857 12.4747 38.93 12.2468 38.209C12.0189 37.4881 11.0009 37.1577 9.99804 37.4731C8.99521 37.7885 8.35705 38.6446 8.60016 39.3805C8.82808 40.1015 8.00758 41.258 7.65811 41.5133C7.30864 41.7686 6.54892 41.5583 5.97154 41.0477C5.40935 40.537 4.36094 40.7473 3.6468 41.5283C2.94786 42.2793 2.8415 43.3306 3.40369 43.8262ZM11.9125 43.3006C16.3189 41.9038 21.0291 44.2918 22.4422 48.6474C23.8705 53.003 21.4394 57.674 17.033 59.0708C12.6267 60.4676 7.91642 58.0795 6.50334 53.724C5.09027 49.3684 7.50617 44.6974 11.9125 43.3006Z" fill="#626262"/>
</g>
<defs>
<clipPath id="clip0_317_2422">
<rect width="86" height="74" fill="white"/>
</clipPath>
</defs>
</svg>
