<svg width="67" height="87" viewBox="0 0 67 87" fill="none" xmlns="http://www.w3.org/2000/svg">
<g clip-path="url(#clip0_317_2413)">
<path d="M67 66.0648C67 55.8314 64.4159 43.4912 64.1626 42.2539C64.0613 29.7465 53.9783 19.8476 41.7673 14.5303C41.9362 14.2627 42.0376 13.9617 42.0545 13.5939V12.6742C42.0207 11.7044 41.3113 11.1192 40.5851 10.7513C41.1424 10.1159 42.2571 8.84508 43.3887 7.50739C44.1825 6.57101 44.9763 5.61791 45.5843 4.83202C45.8883 4.44743 46.1417 4.09629 46.3443 3.81203L46.6146 3.394C46.6821 3.22679 46.7835 3.14318 46.8172 2.69171C46.8172 2.5245 46.7835 2.19008 46.5132 1.90582C46.243 1.60484 45.8546 1.52123 45.6519 1.53795C44.9932 1.60484 44.9594 1.75533 44.723 1.8891C43.8278 2.50778 42.5442 2.79204 40.9904 2.77532C36.2107 2.79204 29.5563 0.0497745 24.9793 -0.000388889C23.1722 -0.0338311 21.2975 0.534687 20.4361 2.2904C20.2841 2.60811 20.2165 2.95925 20.2165 3.29367C20.2334 4.3471 20.757 5.19988 21.3819 6.0861C22.8175 8.04247 25.1482 10.0323 26.1954 10.9018C25.5536 11.2696 24.9793 11.8382 24.9456 12.6909V13.6106C24.9624 13.9785 25.0638 14.2794 25.2327 14.547C13.0386 19.8643 2.93874 29.7632 2.83741 42.2706C2.56718 43.5414 0 55.8482 0 66.0648C0.0337787 71.4657 0.591127 76.2981 3.1752 78.94C8.90068 84.5082 21.1792 86.9829 33.5084 87.0163C45.8377 86.9829 58.1162 84.5082 63.8417 78.94C66.392 76.2814 66.9493 71.4657 67 66.0648ZM25.1482 6.97232C24.4051 6.25331 23.6957 5.46742 23.1722 4.76513C22.6486 4.07956 22.4121 3.42744 22.429 3.27695V3.26023C22.7837 2.55794 23.4424 2.22352 24.9624 2.2068C28.7457 2.15664 35.5183 4.93234 40.9566 4.96578C41.5309 4.96578 42.1051 4.93234 42.6625 4.84874C42.2402 5.36709 41.7842 5.90217 41.362 6.4038C40.3317 7.60772 39.3522 8.74476 38.8455 9.29655H27.7998C27.2932 8.91197 26.2291 8.02575 25.1482 6.97232ZM40.3655 12.6742V13.5939L40.298 13.6942C40.146 13.9116 39.5379 14.1958 38.7441 14.3463H28.2896C27.8336 14.2794 27.4452 14.1624 27.1581 14.0286L26.6852 13.6775L26.6176 13.5772V12.6742L26.6852 12.5739C26.8878 12.2729 27.9519 11.8214 29.2186 11.8549H37.7814C38.609 11.8549 39.369 12.0221 39.8419 12.2562L40.3148 12.5739L40.3655 12.6742ZM62.2372 77.3682C57.5082 82.1338 45.483 84.8426 33.4916 84.7924C21.5001 84.8259 9.47492 82.1338 4.7459 77.3682C3.05697 75.7965 2.19561 71.265 2.22939 66.0648C2.2125 55.6475 5.04991 42.6385 5.04991 42.605L5.0668 42.488V42.3709C5.04991 31.1009 14.339 21.6869 26.1278 16.5368H40.8722C52.661 21.6869 61.9501 31.1009 61.9163 42.3709V42.488L61.9332 42.605C61.9332 42.605 62.6426 45.8489 63.335 50.4138C64.0444 54.9787 64.7368 60.8645 64.7368 66.0648C64.8044 71.265 63.943 75.7797 62.2372 77.3682ZM34.3867 44.9627V33.0907C36.2952 33.2412 37.7308 33.9602 38.8455 35.2812C40.0615 36.7359 40.8046 38.8762 40.9904 41.7523L41.0242 42.2706H43.186L44.115 33.9769L43.9123 33.793C41.362 31.4855 38.153 30.2314 34.3867 30.014V27.2049H31.5493V27.7567V30.0307C28.6781 30.2481 26.1954 31.3016 24.1686 33.1576C22.0068 35.114 20.8921 37.5553 20.909 40.331C20.909 42.5716 21.6859 44.6785 23.2228 46.5512C24.726 48.3905 27.479 50.6981 31.5493 53.5574V66.5998C27.3269 65.9979 24.9962 63.1051 24.3038 57.3029L24.2531 56.8013H22.125L20.5881 65.1117L20.7908 65.3123C23.4762 68.0379 27.0905 69.5093 31.5324 69.7267V73.7899H34.3698V69.7434C37.7477 69.6598 40.5851 68.7067 42.7976 66.8841C45.1452 64.9779 46.3443 62.4363 46.3443 59.4599C46.3443 56.9852 45.5168 54.6777 43.8785 52.6043C42.2571 50.5977 39.1157 48.0728 34.3867 44.9627ZM31.5493 42.9896C28.4754 40.7991 27.0567 38.8093 27.0905 37.2376C27.1074 36.1841 27.5127 35.2979 28.4754 34.4786C29.303 33.7763 30.3164 33.3248 31.5493 33.1409V42.9896ZM38.1699 65.212C37.1903 66.0146 35.9405 66.4995 34.3867 66.6333V55.4803C36.3459 56.7511 37.7139 57.8714 38.4908 58.7911C39.3859 59.8445 39.7913 60.8645 39.7913 61.8845C39.7744 63.2556 39.2677 64.2923 38.1699 65.212Z" fill="#A7E252"/>
</g>
<defs>
<clipPath id="clip0_317_2413">
<rect width="67" height="87" fill="white"/>
</clipPath>
</defs>
</svg>
