<svg width="243" height="243" viewBox="0 0 243 243" fill="none" xmlns="http://www.w3.org/2000/svg">
<g clip-path="url(#clip0_151_14944)">
<path d="M171.221 143.795C183.52 116.34 171.266 84.0762 143.807 71.7786C116.349 59.481 84.0791 71.7333 71.7794 99.1873C59.4798 126.641 71.734 158.906 99.1927 171.249C126.651 183.501 158.876 171.249 171.221 143.795Z" fill="url(#paint0_radial_151_14944)"/>
<path d="M121.442 192.849C111.389 192.849 101.566 190.723 92.3169 186.587C56.4127 170.502 40.3276 128.221 56.4127 92.3171C67.902 66.6958 93.4659 50.1511 121.5 50.1511C131.553 50.1511 141.376 52.2767 150.683 56.4128C186.53 72.4979 202.672 114.779 186.53 150.683C175.098 176.304 149.534 192.849 121.442 192.849ZM121.557 54.8043C95.3042 54.8043 71.4063 70.2575 60.6637 94.2128C45.6127 127.762 60.6637 167.285 94.2127 182.336C102.887 186.243 112.021 188.196 121.442 188.196C147.696 188.196 171.594 172.743 182.336 148.787C197.387 115.238 182.336 75.715 148.787 60.6639C140.113 56.7575 130.979 54.8043 121.557 54.8043Z" fill="#DDE5F6"/>
</g>
<defs>
<radialGradient id="paint0_radial_151_14944" cx="0" cy="0" r="1" gradientUnits="userSpaceOnUse" gradientTransform="translate(121.479 121.474) scale(54.5229 54.5138)">
<stop offset="1e-06" stop-color="white"/>
<stop offset="1" stop-color="#DDE7F8"/>
</radialGradient>
<clipPath id="clip0_151_14944">
<rect width="243" height="243" fill="white"/>
</clipPath>
</defs>
</svg>
