<svg width="42" height="38" viewBox="0 0 42 38" fill="none" xmlns="http://www.w3.org/2000/svg">
<g clip-path="url(#clip0_643_13)">
<path d="M38.35 30.75H3.15C1.82 30.75 0.75 29.67 0.75 28.35V3.15C0.75 1.82 1.83 0.75 3.15 0.75H38.35C39.68 0.75 40.75 1.83 40.75 3.15V28.35C40.75 29.67 39.67 30.75 38.35 30.75Z" stroke="#444444" stroke-width="1.5" stroke-miterlimit="10" stroke-linecap="round" stroke-linejoin="round"/>
<path d="M7.75 21.75V6.61C7.75 5.58 8.58 4.75 9.61 4.75H31.88C32.91 4.75 33.74 5.58 33.74 6.61V21.75" stroke="#444444" stroke-width="1.5" stroke-miterlimit="10" stroke-linecap="round" stroke-linejoin="round"/>
<path d="M12.75 12.75H23.75" stroke="#444444" stroke-width="1.5" stroke-miterlimit="10" stroke-linecap="round" stroke-linejoin="round"/>
<path d="M12.75 16.75H29.75" stroke="#444444" stroke-width="1.5" stroke-miterlimit="10" stroke-linecap="round" stroke-linejoin="round"/>
<path d="M12.75 20.75H29.75" stroke="#444444" stroke-width="1.5" stroke-miterlimit="10" stroke-linecap="round" stroke-linejoin="round"/>
<path d="M8.75 8.75H33.75" stroke="#444444" stroke-width="1.5" stroke-miterlimit="10" stroke-linecap="round" stroke-linejoin="round"/>
<path d="M40.75 24.75H0.75" stroke="#444444" stroke-width="1.5" stroke-miterlimit="10" stroke-linecap="round" stroke-linejoin="round"/>
<path d="M29.75 36.75H11.75" stroke="#444444" stroke-width="1.5" stroke-miterlimit="10" stroke-linecap="round" stroke-linejoin="round"/>
<path d="M15.1201 36.7L17.2101 35.23C17.5501 34.99 17.7601 34.48 17.7601 33.92L17.7501 30.76" stroke="#444444" stroke-width="1.5" stroke-miterlimit="10" stroke-linecap="round" stroke-linejoin="round"/>
<path d="M23.75 30.75V33.91C23.75 34.47 23.96 34.98 24.3 35.22L26.39 36.7" stroke="#444444" stroke-width="1.5" stroke-miterlimit="10" stroke-linecap="round" stroke-linejoin="round"/>
</g>
<defs>
<clipPath id="clip0_643_13">
<rect width="41.5" height="37.5" fill="white"/>
</clipPath>
</defs>
</svg>
