<svg width="42" height="40" viewBox="0 0 42 40" fill="none" xmlns="http://www.w3.org/2000/svg">
<g clip-path="url(#clip0_643_68)">
<path d="M29.75 14.75H14.75V28.75H29.75V14.75Z" stroke="#444444" stroke-width="1.5" stroke-miterlimit="10" stroke-linecap="round" stroke-linejoin="round"/>
<path d="M23.75 22.75H20.75V19.25C20.75 18.42 21.42 17.75 22.25 17.75C23.08 17.75 23.75 18.42 23.75 19.25V22.75Z" stroke="#444444" stroke-width="1.5" stroke-miterlimit="10" stroke-linecap="round" stroke-linejoin="round"/>
<path d="M16.75 14.75V9.1C16.75 6.14 19.15 3.75 22.1 3.75H22.39C25.35 3.75 27.74 6.15 27.74 9.1V14.75" stroke="#444444" stroke-width="1.5" stroke-miterlimit="10" stroke-linecap="round" stroke-linejoin="round"/>
<path d="M14.75 25.75H29.75" stroke="#444444" stroke-width="1.5" stroke-miterlimit="10" stroke-linecap="round" stroke-linejoin="round"/>
<path d="M14.89 2.66L14.44 0.87C14.42 0.8 14.36 0.75 14.28 0.75H11.16C11.09 0.75 11.02 0.8 11 0.87L10.48 2.93C10.47 2.99 10.42 3.03 10.36 3.05C9.36 3.29 8.41 3.69 7.55 4.22C7.5 4.25 7.43 4.25 7.38 4.22L5.56 3.13C5.49 3.09 5.41 3.1 5.36 3.15L3.15 5.36C3.1 5.41 3.09 5.49 3.13 5.56L4.22 7.39C4.25 7.44 4.25 7.51 4.22 7.56C3.69 8.42 3.3 9.37 3.05 10.38C3.04 10.44 2.99 10.49 2.93 10.5L0.87 11.02C0.8 11.04 0.75 11.1 0.75 11.18V14.3C0.75 14.37 0.8 14.44 0.87 14.46L2.93 14.98C2.99 14.99 3.03 15.04 3.05 15.1C3.29 16.11 3.69 17.06 4.22 17.92C4.25 17.97 4.25 18.04 4.22 18.09L3.13 19.92C3.09 19.98 3.1 20.06 3.15 20.12L5.36 22.33C5.41 22.38 5.49 22.39 5.56 22.35L7.39 21.26C7.44 21.23 7.51 21.23 7.56 21.26C8.42 21.79 9.37 22.18 10.38 22.43M11.28 18.15C8.52 17.12 6.82 13.91 8.27 10.61C8.75 9.51 9.65 8.62 10.74 8.14C11.94 7.61 13.12 7.5 14.2 7.7" stroke="#444444" stroke-width="1.5" stroke-miterlimit="10" stroke-linecap="round" stroke-linejoin="round"/>
<path d="M24.8299 33.0002C24.9299 33.1902 25.0299 33.3802 25.1399 33.5702C25.1599 33.6102 25.1599 33.6602 25.1399 33.7002L24.3099 35.0902C24.2799 35.1402 24.2899 35.2002 24.3299 35.2402L26.0099 36.9202C26.0499 36.9602 26.1099 36.9702 26.1599 36.9402L27.5499 36.1102C27.5899 36.0902 27.6399 36.0902 27.6799 36.1102C28.3399 36.5102 29.0599 36.8102 29.8299 37.0002C29.8799 37.0102 29.9099 37.0502 29.9199 37.0902L30.3199 38.6602C30.3299 38.7102 30.3799 38.7502 30.4399 38.7502H32.8199C32.8799 38.7502 32.9299 38.7102 32.9399 38.6602L33.3399 37.0902C33.3499 37.0502 33.3899 37.0102 33.4299 37.0002C34.1999 36.8102 34.9199 36.5102 35.5799 36.1102C35.6199 36.0902 35.6699 36.0902 35.7099 36.1102L37.0999 36.9402C37.1499 36.9702 37.2099 36.9602 37.2499 36.9202L38.9299 35.2402C38.9699 35.2002 38.9799 35.1402 38.9499 35.0902L38.0999 33.7002C38.0799 33.6602 38.0799 33.6102 38.0999 33.5702C38.4999 32.9102 38.7999 32.1902 38.9899 31.4202C38.9999 31.3702 39.0399 31.3402 39.0799 31.3302L40.6499 30.9302C40.6999 30.9202 40.7399 30.8702 40.7399 30.8102V28.4302C40.7399 28.3702 40.6999 28.3202 40.6499 28.3102L39.0799 27.9102C39.0399 27.9002 38.9999 27.8602 38.9899 27.8202C38.7999 27.0502 38.4999 26.3302 38.0999 25.6702C38.0799 25.6302 38.0799 25.5802 38.0999 25.5402L38.9299 24.1502C38.9599 24.1002 38.9499 24.0402 38.9099 24.0002L37.2299 22.3202C37.1899 22.2802 37.1299 22.2702 37.0799 22.3002L35.6899 23.1302C35.6499 23.1502 35.5999 23.1502 35.5599 23.1302C34.8999 22.7302 34.1799 22.4302 33.4099 22.2402M32.5899 25.4002C34.7099 26.1702 36.0199 28.6302 34.9099 31.1502C34.5399 31.9902 33.8599 32.6702 33.0199 33.0402C30.9799 33.9402 28.9899 33.2602 27.8899 31.8402" stroke="#444444" stroke-width="1.5" stroke-miterlimit="10" stroke-linecap="round" stroke-linejoin="round"/>
</g>
<defs>
<clipPath id="clip0_643_68">
<rect width="41.5" height="39.5" fill="white"/>
</clipPath>
</defs>
</svg>
