<svg width="38" height="38" viewBox="0 0 38 38" fill="none" xmlns="http://www.w3.org/2000/svg">
<g clip-path="url(#clip0_643_36)">
<path d="M9.78 18.08C12.27 18 14.79 18.91 16.7 20.81C20.35 24.46 20.35 30.37 16.7 34.02C13.05 37.67 7.14 37.67 3.49 34.02C1.67 32.2 0.75 29.81 0.75 27.42C0.75 25.41 1.45 23.43 2.75 21.76" stroke="#444444" stroke-width="1.5" stroke-miterlimit="10" stroke-linecap="round" stroke-linejoin="round"/>
<path d="M2.75 21.75L13.75 10.75" stroke="#444444" stroke-width="1.5" stroke-miterlimit="10" stroke-linecap="round" stroke-linejoin="round"/>
<path d="M9.75 10.75H13.75V14.75" stroke="#444444" stroke-width="1.5" stroke-miterlimit="10" stroke-linecap="round" stroke-linejoin="round"/>
<path d="M27.2898 19.4299C24.9398 19.3999 22.5998 18.4899 20.8098 16.6999C17.1598 13.0499 17.1598 7.13994 20.8098 3.48994C24.4598 -0.160058 30.3698 -0.160058 34.0198 3.48994C35.8698 5.33994 36.7798 7.76994 36.7498 10.1899C36.7298 12.1699 36.0298 14.1099 34.7498 15.7599" stroke="#444444" stroke-width="1.5" stroke-miterlimit="10" stroke-linecap="round" stroke-linejoin="round"/>
<path d="M34.75 15.75L23.75 26.75" stroke="#444444" stroke-width="1.5" stroke-miterlimit="10" stroke-linecap="round" stroke-linejoin="round"/>
<path d="M27.75 26.75H23.75V22.75" stroke="#444444" stroke-width="1.5" stroke-miterlimit="10" stroke-linecap="round" stroke-linejoin="round"/>
<path d="M10.78 27.75H6.75V23.75H10.78C11.87 23.75 12.75 24.63 12.75 25.72V25.77C12.75 26.87 11.87 27.75 10.78 27.75Z" stroke="#444444" stroke-width="1.5" stroke-miterlimit="10" stroke-linecap="round" stroke-linejoin="round"/>
<path d="M10.78 31.75H6.75V27.75H10.78C11.87 27.75 12.75 28.63 12.75 29.72V29.77C12.75 30.87 11.87 31.75 10.78 31.75Z" stroke="#444444" stroke-width="1.5" stroke-miterlimit="10" stroke-linecap="round" stroke-linejoin="round"/>
<path d="M9.75 21.75V23.75" stroke="#444444" stroke-width="1.5" stroke-miterlimit="10" stroke-linecap="round" stroke-linejoin="round"/>
<path d="M9.75 31.75V33.75" stroke="#444444" stroke-width="1.5" stroke-miterlimit="10" stroke-linecap="round" stroke-linejoin="round"/>
<path d="M24.75 13.75H28.75C29.85 13.75 30.75 12.85 30.75 11.75C30.75 10.65 29.85 9.75 28.75 9.75H26.75C25.65 9.75 24.75 8.85 24.75 7.75C24.75 6.65 25.65 5.75 26.75 5.75H30.75" stroke="#444444" stroke-width="1.5" stroke-miterlimit="10" stroke-linecap="round" stroke-linejoin="round"/>
<path d="M27.75 3.75V5.75" stroke="#444444" stroke-width="1.5" stroke-miterlimit="10" stroke-linecap="round" stroke-linejoin="round"/>
<path d="M27.75 13.75V15.75" stroke="#444444" stroke-width="1.5" stroke-miterlimit="10" stroke-linecap="round" stroke-linejoin="round"/>
</g>
<defs>
<clipPath id="clip0_643_36">
<rect width="37.5" height="37.5" fill="white"/>
</clipPath>
</defs>
</svg>
