<svg width="46" height="47" viewBox="0 0 46 47" fill="none" xmlns="http://www.w3.org/2000/svg">
<path d="M22.8895 34.261C22.4914 34.261 22.1001 34.1875 21.7011 34.0415C20.5614 33.6248 19.4849 33.1244 18.5016 32.5539C17.5011 31.975 16.5682 31.3072 15.7292 30.5702C14.8774 29.8222 14.0982 28.9819 13.4139 28.0725C12.721 27.1519 12.1051 26.1349 11.5831 25.0495C11.026 23.8899 10.5835 22.6508 10.2298 21.2597C9.93074 20.0839 9.6958 18.7953 9.51297 17.3214C9.38653 16.3035 9.33099 15.2728 9.27802 14.2754C9.25239 13.7946 9.22591 13.2968 9.19173 12.81C9.1644 12.4232 9.13877 12.0577 9.34125 11.7759C9.548 11.489 9.90084 11.407 10.2742 11.3216C11.4822 11.0432 12.7108 10.7606 13.8983 10.4873C16.6553 9.8537 19.5054 9.19788 22.3068 8.54461C22.9792 8.38749 23.5892 8.54974 24.1274 8.69235C24.2761 8.73163 24.4171 8.7692 24.5572 8.79994C27.0074 9.33878 29.4927 9.91091 31.896 10.4634C32.7546 10.6607 33.6431 10.8656 34.5163 11.0654C34.6367 11.0928 34.7589 11.1218 34.8768 11.1491C35.1818 11.2209 35.4979 11.2951 35.8072 11.3549C36.0746 11.407 36.272 11.5112 36.4095 11.6743C36.5633 11.8562 36.6265 12.0944 36.5992 12.3805C36.5847 12.5317 36.5889 12.6956 36.5932 12.8408C36.5949 12.9074 36.5966 12.9697 36.5966 13.0304V13.0457C36.5197 15.2309 36.3506 17.0293 36.0635 18.7039C35.7209 20.7064 35.2126 22.4903 34.5103 24.1563C34.0157 25.3313 33.4202 26.4329 32.7418 27.4312C32.066 28.426 31.2886 29.3457 30.4317 30.1629C29.579 30.9767 28.6247 31.7119 27.5952 32.3481C26.5726 32.98 25.4474 33.5317 24.2522 33.9877C23.7789 34.1713 23.3303 34.261 22.8895 34.261ZM10.0692 12.3028C10.0546 12.401 10.0726 12.6503 10.0794 12.7494C10.1144 13.2438 10.1409 13.7451 10.1665 14.2301C10.2187 15.2113 10.2725 16.2258 10.3955 17.2129C10.7757 20.2623 11.407 22.6312 12.3853 24.6653C14.3272 28.7069 17.5643 31.5813 22.0078 33.2072C22.6443 33.4403 23.2398 33.4258 23.9369 33.1602C28.5367 31.4071 31.8191 28.262 33.6936 23.8139C35.275 20.0608 35.6022 16.0772 35.7098 13.0252C35.7098 12.9791 35.7081 12.9245 35.7064 12.8672C35.7021 12.705 35.6961 12.5026 35.7166 12.2968C35.7184 12.2763 35.7192 12.261 35.7192 12.249C35.703 12.243 35.6774 12.2353 35.6398 12.2285C35.3143 12.1653 34.9896 12.0893 34.6761 12.0159C34.559 11.9885 34.4385 11.9604 34.3206 11.933C33.4466 11.7332 32.5581 11.5291 31.6995 11.331C29.2979 10.7785 26.8152 10.2072 24.3692 9.66925C24.2103 9.63424 24.054 9.5924 23.9027 9.55226C23.4226 9.42502 22.9689 9.30462 22.5119 9.41136C19.7096 10.0646 16.8578 10.7204 14.1008 11.3541C12.9133 11.6273 11.6847 11.9091 10.4767 12.1875C10.3836 12.2097 10.1554 12.2627 10.0692 12.3028ZM21.2987 27.6378C20.9381 27.6378 20.5751 27.6378 20.2145 27.6361C19.9924 27.6353 19.6199 27.6344 19.4123 27.3543C19.2047 27.0742 19.3106 26.7215 19.3738 26.5098C19.4695 26.1912 19.5652 25.8719 19.6609 25.5533C20.159 23.8916 20.6742 22.1735 21.2022 20.4895C21.2355 20.3828 21.2363 20.3375 21.2355 20.3255C21.2278 20.3153 21.197 20.2786 21.0936 20.2128C20.5093 19.8379 20.0693 19.3836 19.7865 18.861C19.4806 18.2983 19.3619 17.6672 19.4311 16.9841C19.5088 16.2301 19.7609 15.5862 20.182 15.0721C20.6049 14.5546 21.1902 14.178 21.9207 13.9509C22.7041 13.7075 23.555 13.7716 24.3162 14.1302C25.0775 14.4889 25.6892 15.1157 26.0395 15.8962C26.3487 16.5853 26.4222 17.3684 26.2471 18.1002C26.0531 18.9114 25.5747 19.5963 24.8639 20.0805L24.8605 20.083C24.7203 20.1778 24.5768 20.276 24.5187 20.3307C24.5298 20.4118 24.5828 20.586 24.6298 20.7423C25.1714 22.5398 25.7362 24.4099 26.3581 26.4602C26.4307 26.6993 26.5401 27.0597 26.3282 27.3466C26.1155 27.6335 25.7353 27.6344 25.4833 27.6352C24.8664 27.6361 24.2394 27.6361 23.6336 27.6361C23.5208 27.6361 23.4072 27.6361 23.2944 27.6361V27.6387H22.8502C22.5913 27.6387 22.3324 27.6387 22.0736 27.6387C21.8173 27.6378 21.5584 27.6378 21.2987 27.6378ZM20.2308 26.748C20.8442 26.7497 21.4678 26.7497 22.0719 26.7489C22.1829 26.7489 22.294 26.7489 22.4042 26.7489V26.7463H22.8485C23.1099 26.7463 23.3713 26.7463 23.6319 26.7463C24.2376 26.7463 24.8639 26.7472 25.4799 26.7454C25.4918 26.7454 25.5038 26.7454 25.5149 26.7454C25.5123 26.7361 25.5098 26.7267 25.5063 26.7173C24.8844 24.6661 24.3188 22.7951 23.7771 20.9976C23.649 20.5706 23.5712 20.3136 23.6712 20.0309C23.7712 19.7491 23.9924 19.5988 24.359 19.3495L24.3624 19.3469C25.5465 18.5408 25.6413 17.1813 25.2278 16.2599C24.6879 15.0559 23.379 14.4282 22.1838 14.7997C21.0629 15.1481 20.4332 15.9132 20.3145 17.0755C20.2137 18.0609 20.6366 18.8653 21.5729 19.4656C21.7481 19.5783 21.9634 19.7414 22.065 20.0087C22.1727 20.2897 22.1078 20.5698 22.0497 20.7559C21.5234 22.4348 21.0091 24.1503 20.5118 25.8095C20.4187 26.1221 20.3247 26.4355 20.2308 26.748Z" fill="black"/>
<path d="M16.338 9.17645C16.18 9.17645 16.0441 9.13205 15.9322 9.04409C15.7579 8.90746 15.6725 8.69142 15.6802 8.40364C15.687 8.13209 15.6853 7.85797 15.6836 7.56763C15.6828 7.44381 15.6819 7.31658 15.6819 7.18507C15.5948 5.987 15.7955 4.87944 16.2782 3.89314C16.7524 2.92477 17.4974 2.07511 18.4927 1.36719C19.3906 0.728446 20.3808 0.308309 21.4351 0.118734C22.4372 -0.0614465 23.5103 -0.0366824 24.6261 0.193881C26.8106 0.645614 28.457 1.89578 29.5181 3.91022C30.0708 4.95971 30.1255 6.08605 30.1332 7.05869C30.1349 7.30121 30.1246 7.54202 30.1135 7.77514C30.1041 7.99033 30.0947 8.19272 30.0947 8.39681C30.0947 8.50611 30.0948 8.84 29.8316 9.04324C29.659 9.17645 29.4352 9.20805 29.1669 9.13803L29.0354 9.10387C28.5313 8.97236 28.0093 8.83659 27.4967 8.72301C27.1763 8.65214 26.7987 8.44207 26.8192 7.84175C26.832 7.46772 26.826 7.10907 26.8013 6.77689C26.6475 4.69072 24.9388 3.60536 23.3138 3.45507C21.4787 3.28514 19.834 4.21593 19.2215 5.77095C18.9771 6.39091 18.9814 7.06637 19.0173 7.64534C19.0301 7.84858 19.025 8.1466 18.8353 8.3951C18.6858 8.59065 18.456 8.71191 18.133 8.764C17.7187 8.83146 17.3112 8.94418 16.8806 9.06288C16.7943 9.08679 16.7071 9.1107 16.6208 9.13461C16.52 9.16279 16.426 9.17645 16.338 9.17645ZM27.7077 7.86139C28.2126 7.97325 28.7175 8.10391 29.2071 8.232C29.2105 8.06377 29.2182 7.89811 29.225 7.73586C29.2353 7.50444 29.2455 7.28498 29.2438 7.06637C29.237 6.19792 29.1908 5.19796 28.7312 4.32438C27.7863 2.53111 26.3843 1.46454 24.4458 1.06404C22.3928 0.639636 20.5628 0.985481 19.0079 2.09133C17.2343 3.3526 16.4141 5.04937 16.5696 7.1364L16.5704 7.15262V7.16885C16.5704 7.30377 16.5713 7.43527 16.5721 7.56336C16.573 7.79222 16.5747 8.01083 16.5721 8.22858C16.5961 8.22175 16.6208 8.21492 16.6448 8.20894C17.0796 8.08854 17.529 7.96472 17.9912 7.88957C18.0681 7.87676 18.1091 7.86224 18.1271 7.85456C18.1313 7.83406 18.1364 7.7888 18.1313 7.70256C18.0895 7.02624 18.0878 6.23037 18.3953 5.44816C18.5807 4.97679 18.8473 4.54299 19.1856 4.15957C19.5162 3.78554 19.9084 3.46702 20.3526 3.21255C21.2574 2.69336 22.3099 2.47219 23.3967 2.57295C24.4629 2.67201 25.4668 3.08788 26.2246 3.74541C27.0943 4.49944 27.6001 5.52587 27.6881 6.71455C27.7145 7.0732 27.7214 7.45918 27.7077 7.86139Z" fill="black"/>
<path d="M10.3684 38.9458L9.12869 40.5768V40.6032L11.0997 40.3419V41.2292L9.12869 40.9944V41.0208L10.382 42.5869L9.55929 43.0566L8.77584 41.23H8.74937L7.90099 43.0694L7.15685 42.5998L8.39651 41.008V40.9815L6.46484 41.2292V40.3419L8.3837 40.5896V40.5631L7.15685 38.9714L7.95311 38.5145L8.76217 40.3283H8.78866L9.58492 38.5017L10.3684 38.9458Z" fill="black"/>
<path d="M17.5266 38.9458L16.2869 40.5768V40.6032L18.2579 40.3419V41.2292L16.2869 40.9944V41.0208L17.5402 42.5869L16.7175 43.0566L15.9341 41.23H15.9076L15.0592 43.0694L14.3151 42.5998L15.5547 41.008V40.9815L13.623 41.2292V40.3419L15.5419 40.5896V40.5631L14.3151 38.9714L15.1113 38.5145L15.9204 40.3283H15.9469L16.7431 38.5017L17.5266 38.9458Z" fill="black"/>
<path d="M24.6853 38.9458L23.4456 40.5768V40.6032L25.4166 40.3419V41.2292L23.4456 40.9944V41.0208L24.6989 42.5869L23.8762 43.0566L23.0928 41.23H23.0663L22.2179 43.0694L21.4738 42.5998L22.7134 41.008V40.9815L20.7817 41.2292V40.3419L22.7006 40.5896V40.5631L21.4738 38.9714L22.27 38.5145L23.0791 40.3283H23.1056L23.9018 38.5017L24.6853 38.9458Z" fill="black"/>
<path d="M31.8439 38.9458L30.6043 40.5768V40.6032L32.5753 40.3419V41.2292L30.6043 40.9944V41.0208L31.8576 42.5869L31.0349 43.0566L30.2514 41.23H30.225L29.3766 43.0694L28.6325 42.5998L29.8721 41.008V40.9815L27.9404 41.2292V40.3419L29.8593 40.5896V40.5631L28.6325 38.9714L29.4287 38.5145L30.2378 40.3283H30.2642L31.0605 38.5017L31.8439 38.9458Z" fill="black"/>
<path d="M39.0026 38.9458L37.763 40.5768V40.6032L39.734 40.3419V41.2292L37.763 40.9944V41.0208L39.0163 42.5869L38.1936 43.0566L37.4101 41.23H37.3836L36.5353 43.0694L35.7912 42.5998L37.0308 41.008V40.9815L35.0991 41.2292V40.3419L37.018 40.5896V40.5631L35.7912 38.9714L36.5874 38.5145L37.3965 40.3283H37.4229L38.2192 38.5017L39.0026 38.9458Z" fill="black"/>
<path d="M42.0493 46.0692H3.7318C1.67454 46.0692 0 44.0044 0 41.4656V40.1036C0 37.5648 1.67368 35.5 3.7318 35.5H42.0493C44.1074 35.5 45.781 37.5648 45.781 40.1036V41.4656C45.781 44.0044 44.1065 46.0692 42.0493 46.0692ZM3.7318 36.307C2.96973 36.307 2.24694 36.6904 1.69589 37.3855C1.12262 38.1088 0.807375 39.0737 0.807375 40.1036V41.4656C0.807375 42.4955 1.12262 43.4604 1.69589 44.1837C2.24694 44.8788 2.96973 45.2622 3.7318 45.2622H42.0493C42.8113 45.2622 43.5341 44.8788 44.0852 44.1837C44.6584 43.4604 44.9737 42.4955 44.9737 41.4656V40.1036C44.9737 39.0737 44.6584 38.1088 44.0852 37.3855C43.5341 36.6904 42.8113 36.307 42.0493 36.307H3.7318ZM41.6862 44.7072H4.20424C2.76894 44.7072 1.60105 43.2529 1.60105 41.4656V40.1036C1.60105 38.3163 2.76894 36.862 4.20424 36.862H41.6862C43.1215 36.862 44.2894 38.3163 44.2894 40.1036V41.4656C44.2894 43.2529 43.1215 44.7072 41.6862 44.7072ZM4.20424 37.669C3.74545 37.669 3.30632 37.909 2.96886 38.3445C2.60747 38.8107 2.40842 39.4349 2.40842 40.1027V41.4648C2.40842 42.1325 2.60747 42.7568 2.96886 43.223C3.30632 43.6585 3.74545 43.8985 4.20424 43.8985H41.6862C42.145 43.8985 42.5841 43.6585 42.9216 43.223C43.2829 42.7568 43.482 42.1325 43.482 41.4648V40.1027C43.482 39.4349 43.2829 38.8107 42.9216 38.3445C42.5841 37.909 42.145 37.669 41.6862 37.669H4.20424Z" fill="black"/>
</svg>
