<svg width="56" height="35" viewBox="0 0 56 35" fill="none" xmlns="http://www.w3.org/2000/svg">
<path d="M21.4628 8.2274L21.4239 8.04084C21.3345 7.61527 21.2606 7.15926 21.1964 6.64755C21.1958 6.64366 21.1951 6.63913 21.1951 6.63524L21.1945 6.62683C21.1945 6.62165 21.1938 6.61711 21.1938 6.61193V6.37744H21.4284C21.7317 6.37744 22.048 6.37809 22.3772 6.37809C22.6695 6.37809 22.9721 6.37809 23.2851 6.37874H23.5191V8.2261H23.2851C22.7116 8.2261 22.1698 8.2261 21.6533 8.22675L21.4628 8.2274ZM21.6941 6.84641C21.7389 7.17157 21.7881 7.47278 21.8438 7.75908C22.2307 7.75908 22.6319 7.75908 23.0499 7.75843V6.84706C22.8192 6.84706 22.5943 6.84706 22.3759 6.84706C22.1426 6.84706 21.9151 6.84705 21.6941 6.84641Z" fill="black"/>
<path d="M42.8687 24.1445H41.1903V21.6772C41.1903 18.7734 41.1877 15.464 41.1728 12.9333C41.1533 9.64925 41.1184 8.74436 41.0918 8.57983C41.0406 8.47684 40.9492 8.35637 40.8967 8.31232C40.7716 8.26698 39.9531 8.25468 39.6427 8.25014C38.6058 8.2346 36.7375 8.23006 33.8608 8.22811H33.5679L33.6327 7.94246C33.7292 7.51495 33.8064 7.07383 33.8679 6.59386L33.8945 6.38916L41.4547 6.39694L41.8202 6.60357C42.2272 6.83352 42.4741 7.13149 42.7009 7.66523L42.8687 8.06034V12.6237H43.2615C44.1279 12.6243 45.0235 12.6243 45.9185 12.623C45.9723 12.6205 46.1557 12.4469 46.2341 12.373C46.2451 12.3627 46.2561 12.3523 46.2671 12.3419C46.2905 12.3199 46.3138 12.2972 46.3384 12.2752L47.3585 11.334C48.1484 10.6053 48.9332 10.6144 49.6921 10.6235C49.7673 10.6241 49.8528 10.6254 49.9397 10.6254L52.2927 10.6293C52.41 10.3579 52.5993 10.1169 52.8371 9.9388C53.1326 9.71792 53.4839 9.60133 53.8532 9.60133C54.789 9.60133 55.5511 10.3624 55.5511 11.2984C55.5511 12.2338 54.7897 12.9955 53.8532 12.9955C53.5072 12.9955 53.1741 12.8919 52.8902 12.6962C52.6582 12.5363 52.4709 12.3231 52.3433 12.0751L49.9377 12.0712C49.8489 12.0705 49.7634 12.0699 49.6759 12.0686C49.0304 12.0608 48.707 12.0576 48.339 12.3963L47.3189 13.3375C47.2898 13.3641 47.2613 13.3913 47.2314 13.4198L47.2308 13.4204C46.9599 13.6782 46.5503 14.0675 45.9211 14.0688H45.8543C45.2115 14.0695 44.5686 14.0701 43.9264 14.0695C43.6354 14.0695 43.3438 14.0695 43.0528 14.0688C42.9919 14.0688 42.931 14.0688 42.8694 14.0688V16.0542H52.1767C52.296 15.7769 52.4852 15.5372 52.7315 15.3539C53.0309 15.1311 53.3867 15.0132 53.7606 15.0132C54.7113 15.0132 55.485 15.7866 55.485 16.7369C55.485 17.6871 54.7113 18.4605 53.7606 18.4605C53.4035 18.4605 53.0613 18.3523 52.7704 18.1483C52.5319 17.9805 52.3413 17.7584 52.2143 17.4999H42.8687V19.4852C42.9297 19.4852 42.9906 19.4852 43.0521 19.4852C43.3431 19.4852 43.6347 19.4852 43.9257 19.4846C44.1474 19.4846 44.369 19.4846 44.5906 19.4846C45.0183 19.4846 45.4461 19.4852 45.9204 19.4852C46.5497 19.4865 46.9593 19.8758 47.2301 20.1336L47.234 20.1369C47.2632 20.1647 47.2911 20.1913 47.3189 20.2166L48.339 21.1584C48.7058 21.4965 49.0291 21.4932 49.6733 21.4861H49.6752C49.7627 21.4848 49.8483 21.4842 49.9358 21.4835L52.3426 21.4797C52.4703 21.2316 52.6569 21.0185 52.8896 20.8585C53.1734 20.6628 53.5065 20.5592 53.8526 20.5592C54.7884 20.5592 55.5505 21.3203 55.5505 22.2563C55.5505 23.1916 54.789 23.9534 53.8526 23.9534C53.4832 23.9534 53.132 23.8368 52.8365 23.6159C52.5986 23.4378 52.4094 23.1968 52.2921 22.9254L49.9397 22.9293C49.8522 22.9293 49.7673 22.9306 49.6915 22.9312C48.9326 22.9403 48.1471 22.9494 47.3578 22.2207L46.3371 21.2795C46.3131 21.2575 46.2892 21.2348 46.2665 21.2128C46.2555 21.2024 46.2451 21.1927 46.2341 21.1823C46.1557 21.1078 45.9723 20.9342 45.9185 20.9316C45.0378 20.9304 44.1422 20.931 43.2757 20.931H42.8687V24.1445ZM41.6588 23.6761H42.4008V20.4633H43.2764C44.1428 20.4627 45.0391 20.4627 45.9198 20.464C46.1576 20.464 46.3423 20.6395 46.5568 20.8429C46.5678 20.8533 46.5788 20.8636 46.5899 20.8747C46.6125 20.896 46.6339 20.9161 46.6547 20.9355L47.676 21.878C48.3292 22.4804 48.9585 22.4733 49.6869 22.4649C49.7634 22.4642 49.8502 22.4629 49.9403 22.4629L52.6278 22.459L52.679 22.6236C52.8397 23.1398 53.3115 23.487 53.8532 23.487C54.5311 23.487 55.0826 22.9358 55.0826 22.2582C55.0826 21.5807 54.5311 21.0295 53.8532 21.0295C53.3478 21.0295 52.8993 21.3326 52.7114 21.8022L52.6524 21.9493L49.9384 21.9531C49.8528 21.9538 49.7679 21.9544 49.6811 21.9557H49.6785C49.0084 21.9629 48.525 21.968 48.0214 21.5043L47.0014 20.5624C46.9709 20.5346 46.9405 20.5054 46.9113 20.4776L46.9074 20.4744C46.6644 20.2431 46.3624 19.9562 45.9198 19.9555C45.4461 19.9549 45.0183 19.9549 44.5906 19.9549C44.369 19.9549 44.1474 19.9549 43.9257 19.9549C43.6347 19.9549 43.3431 19.9549 43.0521 19.9555C42.9128 19.9555 42.7735 19.9555 42.6341 19.9555L42.4008 19.9549V17.0342H52.5286L52.5857 17.1851C52.7697 17.6696 53.2415 17.9948 53.7599 17.9948C54.4527 17.9948 55.0159 17.4319 55.0159 16.7395C55.0159 16.047 54.4527 15.4841 53.7599 15.4841C53.2091 15.4841 52.7276 15.8365 52.5623 16.3612L52.5105 16.5251H42.4008V13.6044L42.6341 13.6037C42.7735 13.6037 42.9128 13.6037 43.0521 13.6037C43.3431 13.6037 43.6347 13.6037 43.9257 13.6044C44.5679 13.605 45.2108 13.6044 45.853 13.6037H45.9198C46.3618 13.6031 46.6644 13.3155 46.9068 13.0849L46.9074 13.0842C46.9379 13.0551 46.969 13.0253 47.0007 12.9968L48.0208 12.0556C48.5256 11.5906 49.0097 11.5957 49.6804 11.6041C49.7673 11.6054 49.8522 11.6061 49.9384 11.6067L52.6518 11.6106L52.7107 11.7577C52.8987 12.2273 53.3471 12.5304 53.8526 12.5304C54.5305 12.5304 55.082 11.9792 55.082 11.3017C55.082 10.6241 54.5305 10.0729 53.8526 10.0729C53.3108 10.0729 52.8391 10.4201 52.6783 10.9363L52.6271 11.1008L49.939 11.097C49.8496 11.097 49.7627 11.0957 49.6863 11.095C48.9578 11.0866 48.3286 11.0795 47.6753 11.6819L46.654 12.6243C46.6333 12.6438 46.6119 12.6639 46.5892 12.6852C46.5782 12.6962 46.5665 12.7066 46.5549 12.7176C46.341 12.9204 46.1557 13.0959 45.9178 13.0959C45.0229 13.0972 44.1266 13.0965 43.2602 13.0965H42.3995V8.16074L42.2686 7.85307C42.082 7.41325 41.9038 7.19367 41.5888 7.01554L41.3303 6.86915L34.3041 6.86202C34.26 7.17552 34.2088 7.47413 34.1498 7.76497C37.1626 7.76756 38.9875 7.77275 39.9318 7.79153C40.9103 7.81097 41.0509 7.84076 41.1851 7.94828C41.3017 8.04156 41.4482 8.23848 41.5247 8.40624C41.5538 8.46907 41.5811 8.52866 41.6057 9.75807C41.6199 10.4706 41.631 11.4642 41.6394 12.7941C41.6549 15.3403 41.6575 18.7151 41.6575 21.6804V23.6761H41.6588Z" fill="black"/>
<path d="M14.0766 29.5221L13.7318 29.3356C13.3294 29.1179 13.0093 28.7798 12.8304 28.3847C12.7092 28.1165 12.6898 27.8833 12.6729 26.4648L12.6509 24.6621H42.8787L42.8567 26.4648C42.8392 27.9008 42.8314 28.0964 42.6752 28.4132C42.4678 28.8362 42.1782 29.1277 41.764 29.3304L41.416 29.5007L14.0766 29.5221ZM13.124 25.1298L13.1402 26.4589C13.1557 27.7493 13.1732 28.0084 13.2562 28.1917C13.3929 28.4948 13.6405 28.7546 13.9535 28.9243L14.1939 29.0545L27.7473 29.0441L41.3059 29.0337L41.5567 28.9107C41.8813 28.752 42.09 28.5414 42.254 28.2072C42.3564 27.9993 42.37 27.8892 42.3875 26.4596L42.4037 25.1304H13.124V25.1298ZM27.5464 28.1424C27.339 28.1424 27.1433 28.0822 26.9742 27.9656C26.7888 27.838 26.6463 27.6521 26.562 27.4267C26.4726 27.1896 26.4583 26.9273 26.5205 26.6883C26.5905 26.4201 26.7512 26.1947 26.9845 26.0373C27.3021 25.8229 27.6462 25.8099 28.0072 25.999C28.2346 26.1182 28.4077 26.3074 28.5068 26.547C28.5949 26.7595 28.6202 27.005 28.5781 27.2395C28.49 27.7259 28.14 28.077 27.6857 28.134C27.6384 28.1392 27.5918 28.1424 27.5464 28.1424ZM27.5133 26.3339C27.4226 26.3339 27.3371 26.3644 27.2463 26.4259C26.9372 26.6338 26.9003 26.9959 27.0007 27.2628C27.085 27.4869 27.2937 27.711 27.6274 27.6696C27.9268 27.632 28.0772 27.38 28.1173 27.1566C28.1608 26.9163 28.1011 26.5775 27.7901 26.4143C27.6877 26.3605 27.5982 26.3339 27.5133 26.3339ZM40.5204 27.5931C40.1212 27.5931 39.8529 27.3127 39.8529 26.8949C39.8529 26.5853 40.0331 26.3307 40.3124 26.2458C40.5937 26.1603 40.8879 26.2724 41.0622 26.5322C41.21 26.7524 41.2281 27.0264 41.1095 27.2479C40.9942 27.4642 40.7738 27.5931 40.5204 27.5931ZM40.499 26.6863C40.4822 26.6863 40.4653 26.6889 40.4485 26.6941C40.3688 26.7181 40.3208 26.7938 40.3208 26.8955C40.3208 27.1261 40.4653 27.1261 40.5198 27.1261C40.6274 27.1261 40.676 27.0652 40.6954 27.0283C40.733 26.9584 40.7239 26.8703 40.6721 26.7932C40.6267 26.7239 40.5638 26.6863 40.499 26.6863ZM38.4693 27.5931C38.0838 27.5931 37.8148 27.3062 37.8148 26.8949C37.8148 26.5969 38.0047 26.3313 38.2879 26.2342C38.5374 26.1487 38.7895 26.2199 38.9457 26.4201C39.1537 26.6876 39.1984 26.9499 39.0785 27.2C38.9424 27.4869 38.7772 27.5931 38.4693 27.5931ZM38.494 26.6669C38.4771 26.6669 38.4596 26.6701 38.4402 26.6766C38.3644 26.7025 38.2833 26.7815 38.2833 26.8942C38.2833 27.0471 38.3462 27.1248 38.4693 27.1248C38.5529 27.1248 38.5782 27.1145 38.5847 27.1099C38.5925 27.1048 38.6152 27.0834 38.656 26.9979V26.9972C38.6767 26.9538 38.7117 26.8813 38.5756 26.707C38.5549 26.6805 38.5277 26.6669 38.494 26.6669ZM34.3814 27.5931C34.2207 27.5931 34.047 27.5135 33.9038 27.3749C33.7593 27.2343 33.6757 27.062 33.6757 26.902C33.6757 26.7582 33.8001 26.5671 33.8532 26.492C33.9738 26.3216 34.1527 26.2193 34.3432 26.2109C34.5331 26.2031 34.7191 26.2892 34.8526 26.4486C35.0418 26.6747 35.0865 26.9713 34.9692 27.2233C34.861 27.4552 34.6413 27.5931 34.3814 27.5931ZM34.1468 26.9169C34.1546 26.9422 34.1786 26.9894 34.2298 27.0393C34.2946 27.1022 34.3568 27.1255 34.3814 27.1255C34.478 27.1255 34.524 27.0711 34.5454 27.0257C34.5765 26.959 34.5797 26.8515 34.4948 26.7498C34.4553 26.7025 34.4086 26.6772 34.3639 26.6792C34.3186 26.6811 34.2732 26.7109 34.2363 26.7627C34.1909 26.8249 34.1598 26.8858 34.1468 26.9169ZM32.3109 27.5931C32.0089 27.5931 31.6376 27.2123 31.6376 26.902C31.6376 26.7582 31.7607 26.5678 31.8138 26.4926C31.9311 26.3255 32.1087 26.2238 32.2999 26.2122C32.4891 26.2005 32.6751 26.2795 32.8092 26.4285C33.0037 26.6429 33.0542 26.935 32.9408 27.1909C32.8313 27.439 32.5896 27.5931 32.3109 27.5931ZM32.11 26.9137C32.1353 26.983 32.2564 27.1086 32.3167 27.1255C32.445 27.1229 32.4962 27.038 32.5131 27.0011C32.5507 26.9163 32.5319 26.8191 32.4619 26.742C32.4223 26.6986 32.3751 26.6759 32.3277 26.6792C32.2785 26.6824 32.2325 26.7116 32.1968 26.7621C32.1547 26.823 32.1242 26.8813 32.11 26.9137ZM36.4131 27.5925C36.3178 27.5925 36.2225 27.5711 36.1331 27.5271C35.9056 27.4157 35.7644 27.176 35.7644 26.9027C35.7644 26.6092 35.9329 26.3547 36.1927 26.2549C36.4396 26.1603 36.706 26.2271 36.8881 26.4292C37.0203 26.5762 37.0877 26.788 37.0689 26.9966C37.052 27.1818 36.9717 27.3386 36.8427 27.4383C36.7112 27.54 36.5615 27.5925 36.4131 27.5925ZM36.417 26.6811C36.3943 26.6811 36.3748 26.6863 36.3606 26.6915C36.2984 26.7155 36.2323 26.7828 36.2323 26.902C36.2323 26.9985 36.2711 27.073 36.3392 27.1067C36.404 27.1384 36.4831 27.1248 36.5556 27.0685C36.579 27.0503 36.5978 27.0056 36.6023 26.9545C36.6094 26.8754 36.5848 26.7919 36.5401 26.742C36.4973 26.6941 36.4532 26.6811 36.417 26.6811Z" fill="black"/>
<path d="M36.0578 34.9999H19.4307L19.5181 34.4344C19.5881 33.9848 19.6698 33.7944 19.9174 33.5081C20.1312 33.26 20.3165 33.1104 20.682 33.0288C21.0087 32.9556 21.4688 32.9342 22.3774 32.9135L23.7402 32.883L23.8685 31.9885C23.9547 31.388 24.0474 30.7189 24.0753 30.4967L24.1517 29.8872H31.2038L31.397 31.1736C31.487 31.7721 31.594 32.4477 31.6354 32.6803L31.6769 32.9135H32.9802C33.7416 32.9135 34.6094 32.94 34.8304 32.999C35.4609 33.1674 36.0571 33.9544 36.0571 34.6183V34.9999H36.0578ZM19.9776 34.5322H35.5847C35.5614 34.3372 35.4616 34.1099 35.3086 33.9071C35.133 33.6746 34.9094 33.5042 34.7111 33.4511C34.6061 33.4232 33.9833 33.3811 32.9815 33.3811H31.2862L31.1753 32.7625C31.1332 32.5268 31.025 31.8447 30.9349 31.2429L30.8014 30.3549H24.5658L24.5406 30.5544C24.5127 30.7785 24.4194 31.4509 24.3332 32.0539L24.1491 33.341L22.3897 33.3805C20.6788 33.4187 20.5745 33.4647 20.2731 33.8132C20.0943 34.0198 20.0411 34.1228 19.9822 34.5056L19.9776 34.5322Z" fill="black"/>
<path d="M14.3375 24.1444H12.6597V20.9316H12.2761C11.4103 20.9309 10.5147 20.9309 9.63396 20.9322C9.58017 20.9348 9.39678 21.1084 9.31837 21.1823C9.28726 21.2121 9.25032 21.247 9.21467 21.2801L8.19464 22.2212C7.40466 22.95 6.61986 22.9409 5.86035 22.9318C5.78517 22.9312 5.69964 22.9299 5.61345 22.9299L3.26036 22.926C3.14306 23.1974 2.95382 23.4384 2.71599 23.6165C2.42112 23.8374 2.06988 23.954 1.70049 23.954C0.764703 23.954 0.00259475 23.1929 0.00259475 22.2569C0.00259475 21.3215 0.764055 20.5598 1.70049 20.5598C2.04655 20.5598 2.37901 20.6634 2.66286 20.859C2.89486 21.019 3.0815 21.2322 3.20916 21.4802L5.61473 21.4841C5.70287 21.4848 5.78582 21.4854 5.8772 21.4867H5.87914C6.52331 21.4938 6.84669 21.4971 7.21349 21.1589L8.23353 20.2178C8.26204 20.1919 8.28991 20.1653 8.31907 20.1368L8.32165 20.1342C8.59319 19.8764 9.00342 19.4871 9.63138 19.4858C10.1064 19.4852 10.5341 19.4852 10.9618 19.4852C11.1835 19.4852 11.4051 19.4852 11.6267 19.4852C11.9151 19.4852 12.2035 19.4852 12.4925 19.4858C12.5483 19.4858 12.604 19.4858 12.6604 19.4858V17.5005H3.37637C3.25712 17.7777 3.06789 18.0174 2.82163 18.2007C2.52223 18.4235 2.16644 18.5414 1.79251 18.5414C0.841816 18.5414 0.0680488 17.768 0.0680488 16.8178C0.0680488 15.8675 0.841816 15.0948 1.79251 15.0948C2.14894 15.0948 2.49111 15.203 2.78209 15.407C3.02057 15.5748 3.21111 15.7969 3.33877 16.0554H12.6591V14.07C12.6034 14.07 12.5476 14.07 12.4912 14.07C12.2022 14.07 11.9145 14.07 11.6254 14.0707C10.9832 14.0713 10.3416 14.0707 9.69942 14.07H9.63008C9.00212 14.0687 8.59189 13.6795 8.32036 13.4223C8.2899 13.3932 8.26074 13.3653 8.23158 13.3387L7.21154 12.3969C6.8441 12.0581 6.52006 12.062 5.87525 12.0692C5.78323 12.0705 5.70029 12.0711 5.61345 12.0718L3.20657 12.0756C3.0789 12.3237 2.89227 12.5362 2.66026 12.6968C2.37642 12.8924 2.04331 12.9961 1.6979 12.9961C0.762108 12.9961 0 12.235 0 11.299C0 10.3637 0.76146 9.60191 1.6979 9.60191C2.06729 9.60191 2.41854 9.7185 2.71341 9.93938C2.95124 10.1175 3.14047 10.3585 3.25777 10.6299L5.61085 10.626C5.69769 10.626 5.78323 10.6247 5.8584 10.6241C6.61792 10.615 7.40271 10.6059 8.19269 11.3346L9.21208 12.2751C9.24772 12.3075 9.28272 12.3412 9.31642 12.373L9.31772 12.3743C9.39548 12.4474 9.57823 12.6217 9.63202 12.6236C10.5276 12.6249 11.4232 12.6243 12.289 12.6243H12.6584V7.99033L12.8289 7.59455C13.0557 7.06988 13.427 6.69614 13.904 6.51347C14.1943 6.40206 15.2643 6.37744 21.4409 6.37744C21.6943 6.37744 21.1531 6.37744 21.4266 6.37744H21.6605V6.59639C21.7228 7.09256 21.7947 7.53366 21.8809 7.94433L21.9399 8.2261H21.6515C19.6697 8.22675 18.0658 8.22805 17.3601 8.22999L14.6395 8.23646L14.3362 8.572V24.1444H14.3375ZM13.1276 23.6761H13.869V8.39258L14.4322 7.77009L17.3601 7.76297C18.0321 7.76103 19.5174 7.75973 21.3676 7.75908C21.3138 7.47213 21.2652 7.17028 21.2218 6.84641C17.1281 6.84576 14.2967 6.8652 14.0731 6.95135C13.7167 7.08802 13.4361 7.37498 13.2605 7.78046L13.1283 8.08749V13.0932H12.291C11.4252 13.0939 10.5289 13.0945 9.63331 13.0926C9.39548 13.0926 9.21079 12.9171 8.99629 12.7137L8.99434 12.7117C8.96129 12.68 8.92954 12.6495 8.89778 12.621L8.89713 12.6204L7.8771 11.6792C7.22386 11.0768 6.5946 11.0839 5.86553 11.0924C5.78906 11.093 5.70223 11.0943 5.6128 11.0943L2.92466 11.0982L2.87348 10.9337C2.71276 10.4174 2.24097 10.0702 1.69984 10.0702C1.02198 10.0702 0.470488 10.6215 0.470488 11.299C0.470488 11.9765 1.02198 12.5278 1.69984 12.5278C2.20533 12.5278 2.65314 12.2246 2.84107 11.755L2.90004 11.608L5.61408 11.6041C5.69898 11.6034 5.78065 11.6028 5.87202 11.6015C6.54211 11.5937 7.02684 11.5879 7.53103 12.053L8.55107 12.9941C8.58282 13.0233 8.61457 13.0531 8.64503 13.0822C8.88805 13.3128 9.19069 13.6004 9.63266 13.6011H9.70136C10.3429 13.6017 10.9845 13.6024 11.6267 13.6017C11.9151 13.6017 12.2035 13.6017 12.4919 13.6011C12.626 13.6011 12.7602 13.6011 12.8943 13.6011L13.1276 13.6017V16.5224H3.02381L2.96614 16.3715C2.7821 15.887 2.30966 15.5618 1.79186 15.5618C1.09909 15.5618 0.535293 16.1247 0.535293 16.8171C0.535293 17.5096 1.09909 18.0725 1.79186 18.0725C2.34271 18.0725 2.82421 17.7201 2.98946 17.1954L3.04131 17.0322H13.127V19.9529L12.8937 19.9535C12.7595 19.9535 12.6254 19.9535 12.4912 19.9535C12.2029 19.9535 11.9145 19.9535 11.6261 19.9529C11.4044 19.9529 11.1828 19.9529 10.9618 19.9529C10.5348 19.9529 10.107 19.9535 9.63202 19.9535C9.19069 19.9541 8.88805 20.2417 8.64438 20.473L8.6418 20.4756C8.61199 20.5041 8.58152 20.5332 8.55042 20.5611L7.53038 21.5022C7.02684 21.9667 6.54274 21.9615 5.8733 21.9537H5.87072C5.78 21.9524 5.69769 21.9518 5.61215 21.9511L2.89874 21.9473L2.83978 21.8002C2.65184 21.3306 2.20403 21.0274 1.69855 21.0274C1.02068 21.0274 0.46919 21.5787 0.46919 22.2562C0.46919 22.9338 1.02068 23.485 1.69855 23.485C2.23967 23.485 2.71146 23.1378 2.87218 22.6216L2.92338 22.457L5.61215 22.4609C5.70093 22.4609 5.78777 22.4622 5.86424 22.4629C6.5933 22.4713 7.22256 22.4784 7.87515 21.876L8.89583 20.9335C8.92824 20.9037 8.96129 20.872 8.99304 20.8416C9.2082 20.6375 9.39355 20.462 9.63138 20.462C10.5121 20.4607 11.4077 20.4613 12.2741 20.4613H13.1263V23.6761H13.1276Z" fill="black"/>
<path d="M21.2622 10.216L21.364 10.2516C21.5221 10.3067 21.6232 10.227 21.666 10.1933L21.6711 10.1888C21.8688 10.0353 22.0658 9.88177 22.2628 9.72826C22.6439 9.43159 23.0379 9.12521 23.4267 8.82466C24.7896 7.77337 26.0144 7.10685 27.2807 6.72663C27.7026 6.60032 28.0603 6.5854 28.4057 6.67997C29.245 6.90992 30.0829 7.28886 30.9675 7.8388C31.6428 8.25918 32.283 8.75601 32.9026 9.23663C33.1767 9.44974 33.4605 9.66997 33.7444 9.88113C33.7839 9.91028 33.8228 9.94202 33.8636 9.9757C33.9881 10.0767 34.117 10.181 34.2862 10.2465L34.43 10.3022L34.5013 10.1655C34.5888 9.99772 34.5169 9.86235 34.4825 9.79692C34.476 9.78462 34.4702 9.77361 34.467 9.76583C33.4904 7.45209 32.4813 5.05933 31.3751 2.69377C31.3686 2.68017 31.3621 2.66591 31.3557 2.65231C31.2915 2.51305 31.2189 2.35565 31.0699 2.23452C30.7983 2.01429 30.5229 1.78887 30.2572 1.57123C29.766 1.16898 29.2586 0.753774 28.7531 0.351525C28.1744 -0.108373 27.6514 -0.116788 27.0578 0.324973C26.8517 0.478488 26.6534 0.645602 26.4616 0.806891C26.2373 0.995384 26.0053 1.191 25.7656 1.36007C24.9503 1.93461 24.345 2.73264 23.8596 3.87266C23.474 4.77886 23.0729 5.69605 22.6847 6.58346C22.2557 7.56414 21.8124 8.57787 21.3886 9.58122C21.3776 9.60713 21.3653 9.63369 21.3517 9.66219C21.2953 9.78202 21.2253 9.93166 21.2473 10.1078L21.2622 10.216ZM21.7094 9.71725C22.1326 8.71649 22.5758 7.70342 23.0042 6.72338C23.3924 5.83533 23.7942 4.91682 24.1804 4.00933C24.6457 2.91659 25.1966 2.18658 25.9671 1.64377C26.2192 1.46629 26.457 1.26615 26.6864 1.07247C26.8744 0.914422 27.0688 0.750544 27.2664 0.603506C27.4946 0.433797 27.6961 0.348932 27.8963 0.348932C28.1037 0.348932 28.3092 0.440278 28.5392 0.622942C29.0427 1.02325 29.5495 1.43779 30.0395 1.83939C30.3058 2.05768 30.5812 2.28309 30.8534 2.50397C30.9403 2.57393 30.9876 2.67757 31.0426 2.7974C31.0491 2.81165 31.0556 2.82592 31.0627 2.84017C32.1327 5.12735 33.1125 7.44368 34.06 9.68876C34.025 9.66025 33.9887 9.63175 33.9518 9.6039C33.6705 9.39468 33.3886 9.17573 33.1151 8.96392C32.4885 8.47746 31.841 7.97482 31.1502 7.54537C30.2371 6.9773 29.3694 6.58541 28.4971 6.34639C28.0914 6.23563 27.6611 6.25118 27.1809 6.39562C25.8725 6.78815 24.612 7.47282 23.2148 8.55131C22.8253 8.85187 22.4313 9.15889 22.0496 9.45556C21.9349 9.54495 21.8202 9.63435 21.7055 9.72309C21.7074 9.72114 21.7087 9.7192 21.7094 9.71725Z" fill="black"/>
<path d="M24.3507 6.47966C24.4052 6.47966 24.4667 6.46411 24.5335 6.42524C24.5769 6.40063 24.6177 6.37408 24.6573 6.34881L24.6845 6.33132C25.2178 5.98996 25.6825 5.74771 26.1484 5.57023C26.9695 5.25736 27.8638 5.0054 28.8385 5.28133C29.7043 5.52618 30.4697 5.87984 31.1767 6.36177C31.1832 6.3663 31.1929 6.37408 31.2032 6.38185C31.2408 6.41165 31.2881 6.44857 31.3497 6.46736C31.4514 6.49845 31.5545 6.46606 31.6251 6.3812C31.6964 6.29635 31.7023 6.21602 31.6945 6.16355C31.677 6.04178 31.5791 5.97635 31.5208 5.93684C31.5104 5.92972 31.5001 5.92324 31.4942 5.9187C31.2305 5.71143 30.9382 5.55338 30.655 5.40051C30.598 5.36942 30.5409 5.33898 30.4839 5.30789C29.7179 4.88685 28.8586 4.62516 27.9293 4.53124L27.9118 4.5293L27.8943 4.53124C27.0175 4.62128 26.1672 4.8726 25.3656 5.27744C24.9534 5.48602 24.5737 5.7192 24.2386 5.97117C24.2341 5.97506 24.2282 5.97831 24.2224 5.9822C24.1796 6.01135 24.0993 6.0651 24.0805 6.16809C24.0721 6.21343 24.0734 6.28404 24.1284 6.36112C24.1751 6.42719 24.2516 6.47966 24.3507 6.47966Z" fill="black"/>
<path d="M25.6201 8.07653L25.5896 8.06682C25.3563 7.99297 25.1885 8.12057 25.077 8.20478L25.0582 8.21903C24.9707 8.2851 24.9293 8.37643 24.9416 8.47747C24.95 8.54549 24.9811 8.5999 25.0057 8.64395C25.0135 8.65755 25.0252 8.67829 25.0278 8.68606C25.0504 8.75861 25.079 8.82597 25.1068 8.89139C25.1172 8.91536 25.1276 8.93996 25.1373 8.96458C25.3693 9.53718 25.819 9.83127 26.4379 9.81507C26.4638 9.81702 26.4898 9.81767 26.515 9.81767C26.6874 9.81767 26.8436 9.77944 26.9959 9.74252C27.0646 9.72568 27.1288 9.71014 27.1936 9.69848C27.504 9.64148 27.504 9.36878 27.504 9.25219C27.504 9.236 27.504 9.22045 27.5046 9.2049C27.5053 9.18482 27.5085 9.16085 27.5118 9.13559C27.528 9.01576 27.561 8.76702 27.2642 8.64654C26.7237 8.42631 26.1625 8.24883 25.6201 8.07653ZM27.1689 9.09025C27.165 9.12134 27.1599 9.15696 27.1586 9.19323C27.1579 9.21267 27.1579 9.23211 27.1579 9.25219C27.1579 9.28328 27.1579 9.33314 27.1514 9.35258C27.1482 9.35387 27.1417 9.35582 27.1313 9.35776C27.0568 9.37137 26.9842 9.38886 26.9143 9.40634C26.7568 9.44456 26.6077 9.48083 26.4548 9.46917L26.4457 9.46853H26.4366C25.9577 9.48342 25.6369 9.27614 25.4587 8.83438C25.4484 8.80847 25.4373 8.78192 25.4263 8.75601C25.401 8.69642 25.3771 8.63942 25.3596 8.58371C25.3466 8.54096 25.3265 8.50534 25.3084 8.4736C25.3071 8.47166 25.3058 8.46906 25.3045 8.46712C25.3959 8.3991 25.4354 8.38031 25.4859 8.39651L25.5164 8.40623C26.0523 8.57594 26.6071 8.75212 27.1346 8.96652C27.167 8.97948 27.1748 8.98985 27.1748 8.98985C27.18 9.0041 27.1728 9.05787 27.1689 9.09025Z" fill="black"/>
<path d="M36.3401 14.8978C36.2999 14.8305 36.2597 14.7637 36.2195 14.6964C36.0776 14.4593 35.9312 14.2144 35.7925 13.9715C35.6868 13.7863 35.5579 13.66 35.3868 13.5738L35.1451 13.4521C34.6804 13.2189 34.2002 12.9773 33.733 12.7324C33.5282 12.6255 33.3785 12.6741 33.2579 12.7557C33.5936 12.4131 33.939 12.0626 34.2903 11.7077C34.3713 11.6254 34.4633 11.5134 34.4523 11.3689C34.4439 11.262 34.3843 11.1688 34.2683 11.0833C33.9527 10.8488 33.6351 10.6046 33.3279 10.3688C32.8004 9.96332 32.2548 9.54358 31.6955 9.15623C31.5328 9.04352 31.4045 8.95477 31.2632 9.01307C31.1213 9.07136 31.0921 9.23007 31.0552 9.43152C31.0429 9.49889 31.0306 9.56559 31.0189 9.63296C30.9852 9.81951 30.9502 10.0125 30.9094 10.1997C30.8601 10.4213 30.8038 10.5618 30.658 10.6253C30.4817 10.7017 30.367 10.8067 30.3171 10.9375C30.2879 11.014 30.2678 11.1377 30.3378 11.2912C30.3832 11.3896 30.4454 11.4382 30.5011 11.4615C30.4117 11.5082 30.3255 11.5509 30.2374 11.584C29.9302 11.6967 29.9198 11.9765 29.9159 12.0685C29.914 12.1242 29.9075 12.2926 30.0397 12.3775C30.0559 12.3878 30.0728 12.3962 30.0909 12.4027C30.0669 12.4183 30.0404 12.4345 30.0118 12.4513C29.9931 12.4623 29.9743 12.474 29.9555 12.4856C29.6949 12.6463 29.5303 12.621 29.2517 12.3788C28.7695 11.9597 28.3418 11.7647 27.905 11.764C27.9044 11.764 27.9037 11.764 27.9037 11.764C27.4741 11.764 27.0425 11.9538 26.5448 12.3619L26.5383 12.3671C26.4663 12.426 26.3918 12.4869 26.3212 12.5556C26.2188 12.6547 26.1546 12.6605 26.0457 12.5789C25.9621 12.5167 25.8727 12.4766 25.7859 12.4383C25.7444 12.4202 25.7081 12.4034 25.6751 12.3865C25.7463 12.3684 25.806 12.3198 25.8449 12.2453C25.9583 12.0277 25.9058 11.7893 25.7185 11.6662C25.5856 11.5788 25.4366 11.5049 25.2765 11.446C25.3517 11.4246 25.4132 11.3734 25.4515 11.2983C25.5007 11.2018 25.5364 11.0515 25.4891 10.9161C25.4586 10.8306 25.3983 10.7639 25.318 10.7283C24.9292 10.5547 24.8728 10.2205 24.808 9.83312C24.7898 9.72559 24.771 9.61483 24.7445 9.50665L24.7373 9.4788C24.6751 9.22489 24.6414 9.08497 24.4995 9.0312C24.3563 8.97744 24.2331 9.06295 24.0089 9.21906C23.2449 9.7515 22.5016 10.3332 21.7822 10.8954L21.5755 11.0567C21.4841 11.128 21.3623 11.2413 21.3512 11.4045C21.3402 11.5691 21.4498 11.7006 21.5334 11.7854C21.7939 12.0503 22.0667 12.3088 22.3305 12.5595C22.4277 12.6521 22.5262 12.7447 22.624 12.8386C22.4018 12.6735 22.2002 12.6605 21.9539 12.7952C21.4938 13.0472 21.0169 13.2895 20.5554 13.5233L20.4343 13.5848C20.2632 13.6716 20.1297 13.7992 20.0253 13.9748C19.8471 14.2747 19.667 14.5694 19.4674 14.8965L19.4136 14.984L19.4648 15.0727C20.304 16.5308 21.5139 17.7544 22.9623 18.6113C24.4548 19.4942 26.1637 19.9612 27.9037 19.9612C29.6431 19.9612 31.352 19.4949 32.8438 18.612C34.2922 17.755 35.5015 16.5321 36.3414 15.0747L36.3919 14.9866L36.3401 14.8978ZM27.9031 19.6134C24.5915 19.6134 21.5022 17.8431 19.8154 14.9866C19.9949 14.6938 20.1588 14.4237 20.3221 14.149C20.3941 14.0285 20.4764 13.9489 20.5904 13.8906L20.711 13.829C21.1743 13.5939 21.6539 13.3504 22.1185 13.0958C22.2501 13.0239 22.3084 13.0291 22.4303 13.1243C22.5469 13.2163 22.6649 13.3121 22.7789 13.4054C23.1541 13.7124 23.5423 14.0298 23.9973 14.2663L24.8605 14.7152L24.2053 13.9962C24.1761 13.9638 24.1463 13.932 24.1165 13.9003C24.053 13.8316 23.9927 13.7669 23.935 13.6988C23.5099 13.1994 23.0304 12.7447 22.567 12.3049C22.3052 12.0568 22.035 11.7997 21.7783 11.5393C21.6973 11.4564 21.6947 11.424 21.6947 11.4233C21.6947 11.4233 21.7012 11.3922 21.7867 11.3255L21.9935 11.1642C22.7089 10.6046 23.449 10.0261 24.2046 9.49952C24.2591 9.46195 24.3142 9.4231 24.3576 9.39524C24.3705 9.44059 24.3848 9.49953 24.399 9.55718L24.4062 9.58568C24.4295 9.68154 24.4464 9.78194 24.4645 9.88752C24.5351 10.3079 24.6155 10.7847 25.1618 11.0353C25.1638 11.0489 25.1631 11.0729 25.156 11.0988C25.1456 11.0956 25.1359 11.0923 25.1268 11.0897C25.1158 11.0858 25.1048 11.0826 25.0944 11.0794C25.0905 11.0781 25.086 11.0761 25.0821 11.0748C25.0393 11.0573 24.9259 11.012 24.8047 11.0962L24.7224 11.1532L24.7309 11.253C24.7516 11.5017 24.8877 11.6727 25.1359 11.7621C25.2791 11.8133 25.4107 11.878 25.5267 11.9545C25.5513 11.9707 25.5578 11.994 25.5565 12.018C25.5357 12.0089 25.5137 11.9992 25.4891 11.9927C25.4683 11.9869 25.4444 11.9778 25.4126 11.9661C25.3932 11.959 25.3718 11.9512 25.3471 11.9422L25.0387 11.832L25.1365 12.2051C25.1443 12.2349 25.1501 12.2563 25.156 12.2777C25.2357 12.5718 25.4625 12.6728 25.6446 12.7538C25.7172 12.7862 25.7859 12.8166 25.8384 12.8561C26.0108 12.985 26.2765 13.0802 26.5622 12.8037C26.6225 12.7454 26.688 12.6916 26.758 12.6346L26.7644 12.6288C27.1967 12.2745 27.5583 12.1099 27.9037 12.1099C27.9044 12.1099 27.9044 12.1099 27.905 12.1099C28.253 12.1106 28.6088 12.2783 29.0248 12.6398C29.3003 12.8788 29.6476 13.0822 30.1376 12.7804C30.1557 12.7693 30.1738 12.7583 30.1913 12.7473C30.3786 12.634 30.5912 12.5057 30.6528 12.2077L30.6813 12.0691L30.551 12.0134C30.4311 11.9622 30.33 11.9953 30.2665 12.0257C30.2775 11.9467 30.3061 11.9273 30.3566 11.9085C30.4797 11.8631 30.5938 11.8036 30.7046 11.7459C30.7305 11.7323 30.7565 11.7187 30.7824 11.7057C30.9658 11.6118 31.0708 11.4512 31.087 11.242L31.0986 11.0897L30.9489 11.0593C30.8316 11.0353 30.7325 11.08 30.6593 11.1124C30.6541 11.115 30.6482 11.1169 30.6424 11.1195C30.6314 11.0845 30.6379 11.0677 30.6405 11.0612C30.6476 11.0431 30.6767 10.9945 30.796 10.9427C31.1323 10.797 31.2075 10.4569 31.2483 10.2742C31.2911 10.0812 31.3261 9.88428 31.3604 9.69449C31.3727 9.62777 31.3844 9.56107 31.3967 9.49435C31.4013 9.46844 31.4097 9.42568 31.4181 9.38552C31.4492 9.4056 31.4803 9.42763 31.4998 9.44058C32.0513 9.82275 32.5937 10.2393 33.118 10.6428C33.4264 10.8799 33.7453 11.1247 34.0635 11.3611C34.0848 11.3767 34.0965 11.389 34.1037 11.3961C34.0965 11.4078 34.0803 11.4298 34.046 11.4641C33.5087 12.0069 32.9845 12.5407 32.4868 13.0505C32.291 13.2513 32.1012 13.4501 31.9003 13.6613C31.8102 13.7558 31.7195 13.8511 31.6268 13.9482L31.4311 14.1529L31.7026 14.2339C31.8854 14.2883 31.9858 14.1963 32.0286 14.1568C32.0318 14.1536 32.0351 14.1503 32.0383 14.1477C32.1323 14.0752 32.2262 14.0026 32.3202 13.9301C32.6812 13.6516 33.0544 13.364 33.4154 13.0712C33.5016 13.0012 33.5159 13.0084 33.5742 13.0394C34.044 13.2856 34.5262 13.5272 34.9915 13.7617L35.2332 13.8835C35.3421 13.9385 35.4224 14.0188 35.4944 14.1439C35.635 14.39 35.7821 14.6368 35.9253 14.8751C35.948 14.9127 35.9707 14.9509 35.9934 14.9885C34.3032 17.8431 31.214 19.6134 27.9031 19.6134Z" fill="black"/>
<path d="M30.0096 8.14144C29.8405 8.20103 29.6668 8.25869 29.4989 8.3144C29.206 8.41156 28.9034 8.51195 28.6085 8.6266C28.3739 8.71728 28.2741 8.86951 28.2754 9.13378C28.2761 9.2737 28.2773 9.69926 28.799 9.75691C28.8496 9.76274 28.9008 9.77246 28.9559 9.78282C29.0505 9.80096 29.1483 9.81975 29.2565 9.81975C29.2669 9.81975 29.2773 9.81975 29.2883 9.8191C29.764 9.80032 30.2429 9.7148 30.5254 9.22252C30.6071 9.08066 30.6693 8.93103 30.7296 8.78594C30.7594 8.71469 30.7899 8.6415 30.8216 8.5722C30.8676 8.4718 30.8858 8.32475 30.7134 8.19067C30.4496 7.98727 30.1949 8.07666 30.0096 8.14144ZM30.4101 8.65381C30.3511 8.79502 30.2954 8.9278 30.2247 9.05087C30.0362 9.37928 29.7212 9.45571 29.2747 9.47385C29.1943 9.47709 29.1101 9.46025 29.0213 9.44341C28.9623 9.43175 28.9008 9.42009 28.8366 9.41297C28.6785 9.39548 28.6221 9.35078 28.6215 9.13249C28.6208 9.00423 28.6396 8.98544 28.7336 8.94917C29.0207 8.83776 29.3194 8.73866 29.6078 8.64279C29.7769 8.58644 29.9519 8.52814 30.1237 8.4679C30.3213 8.39859 30.3965 8.38824 30.4924 8.45949C30.4639 8.52426 30.4367 8.59033 30.4101 8.65381Z" fill="black"/>
<path d="M29.464 13.2331C29.3759 13.2085 29.278 13.1185 29.0836 12.9403L29.081 12.9377C28.9961 12.86 28.8937 12.7693 28.7816 12.6903C28.3902 12.415 27.9411 12.336 27.4836 12.461C27.1265 12.5582 26.8556 12.7927 26.6366 13.009C26.3598 13.2836 26.1894 13.3724 25.9114 13.1735L25.1538 12.632L25.6664 13.4093C25.9522 13.8426 26.2387 14.2559 26.6048 14.5526C26.9768 14.8538 27.3909 15.0015 27.8672 15.0015C27.9392 15.0015 28.0124 14.9982 28.0869 14.9911C29.0357 14.9056 29.5282 14.252 30.0038 13.6192C30.044 13.5661 30.0842 13.5123 30.125 13.4585L30.3959 13.1029L29.9559 13.1839C29.696 13.2318 29.5534 13.2584 29.464 13.2331ZM28.0551 14.6471C27.201 14.7242 26.715 14.2941 26.2322 13.6244C26.5283 13.603 26.7506 13.3834 26.8802 13.2545C27.0669 13.0699 27.295 12.8704 27.5743 12.7946C27.9346 12.6961 28.2735 12.7564 28.582 12.9734C28.6779 13.0407 28.7693 13.1217 28.8464 13.1923L28.849 13.1949C29.1886 13.5058 29.3117 13.601 29.5943 13.5861C29.1769 14.1341 28.7758 14.5824 28.0551 14.6471Z" fill="black"/>
<path d="M28.0488 13.3575C27.9931 13.362 27.9309 13.3588 27.8648 13.3549C27.6464 13.3433 27.347 13.3277 27.1467 13.638C27.1247 13.6723 27.1091 13.7073 27.0975 13.7358L27.0962 13.7384C27.0372 13.8744 27.0385 13.9878 27.0988 14.0733C27.1525 14.1497 27.2407 14.1886 27.3612 14.1886C27.3742 14.1886 27.3871 14.1879 27.4001 14.1873C27.4973 14.1808 27.5971 14.1763 27.6943 14.1717V14.1827H27.8661C27.9211 14.1827 27.9762 14.1821 28.0307 14.1821C28.1506 14.1814 28.2743 14.1808 28.3949 14.1834C28.5504 14.1873 28.6586 14.1426 28.7163 14.0506C28.8044 13.9087 28.7189 13.7455 28.6865 13.684C28.6009 13.5195 28.4195 13.3284 28.0488 13.3575ZM28.0378 13.8369V13.8096L27.8583 13.8187C27.8097 13.8213 27.7617 13.8232 27.7131 13.8252C27.6204 13.8291 27.5258 13.8336 27.4306 13.8394C27.4332 13.8343 27.4357 13.8297 27.4383 13.8258C27.5064 13.7202 27.5861 13.6969 27.7189 13.6969C27.7572 13.6969 27.7993 13.6989 27.8466 13.7015C27.9211 13.7054 27.9976 13.7092 28.076 13.7034C28.2646 13.6885 28.3352 13.7623 28.3774 13.8388C28.2627 13.8349 28.1486 13.8356 28.0378 13.8369Z" fill="black"/>
</svg>
