<svg width="44" height="36" viewBox="0 0 44 36" fill="none" xmlns="http://www.w3.org/2000/svg">
<path d="M21.9013 29.6513C19.2526 29.6513 16.6428 29.2711 14.1439 28.5219L14.1381 28.5199C11.3219 27.6149 8.69387 26.2623 6.32874 24.5003C4.03371 22.7903 1.96648 20.6812 0.184199 18.2303C0.114102 18.1336 -0.016994 17.9539 0.00182835 17.721C0.0167564 17.5342 0.121241 17.398 0.184199 17.3162C1.55888 15.5264 2.9803 13.6762 4.76908 12.1464C5.93996 11.1454 7.21987 10.2424 8.57314 9.46261C9.90434 8.6958 11.3199 8.04058 12.7822 7.51445C14.2322 6.99287 15.7419 6.59325 17.2678 6.32662C18.7957 6.05999 20.3553 5.92505 21.9026 5.92505C24.5254 5.92505 27.1112 6.29807 29.588 7.03309C31.1094 7.48461 32.6054 8.08988 34.0346 8.83204C35.4489 9.56641 36.8061 10.4396 38.0672 11.4263C39.1076 12.2399 40.0902 13.1435 40.9885 14.1115C41.2202 14.3612 41.4747 14.6136 41.72 14.8569C42.2658 15.3986 42.8305 15.9584 43.2693 16.6013C43.5347 16.9899 43.6769 17.3311 43.7171 17.6737C43.7204 17.7042 43.7236 17.7353 43.7249 17.7664C43.7749 18.6954 42.9558 19.5187 42.2976 20.1797C42.1302 20.3484 41.9718 20.5074 41.8498 20.6468C40.9431 21.6861 39.9449 22.6657 38.8837 23.5584C37.7173 24.5399 36.4452 25.4241 35.1023 26.187C33.7808 26.9376 32.377 27.5799 30.9289 28.0943C29.4926 28.6049 27.9985 28.9961 26.4882 29.2569C24.9746 29.519 23.4318 29.6513 21.9013 29.6513ZM14.3347 27.8952C16.7713 28.6256 19.3175 28.9961 21.9013 28.9961C28.0283 28.9961 33.9087 26.8877 38.4598 23.0582C39.4951 22.1869 40.4693 21.2313 41.354 20.2174C41.4903 20.0617 41.6557 19.8949 41.831 19.7185C42.3976 19.1489 43.1031 18.4405 43.0687 17.8021C43.0681 17.7853 43.0661 17.7677 43.0642 17.7509C43.0369 17.5167 42.9292 17.2689 42.726 16.9711C42.323 16.3801 41.781 15.8423 41.2566 15.3227C41.0061 15.0742 40.7477 14.8179 40.5063 14.5578C39.6314 13.6152 38.6747 12.7348 37.6615 11.9427C35.1607 9.98679 32.3815 8.54595 29.3998 7.66107C26.984 6.94421 24.4612 6.58092 21.9013 6.58092C15.7003 6.58092 9.7674 8.73408 5.19421 12.6447C3.45736 14.1296 2.05735 15.9526 0.703437 17.7152C0.693701 17.7275 0.675536 17.7509 0.663204 17.7697C0.678132 17.7956 0.703447 17.8307 0.713832 17.8449C4.28684 22.7572 8.86975 26.1384 14.3347 27.8952Z" fill="black"/>
<path d="M21.901 24.1636C21.0403 24.1636 20.205 23.9949 19.4184 23.6628C18.659 23.3417 17.9768 22.8823 17.3914 22.2965C16.8059 21.7114 16.3458 21.0296 16.0245 20.2705C15.6916 19.4843 15.5234 18.6493 15.5234 17.7891C15.5234 16.5364 15.8889 15.322 16.5807 14.2775L16.9286 13.7514L17.1591 14.3385C17.2434 14.5526 17.468 14.9126 18.0281 14.9126C18.709 14.9126 18.8985 14.4014 18.9485 14.1815C19.0432 13.7618 18.9082 13.2272 18.4669 13.0157L17.9398 12.764L18.4292 12.4455C19.4671 11.7701 20.6678 11.4133 21.9016 11.4133C22.7623 11.4133 23.5976 11.582 24.3842 11.9142C25.1436 12.2353 25.8258 12.6946 26.4112 13.2804C26.9967 13.8656 27.4568 14.5474 27.7781 15.3064C28.1111 16.0927 28.2792 16.9276 28.2792 17.7878C28.2792 18.648 28.1104 19.483 27.7781 20.2692C27.4568 21.0283 26.9973 21.7101 26.4112 22.2952C25.8258 22.8804 25.1436 23.3404 24.3842 23.6615C23.5969 23.9949 22.7616 24.1636 21.901 24.1636ZM16.8611 15.0813C16.4133 15.9117 16.1783 16.8381 16.1783 17.7885C16.1783 20.9426 18.7453 23.5084 21.901 23.5084C25.0566 23.5084 27.6236 20.9426 27.6236 17.7885C27.6236 14.6343 25.0566 12.0686 21.901 12.0686C20.9527 12.0686 20.0265 12.3034 19.1951 12.7517C19.3255 12.8918 19.4307 13.0592 19.506 13.2493C19.6397 13.5847 19.6682 13.9668 19.5871 14.3255C19.5079 14.6739 19.3334 14.9736 19.0822 15.1929C18.8011 15.4374 18.4364 15.5672 18.0275 15.5672C17.6666 15.5672 17.3492 15.4699 17.0831 15.2785C17.0026 15.2201 16.9286 15.1546 16.8611 15.0813Z" fill="black"/>
<path d="M37.9134 35.2883H5.8109C3.3601 35.2883 1.36621 33.2953 1.36621 30.8457V26.8638H4.72633V30.8457C4.72633 31.4432 5.21248 31.9291 5.81025 31.9291H37.9128C38.5106 31.9291 38.9967 31.4432 38.9967 30.8457V26.8638H42.3568V30.8457C42.3581 33.2953 40.3642 35.2883 37.9134 35.2883ZM2.02241 27.519V30.8457C2.02241 32.934 3.72225 34.633 5.81154 34.633H37.9141C40.0034 34.633 41.7032 32.934 41.7032 30.8457V27.519H39.6535V30.8457C39.6535 31.8045 38.8734 32.5843 37.9141 32.5843H5.81154C4.85224 32.5843 4.0721 31.8045 4.0721 30.8457V27.519H2.02241Z" fill="black"/>
<path d="M42.3583 9.24714H38.9982V4.73064C38.9982 4.13315 38.512 3.64724 37.9143 3.64724H5.8117C5.21393 3.64724 4.7278 4.13315 4.7278 4.73064V9.24714H1.36768V4.73064C1.36768 2.28101 3.36155 0.288086 5.81235 0.288086H37.9149C40.3657 0.288086 42.3596 2.28101 42.3596 4.73064V9.24714H42.3583ZM39.6537 8.59192H41.7034V4.73064C41.7034 2.64235 40.0036 0.94331 37.9143 0.94331H5.8117C3.72242 0.94331 2.02257 2.64235 2.02257 4.73064V8.59192H4.07227V4.73064C4.07227 3.7718 4.85241 2.99202 5.8117 2.99202H37.9143C38.8736 2.99202 39.6537 3.7718 39.6537 4.73064V8.59192Z" fill="black"/>
</svg>
