<svg width="46" height="52" viewBox="0 0 46 52" fill="none" xmlns="http://www.w3.org/2000/svg">
<path d="M22.8639 18.9589C22.6395 18.9589 22.4175 18.9175 22.1923 18.8348C20.9447 18.3783 19.8539 17.7445 18.95 16.95C18.0183 16.1316 17.26 15.1224 16.6975 13.9502C16.1437 12.7978 15.7872 11.4681 15.5756 9.76459C15.5072 9.21346 15.4777 8.65756 15.4491 8.11995C15.4355 7.86148 15.4212 7.59425 15.4029 7.3334C15.387 7.10754 15.3719 6.8944 15.5008 6.71546C15.6329 6.53175 15.8493 6.48246 16.0586 6.43394C16.7086 6.28443 17.3587 6.13491 18.0087 5.98539C19.4911 5.64422 21.0243 5.29191 22.5313 4.9404C22.9156 4.85053 23.2561 4.94119 23.5561 5.02072C23.6349 5.0414 23.7097 5.06128 23.7837 5.07798C25.1021 5.36826 26.4388 5.67524 27.731 5.97268C28.1933 6.07924 28.6715 6.189 29.1417 6.29636C29.2069 6.31147 29.2714 6.32657 29.3358 6.34168C29.5069 6.38144 29.6684 6.41963 29.8323 6.45144C30.18 6.51904 30.3678 6.76319 30.3344 7.10516C30.3272 7.18071 30.3296 7.26183 30.3312 7.34136C30.332 7.37794 30.3328 7.41214 30.3328 7.44554V7.45747C30.2731 9.14904 30.0909 11.3607 29.2038 13.4674C28.6667 14.7423 27.9211 15.8398 26.9878 16.7305C26.0641 17.6125 24.935 18.3107 23.6317 18.8078C23.3644 18.908 23.1121 18.9589 22.8639 18.9589ZM16.0586 7.12027C16.0594 7.17594 16.0641 7.2507 16.0665 7.28569C16.0856 7.55211 16.0999 7.82251 16.1135 8.08336C16.1413 8.60984 16.1707 9.15381 16.236 9.68108C16.4389 11.3114 16.7762 12.5759 17.2974 13.6607C18.331 15.8119 20.0544 17.3421 22.4207 18.2081C22.7406 18.325 23.0397 18.3171 23.3922 18.1835C25.8413 17.2498 27.5893 15.5757 28.5871 13.2074C29.4313 11.2033 29.6064 9.07269 29.6644 7.43918C29.6644 7.41611 29.6636 7.38748 29.6629 7.35806C29.6605 7.2833 29.6581 7.19263 29.6644 7.0972C29.5005 7.06459 29.339 7.02643 29.1815 6.98985C29.1178 6.97474 29.0542 6.95962 28.9905 6.94531C28.5203 6.83794 28.0421 6.72739 27.579 6.62162C26.2876 6.32498 24.9525 6.01721 23.6381 5.72852C23.5505 5.70943 23.4654 5.68636 23.3827 5.66489C23.1257 5.5965 22.9029 5.53765 22.6801 5.58934C21.1723 5.94086 19.6391 6.29318 18.1559 6.63436C17.5059 6.78387 16.8558 6.93338 16.2058 7.08289C16.1779 7.08925 16.1095 7.10516 16.0586 7.12027ZM22.0078 15.3952C21.8136 15.3952 21.6179 15.3952 21.4245 15.3944C21.2964 15.3936 21.0569 15.3936 20.9169 15.2043C20.7769 15.0158 20.8453 14.7884 20.8819 14.6667C20.9336 14.495 20.9845 14.324 21.0362 14.1522C21.3044 13.2583 21.5813 12.3334 21.8653 11.4267C21.8685 11.418 21.8701 11.41 21.8725 11.4029C21.8653 11.3981 21.8566 11.3918 21.8462 11.3854C21.5184 11.1754 21.271 10.9186 21.111 10.6243C20.9376 10.3046 20.8692 9.9467 20.9089 9.5602C20.9527 9.13551 21.0951 8.77288 21.3338 8.4818C21.5733 8.18914 21.9035 7.97599 22.3141 7.84794C23.2331 7.56244 24.2348 8.03404 24.6438 8.94544C24.8188 9.33513 24.8602 9.77732 24.7615 10.1917C24.6517 10.6513 24.3804 11.0394 23.9786 11.313L23.977 11.3138C23.9309 11.3456 23.8807 11.3798 23.8449 11.4061C23.8561 11.4506 23.8744 11.511 23.8903 11.5627C24.1815 12.5282 24.4855 13.5342 24.8196 14.6389C24.861 14.7765 24.931 15.0071 24.7886 15.1988C24.6462 15.3912 24.4035 15.392 24.2579 15.392C23.9261 15.3928 23.5887 15.3928 23.2625 15.392C23.2331 15.392 23.2036 15.392 23.175 15.392V15.3936H22.8416C22.7024 15.3936 22.5631 15.3936 22.4239 15.3936C22.287 15.3952 22.1478 15.3952 22.0078 15.3952ZM21.5606 14.728C21.8494 14.7288 22.1406 14.7288 22.4239 14.728C22.4525 14.728 22.4804 14.728 22.5082 14.728V14.7264H22.8416C22.9824 14.7264 23.1225 14.7264 23.2633 14.7264C23.5537 14.7264 23.8529 14.7264 24.1489 14.7264C23.8266 13.6639 23.533 12.6904 23.2514 11.756C23.1822 11.5254 23.1312 11.3583 23.1957 11.177C23.2593 10.9965 23.3954 10.9042 23.6015 10.7635L23.6031 10.7619C24.195 10.3587 24.242 9.6795 24.0351 9.21824C23.7646 8.61462 23.1097 8.29887 22.5122 8.48417C21.9409 8.66152 21.6338 9.03611 21.5725 9.6278C21.5224 10.1193 21.7356 10.5217 22.2067 10.8239C22.5178 11.0235 22.6117 11.278 22.5027 11.6255C22.2194 12.5282 21.9433 13.4507 21.676 14.3431C21.637 14.4719 21.5988 14.5999 21.5606 14.728Z" fill="black"/>
<path d="M19.3375 5.4138C19.2317 5.4138 19.1394 5.38359 19.0622 5.32235C18.9436 5.2293 18.8856 5.08774 18.8903 4.90085C18.8935 4.7561 18.8927 4.60897 18.8919 4.45389C18.8919 4.38788 18.8911 4.32027 18.8911 4.25108C18.8434 3.591 18.9548 2.98023 19.2213 2.43546C19.4831 1.90024 19.8945 1.43101 20.4427 1.04132C20.9376 0.689809 21.4826 0.458369 22.0634 0.353392C22.614 0.253981 23.2036 0.268298 23.8155 0.394748C25.0193 0.643672 25.9272 1.33239 26.5112 2.44261C26.8183 3.02555 26.8486 3.64509 26.8534 4.17952C26.8542 4.31233 26.8486 4.44354 26.843 4.56999C26.8382 4.68452 26.8327 4.79269 26.8327 4.90005C26.8327 5.08933 26.773 5.23167 26.6544 5.32313C26.5375 5.41379 26.3895 5.43607 26.2152 5.39073L26.1444 5.37244C25.8739 5.30166 25.5946 5.22929 25.3201 5.16885C25.0313 5.10522 24.8714 4.89766 24.8817 4.59943C24.8889 4.4014 24.8857 4.21212 24.8721 4.03636C24.7934 2.96909 23.9166 2.41399 23.0819 2.33685C22.1366 2.24937 21.2917 2.72574 20.9774 3.52341C20.8524 3.83993 20.8548 4.18985 20.8739 4.49126C20.905 4.9907 20.5891 5.14817 20.3193 5.19271C20.1013 5.2285 19.8849 5.28814 19.6558 5.35177C19.6088 5.36449 19.5619 5.37801 19.5157 5.38994C19.4521 5.40505 19.3932 5.4138 19.3375 5.4138ZM25.5509 4.5358C25.7593 4.58352 25.9662 4.636 26.1699 4.68929C26.1715 4.63839 26.1739 4.58909 26.1762 4.53978C26.1818 4.41651 26.1874 4.29961 26.1858 4.18429C26.181 3.61805 26.1349 3.15838 25.9208 2.75278C25.4267 1.81434 24.6939 1.25685 23.6802 1.04769C22.6029 0.825014 21.6433 1.00554 20.8286 1.58451C19.9032 2.24221 19.4751 3.12735 19.5563 4.21371L19.5571 4.22645V4.23916C19.5571 4.31153 19.5571 4.38231 19.5579 4.4507C19.5587 4.53023 19.5587 4.60818 19.5587 4.68453C19.7687 4.62727 19.9844 4.57 20.208 4.53341C20.208 4.53262 20.208 4.53182 20.208 4.53182C20.1849 4.15804 20.1841 3.71665 20.3567 3.27845C20.5636 2.75197 20.9424 2.32014 21.4508 2.02827C21.9544 1.73958 22.5401 1.61631 23.144 1.67198C23.7367 1.72686 24.2961 1.95908 24.7186 2.32491C25.2055 2.7472 25.4888 3.32141 25.5381 3.98627C25.5509 4.16044 25.5556 4.34493 25.5509 4.5358Z" fill="black"/>
<path d="M33.5439 51.9998C31.9756 51.9998 30.7001 50.7893 30.7001 49.3022C30.7001 48.3598 31.211 47.5001 32.0456 47.0126V43.6453H25.6612V34.5822H24.3754V47.0006C24.7565 47.2201 25.0796 47.5231 25.3175 47.8858C25.5975 48.3128 25.7463 48.8027 25.7463 49.3014C25.7463 50.7886 24.4709 51.999 22.9026 51.999C21.3344 51.999 20.0589 50.7886 20.0589 49.3014C20.0589 48.359 20.5697 47.4993 21.4052 47.0118V34.5822H20.1194V43.6453H13.735V47.0404C14.5378 47.5343 15.0287 48.3836 15.0287 49.3022C15.0287 50.7893 13.7533 51.9998 12.185 51.9998C10.6167 51.9998 9.34129 50.7893 9.34129 49.3022C9.34129 48.79 9.49485 48.2906 9.78606 47.8587C10.0327 47.4921 10.3685 47.1891 10.7639 46.9736V40.7783H17.1484V34.5822H7.22084C6.22148 34.5822 5.08845 34.2761 4.03022 33.7194C3.23932 33.3034 2.54709 32.7316 1.97342 32.0198C1.45146 31.3725 1.02339 30.605 0.701945 29.739C0.409935 28.9524 0.206245 28.088 0.0956471 27.1686C-0.00540247 26.324 -0.0268855 25.45 0.0335852 24.572C0.141 22.9957 0.912001 21.5221 2.26145 20.3093C2.85661 19.7748 3.54406 19.3088 4.30552 18.9247C5.03673 18.5557 5.80216 18.2789 6.58112 18.1008C6.77447 18.057 7.84066 17.9783 7.88601 17.9751C8.10164 17.9592 8.41274 17.9377 8.66815 17.9266C8.71748 17.9242 8.76204 17.9226 8.80262 17.9218C9.2657 16.4036 10.0128 14.8862 10.9724 13.5159C12.0203 12.02 13.3029 10.7309 14.6826 9.78844L15.1369 9.47827L15.2022 10.0246C15.2038 10.035 15.2045 10.0461 15.2053 10.0564C15.2061 10.0636 15.2069 10.0708 15.2077 10.0779C15.4249 11.8228 15.7925 13.1891 16.3638 14.3788C17.5183 16.7822 19.4367 18.4889 22.0656 19.4512C22.3297 19.5482 22.5995 19.5975 22.866 19.5975C23.1604 19.5975 23.454 19.5402 23.7643 19.4217C26.4887 18.3831 28.4333 16.5181 29.5456 13.8794C29.8368 13.1891 30.0747 12.4352 30.2538 11.6383L30.3731 11.1046L30.7924 11.4554C31.3446 11.9166 31.8435 12.4161 32.2756 12.9409C32.348 13.0284 32.5127 13.2885 32.8723 13.8611C33.0569 14.1554 33.2948 14.5339 33.4229 14.7256C33.6847 14.7121 34.2043 14.6969 34.8909 14.7375C35.7972 14.7908 37.1816 14.957 38.6321 15.4405C40.272 15.9877 41.6604 16.8219 42.7577 17.9194C44.1302 19.2921 45.0436 21.0775 45.4741 23.2256C45.9037 25.3728 45.7907 27.3078 45.1375 28.9787C44.6124 30.3211 43.7419 31.491 42.55 32.4565C41.4973 33.309 40.3826 33.8394 39.6331 34.1345C38.8183 34.455 38.2542 34.5743 38.2303 34.5791L38.1969 34.5862H28.6322V40.7823H35.0166V47.0054C35.3978 47.2249 35.7208 47.5279 35.9587 47.8905C36.2388 48.3176 36.3876 48.8075 36.3876 49.3061C36.3876 50.7894 35.1113 51.9998 33.5439 51.9998ZM26.3288 42.9781H32.7132V47.4197L32.5262 47.5112C31.8109 47.8611 31.3669 48.5474 31.3669 49.3022C31.3669 50.4219 32.3432 51.3333 33.5431 51.3333C34.7429 51.3333 35.7192 50.4219 35.7192 49.3022C35.7192 48.5546 35.2553 47.8484 34.5368 47.5024L34.3483 47.4118V41.4456H27.9638V33.9158H38.1237C38.2494 33.8872 38.7443 33.7655 39.4087 33.5022C40.1145 33.2231 41.1616 32.7213 42.1458 31.9204C44.6482 29.8837 45.5465 27.0016 44.8169 23.3544C44.0856 19.6993 41.9373 17.2506 38.4316 16.076C37.0511 15.6139 35.7295 15.4549 34.8631 15.4024C33.921 15.3459 33.2996 15.4 33.2932 15.4008C33.0911 15.4191 32.9861 15.2695 32.9169 15.1709C32.8771 15.1137 32.823 15.0334 32.753 14.9244C32.6257 14.7272 32.4617 14.4671 32.3034 14.2142C32.0965 13.8849 31.8133 13.4332 31.7568 13.3632C31.46 13.003 31.129 12.6546 30.7686 12.323C30.6007 12.9608 30.3954 13.5692 30.1559 14.1371C28.9704 16.9508 26.8984 18.9382 23.9975 20.0436C23.61 20.1916 23.2384 20.2631 22.8612 20.2631C22.5159 20.2631 22.1698 20.2003 21.8317 20.0762C19.0341 19.0519 16.99 17.2323 15.7575 14.6667C15.2101 13.5279 14.8417 12.2443 14.6086 10.6593C12.1993 12.4757 10.2141 15.3753 9.36595 18.356V18.3568L8.72385 18.1747C8.6968 18.2702 8.71351 18.3712 8.7692 18.4531C8.85354 18.5763 8.97846 18.5891 8.98403 18.5891C8.77 18.57 6.92724 18.7123 6.72434 18.7529C3.97054 19.3828 0.908818 21.4863 0.694784 24.6189C0.592938 26.1125 0.553155 31.1418 4.33655 33.1309C5.30089 33.6375 6.32332 33.9166 7.21686 33.9166H17.8119V41.4464H11.4275V47.3959L11.2318 47.4842C10.4862 47.8214 10.0049 48.5347 10.0049 49.303C10.0049 50.4227 10.9812 51.3341 12.181 51.3341C13.3809 51.3341 14.3572 50.4227 14.3572 49.303C14.3572 48.5673 13.9307 47.8882 13.2432 47.5311L13.0634 47.438V42.9796H19.4478V33.9166H22.068V47.4205L21.881 47.512C21.1657 47.8619 20.7217 48.5482 20.7217 49.303C20.7217 50.4227 21.698 51.3341 22.8978 51.3341C24.0977 51.3341 25.074 50.4227 25.074 49.303C25.074 48.5554 24.6101 47.8492 23.8924 47.5032L23.7039 47.4126V33.9166H26.324V42.9781H26.3288Z" fill="black"/>
</svg>
