<svg width="202" height="190" viewBox="0 0 202 190" fill="none" xmlns="http://www.w3.org/2000/svg">
<g filter="url(#filter0_d_151_15046)">
<rect x="20" y="12" width="182" height="178" rx="15" fill="url(#paint0_linear_151_15046)"/>
<rect x="20.5" y="12.5" width="181" height="177" rx="14.5" stroke="#535353"/>
</g>
<path d="M45.975 54.8C45.975 54.6833 46 54.6 46.05 54.55C46.1167 54.4833 46.2167 54.45 46.35 54.45H60.075C60.2083 54.45 60.3 54.4833 60.35 54.55C60.4 54.6 60.425 54.6833 60.425 54.8V56.4C60.425 56.6 60.3083 56.7 60.075 56.7H55.125C54.9417 56.7 54.85 56.775 54.85 56.925V72.625C54.85 72.875 54.7417 73 54.525 73H52.175C51.9583 73 51.85 72.8833 51.85 72.65V56.975C51.85 56.7917 51.7583 56.7 51.575 56.7H46.325C46.0917 56.7 45.975 56.6 45.975 56.4V54.8ZM61.4566 73C61.3233 73 61.2233 72.9667 61.1566 72.9C61.09 72.8333 61.0566 72.7333 61.0566 72.6V60.125C61.0566 59.875 61.165 59.75 61.3816 59.75H63.3066C63.5066 59.75 63.6066 59.8583 63.6066 60.075V61.65C63.6066 61.75 63.6316 61.8083 63.6816 61.825C63.7483 61.8417 63.815 61.8083 63.8816 61.725C64.2983 61.225 64.715 60.8167 65.1316 60.5C65.565 60.1667 65.9983 59.9167 66.4316 59.75C66.865 59.5833 67.2983 59.5 67.7316 59.5C68.315 59.5 68.6066 59.6167 68.6066 59.85V61.8C68.6066 62 68.515 62.0833 68.3316 62.05C68.1316 62 67.915 61.9667 67.6816 61.95C67.465 61.9333 67.24 61.925 67.0066 61.925C66.6566 61.925 66.29 62 65.9066 62.15C65.5233 62.3 65.165 62.5083 64.8316 62.775C64.515 63.025 64.2483 63.3083 64.0316 63.625C63.815 63.9417 63.7066 64.2667 63.7066 64.6V72.575C63.7066 72.8583 63.5483 73 63.2316 73H61.4566ZM78.2484 71.5C77.6651 72.0667 77.0234 72.5 76.3234 72.8C75.6234 73.1 74.8318 73.25 73.9484 73.25C72.6651 73.25 71.6568 72.9167 70.9234 72.25C70.1901 71.5833 69.8234 70.7083 69.8234 69.625C69.8234 68.7083 70.0818 67.925 70.5984 67.275C71.1318 66.625 71.8984 66.1083 72.8984 65.725C73.9151 65.3417 75.1484 65.1167 76.5984 65.05L78.2234 64.925C78.3234 64.9083 78.4151 64.875 78.4984 64.825C78.5818 64.775 78.6234 64.6833 78.6234 64.55V63.925C78.6234 63.1083 78.3734 62.4667 77.8734 62C77.3734 61.5167 76.6901 61.275 75.8234 61.275C75.1734 61.275 74.5734 61.425 74.0234 61.725C73.4734 62.025 72.9818 62.4917 72.5484 63.125C72.4984 63.2083 72.4484 63.2667 72.3984 63.3C72.3484 63.3333 72.2568 63.3333 72.1234 63.3L70.4234 62.8C70.3568 62.7667 70.3068 62.725 70.2734 62.675C70.2568 62.6083 70.2818 62.4917 70.3484 62.325C70.8318 61.425 71.5401 60.7333 72.4734 60.25C73.4234 59.75 74.5818 59.5 75.9484 59.5C77.1484 59.5 78.1318 59.675 78.8984 60.025C79.6651 60.3583 80.2318 60.85 80.5984 61.5C80.9818 62.1333 81.1734 62.8833 81.1734 63.75V72.575C81.1734 72.7417 81.1401 72.8583 81.0734 72.925C81.0234 72.975 80.9318 73 80.7984 73H79.0984C78.9818 73 78.8901 72.9583 78.8234 72.875C78.7568 72.775 78.7151 72.65 78.6984 72.5L78.6734 71.55C78.6234 71.2833 78.4818 71.2667 78.2484 71.5ZM78.6234 66.775C78.6234 66.4917 78.5068 66.3667 78.2734 66.4L76.9234 66.5C76.2568 66.5333 75.6484 66.625 75.0984 66.775C74.5484 66.9083 74.0734 67.0917 73.6734 67.325C73.2901 67.5583 72.9818 67.8417 72.7484 68.175C72.5318 68.4917 72.4234 68.8667 72.4234 69.3C72.4234 69.95 72.6484 70.4667 73.0984 70.85C73.5651 71.2167 74.1901 71.4 74.9734 71.4C75.4734 71.4 75.9401 71.3167 76.3734 71.15C76.8234 70.9667 77.2151 70.7417 77.5484 70.475C77.8818 70.1917 78.1401 69.9 78.3234 69.6C78.5234 69.3 78.6234 69.0083 78.6234 68.725V66.775ZM93.9174 73C93.8007 73 93.7007 72.9667 93.6174 72.9C93.5507 72.8333 93.5174 72.7333 93.5174 72.6V71.65C93.5174 71.5333 93.4841 71.4667 93.4174 71.45C93.3507 71.4333 93.2757 71.4667 93.1924 71.55C92.9757 71.75 92.7007 71.9833 92.3674 72.25C92.0341 72.5167 91.6174 72.75 91.1174 72.95C90.6174 73.15 90.0257 73.25 89.3424 73.25C88.309 73.25 87.3757 73 86.5424 72.5C85.7257 72 85.0757 71.2583 84.5924 70.275C84.1257 69.275 83.8924 68.0333 83.8924 66.55C83.8924 65.1333 84.1424 63.9 84.6424 62.85C85.1424 61.8 85.8257 60.9833 86.6924 60.4C87.559 59.8 88.534 59.5 89.6174 59.5C90.4007 59.5 91.059 59.625 91.5924 59.875C92.1424 60.125 92.634 60.4417 93.0674 60.825C93.2007 60.9417 93.3007 60.9917 93.3674 60.975C93.4341 60.9417 93.4674 60.8333 93.4674 60.65V54.825C93.4674 54.575 93.5757 54.45 93.7924 54.45H95.7924C96.0091 54.45 96.1174 54.575 96.1174 54.825V72.575C96.1174 72.725 96.084 72.8333 96.0174 72.9C95.9507 72.9667 95.8257 73 95.6424 73H93.9174ZM93.4674 62.85C92.984 62.3667 92.5007 61.9917 92.0174 61.725C91.5341 61.4583 90.9924 61.325 90.3924 61.325C89.659 61.325 89.0007 61.5167 88.4174 61.9C87.8507 62.2833 87.4007 62.8583 87.0674 63.625C86.7507 64.375 86.5924 65.325 86.5924 66.475C86.5924 67.6417 86.759 68.5917 87.0924 69.325C87.4257 70.0583 87.8674 70.6 88.4174 70.95C88.984 71.2833 89.6007 71.45 90.2674 71.45C90.8674 71.45 91.409 71.3083 91.8924 71.025C92.3757 70.7417 92.759 70.3917 93.0424 69.975C93.3257 69.5417 93.4674 69.1167 93.4674 68.7V62.85ZM101.631 67.3C101.631 68.05 101.806 68.7333 102.156 69.35C102.523 69.95 103.006 70.4333 103.606 70.8C104.223 71.15 104.906 71.325 105.656 71.325C106.423 71.325 107.106 71.1667 107.706 70.85C108.306 70.5333 108.856 70.0417 109.356 69.375C109.406 69.3083 109.456 69.275 109.506 69.275C109.556 69.2583 109.631 69.275 109.731 69.325L111.006 69.925C111.19 70.0083 111.206 70.1417 111.056 70.325C110.59 71.0083 110.073 71.5667 109.506 72C108.956 72.4333 108.34 72.75 107.656 72.95C106.973 73.15 106.215 73.25 105.381 73.25C104.115 73.25 102.998 72.9667 102.031 72.4C101.065 71.8333 100.298 71.0417 99.7314 70.025C99.1814 69.0083 98.9064 67.8417 98.9064 66.525C98.9064 65.075 99.1898 63.8333 99.7564 62.8C100.323 61.75 101.09 60.9417 102.056 60.375C103.04 59.7917 104.131 59.5 105.331 59.5C106.565 59.5 107.64 59.775 108.556 60.325C109.49 60.8583 110.215 61.6333 110.731 62.65C111.248 63.6667 111.506 64.9 111.506 66.35C111.506 66.5 111.49 66.6333 111.456 66.75C111.423 66.85 111.315 66.9 111.131 66.9H101.881C101.798 66.9 101.731 66.9417 101.681 67.025C101.648 67.0917 101.631 67.1833 101.631 67.3ZM108.456 65.325C108.64 65.325 108.756 65.3 108.806 65.25C108.856 65.2 108.881 65.1083 108.881 64.975C108.881 64.3417 108.74 63.7417 108.456 63.175C108.19 62.6083 107.798 62.15 107.281 61.8C106.781 61.45 106.156 61.275 105.406 61.275C104.623 61.275 103.948 61.4667 103.381 61.85C102.831 62.2167 102.406 62.7083 102.106 63.325C101.823 63.9417 101.681 64.6 101.681 65.3L108.456 65.325ZM119.905 54.825C119.905 54.575 120.022 54.45 120.255 54.45H131.905C132.105 54.45 132.205 54.5583 132.205 54.775L132.18 56.35C132.18 56.6 132.055 56.725 131.805 56.725H123.305C123.055 56.725 122.93 56.8333 122.93 57.05V62.2C122.93 62.4167 123.038 62.525 123.255 62.525H129.355C129.572 62.525 129.68 62.625 129.68 62.825V64.5C129.68 64.5833 129.655 64.65 129.605 64.7C129.572 64.75 129.488 64.775 129.355 64.775H123.23C123.03 64.775 122.93 64.8667 122.93 65.05V70.45C122.93 70.6333 123.013 70.725 123.18 70.725H132.155C132.388 70.725 132.505 70.825 132.505 71.025V72.675C132.505 72.775 132.48 72.8583 132.43 72.925C132.38 72.975 132.288 73 132.155 73H120.33C120.047 73 119.905 72.8667 119.905 72.6V54.825ZM142.824 71.5C142.24 72.0667 141.599 72.5 140.899 72.8C140.199 73.1 139.407 73.25 138.524 73.25C137.24 73.25 136.232 72.9167 135.499 72.25C134.765 71.5833 134.399 70.7083 134.399 69.625C134.399 68.7083 134.657 67.925 135.174 67.275C135.707 66.625 136.474 66.1083 137.474 65.725C138.49 65.3417 139.724 65.1167 141.174 65.05L142.799 64.925C142.899 64.9083 142.99 64.875 143.074 64.825C143.157 64.775 143.199 64.6833 143.199 64.55V63.925C143.199 63.1083 142.949 62.4667 142.449 62C141.949 61.5167 141.265 61.275 140.399 61.275C139.749 61.275 139.149 61.425 138.599 61.725C138.049 62.025 137.557 62.4917 137.124 63.125C137.074 63.2083 137.024 63.2667 136.974 63.3C136.924 63.3333 136.832 63.3333 136.699 63.3L134.999 62.8C134.932 62.7667 134.882 62.725 134.849 62.675C134.832 62.6083 134.857 62.4917 134.924 62.325C135.407 61.425 136.115 60.7333 137.049 60.25C137.999 59.75 139.157 59.5 140.524 59.5C141.724 59.5 142.707 59.675 143.474 60.025C144.24 60.3583 144.807 60.85 145.174 61.5C145.557 62.1333 145.749 62.8833 145.749 63.75V72.575C145.749 72.7417 145.715 72.8583 145.649 72.925C145.599 72.975 145.507 73 145.374 73H143.674C143.557 73 143.465 72.9583 143.399 72.875C143.332 72.775 143.29 72.65 143.274 72.5L143.249 71.55C143.199 71.2833 143.057 71.2667 142.824 71.5ZM143.199 66.775C143.199 66.4917 143.082 66.3667 142.849 66.4L141.499 66.5C140.832 66.5333 140.224 66.625 139.674 66.775C139.124 66.9083 138.649 67.0917 138.249 67.325C137.865 67.5583 137.557 67.8417 137.324 68.175C137.107 68.4917 136.999 68.8667 136.999 69.3C136.999 69.95 137.224 70.4667 137.674 70.85C138.14 71.2167 138.765 71.4 139.549 71.4C140.049 71.4 140.515 71.3167 140.949 71.15C141.399 70.9667 141.79 70.7417 142.124 70.475C142.457 70.1917 142.715 69.9 142.899 69.6C143.099 69.3 143.199 69.0083 143.199 68.725V66.775ZM157.168 62.85C156.851 62.3833 156.409 62 155.843 61.7C155.276 61.4 154.601 61.25 153.818 61.25C153.001 61.25 152.318 61.4167 151.768 61.75C151.234 62.0833 150.968 62.55 150.968 63.15C150.968 63.4333 151.084 63.7167 151.318 64C151.551 64.2833 152.051 64.5333 152.818 64.75L155.893 65.625C157.109 65.9417 157.984 66.4167 158.518 67.05C159.051 67.6833 159.318 68.4083 159.318 69.225C159.318 70.0583 159.076 70.775 158.593 71.375C158.126 71.9583 157.468 72.4167 156.618 72.75C155.784 73.0833 154.826 73.25 153.743 73.25C152.376 73.25 151.184 72.9917 150.168 72.475C149.168 71.9417 148.459 71.2833 148.043 70.5C148.009 70.4 147.993 70.3167 147.993 70.25C147.993 70.1667 148.026 70.1 148.093 70.05L149.318 69.4C149.434 69.3333 149.526 69.3083 149.593 69.325C149.676 69.325 149.734 69.3583 149.768 69.425C150.034 69.8083 150.343 70.15 150.693 70.45C151.043 70.75 151.468 70.9917 151.968 71.175C152.468 71.3417 153.068 71.425 153.768 71.425C154.351 71.425 154.876 71.35 155.343 71.2C155.826 71.0333 156.201 70.8083 156.468 70.525C156.734 70.2417 156.868 69.9083 156.868 69.525C156.868 69.125 156.701 68.7833 156.368 68.5C156.051 68.2 155.484 67.9417 154.668 67.725L152.118 67.075C150.851 66.7417 149.943 66.2833 149.393 65.7C148.843 65.1167 148.568 64.4167 148.568 63.6C148.568 62.7833 148.784 62.075 149.218 61.475C149.651 60.8583 150.259 60.375 151.043 60.025C151.843 59.675 152.776 59.5 153.843 59.5C155.009 59.5 156.034 59.725 156.918 60.175C157.801 60.6083 158.468 61.1667 158.918 61.85C158.968 61.9167 159.001 61.9917 159.018 62.075C159.034 62.1417 158.993 62.2083 158.893 62.275L157.593 62.95C157.526 62.9833 157.451 62.9917 157.368 62.975C157.301 62.9583 157.234 62.9167 157.168 62.85ZM162.616 77.125C162.116 77.125 161.732 77.1083 161.466 77.075C161.216 77.0417 161.091 76.9333 161.091 76.75V75.475C161.091 75.375 161.132 75.2917 161.216 75.225C161.316 75.1583 161.507 75.125 161.791 75.125H163.416C163.766 75.125 164.082 75.0167 164.366 74.8C164.666 74.6 164.907 74.3417 165.091 74.025C165.274 73.7083 165.391 73.375 165.441 73.025C165.507 72.6917 165.491 72.3917 165.391 72.125L160.616 60.225C160.566 60.1083 160.566 60 160.616 59.9C160.666 59.8 160.774 59.75 160.941 59.75H162.991C163.091 59.75 163.182 59.7833 163.266 59.85C163.349 59.9 163.399 59.975 163.416 60.075L166.866 69.075C166.916 69.225 166.982 69.3 167.066 69.3C167.149 69.3 167.224 69.2 167.291 69L170.691 60.05C170.724 59.9667 170.774 59.9 170.841 59.85C170.907 59.7833 170.991 59.75 171.091 59.75H172.566C172.699 59.75 172.791 59.8 172.841 59.9C172.907 59.9833 172.907 60.075 172.841 60.175L167.466 73.8C167.199 74.4833 166.907 75.0417 166.591 75.475C166.274 75.9083 165.924 76.2417 165.541 76.475C165.157 76.725 164.724 76.8917 164.241 76.975C163.774 77.075 163.232 77.125 162.616 77.125Z" fill="#2B2B2B"/>
<g clip-path="url(#clip0_151_15046)">
<path d="M90.5584 128.057C90.6558 129.231 90.6545 130.399 90.3273 131.546C90.2645 131.766 90.1912 131.822 89.9648 131.737C89.2895 131.486 88.606 131.256 87.9224 131.027C87.7471 130.969 87.6684 130.88 87.6298 130.688C87.4873 129.975 87.2658 129.285 87.0324 128.596C86.5188 127.08 85.4611 126.152 83.9985 125.637C83.6196 125.503 83.2342 125.394 82.7483 125.313C83.349 125.636 83.8624 125.938 84.3763 126.237C85.4832 126.882 86.1138 127.848 86.4221 129.072C86.5943 129.756 86.8012 130.432 86.9156 131.129C86.9543 131.365 87.0706 131.477 87.2953 131.549C88.7261 132.009 90.1511 132.488 91.5817 132.949C91.8338 133.03 92.0064 133.177 92.1536 133.39C92.8975 134.464 92.8936 134.461 92.5271 135.699C92.0669 137.252 91.4608 138.751 90.8676 140.256C90.751 140.552 90.5639 140.764 90.3002 140.926C90.0447 141.084 89.7844 141.229 89.5061 141.341C88.6933 141.669 87.8594 141.936 87.0322 142.223C86.8709 142.279 86.7893 142.283 86.7898 142.069C86.7918 140.967 86.8151 139.868 87.024 138.781C87.0587 138.6 87.1418 138.571 87.296 138.577C87.7599 138.596 88.2213 138.586 88.6752 138.461C88.9499 138.385 89.1511 138.237 89.2876 137.981C89.644 137.315 89.9285 136.638 89.8198 135.848C89.7871 135.61 89.7096 135.563 89.4905 135.582C87.7668 135.727 86.0427 135.867 84.3177 135.995C83.7019 136.041 83.0825 136.038 82.4665 136.082C82.171 136.103 81.9694 136.006 81.7709 135.786C80.9586 134.886 80.2088 133.937 79.4871 132.963C79.3058 132.719 79.1112 132.484 78.8985 132.262C79.1658 132.904 79.4955 133.508 79.8615 134.093C80.4171 134.981 81.0466 135.815 81.6908 136.638C81.8011 136.78 81.915 136.813 82.0861 136.802C83.4898 136.714 84.8943 136.636 86.3492 136.552C85.8822 136.943 85.428 137.274 84.952 137.578C83.4407 138.542 81.7913 139.171 80.0763 139.647C78.3685 140.121 76.668 140.616 75.1102 141.503C74.6901 141.742 74.2832 142.002 73.8082 142.311C74.4203 140.014 74.5047 137.765 74.0552 135.502C74.029 135.502 74.0028 135.501 73.9764 135.5C73.9764 135.955 73.99 136.41 73.9725 136.863C73.9551 137.32 73.9159 137.775 73.8699 138.23C73.6757 140.149 73.1267 141.963 72.3262 143.713C71.7529 144.966 70.7555 145.709 69.55 146.23C68.0981 146.858 66.5839 147.302 65.0526 147.669C64.1774 147.88 63.4917 148.301 62.938 149.004C62.4448 149.629 61.9263 150.233 61.4932 150.906C61.3424 151.141 61.3321 151.338 61.4575 151.566C61.7121 152.028 61.9701 152.489 62.2186 152.956C62.3646 153.23 62.4918 153.514 62.6338 153.79C62.705 153.929 62.6954 153.996 62.5182 153.996C61.2308 153.994 59.9434 153.994 58.656 154C58.4937 154 58.4743 153.919 58.476 153.787C58.4821 153.309 58.4722 152.831 58.4879 152.354C58.4941 152.165 58.458 152.058 58.2508 152.054C57.9389 152.047 57.9548 151.906 58.0966 151.687C58.7269 150.714 59.3916 149.763 59.9976 148.773C60.6959 147.633 61.2056 146.415 61.5298 145.117C61.5648 144.977 61.5793 144.838 61.7726 144.807C63.5239 144.531 64.1534 143.407 64.2703 141.578C64.2994 141.123 64.2849 140.665 64.2827 140.208C64.2779 139.168 64.2969 138.129 64.4941 137.105C64.5451 136.84 64.3951 136.922 64.2726 136.934C63.3184 137.02 62.3984 136.895 61.5456 136.438C59.6745 135.437 59.068 132.893 60.2493 131.106C60.9011 130.12 61.8519 129.511 62.8383 128.941C63.3202 128.662 63.8178 128.411 64.2731 128.086C64.8354 127.685 65.3221 127.216 65.632 126.584C65.7904 126.26 65.8493 125.915 65.8652 125.559C65.8717 125.411 65.8309 125.346 65.6676 125.399C65.4728 125.462 65.2386 125.594 65.0754 125.495C64.9007 125.389 64.9977 125.113 64.9612 124.914C64.8837 124.493 64.7179 124.123 64.4002 123.831C64.2329 123.677 64.0721 123.514 63.8919 123.377C62.9511 122.661 62.6728 121.648 62.6056 120.46C62.7327 120.625 62.8167 120.744 62.9097 120.854C63.3404 121.367 63.9207 121.583 64.5547 121.692C64.788 121.732 65.0232 121.766 65.252 121.825C66.1901 122.067 66.916 122.907 67.0534 123.873C67.1127 124.29 66.9187 124.586 66.6178 124.806C66.3678 124.989 66.3149 125.19 66.3361 125.488C66.4212 126.686 65.8299 127.573 64.9788 128.318C64.4646 128.768 63.8924 129.14 63.3051 129.487C62.5096 129.957 61.761 130.485 61.2291 131.268C60.8303 131.855 60.6327 132.502 60.7335 133.213C60.8789 134.24 61.6016 134.946 62.6811 135.148C63.5417 135.31 64.3594 135.15 65.1538 134.812C65.3261 134.739 65.4264 134.593 65.5213 134.446C65.9306 133.808 66.4543 133.279 67.0747 132.86C69.0339 131.535 70.6081 129.823 72.0295 127.947C73.3594 126.191 74.4634 124.297 75.4789 122.346C75.8805 121.574 76.3016 120.812 76.725 120.052C77.6232 118.439 78.9466 117.312 80.5944 116.516C83.0587 115.326 85.6167 114.492 88.3483 114.24C88.548 114.221 88.6519 114.232 88.6459 114.478C88.6364 114.868 88.7927 115.224 88.9609 115.613C88.403 115.588 87.8734 115.559 87.349 115.647C86.9736 115.71 86.5985 115.776 86.2232 115.841C86.1033 115.862 85.9903 115.885 86.0648 116.056C86.5069 117.069 87.1021 117.942 88.1474 118.418C88.3948 118.53 88.6335 118.561 88.8947 118.485C89.2676 118.377 89.6496 118.298 90.0136 118.101C88.3306 118.427 87.4184 117.345 86.4754 116.173C87.6118 116.026 88.6843 115.737 89.7447 116.299C90.3915 116.642 91.0821 116.89 91.7636 117.155C91.9503 117.228 91.9838 117.183 91.995 116.997C92.0149 116.664 92.1132 116.344 92.2267 116.032C92.309 115.805 92.4343 115.603 92.6098 115.436C93.0971 114.97 93.2521 114.967 93.6698 115.48C94.5281 116.535 95.2333 117.693 95.8699 118.895C95.9304 119.009 95.9457 119.128 95.9523 119.254C96.056 121.235 96.7234 123.041 97.6443 124.765C97.7491 124.961 97.7324 125.106 97.6327 125.281C97.2927 125.879 96.8629 126.409 96.4286 126.937C96.3436 127.04 96.2457 127.053 96.1294 127.053C95.5938 127.054 95.0579 127.048 94.5229 127.066C94.2346 127.075 93.9822 127.002 93.8003 126.787C92.915 125.743 91.7372 125.248 90.4575 124.914C89.2414 124.597 88.2228 123.978 87.5561 122.855C87.2317 122.308 87.0725 121.717 87.0041 121.038C86.9237 121.329 86.9795 121.572 86.9517 121.81C86.7084 121.64 86.9066 121.426 86.8823 121.261C86.706 122.728 87.0758 124.045 88.0555 125.203C88.6331 125.886 89.3349 126.427 89.9635 127.049C90.2522 127.336 90.5259 127.622 90.5584 128.057Z" fill="#249445"/>
<path d="M132.194 127.258C132.102 127.344 132.15 127.454 132.157 127.55C132.31 129.776 131.358 131.426 129.559 132.638C129.387 132.755 129.217 132.785 129.008 132.743C128.242 132.588 127.472 132.459 126.699 132.341C125.756 132.196 124.857 132.349 123.967 132.637C123.703 132.722 123.441 132.815 123.178 132.903C122.587 133.102 121.966 132.896 121.554 132.328C122.064 132.335 122.442 132.068 122.833 131.831C123.227 131.592 123.615 131.343 124.032 131.083C123.708 130.865 123.387 130.859 123.065 130.95C122.511 131.106 121.956 131.261 121.414 131.454C120.871 131.647 120.408 131.559 119.992 131.167C119.925 131.104 119.85 131.049 119.779 130.991C119.663 130.8 119.651 130.58 119.712 130.387C119.842 129.981 119.832 129.576 119.784 129.165C120.45 128.644 121.116 128.121 121.784 127.603C121.954 127.471 122.048 127.304 122.009 127.092C121.862 126.285 122.239 125.742 122.83 125.254C123.584 124.631 124.215 123.855 125.072 123.357C125.634 123.03 126.216 122.739 126.863 122.62C127.014 122.593 127.035 122.49 127.068 122.386C127.229 121.89 127.535 121.491 127.875 121.11C128.002 120.968 128.118 120.934 128.305 120.991C129.322 121.303 129.85 122.152 129.763 123.368C129.752 123.513 129.739 123.657 129.751 123.808C130.038 123.377 130.261 122.919 130.175 122.382C130.131 122.106 130.211 122.058 130.467 122.06C131.642 122.065 132.816 122.103 133.982 122.24C134.985 122.357 135.92 122.075 136.869 121.852C137.481 121.709 138.095 121.588 138.719 121.508C140.336 121.304 141.731 121.905 143.065 122.718C143.914 123.235 144.699 123.85 145.407 124.544C147.136 126.242 149.179 127.44 151.334 128.484C153.079 129.329 154.707 130.363 156.03 131.816C157.695 133.646 158.871 135.73 159.182 138.238C159.354 139.628 159.287 141.014 159.121 142.4C158.952 143.811 158.743 145.217 158.604 146.632C158.548 147.21 158.634 147.665 159.129 148.042C159.661 148.448 160.13 148.937 160.637 149.377C160.822 149.538 160.906 149.721 160.924 149.965C161.016 151.22 161.025 152.475 160.947 153.731C160.936 153.906 160.88 153.961 160.711 153.961C158.672 153.959 156.633 153.962 154.594 153.97C154.392 153.97 154.363 153.916 154.459 153.743C154.678 153.353 154.903 152.969 155.24 152.668C155.79 152.178 156.412 151.902 157.188 152.049C157.135 151.877 157.004 151.83 156.897 151.766C156.494 151.528 156.054 151.382 155.609 151.249C154.406 150.888 153.205 150.521 151.998 150.172C151.427 150.007 151.005 149.681 150.662 149.188C149.625 147.697 148.825 146.09 148.262 144.363C147.549 142.173 147.696 140.029 148.625 137.931C148.677 137.812 148.765 137.701 148.709 137.553C146.896 139.966 146.906 142.602 147.814 145.349C147.699 145.402 147.609 145.328 147.521 145.293C146.09 144.717 144.757 143.957 143.476 143.101C143.443 143.079 143.419 143.044 143.39 143.015C143.304 142.862 143.352 142.715 143.409 142.567C143.93 141.201 144.225 139.783 144.387 138.333C144.503 137.297 144.455 136.264 144.33 135.231C144.286 134.875 144.295 134.512 144.186 134.164C143.997 133.508 143.813 132.85 143.503 132.238C143.382 131.999 143.269 131.754 143.007 131.516C143.2 132.065 143.38 132.543 143.507 133.037C144.093 135.312 143.451 137.266 142.006 139.029C141.521 139.621 140.944 140.013 140.21 140.213C138.253 140.746 136.276 141.192 134.296 141.622C133.884 141.712 133.581 141.942 133.301 142.209C132.941 142.553 132.55 142.668 132.054 142.657C130.727 142.626 129.398 142.653 128.07 142.657C127.948 142.658 127.825 142.657 127.72 142.657C127.655 142.584 127.698 142.543 127.724 142.503C128.237 141.676 128.756 140.853 129.261 140.021C129.424 139.753 129.636 139.571 129.92 139.441C131.421 138.758 132.895 138.02 134.367 137.278C134.432 137.245 134.492 137.203 134.56 137.178C135.007 137.017 135.145 136.684 135.175 136.222C135.245 135.173 135.195 134.126 135.177 133.079C135.158 132.008 135.178 130.941 135.394 129.887C135.404 129.839 135.4 129.788 135.38 129.735C134.624 131.412 134.649 133.216 134.554 135.066C134.2 134.797 133.88 134.554 133.56 134.311C133.352 134.16 133.337 133.965 133.411 133.734C134.091 131.634 133.803 129.623 132.842 127.68C132.607 127.205 132.293 126.781 131.946 126.386C132.04 126.672 132.288 126.915 132.194 127.258Z" fill="#E72626"/>
<path d="M128.663 97.3357C130.749 96.5781 132.767 95.845 134.799 95C134.713 97.2439 134.605 99.4361 134.565 101.696C134.128 101.371 133.734 101.079 133.342 100.784C133.062 100.572 132.776 100.367 132.51 100.139C132.345 99.9968 132.278 100.076 132.179 100.21C131.484 101.151 130.779 102.084 130.084 103.025C128.511 105.157 126.938 107.289 125.371 109.426C122.886 112.815 120.406 116.208 117.924 119.598C117.257 120.509 116.583 121.413 115.927 122.331C115.781 122.535 115.695 122.519 115.535 122.359C113.426 120.256 111.309 118.161 109.204 116.054C109.006 115.857 108.919 115.835 108.731 116.074C107.404 117.756 105.967 119.344 104.559 120.958C104.233 121.332 103.894 121.695 103.577 122.077C103.442 122.24 103.363 122.226 103.217 122.09C102.472 121.389 101.705 120.711 100.971 119.998C100.746 119.781 100.661 119.857 100.511 120.053C99.6834 121.127 98.8223 122.174 97.946 123.208C97.677 123.525 97.6687 123.521 97.5297 123.122C97.3832 122.701 97.2483 122.275 97.0942 121.857C97.0358 121.699 97.0665 121.595 97.1712 121.468C98.2451 120.167 99.3169 118.865 100.376 117.553C100.527 117.365 100.611 117.401 100.757 117.534C101.522 118.229 102.299 118.911 103.057 119.613C103.242 119.783 103.333 119.759 103.487 119.581C105.223 117.581 106.989 115.608 108.63 113.526C108.797 113.315 108.884 113.355 109.047 113.516C111.123 115.564 113.209 117.601 115.278 119.656C115.512 119.888 115.594 119.839 115.765 119.607C118.197 116.295 120.636 112.988 123.077 109.682C125.665 106.177 128.214 102.642 130.859 99.1788C130.996 98.9983 130.921 98.9483 130.789 98.8547C130.133 98.3881 129.481 97.9154 128.827 97.4451C128.794 97.4209 128.758 97.399 128.663 97.3357Z" fill="#269546"/>
<path d="M96.666 132.965C97.4405 133.378 98.1721 133.775 98.9094 134.16C99.3817 134.407 99.2596 134.457 99.5987 133.997C101.522 131.39 103.446 128.784 105.36 126.17C105.553 125.905 105.599 126.089 105.677 126.227C106.603 127.857 107.523 129.491 108.45 131.121C109.916 133.696 111.389 136.266 112.849 138.844C112.985 139.085 113.082 139.127 113.333 138.977C115.059 137.945 116.821 136.973 118.53 135.911C118.74 135.78 118.804 135.932 118.9 136.04C120.08 137.385 121.189 138.793 122.346 140.157C124.73 142.966 126.997 145.871 129.34 148.713C129.496 148.902 129.591 148.915 129.776 148.76C130.416 148.225 131.07 147.707 131.747 147.159C131.871 147.556 131.842 147.929 131.869 148.292C131.991 149.938 132.095 151.586 132.202 153.233C132.225 153.582 132.217 153.589 131.878 153.491C129.94 152.928 128.004 152.361 126.064 151.795C126.09 151.646 126.206 151.604 126.289 151.537C126.845 151.091 127.397 150.64 127.964 150.208C128.175 150.048 128.196 149.942 128.017 149.725C125.703 146.926 123.402 144.116 121.093 141.314C120.244 140.284 119.378 139.269 118.527 138.24C118.401 138.087 118.314 138.048 118.127 138.159C116.315 139.229 114.477 140.254 112.693 141.373C112.464 141.516 112.377 141.465 112.255 141.25C110.853 138.77 109.446 136.292 108.032 133.819C107.194 132.353 106.338 130.898 105.498 129.433C105.365 129.2 105.29 129.157 105.109 129.402C103.444 131.659 101.782 133.92 100.16 136.209C99.8809 136.602 99.884 136.602 99.4526 136.371C98.6614 135.948 97.8707 135.524 97.0755 135.109C96.9218 135.029 96.8496 134.933 96.8357 134.754C96.7905 134.169 96.7263 133.585 96.666 132.965Z" fill="#E72A25"/>
<path d="M141.069 142.023C143.255 143.925 145.741 145.303 148.408 146.361C148.348 146.524 148.228 146.553 148.135 146.61C147.12 147.231 146.155 147.918 145.297 148.752C145.153 148.892 145.045 149.044 144.98 149.238C144.53 150.577 144.218 151.952 143.88 153.321C143.746 153.864 143.848 153.768 143.335 153.77C141.183 153.776 139.03 153.78 136.878 153.784C136.54 153.784 136.547 153.785 136.693 153.473C137.218 152.349 138.17 151.818 139.309 151.539C139.816 151.415 139.837 151.408 139.791 150.874C139.674 149.509 139.541 148.145 139.402 146.782C139.349 146.267 139.379 145.77 139.547 145.278C139.921 144.174 140.416 143.127 140.993 142.118C141.012 142.084 141.042 142.056 141.069 142.023Z" fill="#A71B1E"/>
<path d="M79.2566 153.996C77.8137 153.996 76.4256 153.993 75.0375 153.999C74.8813 153.999 74.8572 153.934 74.8466 153.798C74.8114 153.343 74.75 152.89 74.7217 152.435C74.7099 152.246 74.586 152.167 74.4737 152.066C73.2517 150.968 72.005 149.899 70.7155 148.883C70.5314 148.738 70.4968 148.601 70.5438 148.382C70.6749 147.774 70.7632 147.157 70.8185 146.537C70.8305 146.402 70.8689 146.31 70.9947 146.24C71.7185 145.839 72.296 145.263 72.6462 144.523C73.0828 143.599 73.8296 143.032 74.6379 142.506C75.8502 141.718 77.1711 141.187 78.5595 140.81C78.7686 140.754 78.8259 140.777 78.8045 141.006C78.6681 142.474 78.4826 143.933 78.1292 145.368C78.0554 145.667 77.9092 145.889 77.6657 146.071C76.6404 146.837 75.5804 147.552 74.5229 148.271C74.3255 148.405 74.3259 148.481 74.4563 148.667C74.8435 149.218 75.2571 149.747 75.6825 150.268C76.0992 150.777 76.5865 151.209 77.189 151.482C77.7054 151.716 78.0881 152.073 78.3655 152.574C78.625 153.042 78.9328 153.483 79.2566 153.996Z" fill="#094F25"/>
<path d="M125.848 140.404C125.107 140.404 124.366 140.398 123.625 140.408C123.484 140.41 123.393 140.368 123.311 140.261C123.092 139.973 122.873 139.684 122.643 139.406C122.527 139.267 122.561 139.179 122.683 139.072C123.094 138.711 123.5 138.343 123.907 137.977C124.059 137.841 124.252 137.799 124.439 137.742C126.292 137.185 128.109 136.521 129.917 135.833C130.332 135.675 130.65 135.432 130.869 135.044C131.037 134.747 131.233 134.465 131.395 134.165C131.487 133.994 131.562 133.963 131.75 134.046C132.69 134.463 133.551 135.002 134.345 135.654C134.65 135.904 134.605 136.398 134.258 136.594C132.812 137.41 131.304 138.101 129.811 138.819C129.217 139.104 128.736 139.448 128.493 140.076C128.411 140.288 128.268 140.353 128.041 140.349C127.31 140.333 126.579 140.343 125.848 140.343C125.848 140.363 125.848 140.383 125.848 140.404Z" fill="#A3191A"/>
<path d="M96.3179 137.129C96.482 137.657 96.22 138.149 95.8823 138.649C95.3258 139.473 94.7345 140.27 94.1346 141.061C94.0067 141.23 93.939 141.241 93.8102 141.052C93.2577 140.245 92.8255 139.377 92.471 138.467C92.3427 138.138 92.4544 137.789 92.7519 137.608C93.1145 137.387 93.4507 137.132 93.769 136.852C93.8533 136.777 93.9335 136.714 93.9454 136.579C94.0295 135.62 94.0333 134.674 93.6786 133.754C93.5971 133.543 93.5225 133.428 93.2889 133.514C93.1336 133.57 93.0284 133.5 92.9648 133.361C92.6648 132.711 92.1434 132.382 91.4653 132.206C90.9034 132.059 90.9189 132.016 91.0278 131.433C91.1173 130.954 91.2215 130.476 91.2358 129.987C91.2408 129.818 91.2943 129.77 91.458 129.799C92.5415 129.991 93.6179 130.232 94.7199 130.303C94.7404 130.305 94.7651 130.301 94.7805 130.311C95.0516 130.49 95.2208 130.772 95.4519 130.992C95.6792 131.209 95.8875 131.406 95.907 131.787C95.9965 133.539 96.2457 135.279 96.3179 137.129Z" fill="#0A4C25"/>
<path d="M98.4166 109.604C98.3033 110.638 98.0594 111.618 97.4903 112.486C96.7716 113.582 95.7092 114.105 94.4685 114.339C93.9733 114.432 93.4818 114.546 92.9897 114.654C92.8795 114.678 92.7707 114.712 92.6648 114.752C91.8739 115.046 91.5412 115.62 91.675 116.456C91.6928 116.567 91.7146 116.678 91.7448 116.846C90.9625 116.43 90.1651 116.135 89.5334 115.567C88.7796 114.889 89.1179 113.516 90.1213 113.105C90.5948 112.911 91.1003 112.874 91.6041 112.843C92.5589 112.783 93.5156 112.772 94.4703 112.691C96.1943 112.544 97.3637 111.621 98.1447 110.119C98.2342 109.947 98.3259 109.776 98.4166 109.604Z" fill="#269546"/>
<path d="M86.1746 139.412C86.119 140.208 86.0906 140.931 86.1247 141.654C86.1326 141.821 86.0117 141.889 85.9135 141.974C83.8109 143.802 81.7075 145.629 79.6031 147.455C79.1242 147.87 79.1239 147.867 78.7282 147.353C78.5707 147.148 78.4201 146.934 78.2374 146.754C78.0615 146.58 78.1036 146.486 78.2723 146.343C79.3505 145.428 80.4279 144.513 81.4915 143.581C82.9976 142.262 84.5158 140.956 85.9714 139.579C86.0151 139.538 86.0643 139.503 86.1746 139.412Z" fill="#E62923"/>
<path d="M132.194 127.258C132.098 126.853 131.886 126.496 131.739 126.106C131.981 126.287 132.18 126.503 132.357 126.744C133.179 127.86 133.615 129.126 133.81 130.488C133.973 131.625 133.837 132.734 133.477 133.817C133.411 134.014 133.478 134.155 133.56 134.31C132.57 133.716 131.53 133.232 130.422 132.913C130.417 132.798 130.508 132.769 130.562 132.717C132.117 131.228 132.745 129.455 132.195 127.319C132.19 127.3 132.194 127.278 132.194 127.258Z" fill="#AC1A24"/>
<path d="M144.186 134.164C144.252 134.132 144.249 134.185 144.254 134.223C144.336 134.835 144.438 135.443 144.508 136.057C144.588 136.762 144.552 137.46 144.496 138.158C144.413 139.197 144.223 140.22 143.947 141.225C143.81 141.722 143.665 142.217 143.463 142.693C143.421 142.792 143.413 142.907 143.39 143.015C142.407 142.383 141.527 141.623 140.688 140.822C142.811 139.808 143.796 138.007 144.22 135.805C144.325 135.257 144.208 134.711 144.186 134.164Z" fill="#AB1A1F"/>
<path d="M94.0391 115.064C94.8462 115.144 95.5824 115.214 96.3177 115.291C98.2854 115.499 99.6199 114.566 100.553 112.907C100.644 112.746 100.727 112.581 100.872 112.432C100.832 112.653 100.802 112.876 100.75 113.094C100.504 114.11 100.165 115.08 99.4281 115.86C98.7071 116.623 97.7782 116.918 96.7879 117.075C96.4229 117.132 96.0522 117.153 95.684 117.191C95.5801 117.202 95.4904 117.209 95.4236 117.089C95.0362 116.395 94.555 115.763 94.0391 115.064Z" fill="#0C4924"/>
<path d="M90.5586 128.057C90.2496 127.241 89.5326 126.795 88.9364 126.242C87.9323 125.309 87.0681 124.283 86.8194 122.876C86.7224 122.327 86.7492 121.767 86.8478 121.142C86.9565 121.405 86.8403 121.625 86.9524 121.811C87.2038 123.451 88.1347 124.531 89.6552 125.105C90.1926 125.308 90.7491 125.46 91.3185 125.642C90.7024 126.335 90.5906 127.183 90.5586 128.057Z" fill="#104823"/>
<path d="M119.784 129.165C119.924 129.469 120.017 129.769 119.858 130.107C119.727 130.384 119.8 130.695 119.779 130.99C119.257 130.746 118.939 130.295 118.631 129.835C118.56 129.73 118.615 129.667 118.716 129.623C119.072 129.472 119.428 129.318 119.784 129.165Z" fill="#A2171D"/>
<path d="M125.708 121.596C126.057 121.635 126.369 121.734 126.658 121.903C126.79 121.981 126.82 122.062 126.659 122.14C126.186 122.368 125.714 122.596 125.24 122.821C125.134 122.871 125.055 122.861 125.079 122.708C125.14 122.333 125.275 121.99 125.507 121.688C125.562 121.617 125.639 121.593 125.708 121.596Z" fill="#A91417"/>
<path d="M92.3428 126.415C92.5623 126.432 92.6998 126.569 92.8438 126.694C93.1864 126.99 93.4769 127.347 93.8548 127.6C94.0063 127.702 93.8825 127.742 93.8447 127.811C93.7816 127.924 93.7253 127.917 93.6396 127.823C93.2105 127.351 92.7756 126.884 92.3428 126.415Z" fill="#39824F"/>
<path d="M92.9956 136.551C93.1461 136.086 93.2766 135.683 93.407 135.281C93.3836 135.719 93.6007 136.232 92.9956 136.551Z" fill="#B65E62"/>
<path d="M93.0088 119.147C93.7279 119.299 94.0821 119.734 94.2266 120.644C93.9085 120.514 93.6096 120.395 93.3134 120.269C93.2153 120.228 93.1433 120.151 93.1276 120.039C93.0863 119.746 93.0491 119.452 93.0088 119.147Z" fill="#F1F7F2"/>
<path d="M95.5759 124.597C95.6177 124.635 95.6835 124.674 95.72 124.731C95.8574 124.949 96.0096 125.161 96.1105 125.395C96.2381 125.692 95.9253 125.747 95.7792 125.853C95.6356 125.957 95.6346 125.744 95.5918 125.665C95.4946 125.483 95.4087 125.295 95.3327 125.104C95.2683 124.942 95.4335 124.588 95.5759 124.597Z" fill="#E8F9EE"/>
<path d="M123.009 127.337C123.262 126.665 123.408 126.559 124.041 126.57C123.834 127.377 123.983 127.234 123.009 127.337Z" fill="#F6E2E3"/>
</g>
<defs>
<filter id="filter0_d_151_15046" x="0" y="0" width="202" height="190" filterUnits="userSpaceOnUse" color-interpolation-filters="sRGB">
<feFlood flood-opacity="0" result="BackgroundImageFix"/>
<feColorMatrix in="SourceAlpha" type="matrix" values="0 0 0 0 0 0 0 0 0 0 0 0 0 0 0 0 0 0 127 0" result="hardAlpha"/>
<feOffset dx="-16" dy="-8"/>
<feGaussianBlur stdDeviation="2"/>
<feComposite in2="hardAlpha" operator="out"/>
<feColorMatrix type="matrix" values="0 0 0 0 1 0 0 0 0 1 0 0 0 0 1 0 0 0 0.74 0"/>
<feBlend mode="normal" in2="BackgroundImageFix" result="effect1_dropShadow_151_15046"/>
<feBlend mode="normal" in="SourceGraphic" in2="effect1_dropShadow_151_15046" result="shape"/>
</filter>
<linearGradient id="paint0_linear_151_15046" x1="111" y1="12" x2="111" y2="190" gradientUnits="userSpaceOnUse">
<stop stop-color="white"/>
<stop offset="1" stop-color="#EEEFEF"/>
</linearGradient>
<clipPath id="clip0_151_15046">
<rect width="103" height="59" fill="white" transform="translate(58 95)"/>
</clipPath>
</defs>
</svg>
