<svg width="1298" height="87" viewBox="0 0 1298 87" fill="none" xmlns="http://www.w3.org/2000/svg">
<line x1="76.6401" y1="5.55273" x2="76.6401" y2="78.8016" stroke="black"/>
<rect x="71.3213" y="45.0181" width="10.1199" height="40.4796" fill="white"/>
<line x1="90.1338" y1="39.2859" x2="90.1338" y2="83.6207" stroke="black"/>
<rect x="84.8145" y="51.3335" width="10.1199" height="25.0588" fill="white"/>
<line x1="105.072" y1="32.0574" x2="105.072" y2="65.3085" stroke="black"/>
<rect x="99.7534" y="44.105" width="10.1199" height="25.0588" fill="white"/>
<line x1="119.047" y1="32.0574" x2="119.047" y2="76.3922" stroke="black"/>
<rect x="113.729" y="51.3335" width="10.1199" height="17.8303" fill="white"/>
<line x1="133.986" y1="54.2249" x2="133.986" y2="86.0303" stroke="black"/>
<rect x="128.667" y="65.3086" width="10.1199" height="13.4932" fill="white"/>
<line x1="5.31934" y1="5.55273" x2="5.31934" y2="78.8016" stroke="black"/>
<rect y="19.0459" width="10.1199" height="40.4796" fill="white"/>
<line x1="18.812" y1="39.2859" x2="18.812" y2="83.6207" stroke="black"/>
<rect x="13.4932" y="51.3335" width="10.1199" height="25.0588" fill="white"/>
<line x1="33.7515" y1="32.0574" x2="33.7515" y2="65.3085" stroke="black"/>
<rect x="28.4321" y="44.105" width="10.1199" height="25.0588" fill="white"/>
<line x1="47.7266" y1="32.0574" x2="47.7266" y2="76.3922" stroke="black"/>
<rect x="42.4072" y="51.3335" width="10.1199" height="17.8303" fill="white"/>
<line x1="62.665" y1="54.2249" x2="62.665" y2="86.0303" stroke="black"/>
<rect x="57.3462" y="73.9829" width="10.1199" height="4.81901" fill="white"/>
<line y1="-0.5" x2="73.2489" y2="-0.5" transform="matrix(0 1 1 0 208.956 5.55273)" stroke="black"/>
<rect width="10.1199" height="40.4796" transform="matrix(-1 0 0 1 213.774 0)" fill="white"/>
<line y1="-0.5" x2="44.3349" y2="-0.5" transform="matrix(-4.37114e-08 1 1 4.37114e-08 195.462 39.2859)" stroke="black"/>
<rect width="10.1199" height="25.0588" transform="matrix(-1 0 0 1 200.281 51.3335)" fill="white"/>
<line y1="-0.5" x2="33.2511" y2="-0.5" transform="matrix(4.37114e-08 1 1 -4.37114e-08 180.523 32.0574)" stroke="black"/>
<rect width="10.1199" height="25.0588" transform="matrix(-1 0 0 1 185.342 44.105)" fill="white"/>
<line y1="-0.5" x2="44.3349" y2="-0.5" transform="matrix(-4.37114e-08 1 1 4.37114e-08 166.548 32.0574)" stroke="black"/>
<rect width="10.1199" height="17.8303" transform="matrix(-1 0 0 1 171.367 51.3335)" fill="white"/>
<line y1="-0.5" x2="31.8054" y2="-0.5" transform="matrix(-4.37114e-08 1 1 4.37114e-08 151.609 54.2249)" stroke="black"/>
<rect width="10.1199" height="13.4932" transform="matrix(-1 0 0 1 156.429 65.3086)" fill="white"/>
<line y1="-0.5" x2="73.2489" y2="-0.5" transform="matrix(0 1 1 0 280.277 5.55273)" stroke="black"/>
<rect width="10.1199" height="40.4796" transform="matrix(-1 0 0 1 285.096 19.0459)" fill="white"/>
<line y1="-0.5" x2="44.3349" y2="-0.5" transform="matrix(-4.37114e-08 1 1 4.37114e-08 266.784 39.2859)" stroke="black"/>
<rect width="10.1199" height="25.0588" transform="matrix(-1 0 0 1 271.603 51.3335)" fill="white"/>
<line y1="-0.5" x2="33.2511" y2="-0.5" transform="matrix(4.37114e-08 1 1 -4.37114e-08 251.844 32.0574)" stroke="black"/>
<rect width="10.1199" height="25.0588" transform="matrix(-1 0 0 1 256.664 44.105)" fill="white"/>
<line y1="-0.5" x2="44.3349" y2="-0.5" transform="matrix(-4.37114e-08 1 1 4.37114e-08 237.87 32.0574)" stroke="black"/>
<rect width="10.1199" height="17.8303" transform="matrix(-1 0 0 1 242.688 51.3335)" fill="white"/>
<line y1="-0.5" x2="31.8054" y2="-0.5" transform="matrix(-4.37114e-08 1 1 4.37114e-08 222.931 54.2249)" stroke="black"/>
<rect width="10.1199" height="4.81901" transform="matrix(-1 0 0 1 227.75 73.9829)" fill="white"/>
<line y1="-0.5" x2="73.2489" y2="-0.5" transform="matrix(0 1 1 0 1221.86 5.55273)" stroke="black"/>
<rect width="10.1199" height="40.4796" transform="matrix(-1 0 0 1 1226.68 0)" fill="white"/>
<line y1="-0.5" x2="44.3349" y2="-0.5" transform="matrix(-4.37114e-08 1 1 4.37114e-08 1208.37 39.2859)" stroke="black"/>
<rect width="10.1199" height="25.0588" transform="matrix(-1 0 0 1 1213.19 51.3335)" fill="white"/>
<line y1="-0.5" x2="33.2511" y2="-0.5" transform="matrix(4.37114e-08 1 1 -4.37114e-08 1193.43 32.0574)" stroke="black"/>
<rect width="10.1199" height="25.0588" transform="matrix(-1 0 0 1 1198.25 44.105)" fill="white"/>
<line y1="-0.5" x2="44.3349" y2="-0.5" transform="matrix(-4.37114e-08 1 1 4.37114e-08 1179.45 32.0574)" stroke="black"/>
<rect width="10.1199" height="17.8303" transform="matrix(-1 0 0 1 1184.27 51.3335)" fill="white"/>
<line y1="-0.5" x2="31.8054" y2="-0.5" transform="matrix(-4.37114e-08 1 1 4.37114e-08 1164.51 54.2249)" stroke="black"/>
<rect width="10.1199" height="13.4932" transform="matrix(-1 0 0 1 1169.33 65.3086)" fill="white"/>
<line y1="-0.5" x2="73.2489" y2="-0.5" transform="matrix(0 1 1 0 1293.18 5.55273)" stroke="black"/>
<rect width="10.1199" height="40.4796" transform="matrix(-1 0 0 1 1298 19.0459)" fill="white"/>
<line y1="-0.5" x2="44.3349" y2="-0.5" transform="matrix(-4.37114e-08 1 1 4.37114e-08 1279.69 39.2859)" stroke="black"/>
<rect width="10.1199" height="25.0588" transform="matrix(-1 0 0 1 1284.51 51.3335)" fill="white"/>
<line y1="-0.5" x2="33.2511" y2="-0.5" transform="matrix(4.37114e-08 1 1 -4.37114e-08 1264.75 32.0574)" stroke="black"/>
<rect width="10.1199" height="25.0588" transform="matrix(-1 0 0 1 1269.57 44.105)" fill="white"/>
<line y1="-0.5" x2="44.3349" y2="-0.5" transform="matrix(-4.37114e-08 1 1 4.37114e-08 1250.77 32.0574)" stroke="black"/>
<rect width="10.1199" height="17.8303" transform="matrix(-1 0 0 1 1255.59 51.3335)" fill="white"/>
<line y1="-0.5" x2="31.8054" y2="-0.5" transform="matrix(-4.37114e-08 1 1 4.37114e-08 1235.83 54.2249)" stroke="black"/>
<rect width="10.1199" height="4.81901" transform="matrix(-1 0 0 1 1240.65 73.9829)" fill="white"/>
<line y1="-0.5" x2="73.2489" y2="-0.5" transform="matrix(0 1 1 0 356.996 5.55273)" stroke="black"/>
<rect width="10.1199" height="40.4796" transform="matrix(-1 0 0 1 361.814 19.0459)" fill="white"/>
<line y1="-0.5" x2="44.3349" y2="-0.5" transform="matrix(-4.37114e-08 1 1 4.37114e-08 343.502 39.2859)" stroke="black"/>
<rect width="10.1199" height="25.0588" transform="matrix(-1 0 0 1 348.321 51.3335)" fill="white"/>
<line y1="-0.5" x2="33.2511" y2="-0.5" transform="matrix(4.37114e-08 1 1 -4.37114e-08 328.563 32.0574)" stroke="black"/>
<rect width="10.1199" height="25.0588" transform="matrix(-1 0 0 1 333.382 44.105)" fill="white"/>
<line y1="-0.5" x2="44.3349" y2="-0.5" transform="matrix(-4.37114e-08 1 1 4.37114e-08 314.588 32.0574)" stroke="black"/>
<rect width="10.1199" height="17.8303" transform="matrix(-1 0 0 1 319.407 51.3335)" fill="white"/>
<line y1="-0.5" x2="31.8054" y2="-0.5" transform="matrix(-4.37114e-08 1 1 4.37114e-08 299.649 54.2249)" stroke="black"/>
<rect width="10.1199" height="13.4932" transform="matrix(-1 0 0 1 304.468 65.3086)" fill="white"/>
<line y1="-0.5" x2="73.2489" y2="-0.5" transform="matrix(0 1 1 0 428.316 5.55273)" stroke="black"/>
<rect width="10.1199" height="40.4796" transform="matrix(-1 0 0 1 433.136 19.0459)" fill="white"/>
<line y1="-0.5" x2="44.3349" y2="-0.5" transform="matrix(-4.37114e-08 1 1 4.37114e-08 414.824 39.2859)" stroke="black"/>
<rect width="10.1199" height="25.0588" transform="matrix(-1 0 0 1 419.642 51.3335)" fill="white"/>
<line y1="-0.5" x2="33.2511" y2="-0.5" transform="matrix(4.37114e-08 1 1 -4.37114e-08 399.884 32.0574)" stroke="black"/>
<rect width="10.1199" height="25.0588" transform="matrix(-1 0 0 1 404.704 44.105)" fill="white"/>
<line y1="-0.5" x2="44.3349" y2="-0.5" transform="matrix(-4.37114e-08 1 1 4.37114e-08 385.909 32.0574)" stroke="black"/>
<rect width="10.1199" height="17.8303" transform="matrix(-1 0 0 1 390.729 51.3335)" fill="white"/>
<line y1="-0.5" x2="31.8054" y2="-0.5" transform="matrix(-4.37114e-08 1 1 4.37114e-08 370.97 54.2249)" stroke="black"/>
<rect width="10.1199" height="4.81901" transform="matrix(-1 0 0 1 375.789 73.9829)" fill="white"/>
<line y1="-0.5" x2="73.2489" y2="-0.5" transform="matrix(0 1 1 0 1088.54 5.55273)" stroke="black"/>
<rect width="10.1199" height="40.4796" transform="matrix(-1 0 0 1 1093.36 19.0459)" fill="white"/>
<line y1="-0.5" x2="44.3349" y2="-0.5" transform="matrix(-4.37114e-08 1 1 4.37114e-08 1075.04 39.2859)" stroke="black"/>
<rect width="10.1199" height="25.0588" transform="matrix(-1 0 0 1 1079.86 51.3335)" fill="white"/>
<line y1="-0.5" x2="33.2511" y2="-0.5" transform="matrix(4.37114e-08 1 1 -4.37114e-08 1060.1 32.0574)" stroke="black"/>
<rect width="10.1199" height="25.0588" transform="matrix(-1 0 0 1 1064.92 44.105)" fill="white"/>
<line y1="-0.5" x2="44.3349" y2="-0.5" transform="matrix(-4.37114e-08 1 1 4.37114e-08 1046.13 32.0574)" stroke="black"/>
<rect width="10.1199" height="17.8303" transform="matrix(-1 0 0 1 1050.95 51.3335)" fill="white"/>
<line y1="-0.5" x2="31.8054" y2="-0.5" transform="matrix(-4.37114e-08 1 1 4.37114e-08 1031.19 54.2249)" stroke="black"/>
<rect width="10.1199" height="13.4932" transform="matrix(-1 0 0 1 1036.01 65.3086)" fill="white"/>
<line y1="-0.5" x2="73.2489" y2="-0.5" transform="matrix(0 1 1 0 1159.86 5.55273)" stroke="black"/>
<rect width="10.1199" height="40.4796" transform="matrix(-1 0 0 1 1164.68 19.0459)" fill="white"/>
<line y1="-0.5" x2="44.3349" y2="-0.5" transform="matrix(-4.37114e-08 1 1 4.37114e-08 1146.37 39.2859)" stroke="black"/>
<rect width="10.1199" height="25.0588" transform="matrix(-1 0 0 1 1151.18 51.3335)" fill="white"/>
<line y1="-0.5" x2="33.2511" y2="-0.5" transform="matrix(4.37114e-08 1 1 -4.37114e-08 1131.43 32.0574)" stroke="black"/>
<rect width="10.1199" height="25.0588" transform="matrix(-1 0 0 1 1136.25 44.105)" fill="white"/>
<line y1="-0.5" x2="44.3349" y2="-0.5" transform="matrix(-4.37114e-08 1 1 4.37114e-08 1117.45 32.0574)" stroke="black"/>
<rect width="10.1199" height="17.8303" transform="matrix(-1 0 0 1 1122.27 51.3335)" fill="white"/>
<line y1="-0.5" x2="31.8054" y2="-0.5" transform="matrix(-4.37114e-08 1 1 4.37114e-08 1102.51 54.2249)" stroke="black"/>
<rect width="10.1199" height="4.81901" transform="matrix(-1 0 0 1 1107.33 73.9829)" fill="white"/>
<line x1="663.605" y1="5.55273" x2="663.605" y2="78.8016" stroke="black"/>
<rect x="658.287" y="45.0181" width="10.1199" height="40.4796" fill="white"/>
<line x1="677.099" y1="39.2859" x2="677.099" y2="83.6207" stroke="black"/>
<rect x="671.779" y="51.3335" width="10.1199" height="25.0588" fill="white"/>
<line x1="692.037" y1="32.0574" x2="692.037" y2="65.3085" stroke="black"/>
<rect x="686.719" y="44.105" width="10.1199" height="25.0588" fill="white"/>
<line x1="706.013" y1="32.0574" x2="706.013" y2="76.3922" stroke="black"/>
<rect x="700.693" y="51.3335" width="10.1199" height="17.8303" fill="white"/>
<line x1="720.952" y1="54.2249" x2="720.952" y2="86.0303" stroke="black"/>
<rect x="715.632" y="65.3086" width="10.1199" height="13.4932" fill="white"/>
<line x1="592.284" y1="5.55273" x2="592.284" y2="78.8016" stroke="black"/>
<rect x="586.965" y="19.0459" width="10.1199" height="40.4796" fill="white"/>
<line x1="605.777" y1="39.2859" x2="605.777" y2="83.6207" stroke="black"/>
<rect x="600.458" y="51.3335" width="10.1199" height="25.0588" fill="white"/>
<line x1="620.716" y1="32.0574" x2="620.716" y2="65.3085" stroke="black"/>
<rect x="615.397" y="44.105" width="10.1199" height="25.0588" fill="white"/>
<line x1="634.691" y1="32.0574" x2="634.691" y2="76.3922" stroke="black"/>
<rect x="629.372" y="51.3335" width="10.1199" height="17.8303" fill="white"/>
<line x1="649.63" y1="54.2249" x2="649.63" y2="86.0303" stroke="black"/>
<rect x="644.312" y="73.9829" width="10.1199" height="4.81901" fill="white"/>
<line y1="-0.5" x2="73.2489" y2="-0.5" transform="matrix(0 1 1 0 795.92 5.55273)" stroke="black"/>
<rect width="10.1199" height="40.4796" transform="matrix(-1 0 0 1 800.739 0)" fill="white"/>
<line y1="-0.5" x2="44.3349" y2="-0.5" transform="matrix(-4.37114e-08 1 1 4.37114e-08 782.427 39.2859)" stroke="black"/>
<rect width="10.1199" height="25.0588" transform="matrix(-1 0 0 1 787.247 51.3335)" fill="white"/>
<line y1="-0.5" x2="33.2511" y2="-0.5" transform="matrix(4.37114e-08 1 1 -4.37114e-08 767.488 32.0574)" stroke="black"/>
<rect width="10.1199" height="25.0588" transform="matrix(-1 0 0 1 772.307 44.105)" fill="white"/>
<line y1="-0.5" x2="44.3349" y2="-0.5" transform="matrix(-4.37114e-08 1 1 4.37114e-08 753.514 32.0574)" stroke="black"/>
<rect width="10.1199" height="17.8303" transform="matrix(-1 0 0 1 758.332 51.3335)" fill="white"/>
<line y1="-0.5" x2="31.8054" y2="-0.5" transform="matrix(-4.37114e-08 1 1 4.37114e-08 738.574 54.2249)" stroke="black"/>
<rect width="10.1199" height="13.4932" transform="matrix(-1 0 0 1 743.394 65.3086)" fill="white"/>
<line y1="-0.5" x2="73.2489" y2="-0.5" transform="matrix(0 1 1 0 867.242 5.55273)" stroke="black"/>
<rect width="10.1199" height="40.4796" transform="matrix(-1 0 0 1 872.061 19.0459)" fill="white"/>
<line y1="-0.5" x2="44.3349" y2="-0.5" transform="matrix(-4.37114e-08 1 1 4.37114e-08 853.749 39.2859)" stroke="black"/>
<rect width="10.1199" height="25.0588" transform="matrix(-1 0 0 1 858.567 51.3335)" fill="white"/>
<line y1="-0.5" x2="33.2511" y2="-0.5" transform="matrix(4.37114e-08 1 1 -4.37114e-08 838.81 32.0574)" stroke="black"/>
<rect width="10.1199" height="25.0588" transform="matrix(-1 0 0 1 843.628 44.105)" fill="white"/>
<line y1="-0.5" x2="44.3349" y2="-0.5" transform="matrix(-4.37114e-08 1 1 4.37114e-08 824.834 32.0574)" stroke="black"/>
<rect width="10.1199" height="17.8303" transform="matrix(-1 0 0 1 829.654 51.3335)" fill="white"/>
<line y1="-0.5" x2="31.8054" y2="-0.5" transform="matrix(-4.37114e-08 1 1 4.37114e-08 809.896 54.2249)" stroke="black"/>
<rect width="10.1199" height="4.81901" transform="matrix(-1 0 0 1 814.714 73.9829)" fill="white"/>
<line y1="-0.5" x2="73.2489" y2="-0.5" transform="matrix(0 1 1 0 943.96 5.55273)" stroke="black"/>
<rect width="10.1199" height="40.4796" transform="matrix(-1 0 0 1 948.779 19.0459)" fill="white"/>
<line y1="-0.5" x2="44.3349" y2="-0.5" transform="matrix(-4.37114e-08 1 1 4.37114e-08 930.467 39.2859)" stroke="black"/>
<rect width="10.1199" height="25.0588" transform="matrix(-1 0 0 1 935.286 51.3335)" fill="white"/>
<line y1="-0.5" x2="33.2511" y2="-0.5" transform="matrix(4.37114e-08 1 1 -4.37114e-08 915.528 32.0574)" stroke="black"/>
<rect width="10.1199" height="25.0588" transform="matrix(-1 0 0 1 920.347 44.105)" fill="white"/>
<line y1="-0.5" x2="44.3349" y2="-0.5" transform="matrix(-4.37114e-08 1 1 4.37114e-08 901.553 32.0574)" stroke="black"/>
<rect width="10.1199" height="17.8303" transform="matrix(-1 0 0 1 906.372 51.3335)" fill="white"/>
<line y1="-0.5" x2="31.8054" y2="-0.5" transform="matrix(-4.37114e-08 1 1 4.37114e-08 886.614 54.2249)" stroke="black"/>
<rect width="10.1199" height="13.4932" transform="matrix(-1 0 0 1 891.433 65.3086)" fill="white"/>
<line y1="-0.5" x2="73.2489" y2="-0.5" transform="matrix(0 1 1 0 1015.28 5.55273)" stroke="black"/>
<rect width="10.1199" height="40.4796" transform="matrix(-1 0 0 1 1020.1 19.0459)" fill="white"/>
<line y1="-0.5" x2="44.3349" y2="-0.5" transform="matrix(-4.37114e-08 1 1 4.37114e-08 1001.79 39.2859)" stroke="black"/>
<rect width="10.1199" height="25.0588" transform="matrix(-1 0 0 1 1006.61 51.3335)" fill="white"/>
<line y1="-0.5" x2="33.2511" y2="-0.5" transform="matrix(4.37114e-08 1 1 -4.37114e-08 986.849 32.0574)" stroke="black"/>
<rect width="10.1199" height="25.0588" transform="matrix(-1 0 0 1 991.668 44.105)" fill="white"/>
<line y1="-0.5" x2="44.3349" y2="-0.5" transform="matrix(-4.37114e-08 1 1 4.37114e-08 972.874 32.0574)" stroke="black"/>
<rect width="10.1199" height="17.8303" transform="matrix(-1 0 0 1 977.693 51.3335)" fill="white"/>
<line y1="-0.5" x2="31.8054" y2="-0.5" transform="matrix(-4.37114e-08 1 1 4.37114e-08 957.936 54.2249)" stroke="black"/>
<rect width="10.1199" height="4.81901" transform="matrix(-1 0 0 1 962.754 73.9829)" fill="white"/>
<line x1="517.297" y1="5.55273" x2="517.297" y2="78.8016" stroke="black"/>
<rect x="511.978" y="19.0459" width="10.1199" height="40.4796" fill="white"/>
<line x1="530.79" y1="39.2859" x2="530.79" y2="83.6207" stroke="black"/>
<rect x="525.471" y="51.3335" width="10.1199" height="25.0588" fill="white"/>
<line x1="545.729" y1="32.0574" x2="545.729" y2="65.3085" stroke="black"/>
<rect x="540.41" y="44.105" width="10.1199" height="25.0588" fill="white"/>
<line x1="559.704" y1="32.0574" x2="559.704" y2="76.3922" stroke="black"/>
<rect x="554.385" y="51.3335" width="10.1199" height="17.8303" fill="white"/>
<line x1="574.643" y1="54.2249" x2="574.643" y2="86.0303" stroke="black"/>
<rect x="569.324" y="65.3086" width="10.1199" height="13.4932" fill="white"/>
<line x1="445.976" y1="5.55273" x2="445.976" y2="78.8016" stroke="black"/>
<rect x="440.656" y="19.0459" width="10.1199" height="40.4796" fill="white"/>
<line x1="459.469" y1="39.2859" x2="459.469" y2="83.6207" stroke="black"/>
<rect x="454.15" y="51.3335" width="10.1199" height="25.0588" fill="white"/>
<line x1="474.408" y1="32.0574" x2="474.408" y2="65.3085" stroke="black"/>
<rect x="469.088" y="44.105" width="10.1199" height="25.0588" fill="white"/>
<line x1="488.383" y1="32.0574" x2="488.383" y2="76.3922" stroke="black"/>
<rect x="483.064" y="51.3335" width="10.1199" height="17.8303" fill="white"/>
<line x1="503.322" y1="54.2249" x2="503.322" y2="86.0303" stroke="black"/>
<rect x="498.003" y="73.9829" width="10.1199" height="4.81901" fill="white"/>
</svg>
