<svg width="29" height="32" viewBox="0 0 29 32" fill="none" xmlns="http://www.w3.org/2000/svg">
<path d="M9.08997 31.75C13.06 31.75 16.45 29.19 17.69 25.64C18.31 25.67 18.87 25.67 19.33 25.67C22.13 25.67 28.64 25.37 28.64 22.63C28.64 22.62 28.64 22.61 28.64 22.6C28.64 22.59 28.64 22.59 28.64 22.58V19.08V18.92C28.66 18.84 28.67 18.76 28.67 18.67C28.67 18.59 28.66 18.51 28.64 18.43V15.42C28.66 15.34 28.67 15.25 28.67 15.17C28.67 15.09 28.66 15.01 28.64 14.93V11.58C28.66 11.5 28.67 11.42 28.67 11.33C28.67 11.19 28.64 11.05 28.59 10.92C28.62 10.8 28.64 10.67 28.64 10.54C28.64 10.53 28.64 10.52 28.64 10.52C28.64 10.51 28.64 10.51 28.64 10.5V6.84C28.66 6.76 28.67 6.68 28.67 6.59C28.67 6.51 28.66 6.43 28.64 6.35V3C28.66 2.92 28.67 2.83 28.67 2.75C28.67 2.6 28.64 2.46 28.59 2.33C28.51 2.05 28.33 1.81 28.1 1.67C26.2 0.0600001 20.14 0 19.34 0C18.54 0 12.48 0.0500001 10.58 1.67C10.35 1.82 10.17 2.05 10.09 2.33C10.04 2.46 10.0099 2.6 10.0099 2.75C10.0099 2.84 10.02 2.92 10.04 3V6.35C10.02 6.43 10.0099 6.51 10.0099 6.59C10.0099 6.68 10.02 6.76 10.04 6.84V10.5C10.04 10.51 10.04 10.52 10.04 10.52C10.04 10.52 10.04 10.53 10.04 10.54C10.04 10.67 10.06 10.8 10.09 10.92C10.04 11.05 10.0099 11.18 10.0099 11.33C10.0099 11.42 10.02 11.5 10.04 11.58V13.57C9.72998 13.54 9.41999 13.52 9.10999 13.52C4.07999 13.52 0 17.61 0 22.63C0 27.65 4.05997 31.75 9.08997 31.75ZM27.57 22.56C27.57 22.58 27.57 22.61 27.57 22.63C27.57 22.64 27.57 22.65 27.57 22.66C27.52 23.68 23.84 24.51 19.33 24.51C18.88 24.51 18.4399 24.5 18.0099 24.48C18.1299 23.89 18.2 23.27 18.2 22.64C18.2 22.48 18.2 22.32 18.19 22.16C18.61 22.17 19 22.18 19.33 22.18C21.43 22.18 25.61 22.01 27.57 20.77V22.56ZM27.57 19.06C27.57 19.08 27.57 19.11 27.57 19.13C27.57 19.14 27.57 19.15 27.57 19.16C27.52 20.18 23.84 21.01 19.33 21.01C18.89 21.01 18.47 21 18.05 20.98C17.87 20.01 17.54 19.1 17.09 18.27C17.94 18.32 18.73 18.34 19.34 18.34C21.44 18.34 25.62 18.17 27.58 16.93V19.06H27.57ZM27.57 10.48C27.57 10.5 27.57 10.53 27.57 10.55C27.57 10.56 27.57 10.57 27.57 10.58C27.52 11.6 23.84 12.43 19.33 12.43C14.82 12.43 11.14 11.6 11.08 10.58C11.08 10.56 11.08 10.54 11.08 10.52C11.08 10.51 11.08 10.5 11.08 10.48V8.35C13.04 9.59 17.23 9.76 19.33 9.76C21.43 9.76 25.61 9.59 27.57 8.35V10.48ZM19.33 1.34C24.01 1.34 26.91 2.21 27.4 2.75C26.91 3.29 24.01 4.16 19.33 4.16C14.65 4.16 11.7499 3.29 11.2599 2.75C11.7499 2.21 14.65 1.34 19.33 1.34ZM19.33 5.51C20.07 5.51 25.28 5.46 27.57 4.19V6.64C27.57 6.66 27.57 6.69 27.57 6.71C27.57 6.72 27.57 6.73 27.57 6.74C27.52 7.76 23.84 8.59 19.33 8.59C14.82 8.59 11.14 7.76 11.08 6.74C11.08 6.72 11.08 6.7 11.08 6.68C11.08 6.67 11.08 6.66 11.08 6.64V4.19C13.38 5.46 18.59 5.51 19.33 5.51ZM19.33 14.09C20.07 14.09 25.28 14.04 27.57 12.77V15.22C27.57 15.24 27.57 15.27 27.57 15.29C27.57 15.3 27.57 15.31 27.57 15.32C27.52 16.34 23.84 17.17 19.33 17.17C18.25 17.17 17.2099 17.12 16.2599 17.03C14.9799 15.4 13.17 14.22 11.08 13.75V12.78C13.38 14.05 18.59 14.09 19.33 14.09ZM9.08997 14.69C13.47 14.69 17.04 18.25 17.04 22.64C17.04 27.02 13.47 30.59 9.08997 30.59C4.70997 30.59 1.13995 27.03 1.13995 22.64C1.13995 18.26 4.69997 14.69 9.08997 14.69Z" fill="#272525"/>
<path d="M9.09024 28.78C12.4802 28.78 15.2303 26.03 15.2303 22.64C15.2303 19.25 12.4802 16.5 9.09024 16.5C5.70024 16.5 2.95022 19.25 2.95022 22.64C2.94022 26.03 5.70024 28.78 9.09024 28.78ZM9.09024 17.28C12.0502 17.28 14.4502 19.69 14.4502 22.64C14.4502 25.6 12.0402 28 9.09024 28C6.13024 28 3.73025 25.59 3.73025 22.64C3.72025 19.68 6.13024 17.28 9.09024 17.28Z" fill="#272525"/>
<path d="M7.15988 25.5201C7.36988 25.6701 7.63986 25.8001 7.94986 25.8801C8.05986 25.9101 8.16988 25.9401 8.27988 25.9601V26.5401C8.27988 26.7501 8.44989 26.9301 8.66989 26.9301H9.66989C9.87989 26.9301 10.0599 26.7601 10.0599 26.5401V25.8601C10.4199 25.7301 10.7299 25.5201 10.9599 25.2401C11.2899 24.8601 11.4699 24.3801 11.4699 23.8701C11.4699 23.6001 11.4299 23.3501 11.3499 23.1301C11.2299 22.7901 11.0099 22.4901 10.7099 22.2401C10.4599 22.0301 10.1399 21.8501 9.72989 21.6801C9.71989 21.6701 9.69991 21.6701 9.68991 21.6601C9.26991 21.4901 9.09988 21.3801 9.02988 21.3201C8.99988 21.3001 8.98989 21.2801 8.97989 21.2601C8.97989 21.2601 8.97989 21.2401 8.97989 21.2101C8.97989 21.1901 8.98986 21.1501 9.00986 21.1301C9.05986 21.0801 9.16992 21.0501 9.31992 21.0501C9.50992 21.0501 9.67988 21.0801 9.83988 21.1301C9.96988 21.1701 10.0699 21.2301 10.1499 21.2701L10.3699 21.4001C10.4699 21.4601 10.5899 21.4701 10.6999 21.4301C10.8099 21.3901 10.8899 21.3101 10.9299 21.2001L11.3099 20.2001C11.3799 20.0201 11.3099 19.8201 11.1399 19.7301L10.9799 19.6401C10.7199 19.4901 10.4299 19.3801 10.1199 19.3101V18.7601C10.1199 18.5501 9.94989 18.3701 9.72989 18.3701H8.7399C8.5299 18.3701 8.34989 18.5401 8.34989 18.7601V19.4201C8.02989 19.5401 7.74988 19.7201 7.52988 19.9601C7.18988 20.3301 6.99991 20.8101 6.99991 21.3201C6.99991 21.5901 7.04987 21.8501 7.14987 22.0801C7.28987 22.4001 7.5299 22.6801 7.8599 22.9201C8.1099 23.1001 8.4299 23.2601 8.8599 23.4301C9.2099 23.5701 9.34988 23.6801 9.40988 23.7401C9.44988 23.7801 9.46989 23.8101 9.47989 23.8301C9.48989 23.8501 9.49991 23.8801 9.49991 23.9301C9.49991 24.0101 9.47989 24.0501 9.41989 24.1001C9.33989 24.1701 9.19988 24.2101 9.02988 24.2101C8.63988 24.2301 8.27987 24.0601 8.07987 23.9301L7.84989 23.7801C7.74989 23.7101 7.62986 23.7001 7.50986 23.7301C7.39986 23.7701 7.30987 23.8601 7.26987 23.9701L6.90988 24.9801C6.84988 25.1401 6.9099 25.3301 7.0499 25.4301L7.15988 25.5201ZM7.80991 24.6901C8.16991 24.8801 8.59991 24.9901 8.99991 24.9901C9.35991 25.0001 9.65986 24.8901 9.88986 24.7001C10.1199 24.5101 10.2399 24.2401 10.2399 23.9401C10.2399 23.7901 10.2099 23.6601 10.1599 23.5401C10.1099 23.4201 10.0299 23.3101 9.9299 23.2101C9.7499 23.0301 9.48991 22.8701 9.11991 22.7201C8.75991 22.5801 8.48989 22.4401 8.28989 22.3001C8.06989 22.1501 7.92988 21.9801 7.83988 21.7901C7.77988 21.6601 7.74991 21.5001 7.74991 21.3401C7.74991 21.0201 7.85992 20.7301 8.06992 20.5101C8.24992 20.3201 8.5099 20.1801 8.7999 20.1001C8.9699 20.0601 9.09989 19.9001 9.09989 19.7201V19.1701H9.30991V19.6601C9.30991 19.8601 9.45988 20.0301 9.65988 20.0501C9.93988 20.0801 10.1999 20.1501 10.4299 20.2601L10.3299 20.5201C10.2499 20.4801 10.1599 20.4401 10.0599 20.4101C9.81991 20.3301 9.55989 20.2901 9.28989 20.2901C8.92989 20.2901 8.63991 20.3901 8.43991 20.5901C8.26991 20.7601 8.16989 20.9901 8.16989 21.2301C8.16989 21.3801 8.19991 21.5001 8.24991 21.6101C8.29991 21.7201 8.3799 21.8201 8.4899 21.9201C8.6599 22.0701 8.93986 22.2201 9.38986 22.4101C9.73986 22.5501 9.98991 22.7001 10.1899 22.8601C10.3799 23.0201 10.5199 23.2001 10.5899 23.4101C10.6399 23.5501 10.6699 23.7101 10.6699 23.8901C10.6699 24.2101 10.5599 24.5101 10.3499 24.7401C10.1599 24.9601 9.8799 25.1201 9.5499 25.2001C9.3799 25.2401 9.24991 25.4001 9.24991 25.5801V26.1601H9.02988V25.6301C9.02988 25.4301 8.8799 25.2601 8.6799 25.2401C8.4999 25.2201 8.31987 25.1901 8.14987 25.1401C7.97987 25.0901 7.82986 25.0301 7.69986 24.9601L7.80991 24.6901Z" fill="#272525"/>
</svg>
