<svg width="32" height="34" viewBox="0 0 32 34" fill="none" xmlns="http://www.w3.org/2000/svg">
<path d="M15.1501 15.11C15.3601 15.02 15.5001 14.82 15.5001 14.59V0.830017C15.5001 0.520017 15.2501 0.27002 14.9401 0.27002C11.2001 0.27002 7.66007 1.70003 4.98007 4.31003C4.87007 4.41003 4.81006 4.56002 4.81006 4.71002C4.81006 4.86002 4.86006 5.00002 4.97006 5.11002L14.5401 14.99C14.6501 15.1 14.7901 15.16 14.9401 15.16C15.0101 15.15 15.0801 15.14 15.1501 15.11ZM14.3701 13.2L6.17007 4.73004C8.45007 2.70004 11.3301 1.53002 14.3701 1.40002V13.2Z" fill="#272525"/>
<path d="M14.89 17.53C14.9 17.37 14.85 17.2 14.73 17.09L5.16 7.21002C5.06 7.10002 4.91001 7.04004 4.76001 7.04004C4.61001 7.04004 4.47002 7.09004 4.36002 7.20004C1.55002 9.92004 0 13.58 0 17.49C0 20.48 0.909999 23.34 2.64 25.77C2.75 25.92 2.92001 26.01 3.10001 26.01C3.21001 26.01 3.33 25.98 3.42 25.91L14.64 17.96C14.79 17.84 14.88 17.69 14.89 17.53ZM3.25 24.64C1.86 22.5 1.13 20.04 1.13 17.48C1.13 14.07 2.41 10.87 4.75 8.40002L13.46 17.4L3.25 24.64Z" fill="#272525"/>
<path d="M31.8401 17.0301C31.8101 16.8001 31.7701 16.5701 31.7301 16.3301C31.6401 15.8301 31.5201 15.3301 31.3801 14.8701C31.3201 14.6601 31.2601 14.4601 31.1901 14.2601C31.0401 13.8201 30.8701 13.3801 30.6801 12.9601C30.6001 12.7701 30.5101 12.5901 30.4201 12.4101C30.2201 12.0201 30.0001 11.6301 29.7701 11.2501C29.6701 11.0901 29.5601 10.9201 29.4501 10.7601C29.1801 10.3701 28.8901 9.98008 28.5901 9.61008C28.4701 9.46008 28.3401 9.32008 28.2201 9.18008C27.9401 8.87008 27.6401 8.56008 27.3201 8.27008C27.1801 8.14008 27.0401 8.01011 26.9001 7.89011C26.5801 7.61011 26.2301 7.34009 25.8901 7.09009C25.7301 6.98009 25.5701 6.8701 25.4201 6.7601C25.0401 6.5101 24.6601 6.28008 24.2901 6.08008C24.1201 5.99008 23.9401 5.89009 23.7601 5.81009C23.3001 5.59009 22.8301 5.39008 22.3501 5.21008C22.1501 5.14008 21.9501 5.07009 21.7501 5.00009C21.2801 4.85009 20.8001 4.7301 20.3101 4.6301C20.0801 4.5801 19.8601 4.5401 19.6301 4.5101C19.1001 4.4301 18.5401 4.3801 17.9801 4.3501C17.7901 4.3401 17.5901 4.33008 17.3901 4.33008C16.9301 4.33008 16.5501 4.7101 16.5501 5.1701V18.5001L5.6801 26.2001C5.5001 26.3301 5.3701 26.5201 5.3401 26.7501C5.3001 26.9701 5.35012 27.1901 5.48012 27.3701L5.53011 27.4401C5.77011 27.7701 6.03012 28.1001 6.33012 28.4501C6.45012 28.5901 6.5801 28.7401 6.7101 28.8701C6.9901 29.1701 7.3001 29.4701 7.6201 29.7701C7.7601 29.9001 7.91009 30.0201 8.05009 30.1401C8.45009 30.4701 8.83011 30.7601 9.19011 31.0101C9.32011 31.1001 9.46011 31.1901 9.60011 31.2701L9.6801 31.3201C10.0601 31.5501 10.4501 31.7701 10.8401 31.9701C11.0201 32.0601 11.2001 32.1501 11.3801 32.2301C11.7801 32.4101 12.2001 32.5801 12.6801 32.7401C12.8801 32.8101 13.0801 32.8701 13.2901 32.9301C13.8001 33.0801 14.2701 33.1901 14.7501 33.2801C14.9801 33.3201 15.2101 33.3601 15.4501 33.3901C16.0801 33.4701 16.7201 33.5201 17.3201 33.5201C17.3301 33.5201 17.3601 33.5201 17.3701 33.5201C17.6301 33.5201 17.9001 33.5101 18.1501 33.5001C18.8401 33.4601 19.5401 33.3801 20.2201 33.2401C20.5601 33.1701 20.9101 33.0901 21.2801 32.9901C22.3401 32.6901 23.3601 32.2801 24.3201 31.7601C25.2801 31.2401 26.1801 30.6001 27.0101 29.8701C27.4801 29.4601 27.9101 29.0201 28.3101 28.5701C29.0401 27.7401 29.6801 26.8301 30.2001 25.8801C30.7201 24.9301 31.1301 23.9101 31.4301 22.8401C31.5301 22.4701 31.6201 22.1201 31.6801 21.7801C31.8101 21.1001 31.9001 20.4001 31.9401 19.7101C31.9501 19.4501 31.9601 19.1901 31.9601 18.9301V18.8901C31.9701 18.3101 31.9301 17.6701 31.8401 17.0301ZM30.8301 19.6801C30.7901 20.3201 30.7101 20.9601 30.5901 21.5901C30.5301 21.9001 30.4501 22.2201 30.3501 22.5701C30.0801 23.5501 29.7001 24.4901 29.2201 25.3701C28.7401 26.2501 28.1601 27.0901 27.4801 27.8501C27.1101 28.2701 26.7001 28.6801 26.2701 29.0601C25.5001 29.7401 24.6701 30.3201 23.7901 30.8001C22.9101 31.2801 21.9701 31.6601 20.9901 31.9301C20.6501 32.0201 20.3301 32.1001 20.0101 32.1601C19.3801 32.2901 18.7401 32.3701 18.1001 32.4001C17.8601 32.4101 17.6201 32.4201 17.3801 32.4201C17.3701 32.4201 17.3501 32.4201 17.3401 32.4201C16.7701 32.4201 16.1901 32.3801 15.6001 32.3001C15.3801 32.2701 15.1701 32.2401 14.9601 32.2001C14.5201 32.1201 14.0801 32.0101 13.6101 31.8701C13.4201 31.8201 13.2301 31.7501 13.0501 31.6901C12.6101 31.5401 12.2201 31.3901 11.8501 31.2201C11.6801 31.1401 11.5101 31.0601 11.3501 30.9801C10.9901 30.8001 10.6301 30.6001 10.2801 30.3801L10.2001 30.3301C10.0701 30.2501 9.95012 30.1801 9.83012 30.0901C9.49012 29.8601 9.1501 29.6001 8.7701 29.2901C8.6401 29.1801 8.5001 29.0601 8.3701 28.9401C8.0701 28.6701 7.79011 28.3901 7.53011 28.1101C7.41011 27.9801 7.3001 27.8501 7.1801 27.7201C6.9501 27.4501 6.7501 27.2001 6.5601 26.9501L17.4301 19.2501C17.5801 19.1401 17.6701 18.9701 17.6701 18.7901V5.47009C17.7501 5.47009 17.8401 5.4801 17.9201 5.4801C18.4401 5.5001 18.9501 5.55009 19.4401 5.62009C19.6501 5.65009 19.8601 5.6901 20.0701 5.7301C20.5201 5.8201 20.9701 5.9401 21.4001 6.0701C21.5901 6.1301 21.7701 6.1901 21.9501 6.2601C22.3901 6.4201 22.8301 6.61009 23.2501 6.81009C23.4201 6.89009 23.5801 6.97009 23.7401 7.06009C24.0801 7.25009 24.4301 7.46009 24.7801 7.69009C24.9301 7.79009 25.0701 7.89008 25.2201 7.99008C25.5401 8.22008 25.8501 8.4701 26.1501 8.7301C26.2801 8.8401 26.4101 8.96008 26.5401 9.08008C26.8301 9.35008 27.1101 9.63011 27.3701 9.9201C27.4901 10.0501 27.6001 10.1801 27.7101 10.3201C27.9901 10.6601 28.2601 11.0101 28.5101 11.3801C28.6101 11.5301 28.7101 11.6801 28.8001 11.8301C29.0201 12.1801 29.2201 12.5401 29.4001 12.9001C29.4801 13.0701 29.5601 13.2301 29.6401 13.4001C29.8201 13.7901 29.9701 14.1901 30.1101 14.6001C30.1701 14.7901 30.2301 14.9701 30.2901 15.1701C30.4201 15.6001 30.5201 16.0501 30.6101 16.5201C30.6501 16.7301 30.6801 16.9501 30.7101 17.1601C30.7901 17.7501 30.8301 18.3401 30.8301 18.9001V18.9401C30.8401 19.2001 30.8401 19.4401 30.8301 19.6801Z" fill="#272525"/>
</svg>
