<svg width="24" height="44" viewBox="0 0 24 44" fill="none" xmlns="http://www.w3.org/2000/svg">
<path d="M2.1001 21.5475C2.1001 22.857 2.18343 24.0237 2.58819 25.7142C3.31438 28.6665 5.08818 32.7022 5.70723 34.0713C5.44532 34.4522 5.30247 34.8808 5.29056 35.3451C5.29056 35.9165 5.50485 36.4522 5.87389 36.8808C5.50485 37.2856 5.29056 37.8094 5.29056 38.3689C5.29056 39.0117 5.55247 39.6189 6.01675 40.0475C5.68342 40.4403 5.49294 40.9403 5.49294 41.476C5.48104 42.7855 6.62389 43.8689 8.04055 43.8808L17.231 43.9998C17.2429 43.9998 17.2548 43.9998 17.2667 43.9998C17.9691 43.9998 18.6477 43.726 19.1238 43.2617C19.5643 42.8332 19.8143 42.2617 19.8262 41.6546C19.8381 41.0117 19.5643 40.4046 19.1 39.976C19.4334 39.5832 19.6238 39.0832 19.6238 38.5475C19.6358 37.976 19.4215 37.4403 19.0405 37.0118C19.4096 36.607 19.6238 36.0832 19.6238 35.5356C19.6358 34.9641 19.4096 34.4284 19.0405 34.0118C19.6834 32.5832 21.4096 28.6308 22.1238 25.7261C22.5286 24.0118 22.6119 22.857 22.6119 21.5475C22.6119 15.8928 18.0048 11.2856 12.3501 11.2856C6.69532 11.2856 2.1001 15.8928 2.1001 21.5475ZM18.0405 42.1308C17.8381 42.3213 17.5524 42.4403 17.2429 42.4284L8.04055 42.3094C7.48103 42.2974 7.02865 41.9284 7.02865 41.476C7.02865 41.1308 7.31437 40.8213 7.71913 40.7022C8.07627 40.607 8.31436 40.2855 8.29055 39.9165C8.27865 39.5475 8.00484 39.2498 7.6477 39.1903C7.17151 39.107 6.81437 38.7617 6.82627 38.3689C6.82627 38.0356 7.08818 37.7379 7.48103 37.6189C7.80246 37.5117 8.02865 37.2141 8.02865 36.8808C8.02865 36.5356 7.81436 36.2379 7.49294 36.1427C7.10008 36.0118 6.82627 35.7022 6.83818 35.357C6.83818 35.2022 6.8858 35.0832 6.95722 34.9879H17.8381C17.981 35.1308 18.0643 35.3094 18.0643 35.5118C18.0643 35.8451 17.8024 36.1427 17.4096 36.2618C17.0881 36.357 16.862 36.6665 16.862 36.9998C16.862 37.3451 17.0762 37.6427 17.3977 37.7379C17.7905 37.8689 18.0643 38.1784 18.0524 38.5237C18.0524 38.8689 17.7667 39.1784 17.362 39.2856C17.0048 39.3808 16.7667 39.7022 16.7905 40.0713C16.8024 40.4403 17.0762 40.7379 17.4334 40.7975C17.9096 40.8808 18.2548 41.226 18.2548 41.6189C18.2667 41.857 18.1477 42.0355 18.0405 42.1308ZM12.362 12.8333C17.1596 12.8333 21.0643 16.738 21.0643 21.5356C21.0643 22.738 20.9929 23.7856 20.6238 25.3332C19.9334 28.1308 18.1953 32.107 17.6 33.4284H7.12389C6.52865 32.107 4.79057 28.1308 4.10009 25.3332C3.73104 23.7975 3.65962 22.738 3.65962 21.5356C3.64771 16.7499 7.55246 12.8333 12.362 12.8333Z" fill="#272525"/>
<path d="M1.61221 3.65487C1.45744 3.4644 1.24316 3.34535 1.00506 3.32154C0.76697 3.28583 0.528876 3.35726 0.3384 3.51202C0.147925 3.65487 0.0288773 3.86916 0.00506784 4.10725C-0.0187416 4.34535 0.040782 4.58344 0.195543 4.77392L4.82648 10.6549C4.99315 10.8691 5.26695 11.0001 5.54076 11.0001C5.55267 11.0001 5.56457 11.0001 5.57648 11.0001C5.76695 10.9882 5.95743 10.9287 6.10029 10.8096C6.29076 10.6549 6.40981 10.4406 6.44552 10.2025C6.46933 9.96438 6.40981 9.72628 6.25505 9.53581L1.61221 3.65487ZM5.61219 10.1906C5.58838 10.2144 5.56457 10.2263 5.52886 10.2263C5.49314 10.2263 5.44553 10.2144 5.42172 10.1787L0.802684 4.29773C0.76697 4.26201 0.76697 4.2263 0.76697 4.20249C0.76697 4.17868 0.778875 4.14297 0.814589 4.11916C0.838398 4.09535 0.874113 4.09535 0.897922 4.09535H0.909827C0.933636 4.09535 0.96935 4.10725 0.99316 4.14297L5.6241 10.0239C5.64791 10.0596 5.65981 10.0953 5.64791 10.1191C5.65981 10.131 5.64791 10.1668 5.61219 10.1906Z" fill="#272525"/>
<path d="M18.3858 10.786C18.5406 10.8812 18.7072 10.9408 18.8858 10.9408C18.8977 10.9408 18.9096 10.9408 18.9215 10.9408C19.2191 10.9289 19.481 10.7741 19.6477 10.536L23.4691 4.79792C23.6001 4.59554 23.6477 4.35745 23.6001 4.11935C23.5525 3.88126 23.4096 3.67888 23.2191 3.54793C23.0168 3.41697 22.7787 3.36935 22.5406 3.41697C22.3025 3.46459 22.1001 3.60745 21.9691 3.79792L18.1358 9.5241C18.0049 9.72648 17.9572 9.96457 18.0049 10.2027C18.0406 10.4408 18.1834 10.6431 18.3858 10.786ZM18.7787 9.95267L22.6001 4.20269C22.6239 4.16697 22.6596 4.15507 22.6834 4.14316C22.7072 4.14316 22.7429 4.14316 22.7787 4.16697C22.8144 4.19078 22.8263 4.22649 22.8382 4.2503C22.8382 4.27411 22.8382 4.30983 22.8144 4.34554L18.993 10.0955C18.9572 10.1431 18.9096 10.155 18.8858 10.155C18.862 10.155 18.8382 10.1431 18.8144 10.1312C18.7787 10.1074 18.7668 10.0717 18.7549 10.0479C18.7549 10.036 18.7549 10.0003 18.7787 9.95267Z" fill="#272525"/>
<path d="M12.1714 9.44059C12.1833 9.44059 12.1952 9.44059 12.2071 9.44059C12.2191 9.44059 12.231 9.44059 12.2429 9.44059C12.7071 9.42868 13.0881 9.04773 13.1119 8.57154L13.4333 0.940616C13.4452 0.702521 13.3619 0.464427 13.1952 0.285856C13.0286 0.11919 12.8024 0.0120472 12.5643 0.000142429C12.3262 -0.0117623 12.0881 0.0715708 11.9095 0.238237C11.7429 0.404903 11.6357 0.619188 11.6238 0.869187L11.3024 8.50011C11.2905 8.73821 11.3738 8.9763 11.5405 9.15487C11.7071 9.32154 11.9214 9.42868 12.1714 9.44059ZM12.0762 8.52392L12.3976 0.892997C12.3976 0.845378 12.4214 0.821568 12.4452 0.797759C12.4571 0.785854 12.4929 0.762045 12.5405 0.762045C12.5881 0.762045 12.6119 0.785854 12.6357 0.797759C12.6476 0.809664 12.6714 0.845378 12.6714 0.892997L12.35 8.52392C12.35 8.59535 12.2905 8.64297 12.2191 8.64297C12.1714 8.64297 12.1476 8.61916 12.1238 8.59535C12.1 8.60726 12.0762 8.57154 12.0762 8.52392Z" fill="#272525"/>
<path d="M6.86175 20.0957C7.32603 20.1195 7.7427 19.7743 7.76651 19.2981C7.77841 19.0719 7.81413 18.8576 7.87365 18.6434C8.23079 17.2386 9.37365 16.691 10.2665 16.4648C10.6832 16.3696 10.9927 16.3576 11.0284 16.3576C11.4927 16.3457 11.8736 15.9529 11.8617 15.4886C11.8498 15.0243 11.4689 14.6553 10.9927 14.6553C9.39746 14.691 6.31413 15.6791 6.07604 19.1791C6.02842 19.6553 6.38556 20.06 6.86175 20.0957Z" fill="#272525"/>
</svg>
