<svg width="40" height="40" viewBox="0 0 40 40" fill="none" xmlns="http://www.w3.org/2000/svg">
<path d="M15.54 39.1498C24.11 39.1498 31.09 32.1798 31.09 23.5998C31.09 19.5498 29.53 15.8498 26.98 13.0898L29.91 10.1598C30.01 10.3098 30.18 10.4098 30.37 10.4298L36.49 11.0998C36.51 11.0998 36.54 11.0998 36.56 11.0998C36.89 11.0998 37.17 10.8498 37.21 10.5198C37.25 10.1598 36.99 9.83981 36.63 9.79981L30.89 9.16983L32.57 7.48981C32.6 7.49981 32.62 7.49983 32.65 7.50983L38.77 8.17981C38.79 8.17981 38.82 8.17981 38.84 8.17981C39.17 8.17981 39.45 7.92983 39.49 7.59983C39.53 7.23983 39.27 6.91982 38.91 6.87982L33.73 6.30982L36.87 3.16983C37.12 2.91983 37.12 2.49982 36.87 2.24982C36.62 1.99982 36.2 1.99982 35.95 2.24982L32.73 5.46982L31.03 1.07981C30.9 0.749806 30.52 0.579811 30.19 0.709811C29.85 0.839811 29.69 1.21981 29.82 1.54981L31.71 6.41983C31.72 6.43983 31.73 6.44982 31.74 6.46982L30.35 7.8598L28.65 3.31983C28.52 2.97983 28.15 2.80982 27.81 2.93982C27.47 3.06982 27.3 3.43982 27.43 3.77982L29.32 8.79981C29.33 8.81981 29.34 8.8398 29.36 8.8598L26.07 12.1498C23.3 9.59981 19.61 8.03983 15.55 8.03983C6.98 8.03983 1.07316e-05 15.0098 1.07316e-05 23.5898C-0.00998927 32.1698 6.97 39.1498 15.54 39.1498ZM15.54 9.3598C19.23 9.3598 22.6 10.7698 25.13 13.0898L22.05 16.1698C20.31 14.6398 18.03 13.7098 15.53 13.7098C10.07 13.7098 5.63 18.1498 5.63 23.6098C5.63 29.0698 10.07 33.5098 15.53 33.5098C20.99 33.5098 25.43 29.0698 25.43 23.6098C25.43 21.1198 24.5 18.8398 22.97 17.0898L26.05 14.0098C28.36 16.5398 29.78 19.9098 29.78 23.5998C29.78 31.4498 23.39 37.8398 15.54 37.8398C7.69 37.8398 1.3 31.4498 1.3 23.5998C1.3 15.7498 7.68 9.3598 15.54 9.3598ZM15.08 24.0598C15.21 24.1898 15.37 24.2498 15.54 24.2498C15.71 24.2498 15.87 24.1898 16 24.0598L18.01 22.0498C18.29 22.4998 18.46 23.0298 18.46 23.5998C18.46 25.2098 17.15 26.5198 15.54 26.5198C13.93 26.5198 12.62 25.2098 12.62 23.5998C12.62 21.9898 13.93 20.6798 15.54 20.6798C16.11 20.6798 16.64 20.8498 17.09 21.1298L15.08 23.1398C14.82 23.3898 14.82 23.8098 15.08 24.0598ZM18.02 20.1898C17.32 19.6798 16.47 19.3698 15.54 19.3698C13.21 19.3698 11.32 21.2598 11.32 23.5898C11.32 25.9198 13.21 27.8098 15.54 27.8098C17.87 27.8098 19.76 25.9198 19.76 23.5898C19.76 22.6598 19.46 21.7998 18.94 21.1098L22.05 17.9998C23.34 19.4998 24.13 21.4598 24.13 23.5898C24.13 28.3298 20.28 32.1798 15.54 32.1798C10.8 32.1798 6.95001 28.3298 6.95001 23.5898C6.95001 18.8498 10.8 14.9998 15.54 14.9998C17.67 14.9998 19.63 15.7798 21.13 17.0798L18.02 20.1898Z" fill="#272525"/>
</svg>
