<svg width="60" height="60" viewBox="0 0 60 60" fill="none" xmlns="http://www.w3.org/2000/svg">
<circle cx="30" cy="30" r="30" fill="#F3F3F3"/>
<g clip-path="url(#clip0_347_3)">
<path d="M43.8339 30.4821H32.4209V19.2314H35.2248V20.0576H33.2796V29.6551H42.9752V28.3961H43.8339V30.4821Z" fill="#3D4451"/>
<path d="M47.0001 28.1476H35.4365V16.1973H47.0001V28.1476ZM36.2952 27.3214H46.1404V17.0234H36.2952V27.3214Z" fill="#3D4451"/>
<path d="M44.8735 18.5942H37.5615V19.2168H44.8735V18.5942Z" fill="#3D4451"/>
<path d="M44.8735 19.9165H37.5615V20.5391H44.8735V19.9165Z" fill="#3D4451"/>
<path d="M44.8735 21.3945H37.5615V22.0171H44.8735V21.3945Z" fill="#3D4451"/>
<path d="M30.4957 40.2209H14V24.4287H30.4957V40.2209ZM14.9702 39.2875H29.5255V25.3621H14.9702V39.2875Z" fill="#3D4451"/>
<path d="M43.5947 48H25.8867V39.909H26.938V46.9886H42.5435V33.53H30.1717V32.5195H43.5947V48Z" fill="#3D4451"/>
<path d="M28.5543 36.1754H15.9404V26.1396H28.5543V36.1754ZM16.5876 35.5528H27.9081V26.7622H16.5876V35.5528Z" fill="#3D4451"/>
<path d="M27.9758 35.9352L21.0308 29.9742L16.4809 33.74L16.0225 33.2266L21.0394 29.0747L28.4448 35.4299L27.9758 35.9352Z" fill="#3D4451"/>
<path d="M27.9833 32.7267L24.6151 29.9897L23.2227 31.4137L22.71 30.9506L24.5599 29.0581L28.4369 32.2096L27.9833 32.7267Z" fill="#3D4451"/>
<path d="M32.8403 40.306V37.3755L35.4679 38.8407L38.1003 40.306L35.4708 41.7712L32.8403 43.2365V40.306Z" fill="#3D4451"/>
<path d="M32.8401 34.2305H31.3848V35.3977H32.8401V34.2305Z" fill="#3D4451"/>
<path d="M35.5887 34.2305H34.2144V35.3977H35.5887V34.2305Z" fill="#3D4451"/>
<path d="M38.2576 34.2305H36.8833V35.3977H38.2576V34.2305Z" fill="#3D4451"/>
<path d="M41.0071 34.2305H39.5518V35.3977H41.0071V34.2305Z" fill="#3D4451"/>
<path d="M30.0906 45.2769H28.6353V46.4441H30.0906V45.2769Z" fill="#3D4451"/>
<path d="M32.8401 45.2769H31.3848V46.4441H32.8401V45.2769Z" fill="#3D4451"/>
<path d="M35.5887 45.2769H34.2144V46.4441H35.5887V45.2769Z" fill="#3D4451"/>
<path d="M38.2576 45.2769H36.8833V46.4441H38.2576V45.2769Z" fill="#3D4451"/>
<path d="M41.0071 45.2769H39.5518V46.4441H41.0071V45.2769Z" fill="#3D4451"/>
<path d="M30.0459 18.8427C29.7904 18.8427 29.5474 18.6987 29.4407 18.4585C28.3056 15.9094 25.7142 14.2663 22.834 14.2663C22.8245 14.2663 22.8149 14.2663 22.8054 14.2663C20.0482 14.2764 17.5835 15.7645 16.3731 18.1495C16.214 18.464 15.8194 18.5942 15.4935 18.4401C15.1666 18.287 15.0312 17.9074 15.1913 17.5938C16.6238 14.7724 19.5392 13.0119 22.8006 13C22.8121 13 22.8226 13 22.834 13C26.2422 13 29.3072 14.9439 30.6501 17.9597C30.7931 18.2806 30.6387 18.6529 30.3041 18.7904C30.2203 18.8262 30.1326 18.8427 30.0459 18.8427Z" fill="#3D4451"/>
<path d="M27.5623 19.9238C27.3745 19.9238 27.1944 19.8202 27.1124 19.6441C26.3862 18.0954 24.7221 17.0969 22.8694 17.0969C22.8627 17.0969 22.857 17.0969 22.8503 17.0969C21.0757 17.1033 19.4917 18.0083 18.7159 19.4589C18.5911 19.6918 18.2937 19.7835 18.0516 19.6634C17.8095 19.5433 17.7142 19.2572 17.8391 19.0243C18.7845 17.2574 20.7031 16.1552 22.8475 16.147C22.8551 16.147 22.8627 16.147 22.8703 16.147C25.111 16.147 27.1277 17.3647 28.0131 19.2535C28.1256 19.4928 28.015 19.7734 27.7662 19.8816C27.6995 19.91 27.63 19.9238 27.5623 19.9238Z" fill="#3D4451"/>
<path d="M24.9439 21.2477C24.7552 21.2477 24.5741 21.1422 24.4931 20.9653C24.2214 20.3775 23.5981 19.9988 22.9033 19.9988C22.9014 19.9988 22.8986 19.9988 22.8967 19.9988C22.2314 20.0016 21.6377 20.3445 21.3479 20.8956C21.225 21.1294 20.9276 21.2229 20.6846 21.1046C20.4416 20.9864 20.3444 20.7003 20.4673 20.4665C20.9257 19.5963 21.855 19.0535 22.8929 19.0498C22.8967 19.0498 22.9005 19.0498 22.9033 19.0498C23.9879 19.0498 24.9648 19.6495 25.3947 20.5802C25.5052 20.8195 25.3928 21.1001 25.144 21.2064C25.0782 21.2348 25.0106 21.2477 24.9439 21.2477Z" fill="#3D4451"/>
</g>
<defs>
<clipPath id="clip0_347_3">
<rect width="33" height="35" fill="white" transform="translate(14 13)"/>
</clipPath>
</defs>
</svg>
