<svg width="60" height="60" viewBox="0 0 60 60" fill="none" xmlns="http://www.w3.org/2000/svg">
<circle cx="30" cy="30" r="30" fill="#F3F3F3"/>
<g clip-path="url(#clip0_347_4)">
<path d="M35.7447 15.5591L34.86 16.4487C31.9479 13.5402 27.2629 13.5289 24.3378 16.4182L23.4531 15.5277C26.8673 12.147 32.3426 12.1575 35.7447 15.5591Z" fill="#3D4451"/>
<path d="M33.9789 17.3355L33.0951 18.2251C31.1577 16.2969 28.0534 16.2873 26.1039 18.1946L25.2192 17.305C27.6578 14.9054 31.5524 14.915 33.9789 17.3355Z" fill="#3D4451"/>
<path d="M32.2135 19.1131L31.3288 20.0035C30.3687 19.059 28.8408 19.0486 27.8687 19.973L26.9849 19.0826C28.4461 17.6667 30.7652 17.6771 32.2135 19.1131Z" fill="#3D4451"/>
<path d="M28.8809 20.9063C28.8809 20.5072 29.2029 20.1831 29.5994 20.1831C29.9958 20.1831 30.3179 20.5072 30.3179 20.9063C30.3179 21.3054 29.9958 21.6295 29.5994 21.6295C29.2029 21.6295 28.8809 21.3054 28.8809 20.9063Z" fill="#3D4451"/>
<path d="M40.7637 48H19V43.0117H40.7637V48ZM20.044 46.9492H39.7205V44.0625H20.044V46.9492Z" fill="#3D4451"/>
<path d="M37.3486 43.9397H22.9829V32.3521H27.448V33.4386H24.0615V42.8532H36.2691V33.4386H33.2835V32.3521H37.3486V43.9397Z" fill="#3D4451"/>
<path d="M30.0935 39.5248C28.3794 39.5248 26.9849 38.1211 26.9849 36.3959V28.52C26.9849 26.7948 28.3794 25.3911 30.0935 25.3911C31.8075 25.3911 33.2021 26.7948 33.2021 28.52V36.3959C33.2021 38.1211 31.8083 39.5248 30.0935 39.5248ZM30.0935 26.3992C28.9309 26.3992 27.9856 27.3507 27.9856 28.5209V36.3967C27.9856 37.566 28.9309 38.5184 30.0935 38.5184C31.2552 38.5184 32.2014 37.5669 32.2014 36.3967V28.5209C32.2014 27.3507 31.2561 26.3992 30.0935 26.3992Z" fill="#3D4451"/>
<path d="M30.0937 30.1816C29.183 30.1816 28.4429 29.4366 28.4429 28.52C28.4429 27.6034 29.1839 26.8584 30.0937 26.8584C31.0035 26.8584 31.7445 27.6042 31.7445 28.52C31.7445 29.4358 31.0044 30.1816 30.0937 30.1816ZM30.0937 27.5572C29.5656 27.5572 29.1363 27.9894 29.1363 28.5209C29.1363 29.0524 29.5656 29.4846 30.0937 29.4846C30.6217 29.4846 31.0511 29.0524 31.0511 28.5209C31.0511 27.9894 30.6217 27.5572 30.0937 27.5572Z" fill="#3D4451"/>
<path d="M30.1435 38.0132C29.2328 38.0132 28.4927 37.2673 28.4927 36.3515C28.4927 35.4358 29.2337 34.6899 30.1435 34.6899C31.0533 34.6899 31.7943 35.4358 31.7943 36.3515C31.7943 37.2673 31.0542 38.0132 30.1435 38.0132ZM30.1435 35.3879C29.6154 35.3879 29.1861 35.82 29.1861 36.3515C29.1861 36.8831 29.6154 37.3152 30.1435 37.3152C30.6716 37.3152 31.1009 36.8831 31.1009 36.3515C31.1009 35.82 30.6716 35.3879 30.1435 35.3879Z" fill="#3D4451"/>
<path d="M33.5379 27.606C33.4288 27.606 33.3197 27.5641 33.2366 27.4805C33.0704 27.3132 33.0704 27.0413 33.2366 26.8732L37.3797 22.7031C37.9753 22.1036 37.9337 21.0876 37.2871 20.4376C36.6404 19.7876 35.6311 19.7458 35.0355 20.3444L30.8924 24.5145C30.7262 24.6818 30.4561 24.6818 30.289 24.5145C30.122 24.3472 30.1228 24.0754 30.289 23.9072L34.4321 19.7371C35.3601 18.803 36.9105 18.8449 37.8896 19.8303C38.8686 20.8149 38.9093 22.3763 37.9822 23.3104L33.8391 27.4805C33.756 27.5641 33.647 27.606 33.5379 27.606Z" fill="#3D4451"/>
<path d="M36.1558 22.9643C35.8164 22.9643 35.4762 22.8344 35.2183 22.5739C34.9681 22.3221 34.8296 21.9866 34.8296 21.6303C34.8296 21.2739 34.9672 20.9384 35.2183 20.6866C35.4685 20.4348 35.8017 20.2954 36.1558 20.2954C36.5098 20.2954 36.8431 20.4339 37.0933 20.6866C37.3435 20.9384 37.482 21.2739 37.482 21.6303C37.482 21.9866 37.3443 22.3221 37.0933 22.5739C36.8345 22.8344 36.4951 22.9643 36.1558 22.9643ZM36.1558 20.8679C35.9532 20.8679 35.7636 20.9472 35.6199 21.0909C35.4771 21.2347 35.3983 21.4264 35.3983 21.6303C35.3983 21.8342 35.4771 22.0258 35.6199 22.1696C35.9151 22.4667 36.3956 22.4667 36.6916 22.1696C36.8345 22.0258 36.9132 21.8342 36.9132 21.6303C36.9132 21.4264 36.8345 21.2347 36.6916 21.0909C36.5479 20.9472 36.3584 20.8679 36.1558 20.8679Z" fill="#3D4451"/>
<path d="M43.3556 26.9923C43.012 26.9923 42.6752 26.9026 42.3714 26.7275L38.1547 24.2852C37.9504 24.1667 37.8803 23.9044 37.998 23.6988C38.1158 23.4931 38.3763 23.4225 38.5806 23.541L42.7973 25.9834C43.07 26.1411 43.3929 26.1759 43.7071 26.0809C44.03 25.9834 44.3035 25.7612 44.4775 25.4562C44.6515 25.1512 44.7052 24.8018 44.6264 24.4716C44.5502 24.151 44.3581 23.887 44.0854 23.7292L39.8687 21.2869C39.6644 21.1684 39.5943 20.9062 39.712 20.7005C39.8298 20.4949 40.0903 20.4243 40.2946 20.5428L44.5113 22.9851C44.9891 23.2622 45.325 23.7188 45.4566 24.2721C45.5856 24.8158 45.5007 25.3882 45.2168 25.884C44.9337 26.3798 44.4845 26.7414 43.9521 26.9026C43.7538 26.9627 43.5539 26.9923 43.3556 26.9923Z" fill="#3D4451"/>
<path d="M49.9432 26.3407L48.1435 27.0081L47.9375 27.3131L47.6752 27.1336L47.9435 26.7363L46.5394 25.7769C46.3871 25.6732 46.1802 25.7125 46.0772 25.8658L45.9577 26.0427L44.8358 25.3369L44.3926 25.9939L45.5145 26.6997L45.3336 26.9672C45.2548 27.0839 45.2851 27.2425 45.4011 27.3218L46.871 28.3264L47.1774 27.8725L47.4397 28.0519L47.2337 28.3569L47.2813 30.2869L48.4058 31.4205L50.5743 31.193C50.7067 31.1791 50.744 30.9918 50.6245 30.9412L49.0525 30.2738C48.9174 30.2163 48.8239 30.0908 48.804 29.9383L48.6369 28.668C48.6101 28.4641 48.7503 28.2558 48.9494 28.2053L50.1951 27.8899C50.3354 27.8542 50.4791 27.8934 50.5778 27.9936L51.781 29.2256C51.8719 29.3188 52.0312 29.2143 51.9957 29.0853L51.4053 26.9733L49.9432 26.3407Z" fill="#3D4451"/>
</g>
<defs>
<clipPath id="clip0_347_4">
<rect width="33" height="35" fill="white" transform="translate(19 13)"/>
</clipPath>
</defs>
</svg>
