<svg width="60" height="60" viewBox="0 0 60 60" fill="none" xmlns="http://www.w3.org/2000/svg">
<circle cx="30" cy="30" r="30" fill="#F3F3F3"/>
<g clip-path="url(#clip0_347_9)">
<path d="M27.7029 46.9998C27.6453 46.9998 27.5869 46.9901 27.5301 46.9707L23.3571 45.5423C23.1073 45.4566 22.9584 45.2024 23.0072 44.9437L23.5379 42.123C22.8805 41.6701 22.2753 41.1493 21.7304 40.5675L19.014 41.4291C18.7624 41.5086 18.4904 41.3929 18.3752 41.1572L16.4384 37.2083C16.3224 36.9717 16.3977 36.6865 16.6156 36.5382L18.9068 34.9765C18.7562 34.1599 18.6986 33.33 18.7349 32.5001L16.2878 31.2412C16.053 31.1203 15.9431 30.8466 16.0291 30.5985L17.4635 26.4421C17.5495 26.194 17.8055 26.0457 18.0642 26.0934L20.7408 26.5931C21.2272 25.8992 21.7898 25.2644 22.4197 24.6994L21.5931 22.1171C21.5134 21.8664 21.6294 21.5954 21.866 21.4806L25.8317 19.5516C26.0683 19.4359 26.3544 19.5119 26.5033 19.7282L28.0573 21.99C28.8804 21.8523 29.7159 21.8072 30.5496 21.8567L31.8237 19.4024C31.945 19.1693 32.2197 19.059 32.4687 19.1446L36.6417 20.573C36.8915 20.6587 37.0404 20.9129 36.9917 21.1716L36.4671 23.9587C37.1148 24.4257 37.7102 24.9616 38.2427 25.5566L40.9857 24.6862C41.2364 24.6058 41.5084 24.7224 41.6245 24.9581L43.5613 28.907C43.6773 29.1436 43.602 29.4287 43.3841 29.5771L40.9476 31.2377C41.0672 31.9899 41.108 32.7526 41.0699 33.5145L43.7128 34.8741C43.9476 34.995 44.0574 35.2687 43.9715 35.5168L42.5371 39.6732C42.4511 39.9212 42.1951 40.0696 41.9364 40.0219L38.9816 39.4701C38.5439 40.0775 38.0451 40.639 37.494 41.1466L38.4066 43.9982C38.4863 44.2489 38.3703 44.5199 38.1337 44.6347L34.168 46.5628C33.9314 46.6785 33.6453 46.6025 33.4964 46.3862L31.8157 43.9408C31.0626 44.0714 30.2989 44.1244 29.5334 44.0979L28.176 46.7129C28.0821 46.8939 27.8969 46.9998 27.7029 46.9998ZM24.1368 44.6894L27.4415 45.8212L28.7448 43.3096C28.8414 43.1224 29.039 43.0094 29.2516 43.0244C30.1562 43.0836 31.0635 43.0209 31.9486 42.8381C32.1586 42.7949 32.3739 42.8814 32.4952 43.058L34.1131 45.4116L37.253 43.8843L36.3759 41.1413C36.3112 40.9392 36.3732 40.7184 36.5345 40.5798C37.2087 39.9981 37.8023 39.3289 38.2994 38.5908C38.4181 38.4151 38.6307 38.326 38.8389 38.3657L41.6803 38.8963L42.8162 35.6051L40.2725 34.2958C40.082 34.1978 39.9695 33.9948 39.9863 33.782C40.0598 32.8815 40.012 31.9766 39.8428 31.092C39.8029 30.8854 39.8906 30.6744 40.0652 30.5552L42.4051 28.9608L40.8714 25.8338L38.232 26.6717C38.0265 26.737 37.8015 26.6717 37.6632 26.5066C37.0608 25.7888 36.3617 25.1585 35.5847 24.635C35.4093 24.5167 35.3207 24.3057 35.3597 24.0991L35.8629 21.4258L32.5582 20.2941L31.3337 22.653C31.2345 22.8446 31.0289 22.9576 30.8127 22.9373C29.8444 22.849 28.8707 22.9011 27.9191 23.0918C27.7091 23.1332 27.4965 23.0467 27.376 22.8719L25.8857 20.7037L22.7458 22.231L23.5388 24.7091C23.6043 24.913 23.5396 25.1364 23.3748 25.275C22.6235 25.9062 21.9697 26.6434 21.431 27.4671C21.3131 27.6463 21.0987 27.7381 20.8879 27.6984L18.3185 27.219L17.1826 30.5093L19.5288 31.7171C19.7184 31.8142 19.8309 32.0155 19.8149 32.2273C19.7423 33.1914 19.8096 34.159 20.0161 35.1027C20.0621 35.3137 19.9753 35.5309 19.7963 35.6527L17.5937 37.1536L19.1274 40.2806L21.7331 39.4542C21.9351 39.3898 22.1548 39.4516 22.2939 39.6096C22.9115 40.3123 23.6238 40.925 24.4123 41.4309C24.594 41.5474 24.687 41.762 24.6471 41.9738L24.1368 44.6894Z" fill="#3D4451"/>
<path d="M29.9549 40.7479C25.6216 40.7479 22.0962 37.2351 22.0962 32.9172C22.0962 28.5992 25.6216 25.0864 29.9549 25.0864C34.2883 25.0864 37.8137 28.5992 37.8137 32.9172C37.8137 37.2351 34.2883 40.7479 29.9549 40.7479ZM29.9549 25.881C26.061 25.881 22.8936 29.0371 22.8936 32.9172C22.8936 36.7972 26.061 39.9534 29.9549 39.9534C33.8489 39.9534 37.0163 36.7972 37.0163 32.9172C37.0163 29.0371 33.8489 25.881 29.9549 25.881Z" fill="#3D4451"/>
<path d="M34.7729 14.321L33.9729 15.1023C31.3884 12.4988 27.1915 12.4502 24.5477 14.9884L23.7627 14.1912C26.8486 11.2213 31.7543 11.2761 34.7729 14.321Z" fill="#3D4451"/>
<path d="M33.1764 15.8817L32.3773 16.6639C30.6575 14.938 27.8773 14.9035 26.1151 16.5792L25.3301 15.7828C27.5344 13.6738 31.0235 13.7152 33.1764 15.8817Z" fill="#3D4451"/>
<path d="M31.5808 17.4429L30.7816 18.2251C29.9293 17.3793 28.5605 17.3572 27.6824 18.1694L26.8975 17.3731C28.2176 16.1301 30.2952 16.1575 31.5808 17.4429Z" fill="#3D4451"/>
<path d="M28.5806 19.0063C28.5841 18.6522 28.8747 18.368 29.23 18.3706C29.5853 18.3742 29.8706 18.6637 29.8679 19.0177C29.8644 19.3718 29.5738 19.656 29.2185 19.6534C28.8623 19.6499 28.5771 19.3603 28.5806 19.0063Z" fill="#3D4451"/>
<path d="M34.6261 34.018C35.2353 31.4471 33.6376 28.8708 31.0576 28.2638C28.4775 27.6567 25.892 29.2487 25.2828 31.8196C24.6736 34.3905 26.2713 36.9667 28.8513 37.5738C31.4314 38.1808 34.0169 36.5888 34.6261 34.018Z" fill="#3D4451"/>
</g>
<defs>
<clipPath id="clip0_347_9">
<rect width="28" height="35" fill="white" transform="translate(16 12)"/>
</clipPath>
</defs>
</svg>
