<svg width="60" height="60" viewBox="0 0 60 60" fill="none" xmlns="http://www.w3.org/2000/svg">
<circle cx="30" cy="30" r="30" fill="#F3F3F3"/>
<g clip-path="url(#clip0_347_8)">
<path d="M37.2462 49.0002H25.2872C24.334 49.0002 23.5586 48.2135 23.5586 47.2465V46.3611C23.5586 45.3941 24.334 44.6074 25.2872 44.6074H37.2473C38.2005 44.6074 38.976 45.3941 38.976 46.3611V47.2465C38.9748 48.2135 38.1994 49.0002 37.2462 49.0002ZM25.2872 45.989C25.088 45.989 24.9204 46.159 24.9204 46.3611V47.2465C24.9204 47.4487 25.088 47.6186 25.2872 47.6186H37.2473C37.4466 47.6186 37.6141 47.4487 37.6141 47.2465V46.3611C37.6141 46.159 37.4466 45.989 37.2473 45.989H25.2872Z" fill="#3D4451"/>
<path d="M37.2462 45.9001H25.2872C24.334 45.9001 23.5586 45.1134 23.5586 44.1464V43.261C23.5586 42.294 24.334 41.5073 25.2872 41.5073H37.2473C38.2005 41.5073 38.976 42.294 38.976 43.261V44.1464C38.9748 45.1134 38.1994 45.9001 37.2462 45.9001ZM25.2872 42.8889C25.088 42.8889 24.9204 43.0589 24.9204 43.261V44.1464C24.9204 44.3486 25.088 44.5185 25.2872 44.5185H37.2473C37.4466 44.5185 37.6141 44.3486 37.6141 44.1464V43.261C37.6141 43.0589 37.4466 42.8889 37.2473 42.8889H25.2872Z" fill="#3D4451"/>
<path d="M32.3781 42.4378H23.5674L23.7089 41.3916C23.727 41.2503 24.1199 37.7958 21.1573 34.0783C19.9562 32.5715 19.1151 31.0154 18.6543 29.4523C18.2207 28.2671 18 27.0303 18 25.7739C18 19.2817 23.9002 14 31.1533 14C32.7879 14 36.9618 14.3124 40.4134 17.2042L39.2565 18.6248C37.178 16.8826 34.1487 15.8421 31.1533 15.8421C24.9021 15.8421 19.8158 20.2981 19.8158 25.7739C19.8158 26.8189 20.0015 27.8479 20.366 28.8356L20.3864 28.8988C20.7769 30.239 21.5105 31.5919 22.5689 32.9195C25.0515 36.0352 25.4998 39.0568 25.5428 40.5957H30.5601V40.5463H36.8124C36.8565 39.0074 37.3037 35.987 39.7874 32.8701L41.1991 34.0277C38.2365 37.7452 38.6304 41.2009 38.6486 41.3456L38.7787 42.3827L37.7486 42.3873H32.3759V42.4378H32.3781Z" fill="#3D4451"/>
<path d="M31.1603 42.154C30.626 42.154 30.1924 41.7142 30.1924 41.1721V29.8921C30.1924 29.35 30.626 28.9102 31.1603 28.9102C31.6946 28.9102 32.1282 29.35 32.1282 29.8921V41.1721C32.1282 41.7142 31.6946 42.154 31.1603 42.154Z" fill="#3D4451"/>
<path d="M41.5351 14.9189L43.0294 16.4372C38.1424 21.4318 38.1243 29.4686 42.9785 34.485L41.483 36.0021C35.8024 30.1462 35.8205 20.753 41.5351 14.9189Z" fill="#3D4451"/>
<path d="M44.5191 17.9473L46.0145 19.4644C42.7746 22.788 42.7587 28.1121 45.9636 31.4564L44.4681 32.9735C40.4358 28.7897 40.4528 22.1092 44.5191 17.9473Z" fill="#3D4451"/>
<path d="M47.5043 20.9761L49.0009 22.4932C47.4137 24.14 47.3968 26.7619 48.9488 28.4283L47.4534 29.9454C45.0761 27.4384 45.0919 23.4602 47.5043 20.9761Z" fill="#3D4451"/>
<path d="M31.0855 30.6029C29.2855 30.6029 27.8218 29.1179 27.8218 27.2919C27.8218 25.4659 29.2855 23.981 31.0855 23.981C32.8854 23.981 34.3492 25.4659 34.3492 27.2919C34.3492 29.1179 32.8843 30.6029 31.0855 30.6029ZM31.0855 25.7094C30.2251 25.7094 29.5244 26.4203 29.5244 27.2931C29.5244 28.1659 30.224 28.8768 31.0855 28.8768C31.947 28.8768 32.6466 28.1659 32.6466 27.2931C32.6466 26.4203 31.9458 25.7094 31.0855 25.7094Z" fill="#3D4451"/>
</g>
<defs>
<clipPath id="clip0_347_8">
<rect width="31" height="35" fill="white" transform="translate(18 14)"/>
</clipPath>
</defs>
</svg>
