<svg width="60" height="60" viewBox="0 0 60 60" fill="none" xmlns="http://www.w3.org/2000/svg">
<circle cx="30" cy="30" r="30" fill="#F3F3F3"/>
<g clip-path="url(#clip0_347_7)">
<mask id="mask0_347_7" style="mask-type:luminance" maskUnits="userSpaceOnUse" x="17" y="19" width="27" height="29">
<path d="M30.2073 47.9996L29.9772 47.9308C24.3608 46.257 20.3705 41.6766 18.4382 34.6865C16.9998 29.484 17.1964 24.8428 17.2061 24.6478L17.238 23.9684L25.9975 24.0619L29.5248 19.9624L33.601 23.9048L43.3687 23.8669L43.4484 24.4845C43.4714 24.6645 44.0007 28.9476 42.6863 33.992C40.931 40.7254 36.6937 45.5396 30.433 47.9149L30.2073 47.9996ZM18.6091 25.3925C18.6108 26.8555 18.7383 30.482 19.812 34.345C21.6098 40.8189 25.0893 44.9096 30.1542 46.5093C35.9086 44.2531 39.6599 39.9383 41.3037 33.6815C42.2782 29.972 42.1897 26.6216 42.0985 25.2822L33.0292 25.3175L29.6187 22.0192L26.6419 25.479L18.6091 25.3925Z" fill="white"/>
</mask>
<g mask="url(#mask0_347_7)">
<path d="M42.278 22.019H18.6089V46.51H42.278V22.019Z" fill="#3D4451"/>
</g>
<mask id="mask1_347_7" style="mask-type:luminance" maskUnits="userSpaceOnUse" x="17" y="19" width="27" height="29">
<path d="M30.2073 47.9996L29.9772 47.9308C24.3608 46.257 20.3705 41.6766 18.4382 34.6865C16.9998 29.484 17.1964 24.8428 17.2061 24.6478L17.238 23.9684L25.9975 24.0619L29.5248 19.9624L33.601 23.9048L43.3687 23.8669L43.4484 24.4845C43.4714 24.6645 44.0007 28.9476 42.6863 33.992C40.931 40.7254 36.6937 45.5396 30.433 47.9149L30.2073 47.9996ZM18.6091 25.3925C18.6108 26.8555 18.7383 30.482 19.812 34.345C21.6098 40.8189 25.0893 44.9096 30.1542 46.5093C35.9086 44.2531 39.6599 39.9383 41.3037 33.6815C42.2782 29.972 42.1897 26.6216 42.0985 25.2822L33.0292 25.3175L29.6187 22.0192L26.6419 25.479L18.6091 25.3925Z" fill="white"/>
</mask>
<g mask="url(#mask1_347_7)">
</g>
<mask id="mask2_347_7" style="mask-type:luminance" maskUnits="userSpaceOnUse" x="17" y="19" width="27" height="29">
<path d="M30.2073 47.9996L29.9772 47.9308C24.3608 46.257 20.3705 41.6766 18.4382 34.6865C16.9998 29.484 17.1964 24.8428 17.2061 24.6478L17.238 23.9684L25.9975 24.0619L29.5248 19.9624L33.601 23.9048L43.3687 23.8669L43.4484 24.4845C43.4714 24.6645 44.0007 28.9476 42.6863 33.992C40.931 40.7254 36.6937 45.5396 30.433 47.9149L30.2073 47.9996ZM18.6091 25.3925C18.6108 26.8555 18.7383 30.482 19.812 34.345C21.6098 40.8189 25.0893 44.9096 30.1542 46.5093C35.9086 44.2531 39.6599 39.9383 41.3037 33.6815C42.2782 29.972 42.1897 26.6216 42.0985 25.2822L33.0292 25.3175L29.6187 22.0192L26.6419 25.479L18.6091 25.3925Z" fill="white"/>
</mask>
<g mask="url(#mask2_347_7)">
<path d="M43.5714 19.9624H17.1919V47.9996H43.5714V19.9624Z" fill="#3D4451"/>
</g>
<mask id="mask3_347_7" style="mask-type:luminance" maskUnits="userSpaceOnUse" x="17" y="19" width="27" height="29">
<path d="M30.2073 47.9996L29.9772 47.9308C24.3608 46.257 20.3705 41.6766 18.4382 34.6865C16.9998 29.484 17.1964 24.8428 17.2061 24.6478L17.238 23.9684L25.9975 24.0619L29.5248 19.9624L33.601 23.9048L43.3687 23.8669L43.4484 24.4845C43.4714 24.6645 44.0007 28.9476 42.6863 33.992C40.931 40.7254 36.6937 45.5396 30.433 47.9149L30.2073 47.9996ZM18.6091 25.3925C18.6108 26.8555 18.7383 30.482 19.812 34.345C21.6098 40.8189 25.0893 44.9096 30.1542 46.5093C35.9086 44.2531 39.6599 39.9383 41.3037 33.6815C42.2782 29.972 42.1897 26.6216 42.0985 25.2822L33.0292 25.3175L29.6187 22.0192L26.6419 25.479L18.6091 25.3925Z" fill="white"/>
</mask>
<g mask="url(#mask3_347_7)">
<path d="M43.9988 19.9624H43.5713V47.9996H43.9988V19.9624Z" fill="#3D4451"/>
</g>
<path d="M33.9084 33.6074H26.8899C26.3482 33.6074 25.9092 34.0036 25.9092 34.4933V39.5158C25.9092 40.0046 26.3482 40.4017 26.8899 40.4017H33.9084C34.4501 40.4017 34.8891 40.0055 34.8891 39.5158V34.4933C34.8891 34.0045 34.4501 33.6074 33.9084 33.6074ZM31.1989 38.9899H29.8048L30.0907 37.1325C30.0916 37.1281 29.9428 37.0301 29.9278 37.016C29.5348 36.6666 29.649 36.0745 30.1022 35.8398C30.2279 35.7745 30.3695 35.741 30.5111 35.741C30.8493 35.741 31.1883 35.9325 31.2963 36.2642C31.4219 36.6516 31.1865 36.9639 30.8749 37.166L31.1989 38.9899Z" fill="#3D4451"/>
<path d="M33.6747 34.5337H32.4355V31.4454C32.4355 30.3266 31.522 29.416 30.3996 29.416C29.2772 29.416 28.3637 30.3266 28.3637 31.4454V34.5337H27.1245V31.4454C27.1245 29.6454 28.5939 28.1807 30.3996 28.1807C32.2053 28.1807 33.6747 29.6454 33.6747 31.4454V34.5337Z" fill="#3D4451"/>
<path d="M42.0135 15.3107L41.2062 16.1146C38.5507 13.4877 34.2781 13.478 31.6111 16.0872L30.8047 15.2834C33.9178 12.2295 38.911 12.2392 42.0135 15.3107Z" fill="#3D4451"/>
<path d="M40.4031 16.9158L39.5967 17.7197C37.83 15.9779 34.9992 15.9691 33.2209 17.6923L32.4146 16.8885C34.639 14.7205 38.1902 14.7302 40.4031 16.9158Z" fill="#3D4451"/>
<path d="M38.7933 18.521L37.987 19.3257C37.1115 18.4724 35.7174 18.4636 34.8323 19.2983L34.0259 18.4945C35.358 17.2151 37.4727 17.2239 38.7933 18.521Z" fill="#3D4451"/>
<path d="M35.7544 20.1407C35.7544 19.7799 36.0474 19.4878 36.4094 19.4878C36.7714 19.4878 37.0644 19.7799 37.0644 20.1407C37.0644 20.5016 36.7714 20.7937 36.4094 20.7937C36.0474 20.7937 35.7544 20.5008 35.7544 20.1407Z" fill="#3D4451"/>
</g>
<defs>
<clipPath id="clip0_347_7">
<rect width="27" height="35" fill="white" transform="translate(17 13)"/>
</clipPath>
</defs>
</svg>
