<svg width="60" height="60" viewBox="0 0 60 60" fill="none" xmlns="http://www.w3.org/2000/svg">
<circle cx="30" cy="30" r="30" fill="#F3F3F3"/>
<g clip-path="url(#clip0_347_2)">
<mask id="mask0_347_2" style="mask-type:luminance" maskUnits="userSpaceOnUse" x="18" y="19" width="23" height="24">
<path d="M29.3808 42.0005C35.5367 42.0005 40.5454 36.9084 40.5454 30.6502C40.5454 24.391 35.5367 19.2998 29.3808 19.2998C23.2248 19.2998 18.2161 24.3919 18.2161 30.6502C18.2161 36.9084 23.2239 42.0005 29.3808 42.0005ZM29.3808 19.9873C35.1641 19.9873 39.8686 24.7701 39.8686 30.6492C39.8686 36.5284 35.1641 41.3112 29.3808 41.3112C23.5974 41.3112 18.8929 36.5284 18.8929 30.6492C18.8929 24.771 23.5974 19.9873 29.3808 19.9873Z" fill="white"/>
</mask>
<g mask="url(#mask0_347_2)">
<path d="M19.406 19.9873L18.8929 23.5298V41.3121H39.3555L39.8687 37.7696V19.9873H19.406Z" fill="#3D4451"/>
</g>
<mask id="mask1_347_2" style="mask-type:luminance" maskUnits="userSpaceOnUse" x="18" y="19" width="23" height="24">
<path d="M29.3808 42.0005C35.5367 42.0005 40.5454 36.9084 40.5454 30.6502C40.5454 24.391 35.5367 19.2998 29.3808 19.2998C23.2248 19.2998 18.2161 24.3919 18.2161 30.6502C18.2161 36.9084 23.2239 42.0005 29.3808 42.0005ZM29.3808 19.9873C35.1641 19.9873 39.8686 24.7701 39.8686 30.6492C39.8686 36.5284 35.1641 41.3112 29.3808 41.3112C23.5974 41.3112 18.8929 36.5284 18.8929 30.6492C18.8929 24.771 23.5974 19.9873 29.3808 19.9873Z" fill="white"/>
</mask>
<g mask="url(#mask1_347_2)">
<path d="M18.7737 19.2988L18.2161 23.1507V42.0004H39.9869L40.5454 38.1494V19.2988H18.7737Z" fill="#3D4451"/>
</g>
<mask id="mask2_347_2" style="mask-type:luminance" maskUnits="userSpaceOnUse" x="29" y="19" width="5" height="23">
<path d="M29.9749 41.8352C30.0816 41.8352 30.1866 41.7836 30.2524 41.6886C34.0854 36.1179 33.9867 30.4676 33.2299 26.7089C32.4108 22.6453 30.7131 19.9341 30.641 19.8211C30.5396 19.6619 30.3306 19.6157 30.1732 19.7179C30.0158 19.8211 29.9714 20.0337 30.0719 20.1938C30.0887 20.2209 31.7811 22.9285 32.5709 26.8717C33.2957 30.492 33.3855 35.9325 29.6974 41.2933C29.5898 41.4489 29.6272 41.6633 29.781 41.7727C29.8406 41.8152 29.9082 41.8352 29.9749 41.8352Z" fill="white"/>
</mask>
<g mask="url(#mask2_347_2)">
<path d="M29.8522 19.6157L29.5908 21.4195V41.8352H33.4362L34.0854 37.3582V19.6157H29.8522Z" fill="#3D4451"/>
</g>
<mask id="mask3_347_2" style="mask-type:luminance" maskUnits="userSpaceOnUse" x="31" y="19" width="7" height="23">
<path d="M32.6827 41.3183C32.7262 41.3183 32.7689 41.3011 32.8027 41.2676C36.3031 37.7088 37.9351 33.9944 37.6522 30.2294C37.1907 24.0824 31.6857 19.9094 31.6297 19.8678C31.5541 19.8117 31.4483 19.828 31.3931 19.9049C31.338 19.9818 31.354 20.0894 31.4296 20.1455C31.4838 20.1862 36.867 24.2697 37.3152 30.2583C37.5891 33.9185 35.9901 37.5406 32.5635 41.0252C32.4977 41.0921 32.4977 41.2016 32.5635 41.2685C32.5955 41.302 32.6391 41.3183 32.6827 41.3183Z" fill="white"/>
</mask>
<g mask="url(#mask3_347_2)">
<path d="M37.0528 41.3182L37.9341 35.2355V19.8125H31.3379V41.3182H37.0528Z" fill="#3D4451"/>
</g>
<mask id="mask4_347_2" style="mask-type:luminance" maskUnits="userSpaceOnUse" x="25" y="19" width="6" height="23">
<path d="M28.2832 41.8349C28.3508 41.8349 28.4193 41.8141 28.4789 41.7716C28.6309 41.6612 28.6674 41.4468 28.5589 41.2912C25.5414 36.9689 24.902 32.0613 26.6593 26.7059C27.9782 22.6849 30.2291 19.9086 30.2513 19.8805C30.3705 19.7349 30.3518 19.5178 30.2077 19.3956C30.0645 19.2744 29.8511 19.2934 29.731 19.4391C29.6359 19.5549 27.3859 22.3275 26.0234 26.4653C24.7597 30.3036 24.0776 36.0607 28.0066 41.6884C28.0733 41.7843 28.1774 41.8349 28.2832 41.8349Z" fill="white"/>
</mask>
<g mask="url(#mask4_347_2)">
<path d="M26.1792 19.2754L24.0786 33.7693V41.835H28.7903L30.3706 30.9306V19.2754H26.1792Z" fill="#3D4451"/>
</g>
<mask id="mask5_347_2" style="mask-type:luminance" maskUnits="userSpaceOnUse" x="21" y="19" width="8" height="23">
<path d="M26.6406 41.3392C26.6886 41.3392 26.7366 41.3184 26.7704 41.2776C26.8309 41.2053 26.8211 41.0958 26.75 41.0352C23.1891 37.9957 21.4371 34.6947 21.5429 31.2227C21.7332 24.9537 27.9737 20.1926 28.0368 20.1447C28.1124 20.0886 28.1275 19.98 28.0724 19.904C28.0173 19.828 27.9105 19.8118 27.8358 19.8679C27.7718 19.9158 21.4006 24.7773 21.205 31.2119C21.0965 34.7942 22.8885 38.1874 26.5321 41.2985C26.5641 41.3256 26.6023 41.3392 26.6406 41.3392Z" fill="white"/>
</mask>
<g mask="url(#mask5_347_2)">
<path d="M21.9405 19.8125L21.0956 25.6392V41.339H26.991L28.1284 33.4923V19.8125H21.9405Z" fill="#3D4451"/>
</g>
<mask id="mask6_347_2" style="mask-type:luminance" maskUnits="userSpaceOnUse" x="18" y="30" width="23" height="4">
<path d="M29.0932 33.4099C32.1747 33.4099 35.9526 32.9467 40.2347 31.4957C40.4117 31.436 40.5078 31.2406 40.4491 31.0606C40.3904 30.8806 40.1983 30.7829 40.0213 30.8426C27.1331 35.2101 18.7165 30.5721 18.6338 30.525C18.4702 30.4328 18.2647 30.4916 18.1731 30.658C18.0824 30.8236 18.1402 31.0334 18.303 31.1257C18.391 31.1764 20.5129 32.3669 24.2926 33.0137C25.6053 33.238 27.2203 33.4099 29.0932 33.4099Z" fill="white"/>
</mask>
<g mask="url(#mask6_347_2)">
<path d="M40.1129 35.2099L40.5078 32.4806V30.4316H18.0816V35.2099H40.1129Z" fill="#3D4451"/>
</g>
<mask id="mask7_347_2" style="mask-type:luminance" maskUnits="userSpaceOnUse" x="23" y="21" width="13" height="2">
<path d="M29.7826 22.6434C32.9726 22.6434 35.4983 21.7822 35.5392 21.7677C35.6273 21.737 35.6744 21.6393 35.6442 21.5488C35.6139 21.4593 35.517 21.4113 35.4289 21.4421C35.3658 21.4638 29.0871 23.6023 23.8961 21.0477C23.8116 21.007 23.7111 21.0422 23.6702 21.1273C23.6293 21.2132 23.6649 21.3154 23.7485 21.357C25.737 22.3368 27.8785 22.6434 29.7826 22.6434Z" fill="white"/>
</mask>
<g mask="url(#mask7_347_2)">
<path d="M35.5694 23.6023L35.6743 22.8804V21.0078H23.6292V23.6023H35.5694Z" fill="#3D4451"/>
</g>
<mask id="mask8_347_2" style="mask-type:luminance" maskUnits="userSpaceOnUse" x="19" y="26" width="21" height="3">
<path d="M29.2499 28.6927C32.1678 28.6927 35.6949 28.2765 39.7947 27.0716C39.8846 27.0453 39.9361 26.9494 39.9104 26.8581C39.8846 26.7667 39.7903 26.7142 39.7005 26.7405C26.6762 30.5689 19.5171 26.3696 19.446 26.3271C19.3659 26.2782 19.2619 26.3054 19.2138 26.3868C19.1658 26.4682 19.1925 26.574 19.2725 26.6229C19.3232 26.6536 22.7907 28.6927 29.2499 28.6927Z" fill="white"/>
</mask>
<g mask="url(#mask8_347_2)">
<path d="M39.592 30.5699L39.937 28.1908V26.2793H19.1676V30.5699H39.592Z" fill="#3D4451"/>
</g>
<mask id="mask9_347_2" style="mask-type:luminance" maskUnits="userSpaceOnUse" x="19" y="34" width="21" height="4">
<path d="M29.7606 37.7227C35.1366 37.7227 38.9927 35.9243 39.0532 35.8953C39.1377 35.8546 39.1742 35.7524 39.1341 35.6665C39.0941 35.5805 38.9936 35.5434 38.9091 35.5841C38.8158 35.6294 29.436 39.9969 19.5511 34.9455C19.4675 34.903 19.3661 34.9373 19.3243 35.0224C19.2825 35.1074 19.3163 35.2105 19.3999 35.253C23.0666 37.1265 26.6657 37.7227 29.7606 37.7227Z" fill="white"/>
</mask>
<g mask="url(#mask9_347_2)">
<path d="M38.7394 39.9959L39.1743 36.9925V34.9028H19.2827V39.9959H38.7394Z" fill="#3D4451"/>
</g>
<mask id="mask10_347_2" style="mask-type:luminance" maskUnits="userSpaceOnUse" x="17" y="18" width="25" height="25">
<path d="M29.3806 42.5107C35.8132 42.5107 41.0469 37.1897 41.0469 30.6501C41.0469 24.1097 35.8132 18.7896 29.3806 18.7896C22.9481 18.7896 17.7144 24.1106 17.7144 30.6501C17.7135 37.1897 22.9472 42.5107 29.3806 42.5107ZM29.3806 19.5087C35.4236 19.5087 40.3399 24.5068 40.3399 30.6501C40.3399 36.7934 35.4236 41.7915 29.3806 41.7915C23.3376 41.7915 18.4214 36.7934 18.4214 30.6501C18.4214 24.5068 23.3376 19.5087 29.3806 19.5087Z" fill="white"/>
</mask>
<g mask="url(#mask10_347_2)">
<path d="M18.9657 19.5088L18.4214 23.2657V41.7915H39.7956L40.3398 38.0337V19.5088H18.9657Z" fill="#3D4451"/>
</g>
<mask id="mask11_347_2" style="mask-type:luminance" maskUnits="userSpaceOnUse" x="17" y="18" width="25" height="25">
<path d="M29.3806 42.5107C35.8132 42.5107 41.0469 37.1897 41.0469 30.6501C41.0469 24.1097 35.8132 18.7896 29.3806 18.7896C22.9481 18.7896 17.7144 24.1106 17.7144 30.6501C17.7135 37.1897 22.9472 42.5107 29.3806 42.5107ZM29.3806 19.5087C35.4236 19.5087 40.3399 24.5068 40.3399 30.6501C40.3399 36.7934 35.4236 41.7915 29.3806 41.7915C23.3376 41.7915 18.4214 36.7934 18.4214 30.6501C18.4214 24.5068 23.3376 19.5087 29.3806 19.5087Z" fill="white"/>
</mask>
<g mask="url(#mask11_347_2)">
<path d="M18.3049 18.7896L17.7135 22.8694V42.5107H40.4555L41.0469 38.4308V18.7896H18.3049Z" fill="#3D4451"/>
</g>
<mask id="mask12_347_2" style="mask-type:luminance" maskUnits="userSpaceOnUse" x="27" y="13" width="4" height="5">
<path d="M29.3074 17.3532C30.2261 17.3532 30.9731 16.5933 30.9731 15.6598C30.9731 14.7262 30.2261 13.9663 29.3074 13.9663C28.3888 13.9663 27.6417 14.7262 27.6417 15.6598C27.6417 16.5933 28.3888 17.3532 29.3074 17.3532ZM29.3074 14.8556C29.7441 14.8556 30.0989 15.2165 30.0989 15.6598C30.0989 16.103 29.7441 16.464 29.3074 16.464C28.8708 16.464 28.5159 16.103 28.5159 15.6598C28.5159 15.2165 28.8708 14.8556 29.3074 14.8556Z" fill="white"/>
</mask>
<g mask="url(#mask12_347_2)">
<path d="M28.5161 14.8555H30.0991V16.4648H28.5161V14.8555Z" fill="#3D4451"/>
</g>
<mask id="mask13_347_2" style="mask-type:luminance" maskUnits="userSpaceOnUse" x="27" y="13" width="4" height="5">
<path d="M29.3074 17.3532C30.2261 17.3532 30.9731 16.5933 30.9731 15.6598C30.9731 14.7262 30.2261 13.9663 29.3074 13.9663C28.3888 13.9663 27.6417 14.7262 27.6417 15.6598C27.6417 16.5933 28.3888 17.3532 29.3074 17.3532ZM29.3074 14.8556C29.7441 14.8556 30.0989 15.2165 30.0989 15.6598C30.0989 16.103 29.7441 16.464 29.3074 16.464C28.8708 16.464 28.5159 16.103 28.5159 15.6598C28.5159 15.2165 28.8708 14.8556 29.3074 14.8556Z" fill="white"/>
</mask>
<g mask="url(#mask13_347_2)">
<path d="M27.6417 13.9663H30.9731V17.3532H27.6417V13.9663Z" fill="#3D4451"/>
</g>
<mask id="mask14_347_2" style="mask-type:luminance" maskUnits="userSpaceOnUse" x="13" y="30" width="3" height="4">
<path d="M13.0652 30.7896H15.3384V33.1H13.0652V30.7896Z" fill="white"/>
</mask>
<g mask="url(#mask14_347_2)">
<path d="M13.0652 30.7896H15.3384V33.1H13.0652V30.7896Z" fill="#3D4451"/>
</g>
<mask id="mask15_347_2" style="mask-type:luminance" maskUnits="userSpaceOnUse" x="12" y="30" width="4" height="4">
<path d="M12.9996 33.1679H15.4053V30.7227H12.9996V33.1679ZM15.2728 33.0331H13.1321V30.8574H15.2728V33.0331Z" fill="white"/>
</mask>
<g mask="url(#mask15_347_2)">
<path d="M13.1323 30.8574H15.2729V33.033H13.1323V30.8574Z" fill="#3D4451"/>
</g>
<mask id="mask16_347_2" style="mask-type:luminance" maskUnits="userSpaceOnUse" x="12" y="30" width="4" height="4">
<path d="M12.9996 33.1679H15.4053V30.7227H12.9996V33.1679ZM15.2728 33.0331H13.1321V30.8574H15.2728V33.0331Z" fill="white"/>
</mask>
<g mask="url(#mask16_347_2)">
<path d="M12.9996 30.7227H15.4053V33.1679H12.9996V30.7227Z" fill="#3D4451"/>
</g>
<mask id="mask17_347_2" style="mask-type:luminance" maskUnits="userSpaceOnUse" x="13" y="15" width="16" height="15">
<path d="M13.6516 29.9636H14.6183C14.6183 22.3005 20.7511 16.0649 28.2891 16.0649V15.0825C20.2184 15.0825 13.6516 21.7578 13.6516 29.9636Z" fill="white"/>
</mask>
<g mask="url(#mask17_347_2)">
<path d="M14.4396 15.0825L13.6517 20.5175V29.9636H26.4554L28.29 17.3061V15.0825H14.4396Z" fill="#3D4451"/>
</g>
<mask id="mask18_347_2" style="mask-type:luminance" maskUnits="userSpaceOnUse" x="28" y="44" width="4" height="4">
<path d="M29.7039 47.9997C30.6226 47.9997 31.3696 47.2398 31.3696 46.3063C31.3696 45.3727 30.6226 44.6128 29.7039 44.6128C28.7852 44.6128 28.0382 45.3727 28.0382 46.3063C28.0382 47.2398 28.7852 47.9997 29.7039 47.9997ZM29.7039 45.5011C30.1406 45.5011 30.4954 45.8621 30.4954 46.3054C30.4954 46.7486 30.1406 47.1096 29.7039 47.1096C29.2673 47.1096 28.9124 46.7486 28.9124 46.3054C28.9124 45.8621 29.2673 45.5011 29.7039 45.5011Z" fill="white"/>
</mask>
<g mask="url(#mask18_347_2)">
<path d="M28.9126 45.501H30.4956V47.1103H28.9126V45.501Z" fill="#3D4451"/>
</g>
<mask id="mask19_347_2" style="mask-type:luminance" maskUnits="userSpaceOnUse" x="28" y="44" width="4" height="4">
<path d="M29.7039 47.9997C30.6226 47.9997 31.3696 47.2398 31.3696 46.3063C31.3696 45.3727 30.6226 44.6128 29.7039 44.6128C28.7852 44.6128 28.0382 45.3727 28.0382 46.3063C28.0382 47.2398 28.7852 47.9997 29.7039 47.9997ZM29.7039 45.5011C30.1406 45.5011 30.4954 45.8621 30.4954 46.3054C30.4954 46.7486 30.1406 47.1096 29.7039 47.1096C29.2673 47.1096 28.9124 46.7486 28.9124 46.3054C28.9124 45.8621 29.2673 45.5011 29.7039 45.5011Z" fill="white"/>
</mask>
<g mask="url(#mask19_347_2)">
<path d="M28.0382 44.6128H31.3696V47.9997H28.0382V44.6128Z" fill="#3D4451"/>
</g>
<mask id="mask20_347_2" style="mask-type:luminance" maskUnits="userSpaceOnUse" x="43" y="28" width="3" height="4">
<path d="M45.9455 31.1763H43.6724V28.8659H45.9455V31.1763Z" fill="white"/>
</mask>
<g mask="url(#mask20_347_2)">
<path d="M43.6717 28.8652H45.9448V31.1756H43.6717V28.8652Z" fill="#3D4451"/>
</g>
<mask id="mask21_347_2" style="mask-type:luminance" maskUnits="userSpaceOnUse" x="43" y="28" width="4" height="4">
<path d="M43.6061 31.2435H46.0117V28.7983H43.6061V31.2435ZM45.8792 31.1088H43.7386V28.9331H45.8792V31.1088Z" fill="white"/>
</mask>
<g mask="url(#mask21_347_2)">
<path d="M43.7388 28.9331H45.8794V31.1087H43.7388V28.9331Z" fill="#3D4451"/>
</g>
<mask id="mask22_347_2" style="mask-type:luminance" maskUnits="userSpaceOnUse" x="43" y="28" width="4" height="4">
<path d="M43.6061 31.2435H46.0117V28.7983H43.6061V31.2435ZM45.8792 31.1088H43.7386V28.9331H45.8792V31.1088Z" fill="white"/>
</mask>
<g mask="url(#mask22_347_2)">
<path d="M43.6061 28.7983H46.0117V31.2435H43.6061V28.7983Z" fill="#3D4451"/>
</g>
<mask id="mask23_347_2" style="mask-type:luminance" maskUnits="userSpaceOnUse" x="30" y="32" width="16" height="15">
<path d="M30.7215 46.8835C38.793 46.8835 45.3599 40.2073 45.3599 32.0015H44.3932C44.3932 39.6655 38.2603 45.9001 30.7224 45.9001V46.8835H30.7215Z" fill="white"/>
</mask>
<g mask="url(#mask23_347_2)">
<path d="M32.5562 32.0015L30.7215 44.659V46.8835H44.5719L45.3599 41.4485V32.0015H32.5562Z" fill="#3D4451"/>
</g>
<mask id="mask24_347_2" style="mask-type:luminance" maskUnits="userSpaceOnUse" x="32" y="27" width="3" height="3">
<path d="M33.3574 29.7924C32.6098 29.7913 32.0047 29.1744 32.0058 28.4145C32.0069 27.6545 32.6137 27.0394 33.3613 27.0405C34.1088 27.0416 34.714 27.6585 34.7129 28.4184C34.7118 29.1783 34.1049 29.7935 33.3574 29.7924Z" fill="white"/>
</mask>
<g mask="url(#mask24_347_2)">
<path d="M32.0058 27.0405H34.7129V29.7933H32.0058V27.0405Z" fill="#3D4451"/>
</g>
<mask id="mask25_347_2" style="mask-type:luminance" maskUnits="userSpaceOnUse" x="21" y="26" width="2" height="3">
<path d="M21.5141 27.3868C21.5131 27.0066 21.8152 26.6975 22.189 26.6964C22.5628 26.6953 22.8666 27.0027 22.8677 27.3829C22.8688 27.7631 22.5666 28.0722 22.1929 28.0733C21.8191 28.0743 21.5152 27.767 21.5141 27.3868Z" fill="white"/>
</mask>
<g mask="url(#mask25_347_2)">
<path d="M21.5146 26.6958H22.8682V28.0717H21.5146V26.6958Z" fill="#3D4451"/>
</g>
<mask id="mask26_347_2" style="mask-type:luminance" maskUnits="userSpaceOnUse" x="35" y="35" width="2" height="3">
<path d="M35.3896 36.6759C35.3886 36.2957 35.6907 35.9866 36.0645 35.9855C36.4382 35.9844 36.7421 36.2917 36.7432 36.6719C36.7443 37.0521 36.4421 37.3612 36.0683 37.3623C35.6946 37.3634 35.3907 37.0561 35.3896 36.6759Z" fill="white"/>
</mask>
<g mask="url(#mask26_347_2)">
<path d="M35.3896 35.9854H36.7432V37.3613H35.3896V35.9854Z" fill="#3D4451"/>
</g>
<mask id="mask27_347_2" style="mask-type:luminance" maskUnits="userSpaceOnUse" x="25" y="36" width="3" height="3">
<path d="M26.252 38.3944C25.6911 38.3944 25.2363 37.9323 25.2363 37.3623C25.2363 36.7922 25.6911 36.3301 26.252 36.3301C26.8129 36.3301 27.2676 36.7922 27.2676 37.3623C27.2676 37.9323 26.8129 38.3944 26.252 38.3944Z" fill="white"/>
</mask>
<g mask="url(#mask27_347_2)">
<path d="M25.2372 36.3301H27.2676V38.3944H25.2372V36.3301Z" fill="#3D4451"/>
</g>
<path d="M37.4459 13L37.4521 14.3895C41.9326 14.3877 45.5735 18.0442 45.634 22.5963L47 22.5909C46.9369 17.2707 42.6823 12.9955 37.4459 13Z" fill="#3D4451"/>
<path d="M37.4575 15.7734L37.4629 17.162C40.4386 17.1666 42.8531 19.5873 42.9073 22.607L44.2725 22.6016C44.2155 18.8139 41.1883 15.7743 37.4575 15.7734Z" fill="#3D4451"/>
<path d="M37.4692 18.5474L37.4745 19.9369C38.9402 19.9477 40.1336 21.1355 40.1808 22.6191L41.5459 22.6137C41.4943 20.3611 39.689 18.5546 37.4692 18.5474Z" fill="#3D4451"/>
</g>
<defs>
<clipPath id="clip0_347_2">
<rect width="34" height="35" fill="white" transform="matrix(-1 0 0 1 47 13)"/>
</clipPath>
</defs>
</svg>
