<svg width="60" height="60" viewBox="0 0 60 60" fill="none" xmlns="http://www.w3.org/2000/svg">
<circle cx="30" cy="30" r="30" fill="#F3F3F3"/>
<g clip-path="url(#clip0_347_6)">
<path d="M42.602 45.0002H17.398C12.7678 45.0002 9 41.5962 9 37.4132C9 33.4672 12.3524 30.2151 16.6188 29.8589C16.6101 29.6863 16.6068 29.5191 16.6068 29.3464C16.6068 23.3319 21.5121 18.4385 27.5419 18.4385C32.1129 18.4385 36.2106 21.3146 37.7898 25.5316C38.2742 25.3906 38.7761 25.3196 39.289 25.3196C42.0387 25.3196 44.3039 27.3532 44.6952 30.0545C48.384 30.9036 51 33.912 51 37.4088C51 41.5951 47.2333 45.0002 42.602 45.0002ZM17.398 31.403C13.639 31.403 10.5803 34.0988 10.5803 37.4132C10.5803 40.7275 13.639 43.4233 17.398 43.4233H42.6031C46.3621 43.4233 49.4208 40.7253 49.4208 37.4088C49.4208 34.4999 47.0722 32.0116 43.8371 31.4915L43.1949 31.3888L43.1729 30.7408C43.0995 28.5848 41.3932 26.8953 39.289 26.8953C38.7137 26.8953 38.1591 27.0221 37.6418 27.2713L36.7958 27.6778L36.5383 26.7773C35.3985 22.7953 31.6998 20.0142 27.5419 20.0142C22.3834 20.0142 18.1871 24.2006 18.1871 29.3464C18.1871 29.7168 18.209 30.0698 18.2605 30.5255L18.3602 31.4019H17.398V31.403Z" fill="#3D4451"/>
<path d="M34.6227 34.1075L31.7744 30.8347L28.9261 27.4526L26.0778 30.8347L23.2295 34.1075H26.1633V40.0707C26.1633 40.4707 26.4888 40.7952 26.8899 40.7952H30.9623C31.3634 40.7952 31.6889 40.4707 31.6889 40.0707V34.1075H34.6227Z" fill="#3D4451"/>
<path d="M45.5708 21.6795C45.5401 21.6795 45.5105 21.6784 45.4798 21.6752C44.9987 21.626 44.648 21.1965 44.6973 20.7157C45.0338 17.4648 43.3975 14.346 40.5284 12.7681C37.793 11.2644 34.4998 11.4371 31.9353 13.2194C31.5386 13.4959 30.9917 13.3986 30.7145 13.0019C30.4372 12.6064 30.5347 12.0611 30.9326 11.7846C34.0494 9.61875 38.0506 9.40785 41.3745 11.236C44.8617 13.1527 46.8508 16.9446 46.442 20.8938C46.3949 21.3452 46.0146 21.6795 45.5708 21.6795Z" fill="#3D4451"/>
<path d="M42.3544 21.368C42.3357 21.368 42.3171 21.3669 42.2985 21.3659C41.9368 21.3353 41.6683 21.0184 41.6979 20.6577C41.8656 18.6678 40.7839 16.7282 38.9417 15.7152C37.1849 14.7492 35.1027 14.8071 33.5081 15.8671C33.2056 16.0682 32.798 15.9862 32.5963 15.6846C32.3947 15.383 32.4769 14.9765 32.7793 14.7754C34.7838 13.4433 37.3888 13.3636 39.5773 14.5667C41.8733 15.8288 43.2212 18.2624 43.0097 20.767C42.9801 21.1091 42.6919 21.368 42.3544 21.368Z" fill="#3D4451"/>
<path d="M38.9536 21.2871C38.9339 21.2871 38.9141 21.286 38.8944 21.2849C38.5328 21.2521 38.2654 20.9341 38.2982 20.5735C38.364 19.8435 37.9727 19.1332 37.3009 18.7639C36.6609 18.412 35.9004 18.4372 35.3173 18.8295C35.016 19.0327 34.6072 18.9529 34.4044 18.6535C34.2006 18.353 34.2806 17.9454 34.5809 17.7432C35.5749 17.0734 36.8604 17.0242 37.9355 17.6154C39.0632 18.235 39.7196 19.4425 39.6068 20.6904C39.5772 21.0303 39.29 21.2871 38.9536 21.2871Z" fill="#3D4451"/>
</g>
<defs>
<clipPath id="clip0_347_6">
<rect width="42" height="35" fill="white" transform="translate(9 10)"/>
</clipPath>
</defs>
</svg>
