<svg width="60" height="60" viewBox="0 0 60 60" fill="none" xmlns="http://www.w3.org/2000/svg">
<circle cx="30" cy="30" r="30" fill="#F3F3F3"/>
<g clip-path="url(#clip0_347_5)">
<path d="M44.9024 24.8299H17.0976C15.9404 24.8299 15 23.8777 15 22.709V19.1209C15 17.9508 15.9404 17 17.0976 17H44.9024C46.0596 17 47 17.9508 47 19.1209V22.709C47 23.8777 46.0596 24.8299 44.9024 24.8299ZM17.0976 18.1516C16.5687 18.1516 16.1389 18.586 16.1389 19.1209V22.709C16.1389 23.2438 16.5687 23.6783 17.0976 23.6783H44.9024C45.4313 23.6783 45.8611 23.2438 45.8611 22.709V19.1209C45.8611 18.586 45.4313 18.1516 44.9024 18.1516H17.0976Z" fill="#3D4451"/>
<path d="M33.5718 28.2387C32.8403 27.7553 31.7771 27.5044 30.7244 27.5691C29.366 27.6536 27.2109 28.4249 27.2109 30.1364V38.3426C28.4073 38.7269 29.6808 38.9343 31 38.9343C32.3884 38.9343 33.7246 38.7045 34.9745 38.2806V30.2262C34.9745 29.2687 33.9936 28.5173 33.5718 28.2387ZM31.0575 36.7473C29.4849 36.7473 28.2101 35.4584 28.2101 33.8684C28.2101 32.2784 29.4849 30.9895 31.0575 30.9895C32.63 30.9895 33.9048 32.2784 33.9048 33.8684C33.9035 35.4584 32.6287 36.7473 31.0575 36.7473Z" fill="#3D4451"/>
<path d="M18.3018 25.8667C18.3018 31.4991 21.7643 36.2995 26.6178 38.1364V30.1362C26.6178 27.9995 29.0525 27.0724 30.6877 26.972C31.8606 26.8994 33.0609 27.1847 33.8956 27.738C34.5199 28.15 35.5661 29.0229 35.5661 30.2287V38.0651C40.3217 36.178 43.6967 31.4291 43.6967 25.868H18.3018V25.8667Z" fill="#3D4451"/>
<path d="M31.7115 36.6685C33.2419 36.3031 34.1896 34.7525 33.8282 33.2052C33.4669 31.6578 31.9333 30.6996 30.4029 31.065C28.8725 31.4304 27.9248 32.981 28.2862 34.5283C28.6475 36.0757 30.1811 37.0339 31.7115 36.6685Z" fill="#F4F4F4"/>
<path d="M31.1948 52.0002C27.1223 52.0002 23.46 49.5598 21.8547 45.7723C21.6836 45.3682 21.8691 44.902 22.2675 44.729C22.6658 44.556 23.1282 44.7435 23.2993 45.1463C24.6551 48.3474 27.7519 50.4115 31.1935 50.4115C31.204 50.4115 31.2157 50.4115 31.2275 50.4115C34.5215 50.3983 37.4668 48.5297 38.9127 45.5359C39.1034 45.141 39.5736 44.9786 39.9641 45.1701C40.3547 45.3629 40.5166 45.8383 40.3259 46.2331C38.6149 49.7763 35.1302 51.9857 31.234 52.0016C31.2209 52.0002 31.2079 52.0002 31.1948 52.0002Z" fill="#3D4451"/>
<path d="M31.1529 48.0472C28.4766 48.0472 26.0655 46.518 25.0076 44.1462C24.873 43.8464 25.0063 43.4925 25.3027 43.3578C25.5992 43.2217 25.9493 43.3564 26.0825 43.6562C26.9511 45.6015 28.939 46.8547 31.1529 46.8547C31.1607 46.8547 31.1685 46.8547 31.1751 46.8547C33.2949 46.8468 35.1875 45.7098 36.1148 43.8886C36.2637 43.5955 36.6203 43.4806 36.909 43.6311C37.1989 43.7817 37.3125 44.1409 37.1636 44.4341C36.0339 46.6527 33.7416 48.0367 31.1803 48.0472C31.1712 48.0472 31.162 48.0472 31.1529 48.0472Z" fill="#3D4451"/>
<path d="M31.1125 44.4026C29.8168 44.4026 28.6492 43.6499 28.1359 42.4811C28.0039 42.18 28.1372 41.8274 28.435 41.694C28.7328 41.5607 29.0802 41.6954 29.2134 41.9965C29.5373 42.7347 30.2831 43.2101 31.1125 43.2101C31.1151 43.2101 31.1177 43.2101 31.1217 43.2101C31.9171 43.2075 32.6263 42.7756 32.9724 42.0849C33.1187 41.7918 33.474 41.6729 33.7652 41.8221C34.0552 41.9714 34.1714 42.3292 34.0252 42.6237C33.4779 43.7159 32.3677 44.3973 31.1269 44.4026C31.1203 44.4026 31.1164 44.4026 31.1125 44.4026Z" fill="#3D4451"/>
<path d="M31.0575 35.3646C31.8748 35.3646 32.5373 34.6947 32.5373 33.8683C32.5373 33.042 31.8748 32.3721 31.0575 32.3721C30.2402 32.3721 29.5776 33.042 29.5776 33.8683C29.5776 34.6947 30.2402 35.3646 31.0575 35.3646Z" fill="#3D4451"/>
<path d="M45.8611 20.2818H15.7968C15.6087 20.2818 15.4546 20.1273 15.4546 19.9358C15.4546 19.7444 15.6074 19.5898 15.7968 19.5898H45.8611C46.0492 19.5898 46.2033 19.7444 46.2033 19.9358C46.2033 20.1273 46.0505 20.2818 45.8611 20.2818Z" fill="#3D4451"/>
</g>
<defs>
<clipPath id="clip0_347_5">
<rect width="32" height="35" fill="white" transform="translate(15 17)"/>
</clipPath>
</defs>
</svg>
