<svg width="60" height="60" viewBox="0 0 60 60" fill="none" xmlns="http://www.w3.org/2000/svg">
<circle cx="30" cy="30" r="30" fill="#F3F3F3"/>
<g clip-path="url(#clip0_347_10)">
<path d="M9.13002 32.8559C8.82376 32.8559 8.51864 32.7323 8.29601 32.4874C7.87449 32.0259 7.90613 31.3081 8.36721 30.8851L29.7033 11.2969C30.1338 10.9023 30.7927 10.9 31.2244 11.2924L51.6281 29.8271C52.0903 30.2478 52.1265 30.9645 51.7072 31.4283C51.288 31.8921 50.5738 31.9284 50.1115 31.5077L30.4706 13.6669L9.89283 32.5588C9.67585 32.7573 9.40237 32.8559 9.13002 32.8559Z" fill="#3D4451"/>
<path d="M30.1777 45.9996H18.8791C17.4518 45.9996 16.29 44.8339 16.29 43.4017V30.8565C16.29 30.3916 16.6652 30.0151 17.1286 30.0151C17.5919 30.0151 17.9671 30.3916 17.9671 30.8565V43.4017C17.9671 43.9051 18.3762 44.3156 18.8779 44.3156H29.338V38.4984C29.338 38.0334 29.7132 37.657 30.1766 37.657C30.6399 37.657 31.0151 38.0334 31.0151 38.4984V45.157C31.0174 45.6231 30.641 45.9996 30.1777 45.9996Z" fill="#3D4451"/>
<path d="M41.1489 45.9996H34.0373C33.5739 45.9996 33.1987 45.6231 33.1987 45.1582C33.1987 44.6933 33.5739 44.3168 34.0373 44.3168H41.1489C41.636 44.3168 42.0315 43.9199 42.0315 43.4311V30.8565C42.0315 30.3916 42.4067 30.0151 42.87 30.0151C43.3334 30.0151 43.7086 30.3916 43.7086 30.8565V43.4311C43.7097 44.8475 42.5604 45.9996 41.1489 45.9996Z" fill="#3D4451"/>
<path d="M37.5267 30.5198C37.2261 30.5198 36.9402 30.3429 36.8159 30.0469C35.6677 27.3277 33.0245 25.5711 30.0817 25.5711C27.2768 25.5711 24.7624 27.1405 23.5204 29.667C23.3317 30.0503 22.8695 30.2079 22.4864 30.0186C22.1044 29.8292 21.9473 29.3654 22.1361 28.981C23.6402 25.9215 26.6847 24.021 30.0817 24.021C33.6449 24.021 36.8464 26.1483 38.2376 29.4414C38.4037 29.8349 38.2206 30.2896 37.8285 30.4563C37.7301 30.5005 37.6273 30.5198 37.5267 30.5198Z" fill="#3D4451"/>
<path d="M34.9626 31.7321C34.7094 31.7321 34.4676 31.5858 34.358 31.3386C33.6381 29.7204 31.9724 28.6749 30.1156 28.6749C28.3448 28.6749 26.7604 29.6093 25.9806 31.1152C25.8122 31.4406 25.4133 31.5676 25.089 31.3987C24.7647 31.2297 24.6381 30.8294 24.8065 30.504C25.8145 28.5581 27.8487 27.3481 30.1156 27.3481C32.4945 27.3481 34.6337 28.7021 35.566 30.7988C35.7152 31.1333 35.5649 31.5257 35.2315 31.6754C35.1445 31.7139 35.053 31.7321 34.9626 31.7321Z" fill="#3D4451"/>
<path d="M32.2583 33.2563C31.9611 33.2563 31.6785 33.084 31.5508 32.7937C31.3146 32.255 30.7654 31.9069 30.1507 31.9069C29.5641 31.9069 29.0409 32.2188 28.7844 32.72C28.59 33.101 28.1244 33.2518 27.7458 33.0568C27.3661 32.8617 27.2158 32.3957 27.4102 32.0146C27.9312 30.9929 28.981 30.3579 30.1507 30.3579C31.3779 30.3579 32.482 31.0689 32.9646 32.17C33.1364 32.5612 32.9589 33.0182 32.569 33.1906C32.4673 33.2348 32.3622 33.2563 32.2583 33.2563Z" fill="#3D4451"/>
<path d="M30.1655 38.3986C31.3226 38.3986 32.2607 37.4573 32.2607 36.2962C32.2607 35.1351 31.3226 34.1938 30.1655 34.1938C29.0084 34.1938 28.0703 35.1351 28.0703 36.2962C28.0703 37.4573 29.0084 38.3986 30.1655 38.3986Z" fill="#3D4451"/>
</g>
<defs>
<clipPath id="clip0_347_10">
<rect width="44" height="35" fill="white" transform="translate(8 11)"/>
</clipPath>
</defs>
</svg>
